<?xml version="1.0" standalone="no"?>
<!DOCTYPE svg PUBLIC "-//W3C//DTD SVG 20010904//EN"
 "http://www.w3.org/TR/2001/REC-SVG-20010904/DTD/svg10.dtd">
<svg version="1.0" xmlns="http://www.w3.org/2000/svg"
 width="400.000000pt" height="400.000000pt" viewBox="0 0 400.000000 400.000000"
 preserveAspectRatio="xMidYMid meet">
<metadata>
Created by potrace 1.11, written by Peter Selinger 2001-2013
</metadata>
<g transform="translate(0.000000,400.000000) scale(0.100000,-0.100000)"
fill="#000000" stroke="none">
<path d="M500 3030 l0 -970 620 0 620 0 0 153 0 153 -447 0 -448 0 0 290 0
289 280 2 c154 1 288 2 297 2 15 1 17 17 17 146 l0 145 -297 2 -297 3 0 223
c0 144 3 222 10 223 5 1 206 2 445 2 l435 2 3 153 3 152 -621 0 -620 0 0 -970z"/>
<path d="M1892 3978 c19 -29 488 -782 539 -864 l37 -61 -239 -384 c-243 -389
-288 -462 -346 -553 l-32 -51 177 -3 c97 -1 181 -1 187 2 7 2 107 158 225 345
117 188 215 339 219 336 3 -4 26 -40 51 -80 25 -41 119 -193 210 -339 l165
-265 188 -1 c137 0 186 3 181 11 -4 6 -143 230 -310 496 l-303 485 57 92 c31
50 98 158 149 239 51 82 93 150 93 152 0 2 17 30 38 62 22 32 64 99 94 148 30
50 78 127 106 173 l52 82 -187 -2 -186 -3 -76 -121 c-42 -66 -81 -129 -88
-140 -171 -279 -236 -375 -248 -362 -6 7 -83 128 -170 268 -87 140 -174 279
-193 308 l-34 52 -185 0 -185 0 14 -22z"/>
<path d="M499 1948 c-2 -7 -7 -36 -13 -68 -3 -19 -24 -125 -47 -235 -22 -110
-43 -210 -45 -222 -2 -13 -40 -202 -84 -420 -44 -219 -82 -407 -84 -418 -12
-59 -107 -533 -111 -552 l-5 -23 168 0 c152 0 168 2 169 18 1 9 16 87 33 172
18 85 34 164 36 175 2 11 11 54 19 95 8 41 17 84 19 95 2 11 25 121 50 244 25
123 46 227 46 230 1 3 53 -142 116 -324 63 -181 128 -366 144 -410 15 -44 45
-128 65 -188 l38 -107 88 0 87 0 15 48 c18 56 95 279 107 307 4 11 39 108 76
215 37 107 88 255 114 329 52 147 46 144 67 31 2 -14 18 -88 34 -165 16 -77
32 -153 35 -170 3 -16 31 -156 62 -310 l57 -280 169 -3 168 -2 -6 27 c-12 56
-84 402 -92 441 -2 12 -6 32 -8 45 -3 12 -19 92 -36 177 -18 85 -34 166 -37
180 -2 14 -20 99 -39 189 -19 90 -36 177 -39 193 -3 15 -12 60 -20 98 -8 38
-17 82 -20 97 -2 16 -18 93 -35 173 -17 80 -33 159 -36 175 -3 17 -10 55 -17
85 l-12 55 -99 0 -99 0 -13 -40 c-12 -38 -77 -252 -164 -535 -39 -127 -79
-259 -152 -495 -22 -71 -45 -147 -51 -168 -6 -20 -14 -37 -17 -37 -4 0 -16 33
-27 73 -12 39 -51 169 -88 287 -71 228 -135 436 -165 535 -52 171 -100 324
-110 353 l-12 32 -99 0 c-54 0 -99 -1 -100 -2z"/>
<path d="M2938 1888 c-131 -336 -242 -618 -253 -643 -7 -16 -28 -68 -45 -115
-18 -47 -38 -98 -45 -115 -7 -16 -59 -147 -114 -290 -56 -143 -106 -269 -110
-280 -11 -24 -146 -369 -160 -407 l-11 -28 189 0 188 0 48 143 c26 78 51 147
56 152 9 12 697 14 715 3 5 -4 32 -72 59 -152 l49 -146 188 0 188 0 -21 53
c-11 28 -37 93 -56 142 -135 346 -235 603 -243 620 -8 18 -73 183 -317 805
-35 91 -78 200 -96 243 l-31 77 -77 0 -77 0 -24 -62z m124 -570 c9 -29 66
-199 126 -378 l110 -325 -129 -3 c-71 -1 -187 -1 -258 0 l-129 3 64 190 c36
105 93 274 127 377 34 103 64 188 67 188 3 0 13 -24 22 -52z"/>
</g>
</svg>
