<svg xmlns="http://www.w3.org/2000/svg" width="535.5" height="129.87" viewBox="0 0 535.5 129.87"><defs><style>.cls-1{fill:#fff;}</style></defs><title>Artboard 9</title><g id="Capa_3" data-name="Capa 3"><path class="cls-1" d="M499.15,96.26c0-1.06-.86-1.31-1.74-1.31h-2.1v5H496V97.62h.78l1.49,2.28h.82l-1.48-2.28C498.49,97.59,499.15,97.24,499.15,96.26Zm-2.37.65H496V95.64h1.27c.53,0,1.2.1,1.2.62C498.47,97,497.4,96.91,496.78,96.91Z"/><path class="cls-1" d="M496.94,93a4.42,4.42,0,0,0-4.48,4.44,4.51,4.51,0,1,0,9,0A4.43,4.43,0,0,0,496.94,93Zm0,8.26a3.83,3.83,0,1,1,3.85-3.82A3.85,3.85,0,0,1,496.94,101.28Z"/><path class="cls-1" d="M458.82,93.53a34.91,34.91,0,0,0-15.95-.25,60.75,60.75,0,0,0-18.55,7.07c-.92.53-1.82,1.07-2.7,1.65h47.6c-.15-.36-.31-.71-.49-1C466.86,97.42,463.42,94.85,458.82,93.53Z"/><path class="cls-1" d="M471.05,89.4c-2.27-4.26-6.39-7.35-11.94-8.94s-12.06-1.67-19.2-.31a73.08,73.08,0,0,0-22.32,8.51,77.44,77.44,0,0,0-14.73,10.92V102h16a64.84,64.84,0,0,1,5.94-4.18,61.36,61.36,0,0,1,23.46-8.92c7.56-1,14.06,0,18.31,3a13.06,13.06,0,0,1,5.56,10h.56l.2-2A18.16,18.16,0,0,0,471.05,89.4Z"/><path class="cls-1" d="M404.6,66.55l-1.74,1v6.78c16.5-12.06,34.35-16.25,49.06-17.2C439.53,53.58,421.69,56.73,404.6,66.55Z"/><path class="cls-1" d="M459.21,58.72a19.27,19.27,0,0,1,1.69,1.57s3.92,4.06,5.21,7.89l-1.25-2a20.29,20.29,0,0,0-8.34-7.29c-15.94,1.33-36.18,6.28-53.66,20.71v1.09a88.44,88.44,0,0,1,15-9.67,76,76,0,0,1,17-6.32,49.7,49.7,0,0,1,15.73-1.36c9.19.83,15.78,4.86,19.07,11.65a29.87,29.87,0,0,1,2.75,10.29l-.71-3A18.42,18.42,0,0,0,470.06,78c-2.51-4.71-7.08-8.14-13.21-9.9s-13.34-1.84-21.24-.33a80.56,80.56,0,0,0-24.7,9.42,87.34,87.34,0,0,0-8.05,5.21v16a76.05,76.05,0,0,1,9.44-8.29,82.25,82.25,0,0,1,16.48-9.51c11.7-5,23.14-6.61,31.4-4.33,7.65,2.12,12.2,7.39,13.18,15.24a42,42,0,0,1-.48,10.53h10.58V59.76A112.42,112.42,0,0,0,459.21,58.72Z"/><path class="cls-1" d="M418.53,43.51a66.7,66.7,0,0,0-15.67,4.85v2a84.44,84.44,0,0,1,20.69-7.48C421.92,43,420.25,43.21,418.53,43.51Z"/><path class="cls-1" d="M402.86,21.39v21.5a44.16,44.16,0,0,1,18.7-1.67l-3.84.15a48.08,48.08,0,0,0-14.86,3.15V46.9A53.94,53.94,0,0,1,428.1,42a95.52,95.52,0,0,1,36.26.75,102.88,102.88,0,0,0-30.7,0,21.92,21.92,0,0,1,6,2.37l-1.88-.67a28.9,28.9,0,0,0-6-1.41,86.52,86.52,0,0,0-29,10.28v1.19c14.66-8,30.42-11,41.86-6.89a103.21,103.21,0,0,1,31.78,2.41,114.43,114.43,0,0,0-28.1-.75c.79.44,4.22,2.44,5.67,4.49l-.83-.67a23.16,23.16,0,0,0-6.62-3.64C433.33,51,417.49,55,402.86,64.74v1.1q1.89-1.23,3.83-2.36c10.46-6.12,21.5-9.86,31.09-10.52,7.53-.53,14,.85,19,4a100.77,100.77,0,0,1,26.7,2.82V21.39Z"/><path class="cls-1" d="M402.86,56v4.39A93.78,93.78,0,0,1,440.78,48C430,46.33,416.26,49.1,402.86,56Z"/><path class="cls-1" d="M189.74,39.89h10.14c1.77,3.8,16.35,35.25,16.35,35.25H207l-3.83-8.22H186.36l-3.72,8.23h-9.3Zm10.51,20.59-5.44-12.07-5.5,12.07Z"/><path class="cls-1" d="M309.49,47.77c-5.88,0-8.72,3.09-8.72,3.09l-.49-2.55h-7.91a15.65,15.65,0,0,1,.84,4.31V75.15H301V59.57c0-4.24,2.59-6.41,8.47-6.41,3.23,0,5.2,1.08,5.2,6.41V75.15h7.81V59.57C322.5,51.55,319.91,47.77,309.49,47.77Z"/><path class="cls-1" d="M344.64,47.86c-13.3,0-16.27,6.25-16.27,13.89s2.9,14,16.92,14a57.75,57.75,0,0,0,11-1.18c.21-1.35.66-4.33.81-5.34a88.13,88.13,0,0,1-11.83,1.19c-6.5,0-8.26-2.47-8.78-5.93H359v-2.7C359,52.11,353.89,47.86,344.64,47.86Zm-8.13,11.2c.45-3.34,1.95-5.87,8.13-5.87,4.55,0,6.18,2.92,6.44,5.87Z"/><path class="cls-1" d="M80.51,47.84c-9.78,0-16.29,4.31-16.29,13.95s6.51,13.95,16.29,13.95,16.27-4.25,16.27-13.95S90.28,47.84,80.51,47.84Zm0,22.57C74,70.41,72,67.18,72,61.79s1.93-8.56,8.47-8.56S89,56.47,89,61.79,87,70.41,80.51,70.41Z"/><path class="cls-1" d="M167.48,56.41c0-5.41-5.79-8.64-14.32-8.64-4.39,0-9.8,1.71-11.67,2.35-.18,1.14-.73,4.69-.84,5.43,1.7-.38,8.37-2.39,12.51-2.39s6.5,1.46,6.5,3.57V59s-5.26-.54-7.15-.54c-8.53,0-13.69,3.07-13.69,8.63,0,7,7.77,8.56,11.72,8.56,5.36,0,8.15-1.44,9.45-2.63l.45,2.1h7.84a16.1,16.1,0,0,1-.8-4.8ZM159.66,65c0,5-4.73,5.39-9.12,5.39-1.49,0-3.88-.31-3.88-3.23,0-1.94,2.64-3.23,5.85-3.23h7.15Z"/><path class="cls-1" d="M42.42,38.85c9.16,0,14.88,2.88,18,7.46h0l-8.19,3.15c-1.78-2.48-4.76-4.14-9.73-4.17h-.22c-4.89,0-7.83,1.58-9.62,4h0a13,13,0,0,0-2.43,7.86h0v.51h0a13.26,13.26,0,0,0,2.44,7.78h0c1.78,2.38,4.73,3.93,9.62,4h.21c4.9,0,7.86-1.62,9.64-4h0l8.29,3.16c-3.17,4.5-8.94,7.25-18,7.25h-.05c-8,0-13.47-2.13-16.79-5.78h0a18.23,18.23,0,0,1-4.54-12.51h0v-.33a18.15,18.15,0,0,1,4.54-12.41h0c3.32-3.64,8.73-5.86,16.8-5.86Z"/><path class="cls-1" d="M269.75,70.9v-31h-7.82v31a13.87,13.87,0,0,0,.81,4.25h7.83A14.32,14.32,0,0,1,269.75,70.9Z"/><path class="cls-1" d="M243.61,59.5c0-4.15,3.07-6.34,8.47-6.34.89,0,4.43.47,5.95.65-.09-.69-.63-4-.86-5.4a34.43,34.43,0,0,0-5.09-.64,12.26,12.26,0,0,0-8.6,3l-.66-2.42H235a15.33,15.33,0,0,1,.82,4.25V75.14h7.82Z"/><path class="cls-1" d="M118.94,47.81a15.91,15.91,0,0,0-8.67,2.85s-.41-1.59-.58-2.31h-7.87a17.5,17.5,0,0,1,.83,4.85V83.69h7.82V73.09a14.5,14.5,0,0,0,8.47,2.62c13.1,0,15-6.24,15-13.95S132,47.81,118.94,47.81Zm0,22.58c-6.66,0-8.47-3.78-8.47-8.63.12-5.17,1.81-8.56,8.47-8.56,6,0,7.18,3.77,7.18,8.56S124.94,70.39,118.94,70.39Z"/><path class="cls-1" d="M387.22,49.21v6.08a20.58,20.58,0,0,0-4.79-1.86,20.25,20.25,0,0,0-5-.63,10.21,10.21,0,0,0-4.21.67,2.15,2.15,0,0,0-1.42,2q0,1.91,6.08,3.09l.32.08,2.38.47c3,.61,5.26,1.57,6.67,2.91a7.15,7.15,0,0,1,2.12,5.42,6.82,6.82,0,0,1-3.23,6.18q-3.22,2.06-9.71,2.06a42.6,42.6,0,0,1-5.88-.42A49.1,49.1,0,0,1,364.45,74V67.93a28.15,28.15,0,0,0,5.62,2,23,23,0,0,0,5.52.7,10.71,10.71,0,0,0,4.44-.72,2.24,2.24,0,0,0,1.5-2.07,2.34,2.34,0,0,0-1.06-2,17.68,17.68,0,0,0-5.08-1.52l-2.3-.42c-3.18-.6-5.51-1.55-7-2.83a6.56,6.56,0,0,1-2.19-5.16,6.76,6.76,0,0,1,3.33-6q3.33-2.13,9.35-2.13a40.44,40.44,0,0,1,5.39.36A36.9,36.9,0,0,1,387.22,49.21Z"/><path class="cls-1" d="M285.39,70.9V48.3h-7.82V70.9a12.93,12.93,0,0,0,.85,4.25h7.79A14.59,14.59,0,0,1,285.39,70.9Zm-3.94-24.65a6.19,6.19,0,0,0,3.49-.7,3,3,0,0,0,.93-2.52,2.92,2.92,0,0,0-.9-2.45,6.2,6.2,0,0,0-3.45-.68,6.09,6.09,0,0,0-3.5.71,3,3,0,0,0-.92,2.54,2.89,2.89,0,0,0,.88,2.42A6.21,6.21,0,0,0,281.45,46.25Z"/><path class="cls-1" d="M228,70.9V48.3h-7.82V70.9a12.83,12.83,0,0,0,.86,4.25h7.79A14.49,14.49,0,0,1,228,70.9ZM224,46.25a6.16,6.16,0,0,0,3.48-.7,2.94,2.94,0,0,0,.94-2.52,2.92,2.92,0,0,0-.9-2.45,6.24,6.24,0,0,0-3.46-.68,6.13,6.13,0,0,0-3.5.71,3,3,0,0,0-.92,2.54,2.87,2.87,0,0,0,.89,2.42A6.19,6.19,0,0,0,224,46.25Z"/></g></svg>