<svg xmlns="http://www.w3.org/2000/svg" width="153.86" height="65.18" viewBox="0 0 153.86 65.18"><defs><style>.cls-1{fill:#fff;}</style></defs><title>Artboard 4</title><g id="Capa_3" data-name="Capa 3"><path class="cls-1" d="M33.35,50h2a4.07,4.07,0,0,1,1,.1,2,2,0,0,1,.75.32,1.43,1.43,0,0,1,.47.56,1.78,1.78,0,0,1,.17.83,1.75,1.75,0,0,1-.19.87,1.53,1.53,0,0,1-.53.57,2.32,2.32,0,0,1-.77.32,4.75,4.75,0,0,1-.94.1h-.85v2.58H33.35Zm1.89,2.73a2.82,2.82,0,0,0,.52,0,1.49,1.49,0,0,0,.45-.14.74.74,0,0,0,.3-.28.81.81,0,0,0,.12-.46.79.79,0,0,0-.12-.45.7.7,0,0,0-.3-.26,1.2,1.2,0,0,0-.43-.13,4.07,4.07,0,0,0-.5,0h-.81v1.79Z"/><path class="cls-1" d="M50.47,50h1l2.69,6.25H52.85l-.58-1.43H49.56L49,56.27H47.75Zm1.41,3.87-1-2.55-1,2.55Z"/><path class="cls-1" d="M65,50h1.48l2.9,4.68h0V50h1.11v6.25H69.14l-3-4.83h0v4.83H65Z"/><path class="cls-1" d="M84.19,50h1l2.69,6.25H86.57L86,54.84H83.28l-.57,1.43H81.47Zm1.41,3.87-1-2.55-1,2.55Z"/><path class="cls-1" d="M98.76,50h1.74l1.62,4.44h0L103.76,50h1.75v6.25H104.4v-5h0l-1.9,5h-.78l-1.87-5h0v5H98.76Z"/><path class="cls-1" d="M119.14,50h1l2.69,6.25h-1.27L121,54.84h-2.72l-.56,1.43h-1.25Zm1.42,3.87-1-2.55-1,2.55ZM120,48.25h1.2L120,49.53h-.83Z"/><path class="cls-1" d="M59.77,10.81H52.93L46.22,21.51l-6.71-10.7-6.86,0L42.78,27,32.16,44H39l7.2-11.49L53.4,44h6.89L49.65,27Zm52.48,0h-3L96.36,43.68l-.13.33h6.9l1.74-5.17h11.82L118.47,44h6.86Zm-5.57,22.67,4.09-12.08,4.09,12.08ZM9.78,44H31.17V38.37H16.07V29h10V23.62h-10V16.43h15.1V10.79H9.78Zm75-33.2L78.21,32.06,71.64,10.79H67.89L61.2,44h6.1L70.69,27.2,76.56,44h3.27l5.85-16.78,3.38,16.59,0,.19h6.11L88.44,10.79Z"/><path class="cls-1" d="M125.3,44h10.34V42.17h-6.46l5.27-6.43a5.08,5.08,0,0,0,1.19-3.29A4.46,4.46,0,0,0,134.15,29a5.05,5.05,0,0,0-3.57-1.37A4.84,4.84,0,0,0,127.09,29a5.46,5.46,0,0,0-1.58,3.46h2a3.1,3.1,0,0,1,1-2.07,3,3,0,0,1,2.1-.86,3.09,3.09,0,0,1,2.2.9,2.89,2.89,0,0,1,.94,2.16,5,5,0,0,1-1.42,2.86Z"/><path class="cls-1" d="M140.79,27.62c-3.38,0-5.59,3.67-5.59,8.2S137.41,44,140.79,44s5.58-3.67,5.58-8.19S144.19,27.62,140.79,27.62Zm0,14.65c-2.22,0-3.67-2.9-3.67-6.48s1.45-6.48,3.67-6.48,3.67,2.9,3.67,6.48S143,42.27,140.79,42.27Z"/><path class="cls-1" d="M118.87,27.77H129.6v-1.9h-6.7l5.47-6.67a5.3,5.3,0,0,0,1.23-3.42,4.64,4.64,0,0,0-1.54-3.55,5.27,5.27,0,0,0-3.7-1.43,5,5,0,0,0-3.63,1.35,5.61,5.61,0,0,0-1.64,3.59h2.07a3.25,3.25,0,0,1,1-2.15,3.08,3.08,0,0,1,2.19-.89,3.2,3.2,0,0,1,2.28.94,3,3,0,0,1,1,2.23,5.33,5.33,0,0,1-1.48,3Z"/><path class="cls-1" d="M134.94,10.77c-3.5,0-5.79,3.81-5.79,8.5s2.29,8.51,5.79,8.51,5.8-3.81,5.8-8.51S138.48,10.77,134.94,10.77Zm0,15.2c-2.3,0-3.81-3-3.81-6.73s1.51-6.72,3.81-6.72,3.81,3,3.81,6.72S137.25,26,134.94,26Z"/></g></svg>