<svg xmlns="http://www.w3.org/2000/svg" width="160.19" height="93.51" viewBox="0 0 160.19 93.51"><defs><style>.cls-1{fill:#fff;}</style></defs><title>Artboard 8</title><g id="Capa_3" data-name="Capa 3"><path class="cls-1" d="M116.45,37.28V59.51h-3V33h1.48c.88,0,1.76,0,2.64,0a.53.53,0,0,1,.6.42q4.14,11,8.32,22l.08.1c.06-.13.11-.23.15-.34q1.83-4.73,3.68-9.47c1.6-4.08,3.22-8.17,4.81-12.26a.63.63,0,0,1,.72-.48c1.33,0,2.65,0,4,0V59.52h-3.35v-22l-.12,0a1.21,1.21,0,0,0-.1.14q-3.86,10.06-7.72,20.12c-.21.54-.42,1.07-.61,1.62a.57.57,0,0,1-.64.46c-.71,0-1.43,0-2.14,0a.56.56,0,0,1-.63-.46c-1.81-4.91-3.65-9.8-5.47-14.71Z"/><path class="cls-1" d="M93.86,60.31a12.85,12.85,0,0,1-13-10.94A14.5,14.5,0,0,1,83.07,38a12.41,12.41,0,0,1,9.52-5.36,13.09,13.09,0,0,1,8.26,1.8,12.73,12.73,0,0,1,6.05,9.19,15.25,15.25,0,0,1-1.25,9.59,12.39,12.39,0,0,1-9.5,7C95.4,60.25,94.62,60.26,93.86,60.31Zm0-24.81a8.75,8.75,0,0,0-7.21,3.61,11.75,11.75,0,0,0,1.52,16.12A8.72,8.72,0,0,0,98.55,56a11.71,11.71,0,0,0,3.39-15.48C100.12,37.47,97.57,35.53,93.87,35.5Z"/><path class="cls-1" d="M56.52,31.93a8.6,8.6,0,1,1,8.56-8.53A8.48,8.48,0,0,1,56.52,31.93Z"/><path class="cls-1" d="M22.89,57.39l1.66-2.56c1.29.64,2.49,1.34,3.76,1.83a8.43,8.43,0,0,0,5.39.18,3.44,3.44,0,0,0,2.68-2.92,4,4,0,0,0-1.68-4.23C33.2,48.73,31.58,48,30,47a36,36,0,0,1-3.83-2.5,6.29,6.29,0,0,1-1.15-8.89,7.68,7.68,0,0,1,5.21-2.89,13.52,13.52,0,0,1,9.66,1.89l.26.19-1.51,2.74c-.88-.42-1.7-.87-2.55-1.2A9.2,9.2,0,0,0,30,36a3.56,3.56,0,0,0-2.69,2.66,3.25,3.25,0,0,0,1.57,3.6c1.82,1.21,3.74,2.25,5.6,3.39a33.12,33.12,0,0,1,3.22,2.12,6,6,0,0,1,2.21,4.42,7.05,7.05,0,0,1-1.43,5.2,7.6,7.6,0,0,1-5,2.73,13.46,13.46,0,0,1-6-.3A17.43,17.43,0,0,1,22.89,57.39Z"/><path class="cls-1" d="M77.68,35.11l-1.62,2.48a20.77,20.77,0,0,0-2.51-1.23c-3.49-1.21-6.88-1.13-9.89,1.28A9.87,9.87,0,0,0,60,44.7a13,13,0,0,0,.91,6.57A9.1,9.1,0,0,0,68.35,57a14.74,14.74,0,0,0,7.46-.94l.26-.1.2,0,.93,2.62a16.42,16.42,0,0,1-7.86,1.73A13,13,0,0,1,56.55,49.22a14.94,14.94,0,0,1,.78-8.47,12.62,12.62,0,0,1,10-8,13.17,13.17,0,0,1,10,2.15C77.46,34.93,77.55,35,77.68,35.11Z"/><path class="cls-1" d="M46.66,78.78V33h3.39v45.8Z"/><path class="cls-1" d="M56.91,77.89c-.93-2.5-1.87-5-2.8-7.53l-.13,0v7.27H53v-9.2a9.84,9.84,0,0,1,1.33,0c.15,0,.32.26.39.44.89,2.29,1.76,4.58,2.63,6.88,0,.12.1.24.18.41L59.56,71c.27-.69.55-1.38.8-2.08a.58.58,0,0,1,.7-.46c.33,0,.67,0,1,0v9.21h-1V70.09l-.13,0a2.61,2.61,0,0,0-.17.28c-.85,2.18-1.73,4.35-2.53,6.56A1.29,1.29,0,0,1,56.91,77.89Z"/><path class="cls-1" d="M63.85,77.71c1.14-3.17,2.25-6.24,3.34-9.32a.48.48,0,0,1,.62-.38c.31.06.72-.22.9.28,1.11,3.12,2.23,6.23,3.36,9.4a8.9,8.9,0,0,1-1.06.2c-.1,0-.27-.21-.33-.35-.26-.69-.48-1.4-.76-2.09a.65.65,0,0,0-.46-.33c-1,0-2,0-3,0-.29,0-.44.07-.52.36-.2.68-.47,1.34-.68,2-.11.37-.27.53-.68.37A4.41,4.41,0,0,0,63.85,77.71Zm5.62-3.89L68,69.56l-1.51,4.26Z"/><path class="cls-1" d="M80.43,69.92a5.27,5.27,0,0,0-3.57-.54,3.69,3.69,0,0,0-2.68,3c-.39,3.06,2.07,5.12,5.21,4.42.13,0,.28-.31.29-.48,0-.86,0-1.72,0-2.62H81v3.69c-2.09,1-5.12,1-6.78-.87a4.85,4.85,0,0,1-1-5.32,4.39,4.39,0,0,1,4.31-2.92,10.74,10.74,0,0,1,2.64.34c.78.19.76.28.42,1C80.55,69.69,80.49,69.79,80.43,69.92Z"/><path class="cls-1" d="M89,68.49v1h-4v3h3.41v1.08H84.9v3.26h4v1H83.88V68.49Z"/></g></svg>