<?xml version="1.0" standalone="no"?>
<!DOCTYPE svg PUBLIC "-//W3C//DTD SVG 20010904//EN"
 "http://www.w3.org/TR/2001/REC-SVG-20010904/DTD/svg10.dtd">
<svg version="1.0" xmlns="http://www.w3.org/2000/svg"
 width="160.000000pt" height="130.000000pt" viewBox="0 0 160.000000 130.000000"
 preserveAspectRatio="xMidYMid meet">

<g transform="translate(0.000000,130.000000) scale(0.100000,-0.100000)"
fill="#000000" stroke="none">
<path d="M490 1216 c0 -18 6 -25 23 -28 14 -2 23 -11 25 -25 3 -23 2 -23 -122
-23 l-126 0 0 -24 c0 -18 6 -25 23 -28 l22 -3 0 -495 0 -495 -60 0 -60 0 -3
158 c-1 86 0 157 4 157 3 0 18 -9 33 -19 27 -19 27 -19 40 1 7 11 9 24 4 27
-4 4 -20 17 -35 28 l-28 21 35 23 c40 27 40 28 21 55 -14 19 -15 19 -38 -3
-33 -31 -38 -29 -38 12 0 31 -3 35 -26 35 -24 0 -26 -3 -22 -35 4 -34 -4 -46
-17 -25 -3 5 -15 14 -25 20 -15 8 -21 6 -30 -11 -10 -18 -8 -24 11 -37 13 -10
28 -21 33 -25 7 -5 -1 -18 -22 -36 -30 -25 -32 -32 -22 -50 l11 -22 29 21 c15
11 30 20 32 20 1 0 2 -72 0 -160 l-3 -160 -50 0 c-47 0 -50 -2 -47 -22 l3 -23
745 0 745 0 3 23 c3 20 0 22 -47 22 l-51 0 0 161 c0 167 0 167 42 132 14 -13
18 -12 28 7 10 19 8 25 -21 49 l-33 28 32 23 c34 25 39 39 20 58 -8 8 -18 6
-40 -9 l-28 -20 0 35 c0 32 -3 36 -25 36 -22 0 -25 -4 -25 -35 0 -41 -5 -43
-37 -13 -23 21 -23 21 -38 2 -20 -26 -20 -26 21 -53 39 -27 40 -23 -20 -66
-16 -12 -17 -16 -4 -34 l15 -21 26 20 c14 11 28 20 31 20 4 0 5 -71 4 -158
l-3 -157 -60 0 -60 0 0 495 0 495 23 3 c16 3 22 10 22 28 l0 24 -126 0 c-124
0 -125 0 -122 23 2 14 11 23 26 25 16 3 22 10 22 28 l0 24 -320 0 -320 0 0
-24z m540 -576 l0 -540 -35 0 -34 0 -3 83 -3 82 -145 0 -145 0 -3 -82 -3 -83
-34 0 -35 0 0 540 0 540 220 0 220 0 0 -540z m-495 -50 l0 -495 -72 -3 -73 -3
0 501 0 501 73 -3 72 -3 0 -495z m695 0 l0 -501 -72 3 -73 3 -3 485 c-1 267 0
491 3 498 3 8 28 12 75 12 l70 0 0 -500z m-450 -433 l0 -63 -35 4 -35 4 0 52
c0 61 3 66 42 66 28 0 28 0 28 -63z m128 2 l3 -57 -36 -4 -35 -4 0 64 0 63 33
-3 c32 -3 32 -4 35 -59z"/>
<path d="M637 1133 c-4 -3 -7 -21 -7 -40 0 -30 3 -33 30 -33 28 0 30 2 30 40
0 35 -3 40 -23 40 -13 0 -27 -3 -30 -7z"/>
<path d="M737 1133 c-4 -3 -7 -21 -7 -40 0 -30 3 -33 30 -33 28 0 30 2 30 40
0 35 -3 40 -23 40 -13 0 -27 -3 -30 -7z"/>
<path d="M830 1100 c0 -38 2 -40 30 -40 28 0 30 2 30 40 0 38 -2 40 -30 40
-28 0 -30 -2 -30 -40z"/>
<path d="M930 1100 c0 -38 2 -40 30 -40 28 0 30 2 30 40 0 38 -2 40 -30 40
-28 0 -30 -2 -30 -40z"/>
<path d="M632 973 c3 -33 6 -38 28 -38 22 0 25 5 28 38 3 35 2 37 -28 37 -30
0 -31 -2 -28 -37z"/>
<path d="M732 973 c3 -33 6 -38 28 -38 22 0 25 5 28 38 3 35 2 37 -28 37 -30
0 -31 -2 -28 -37z"/>
<path d="M832 973 c3 -33 6 -38 28 -38 22 0 25 5 28 38 3 35 2 37 -28 37 -30
0 -31 -2 -28 -37z"/>
<path d="M932 973 c3 -33 6 -38 28 -38 22 0 25 5 28 38 3 35 2 37 -28 37 -30
0 -31 -2 -28 -37z"/>
<path d="M632 853 c3 -33 7 -38 31 -41 26 -3 27 -1 27 37 0 39 -1 41 -31 41
-29 0 -30 -2 -27 -37z"/>
<path d="M730 850 c0 -38 2 -40 30 -40 28 0 30 2 30 40 0 38 -2 40 -30 40 -28
0 -30 -2 -30 -40z"/>
<path d="M830 850 c0 -38 2 -40 30 -40 28 0 30 2 30 40 0 38 -2 40 -30 40 -28
0 -30 -2 -30 -40z"/>
<path d="M930 850 c0 -38 2 -40 30 -40 28 0 30 2 30 40 0 38 -2 40 -30 40 -28
0 -30 -2 -30 -40z"/>
<path d="M637 764 c-4 -4 -7 -22 -7 -41 0 -30 3 -33 31 -33 29 0 30 2 27 38
-2 28 -8 38 -23 40 -12 2 -24 0 -28 -4z"/>
<path d="M737 764 c-4 -4 -7 -22 -7 -41 0 -30 3 -33 31 -33 29 0 30 2 27 38
-2 28 -8 38 -23 40 -12 2 -24 0 -28 -4z"/>
<path d="M837 764 c-4 -4 -7 -22 -7 -41 0 -30 3 -33 31 -33 29 0 30 2 27 38
-2 28 -8 38 -23 40 -12 2 -24 0 -28 -4z"/>
<path d="M937 764 c-4 -4 -7 -22 -7 -41 0 -30 3 -33 31 -33 29 0 30 2 27 38
-2 28 -8 38 -23 40 -12 2 -24 0 -28 -4z"/>
<path d="M632 603 c3 -33 6 -38 28 -38 22 0 25 5 28 38 3 35 2 37 -28 37 -30
0 -31 -2 -28 -37z"/>
<path d="M732 603 c3 -33 6 -38 28 -38 22 0 25 5 28 38 3 35 2 37 -28 37 -30
0 -31 -2 -28 -37z"/>
<path d="M832 603 c3 -33 6 -38 28 -38 22 0 25 5 28 38 3 35 2 37 -28 37 -30
0 -31 -2 -28 -37z"/>
<path d="M932 603 c3 -33 6 -38 28 -38 22 0 25 5 28 38 3 35 2 37 -28 37 -30
0 -31 -2 -28 -37z"/>
<path d="M637 513 c-4 -3 -7 -21 -7 -40 0 -30 3 -33 30 -33 28 0 30 2 30 40 0
35 -3 40 -23 40 -13 0 -27 -3 -30 -7z"/>
<path d="M737 513 c-4 -3 -7 -21 -7 -40 0 -30 3 -33 30 -33 28 0 30 2 30 40 0
35 -3 40 -23 40 -13 0 -27 -3 -30 -7z"/>
<path d="M837 513 c-4 -3 -7 -21 -7 -40 0 -30 3 -33 30 -33 28 0 30 2 30 40 0
35 -3 40 -23 40 -13 0 -27 -3 -30 -7z"/>
<path d="M930 481 c0 -39 1 -41 31 -41 29 0 30 2 27 38 -3 32 -7 37 -30 40
-27 3 -28 1 -28 -37z"/>
<path d="M632 353 c3 -33 6 -38 28 -38 22 0 25 5 28 38 3 35 2 37 -28 37 -30
0 -31 -2 -28 -37z"/>
<path d="M732 353 c3 -33 6 -38 28 -38 22 0 25 5 28 38 3 35 2 37 -28 37 -30
0 -31 -2 -28 -37z"/>
<path d="M832 353 c3 -33 6 -38 28 -38 22 0 25 5 28 38 3 35 2 37 -28 37 -30
0 -31 -2 -28 -37z"/>
<path d="M932 353 c3 -33 6 -38 28 -38 22 0 25 5 28 38 3 35 2 37 -28 37 -30
0 -31 -2 -28 -37z"/>
<path d="M440 975 c0 -31 3 -35 25 -35 22 0 25 4 25 35 0 31 -3 35 -25 35 -22
0 -25 -4 -25 -35z"/>
<path d="M440 850 c0 -36 3 -40 25 -40 23 0 25 4 25 40 0 36 -2 40 -25 40 -22
0 -25 -4 -25 -40z"/>
<path d="M440 725 c0 -31 3 -35 25 -35 22 0 25 4 25 35 0 31 -3 35 -25 35 -22
0 -25 -4 -25 -35z"/>
<path d="M440 599 c0 -36 2 -40 23 -37 18 2 23 10 25 41 3 34 1 37 -22 37 -24
0 -26 -4 -26 -41z"/>
<path d="M440 481 c0 -37 2 -41 26 -41 23 0 25 3 22 38 -2 30 -7 38 -25 40
-21 3 -23 -1 -23 -37z"/>
<path d="M440 355 c0 -31 3 -35 25 -35 22 0 25 4 25 35 0 31 -3 35 -25 35 -22
0 -25 -4 -25 -35z"/>
<path d="M440 230 c0 -36 3 -40 25 -40 23 0 25 4 25 40 0 36 -2 40 -25 40 -22
0 -25 -4 -25 -40z"/>
<path d="M1130 975 c0 -31 3 -35 25 -35 22 0 25 4 25 35 0 31 -3 35 -25 35
-22 0 -25 -4 -25 -35z"/>
<path d="M1132 853 c2 -31 7 -39 26 -41 20 -3 22 1 22 37 0 37 -2 41 -26 41
-23 0 -25 -3 -22 -37z"/>
<path d="M1130 725 c0 -31 3 -35 25 -35 22 0 25 4 25 35 0 31 -3 35 -25 35
-22 0 -25 -4 -25 -35z"/>
<path d="M1132 603 c2 -31 7 -39 26 -41 20 -3 22 1 22 37 0 37 -2 41 -26 41
-23 0 -25 -3 -22 -37z"/>
<path d="M1137 513 c-4 -3 -7 -21 -7 -40 0 -29 3 -33 25 -33 23 0 25 4 25 40
0 32 -4 40 -18 40 -10 0 -22 -3 -25 -7z"/>
<path d="M1130 355 c0 -31 3 -35 25 -35 22 0 25 4 25 35 0 31 -3 35 -25 35
-22 0 -25 -4 -25 -35z"/>
<path d="M1130 230 c0 -36 3 -40 25 -40 23 0 25 4 25 40 0 36 -2 40 -25 40
-22 0 -25 -4 -25 -40z"/>
</g>
</svg>
