<?xml version="1.0" encoding="iso-8859-1"?>
<svg xmlns="http://www.w3.org/2000/svg" xmlns:xlink="http://www.w3.org/1999/xlink" version="1.1" viewBox="0 0 295.82 295.82" enable-background="new 0 0 295.82 295.82" width="512px" height="512px">
  <g>
    <g>
      <path d="m147.91,0c-81.786,0-147.91,66.124-147.91,147.91s66.124,147.91 147.91,147.91 147.91-66.124 147.91-147.91-66.124-147.91-147.91-147.91zm8.701,277.967v-25.649c0-5.22-3.48-8.701-8.701-8.701-5.22,0-8.701,3.48-8.701,8.701v25.649c-64.488-4.402-116.97-56.867-121.355-121.356h25.649c5.22,0 8.701-3.48 8.701-8.701 0-5.22-3.48-8.701-8.701-8.701h-25.649c4.402-64.488 56.867-116.97 121.356-121.355v25.649c0,5.22 3.48,8.701 8.701,8.701 5.22,0 8.701-3.48 8.701-8.701v-25.649c64.488,4.402 116.97,56.867 121.355,121.356h-25.649c-5.22,0-8.701,3.48-8.701,8.701 0,5.22 3.48,8.701 8.701,8.701h25.649c-4.385,64.488-56.867,116.97-121.356,121.355z" fill="#a6ce39"/>
      <path d="m182.713,139.21h-24.362c0,0-1.74,0-1.74-1.74v-59.165c0-5.22-3.48-8.701-8.701-8.701-5.22,0-8.701,3.48-8.701,8.701v59.164c0,10.441 8.701,19.141 19.141,19.141h24.362c5.22,0 8.701-3.48 8.701-8.701 2.84217e-14-5.219-3.48-8.699-8.7-8.699z" fill="#a6ce39"/>
    </g>
  </g>
</svg>
