<?xml version="1.0" standalone="no"?>
<!DOCTYPE svg PUBLIC "-//W3C//DTD SVG 20010904//EN"
 "http://www.w3.org/TR/2001/REC-SVG-20010904/DTD/svg10.dtd">
<svg version="1.0" xmlns="http://www.w3.org/2000/svg"
 width="140.000000pt" height="140.000000pt" viewBox="0 0 140.000000 140.000000"
 preserveAspectRatio="xMidYMid meet">

<g transform="translate(0.000000,140.000000) scale(0.100000,-0.100000)"
fill="#000000" stroke="none">
<path d="M493 1291 c-48 -12 -119 -57 -144 -92 -31 -45 -49 -113 -49 -192 0
-54 -4 -74 -20 -94 -11 -14 -20 -32 -20 -39 0 -22 38 -54 63 -54 52 0 76 70
37 105 -15 14 -20 29 -18 54 l3 36 178 3 c163 2 178 4 175 20 -3 15 -22 17
-182 20 l-178 2 7 28 c49 195 293 226 376 47 27 -59 27 -187 -1 -215 -25 -25
-26 -62 -2 -83 58 -53 137 28 82 83 -13 13 -20 33 -20 60 l0 40 80 0 80 0 0
-121 c0 -109 2 -120 18 -117 15 3 17 18 17 138 l0 135 -96 3 -97 3 -7 36 c-24
131 -159 224 -282 194z m-155 -414 c2 -10 -3 -17 -12 -17 -18 0 -29 16 -21 31
9 14 29 6 33 -14z m438 12 c10 -17 -13 -36 -27 -22 -12 12 -4 33 11 33 5 0 12
-5 16 -11z"/>
<path d="M112 1048 c-9 -9 -12 -111 -12 -430 0 -470 1 -477 65 -504 52 -22
228 -16 233 8 3 14 -11 17 -107 20 -139 4 -142 6 -144 116 l-2 81 115 3 c99 3
115 5 118 20 3 15 -9 18 -113 20 l-116 3 0 315 0 315 56 3 c47 3 56 6 53 20
-3 14 -16 18 -68 20 -42 2 -70 -2 -78 -10z"/>
<path d="M427 733 c-4 -3 -7 -128 -7 -277 0 -299 2 -309 60 -338 31 -16 71
-18 378 -18 387 0 401 2 428 65 12 29 14 85 12 303 l-3 267 -395 0 c-344 0
-395 -2 -395 -15 0 -13 49 -15 373 -18 l372 -2 0 -263 c0 -191 -3 -266 -12
-275 -9 -9 -107 -12 -379 -12 l-368 0 -15 22 c-14 19 -16 65 -16 295 0 221 -3
273 -13 273 -8 0 -17 -3 -20 -7z"/>
<path d="M637 602 c-23 -25 -21 -65 3 -87 14 -12 20 -31 20 -58 0 -52 33 -121
74 -152 41 -31 112 -50 157 -41 89 16 169 110 169 198 0 25 7 45 20 58 24 24
25 48 4 78 -31 44 -104 17 -104 -38 0 -13 9 -34 21 -46 32 -34 18 -105 -31
-158 -34 -36 -42 -40 -98 -44 -50 -4 -67 0 -96 17 -64 40 -97 149 -56 186 41
37 14 105 -42 105 -14 0 -32 -8 -41 -18z m59 -33 c10 -17 -13 -36 -27 -22 -12
12 -4 33 11 33 5 0 12 -5 16 -11z m358 3 c2 -4 1 -14 -4 -22 -7 -11 -12 -12
-21 -3 -6 6 -8 16 -5 22 8 13 23 14 30 3z"/>
</g>
</svg>
