<?xml version="1.0" standalone="no"?>
<!DOCTYPE svg PUBLIC "-//W3C//DTD SVG 20010904//EN"
 "http://www.w3.org/TR/2001/REC-SVG-20010904/DTD/svg10.dtd">
<svg version="1.0" xmlns="http://www.w3.org/2000/svg"
 width="125.000000pt" height="125.000000pt" viewBox="0 0 125.000000 125.000000"
 preserveAspectRatio="xMidYMid meet">

<g transform="translate(0.000000,125.000000) scale(0.100000,-0.100000)"
fill="#000000" stroke="none">
<path d="M187 1203 c-4 -3 -7 -23 -7 -44 l0 -38 -62 -3 -63 -3 -3 -509 c-2
-401 0 -511 10 -518 7 -4 180 -8 384 -8 l370 0 64 -25 c78 -30 87 -31 162 -3
79 28 138 87 166 166 27 73 27 83 1 152 -25 66 -59 113 -99 137 l-30 17 0 298
0 297 -57 3 -58 3 -1 33 c-1 18 -5 37 -11 43 -5 5 -43 9 -84 7 l-74 -3 -5 -40
-5 -40 -215 0 -215 0 3 28 c6 46 -12 57 -93 57 -39 0 -75 -3 -78 -7z m123 -93
c0 -27 1 -53 3 -57 1 -5 -19 -9 -45 -11 l-48 -3 0 60 0 61 45 0 45 0 0 -50z
m610 -10 l0 -60 -45 0 -45 0 0 60 0 60 45 0 45 0 0 -60z m-738 -57 l3 -38 73
-3 c83 -3 102 6 102 49 l0 29 214 0 215 0 3 -37 3 -38 73 -3 c83 -3 102 6 102
49 0 26 3 29 35 29 l35 0 0 -75 0 -75 -470 0 -470 0 0 75 0 75 39 0 c39 0 40
-1 43 -37z m858 -334 c0 -152 -2 -170 -16 -165 -9 3 -29 6 -45 6 l-28 0 -3
118 -3 117 -372 3 -373 2 0 -285 0 -285 258 0 257 0 27 -50 28 -50 -335 0
-335 0 0 380 0 380 470 0 470 0 0 -171z m-670 -29 l0 -70 -65 0 -65 0 0 70 0
70 65 0 65 0 0 -70z m180 0 l0 -70 -65 0 -65 0 0 70 0 70 65 0 65 0 0 -70z
m172 0 l0 -65 -66 -3 -66 -3 0 64 c0 35 3 67 7 71 4 4 34 6 66 4 l59 -3 0 -65z
m178 0 l0 -70 -65 0 -65 0 0 70 0 70 65 0 65 0 0 -70z m-530 -177 l0 -68 -65
3 -65 4 0 64 0 64 65 0 65 0 0 -67z m180 2 l0 -65 -65 0 -65 0 0 65 0 65 65 0
65 0 0 -65z m174 -3 l1 -62 -67 0 -68 0 0 65 0 66 66 -3 66 -3 2 -63z m176 55
c0 -7 -16 -19 -35 -26 -19 -7 -49 -24 -65 -38 l-30 -25 0 51 0 51 65 0 c47 0
65 -4 65 -13z m176 -82 c135 -79 133 -282 -4 -362 -37 -22 -59 -28 -107 -28
-114 0 -200 80 -212 197 -4 45 -1 61 24 107 15 30 40 62 54 73 71 53 167 58
245 13z m-706 -150 l0 -65 -65 0 -65 0 0 65 0 65 65 0 65 0 0 -65z m180 0 l0
-65 -65 0 -65 0 0 65 0 65 65 0 65 0 0 -65z m166 43 c-3 -13 -6 -42 -6 -65 l0
-43 -60 0 -60 0 0 65 0 65 66 0 c64 0 66 -1 60 -22z"/>
<path d="M1015 335 l-58 -85 -44 37 c-40 32 -46 34 -60 21 -13 -13 -8 -20 39
-62 29 -25 60 -46 68 -46 9 0 46 43 83 97 51 74 64 100 56 110 -7 7 -15 13
-19 13 -4 0 -33 -38 -65 -85z"/>
</g>
</svg>
