<?xml version="1.0" standalone="no"?>
<!DOCTYPE svg PUBLIC "-//W3C//DTD SVG 1.1//EN" "http://www.w3.org/Graphics/SVG/1.1/DTD/svg11.dtd" >
<svg xmlns="http://www.w3.org/2000/svg" xmlns:xlink="http://www.w3.org/1999/xlink" version="1.1">
<metadata>
Created by FontForge 20170812 at Mon Oct  8 18:21:55 2018
 By www-data
Copyright \(c\) 2018 by Adam Ladd. All rights reserved.
</metadata>
<defs>
<font id="ConfigRounded-Bold" horiz-adv-x="818" >
  <font-face 
    font-family="Config Rounded"
    font-weight="700"
    font-stretch="normal"
    units-per-em="1000"
    panose-1="0 0 8 0 0 0 0 0 0 0"
    ascent="770"
    descent="-230"
    x-height="500"
    cap-height="670"
    bbox="-599 -234 1193 939"
    underline-thickness="92"
    underline-position="-120"
    stemh="129"
    stemv="140"
    unicode-range="U+0020-FB02"
  />
<missing-glyph horiz-adv-x="500" 
d="M410 770v-1000h-317v1000h317zM333 703h-165v-33h65v-37h-66v-33h166v33h-66v37h66v33zM267 574h-100v-104h166v34h-66v70zM233 540v-36h-33v36h33zM333 443h-166v-33h66v-37h-66v-33h100v70h66v33zM333 383h-33v-66h-133v-34h166v100zM333 261h-100v-56h34v23h33v-47
h-100v80h-33v-113h166v113zM333 88h-166v-113h166v113zM300 55v-47h-100v47h100zM333 -48h-166v-33h70l-70 -47v-33h166v33h-102l70 47h32v33z" />
    <glyph glyph-name="fi" unicode="fi" horiz-adv-x="648" 
d="M517 564c-52 0 -84 33 -84 80c0 49 33 81 84 81c50 0 83 -32 83 -80c0 -49 -33 -81 -83 -81zM555 500c20 0 31 -11 31 -31v-438c0 -20 -11 -31 -31 -31h-78c-20 0 -31 11 -31 31v344h-186v-344c0 -20 -11 -31 -31 -31h-78c-20 0 -31 11 -31 31v344h-52
c-20 0 -31 11 -31 31v63c0 20 11 31 31 31h52v58c0 86 60 142 152 142h54c20 0 31 -11 31 -31v-54c0 -20 -11 -31 -31 -31h-16c-31 0 -50 -19 -50 -50v-34h295z" />
    <glyph glyph-name="fl" unicode="fl" horiz-adv-x="715" 
d="M333 700c20 0 31 -11 31 -31v-54c0 -20 -11 -31 -31 -31h-23c-31 0 -50 -19 -50 -50v-34h73c20 0 31 -11 31 -31v-63c0 -20 -11 -31 -31 -31h-73v-344c0 -20 -11 -31 -31 -31h-78c-20 0 -31 11 -31 31v344h-52c-20 0 -31 11 -31 31v63c0 20 11 31 31 31h52v58
c0 86 60 142 152 142h61zM663 129c12 0 19 -8 19 -20v-78c0 -20 -11 -31 -31 -31h-37c-90 0 -150 56 -150 140v529c0 20 11 31 31 31h78c20 0 31 -11 31 -31v-492c0 -30 18 -48 48 -48h11z" />
    <glyph glyph-name="f_f.liga" unicode="ff" horiz-adv-x="734" 
d="M650 584c-32 0 -51 -19 -51 -50v-34h74c20 0 31 -11 31 -31v-63c0 -20 -11 -31 -31 -31h-74v-344c0 -20 -11 -31 -31 -31h-78c-20 0 -31 11 -31 31v344h-199v-344c0 -20 -11 -31 -31 -31h-78c-20 0 -31 11 -31 31v344h-52c-20 0 -31 11 -31 31v63c0 20 11 31 31 31h52v58
c0 86 60 142 152 142h61c20 0 31 -11 31 -31v-54c0 -20 -11 -31 -31 -31h-23c-31 0 -50 -19 -50 -50v-34h199v58c0 86 61 142 153 142h61c20 0 31 -11 31 -31v-54c0 -20 -11 -31 -31 -31h-23z" />
    <glyph glyph-name="f_f_i.liga" unicode="ffi" horiz-adv-x="988" 
d="M856 564c-51 0 -84 33 -84 80c0 49 33 81 84 81s84 -32 84 -80c0 -49 -33 -81 -84 -81zM895 500c20 0 31 -11 31 -31v-438c0 -20 -11 -31 -31 -31h-78c-20 0 -31 11 -31 31v344h-187v-344c0 -20 -11 -31 -31 -31h-78c-20 0 -31 11 -31 31v344h-199v-344
c0 -20 -11 -31 -31 -31h-78c-20 0 -31 11 -31 31v344h-52c-20 0 -31 11 -31 31v63c0 20 11 31 31 31h52v58c0 86 60 142 152 142h61c20 0 31 -11 31 -31v-54c0 -20 -11 -31 -31 -31h-23c-31 0 -50 -19 -50 -50v-34h199v58c0 86 61 142 153 142h53c20 0 31 -11 31 -31v-54
c0 -20 -11 -31 -31 -31h-15c-32 0 -51 -19 -51 -50v-34h296z" />
    <glyph glyph-name="f_f_l.liga" unicode="ffl" horiz-adv-x="1054" 
d="M673 700c20 0 31 -11 31 -31v-54c0 -20 -11 -31 -31 -31h-23c-32 0 -51 -19 -51 -50v-34h74c20 0 31 -11 31 -31v-63c0 -20 -11 -31 -31 -31h-74v-344c0 -20 -11 -31 -31 -31h-78c-20 0 -31 11 -31 31v344h-199v-344c0 -20 -11 -31 -31 -31h-78c-20 0 -31 11 -31 31v344
h-52c-20 0 -31 11 -31 31v63c0 20 11 31 31 31h52v58c0 86 60 142 152 142h61c20 0 31 -11 31 -31v-54c0 -20 -11 -31 -31 -31h-23c-31 0 -50 -19 -50 -50v-34h199v58c0 86 61 142 153 142h61zM1002 129c12 0 20 -8 20 -20v-78c0 -20 -11 -31 -31 -31h-37
c-91 0 -150 56 -150 140v529c0 20 11 31 31 31h78c20 0 31 -11 31 -31v-492c0 -30 18 -48 48 -48h10z" />
    <glyph glyph-name=".notdef" horiz-adv-x="500" 
d="M410 770v-1000h-317v1000h317zM333 703h-165v-33h65v-37h-66v-33h166v33h-66v37h66v33zM267 574h-100v-104h166v34h-66v70zM233 540v-36h-33v36h33zM333 443h-166v-33h66v-37h-66v-33h100v70h66v33zM333 383h-33v-66h-133v-34h166v100zM333 261h-100v-56h34v23h33v-47
h-100v80h-33v-113h166v113zM333 88h-166v-113h166v113zM300 55v-47h-100v47h100zM333 -48h-166v-33h70l-70 -47v-33h166v33h-102l70 47h32v33z" />
    <glyph glyph-name="A" unicode="A" horiz-adv-x="649" 
d="M615 39c7 -25 -3 -39 -29 -39h-96c-18 0 -29 10 -33 28l-26 99h-218l-26 -99c-4 -18 -15 -28 -33 -28h-91c-25 0 -35 14 -29 39l179 601c5 21 17 30 38 30h147c21 0 33 -9 39 -30zM248 259h148l-70 263h-9z" />
    <glyph glyph-name="Aacute" unicode="&#xc1;" horiz-adv-x="649" 
d="M295 721c-24 0 -33 16 -22 36l51 94c8 16 20 23 37 23h86c27 0 36 -18 17 -38l-85 -98c-10 -12 -22 -17 -37 -17h-47zM615 39c7 -25 -3 -39 -29 -39h-96c-18 0 -29 10 -33 28l-26 99h-218l-26 -99c-4 -18 -15 -28 -33 -28h-91c-25 0 -35 14 -29 39l179 601
c5 21 17 30 38 30h147c21 0 33 -9 39 -30zM248 259h148l-70 263h-9z" />
    <glyph glyph-name="Abreve" unicode="&#x102;" horiz-adv-x="649" 
d="M325 713c-89 0 -149 47 -160 127c-3 21 10 33 30 33h54c15 0 21 -8 24 -20c5 -27 23 -40 52 -40s47 15 50 40c3 12 10 20 24 20h54c20 0 33 -13 30 -34c-12 -81 -71 -126 -158 -126zM615 39c7 -25 -3 -39 -29 -39h-96c-18 0 -29 10 -33 28l-26 99h-218l-26 -99
c-4 -18 -15 -28 -33 -28h-91c-25 0 -35 14 -29 39l179 601c5 21 17 30 38 30h147c21 0 33 -9 39 -30zM248 259h148l-70 263h-9z" />
    <glyph glyph-name="uni01CD" unicode="&#x1cd;" horiz-adv-x="649" 
d="M238 740l-73 96c-14 20 -6 38 20 38h50c16 0 28 -5 38 -18l48 -52h7l48 52c11 13 22 18 38 18h50c26 0 34 -18 20 -38l-72 -96c-9 -13 -22 -19 -38 -19h-99c-16 0 -28 6 -37 19zM615 39c7 -25 -3 -39 -29 -39h-96c-18 0 -29 10 -33 28l-26 99h-218l-26 -99
c-4 -18 -15 -28 -33 -28h-91c-25 0 -35 14 -29 39l179 601c5 21 17 30 38 30h147c21 0 33 -9 39 -30zM248 259h148l-70 263h-9z" />
    <glyph glyph-name="Acircumflex" unicode="&#xc2;" horiz-adv-x="649" 
d="M185 721c-26 0 -34 17 -20 38l72 96c9 13 22 19 38 19h99c16 0 28 -6 37 -19l73 -96c14 -21 6 -38 -20 -38h-50c-16 0 -27 5 -38 18l-48 52h-7l-48 -52c-10 -13 -22 -18 -38 -18h-50zM615 39c7 -25 -3 -39 -29 -39h-96c-18 0 -29 10 -33 28l-26 99h-218l-26 -99
c-4 -18 -15 -28 -33 -28h-91c-25 0 -35 14 -29 39l179 601c5 21 17 30 38 30h147c21 0 33 -9 39 -30zM248 259h148l-70 263h-9z" />
    <glyph glyph-name="uni0200" unicode="&#x200;" horiz-adv-x="649" 
d="M175 743l-56 94c-12 20 -2 37 22 37h69c18 0 29 -8 36 -25l39 -92c8 -21 -3 -36 -26 -36h-47c-17 0 -28 6 -37 22zM374 743l-56 94c-11 20 -2 37 22 37h69c18 0 30 -8 36 -25l38 -92c7 -21 -2 -36 -25 -36h-47c-17 0 -29 6 -37 22zM615 39c7 -25 -3 -39 -29 -39h-96
c-18 0 -29 10 -33 28l-26 99h-218l-26 -99c-4 -18 -15 -28 -33 -28h-91c-25 0 -35 14 -29 39l179 601c5 21 17 30 38 30h147c21 0 33 -9 39 -30zM248 259h148l-70 263h-9z" />
    <glyph glyph-name="Adieresis" unicode="&#xc4;" horiz-adv-x="649" 
d="M222 724c-46 0 -77 31 -77 77c0 45 31 75 77 75c45 0 75 -30 75 -75c0 -46 -30 -77 -75 -77zM429 724c-46 0 -77 31 -77 77c0 45 31 75 77 75c45 0 75 -30 75 -75c0 -46 -30 -77 -75 -77zM615 39c7 -25 -3 -39 -29 -39h-96c-18 0 -29 10 -33 28l-26 99h-218l-26 -99
c-4 -18 -15 -28 -33 -28h-91c-25 0 -35 14 -29 39l179 601c5 21 17 30 38 30h147c21 0 33 -9 39 -30zM248 259h148l-70 263h-9z" />
    <glyph glyph-name="uni1EA0" unicode="&#x1ea0;" horiz-adv-x="649" 
d="M615 39c7 -25 -3 -39 -29 -39h-96c-18 0 -29 10 -33 28l-26 99h-218l-26 -99c-4 -18 -15 -28 -33 -28h-91c-25 0 -35 14 -29 39l179 601c5 21 17 30 38 30h147c21 0 33 -9 39 -30zM248 259h148l-70 263h-9zM325 -54c48 0 79 -32 79 -80s-31 -80 -79 -80s-80 32 -80 80
s32 80 80 80z" />
    <glyph glyph-name="Agrave" unicode="&#xc0;" horiz-adv-x="649" 
d="M269 738l-85 98c-18 20 -9 38 18 38h86c17 0 29 -7 36 -23l52 -94c11 -20 1 -36 -23 -36h-46c-15 0 -27 5 -38 17zM615 39c7 -25 -3 -39 -29 -39h-96c-18 0 -29 10 -33 28l-26 99h-218l-26 -99c-4 -18 -15 -28 -33 -28h-91c-25 0 -35 14 -29 39l179 601c5 21 17 30 38 30
h147c21 0 33 -9 39 -30zM248 259h148l-70 263h-9z" />
    <glyph glyph-name="uni0202" unicode="&#x202;" horiz-adv-x="649" 
d="M195 721c-20 0 -33 12 -30 33c12 80 71 126 160 126c87 0 146 -45 158 -125c3 -22 -10 -34 -30 -34h-54c-14 0 -21 8 -24 19c-3 26 -21 40 -50 40s-48 -13 -52 -40c-3 -11 -9 -19 -24 -19h-54zM615 39c7 -25 -3 -39 -29 -39h-96c-18 0 -29 10 -33 28l-26 99h-218l-26 -99
c-4 -18 -15 -28 -33 -28h-91c-25 0 -35 14 -29 39l179 601c5 21 17 30 38 30h147c21 0 33 -9 39 -30zM248 259h148l-70 263h-9z" />
    <glyph glyph-name="Amacron" unicode="&#x100;" horiz-adv-x="649" 
d="M206 739c-20 0 -31 11 -31 31v47c0 20 11 31 31 31h237c20 0 31 -11 31 -31v-47c0 -20 -11 -31 -31 -31h-237zM615 39c7 -25 -3 -39 -29 -39h-96c-18 0 -29 10 -33 28l-26 99h-218l-26 -99c-4 -18 -15 -28 -33 -28h-91c-25 0 -35 14 -29 39l179 601c5 21 17 30 38 30h147
c21 0 33 -9 39 -30zM248 259h148l-70 263h-9z" />
    <glyph glyph-name="Aogonek" unicode="&#x104;" horiz-adv-x="649" 
d="M583 -2c-34 -15 -55 -45 -55 -76c0 -24 16 -40 40 -40c6 0 12 1 17 2c14 4 21 -1 21 -19v-46c0 -13 -4 -22 -15 -26c-15 -6 -39 -9 -65 -9c-75 0 -125 42 -125 105c0 49 29 93 74 112v2c-9 4 -15 13 -18 25l-26 99h-218l-26 -99c-4 -18 -15 -28 -33 -28h-91
c-25 0 -35 14 -29 39l179 601c5 21 17 30 38 30h147c21 0 33 -9 39 -30l178 -601c7 -24 -3 -38 -27 -39zM248 259h148l-70 263h-9z" />
    <glyph glyph-name="Aring" unicode="&#xc5;" horiz-adv-x="649" 
d="M325 713c-72 0 -119 46 -119 113s47 113 119 113c70 0 117 -46 117 -113s-47 -113 -117 -113zM325 872c-27 0 -46 -19 -46 -46c0 -26 18 -46 46 -46c26 0 44 19 44 46s-18 46 -44 46zM615 39c7 -25 -3 -39 -29 -39h-96c-18 0 -29 10 -33 28l-26 99h-218l-26 -99
c-4 -18 -15 -28 -33 -28h-91c-25 0 -35 14 -29 39l179 601c5 21 17 30 38 30h147c21 0 33 -9 39 -30zM248 259h148l-70 263h-9z" />
    <glyph glyph-name="Atilde" unicode="&#xc3;" horiz-adv-x="649" 
d="M157 728c-15 0 -24 8 -23 24c5 87 40 132 109 132c60 0 92 -46 130 -46c18 0 31 9 36 25c4 12 9 18 29 18h53c15 0 25 -12 23 -33c-7 -81 -42 -123 -108 -123c-60 0 -96 46 -133 46c-17 0 -29 -10 -34 -25c-4 -12 -9 -18 -29 -18h-53zM615 39c7 -25 -3 -39 -29 -39h-96
c-18 0 -29 10 -33 28l-26 99h-218l-26 -99c-4 -18 -15 -28 -33 -28h-91c-25 0 -35 14 -29 39l179 601c5 21 17 30 38 30h147c21 0 33 -9 39 -30zM248 259h148l-70 263h-9z" />
    <glyph glyph-name="AE" unicode="&#xc6;" horiz-adv-x="891" 
d="M799 534h-251v-131h212c22 0 35 -13 35 -35v-60c0 -22 -13 -35 -35 -35h-212v-137h251c22 0 34 -12 34 -34v-67c0 -23 -12 -35 -34 -35h-364c-22 0 -34 12 -34 35v92h-191l-44 -99c-8 -20 -20 -28 -41 -28h-93c-27 0 -36 14 -26 39l279 603c8 20 21 28 42 28h472
c22 0 34 -12 34 -35v-67c0 -22 -12 -34 -34 -34zM268 259h133v275h-12z" />
    <glyph glyph-name="AEacute" unicode="&#x1fc;" horiz-adv-x="891" 
d="M459 721c-24 0 -33 16 -22 36l51 94c8 16 20 23 37 23h86c27 0 36 -18 17 -38l-85 -98c-10 -12 -22 -17 -37 -17h-47zM799 534h-251v-131h212c22 0 35 -13 35 -35v-60c0 -22 -13 -35 -35 -35h-212v-137h251c22 0 34 -12 34 -34v-67c0 -23 -12 -35 -34 -35h-364
c-22 0 -34 12 -34 35v92h-191l-44 -99c-8 -20 -20 -28 -41 -28h-93c-27 0 -36 14 -26 39l279 603c8 20 21 28 42 28h472c22 0 34 -12 34 -35v-67c0 -22 -12 -34 -34 -34zM268 259h133v275h-12z" />
    <glyph glyph-name="B" unicode="B" horiz-adv-x="621" 
d="M459 336c78 -14 130 -74 130 -160c0 -105 -72 -176 -181 -176h-297c-22 0 -35 12 -35 35v600c0 23 13 35 35 35h277c109 0 181 -70 181 -174c0 -81 -44 -140 -110 -152v-8zM348 541h-124v-144h124c44 0 73 28 73 71c0 44 -29 73 -73 73zM368 129c44 0 73 30 73 76
c0 45 -29 74 -73 74h-144v-150h144z" />
    <glyph glyph-name="C" unicode="C" horiz-adv-x="636" 
d="M320 -12c-161 0 -266 97 -266 244v206c0 147 105 244 266 244c158 0 263 -82 263 -238c0 -20 -10 -32 -30 -32h-86c-20 0 -29 10 -32 30c-6 66 -46 104 -115 104c-71 0 -118 -44 -118 -111v-200c0 -67 47 -111 118 -111s110 39 115 104c3 20 12 30 32 30h86
c20 0 30 -12 30 -34c0 -157 -108 -236 -263 -236z" />
    <glyph glyph-name="Cacute" unicode="&#x106;" horiz-adv-x="636" 
d="M290 721c-24 0 -33 16 -22 36l51 94c8 16 20 23 37 23h86c27 0 36 -18 17 -38l-85 -98c-10 -12 -22 -17 -37 -17h-47zM320 -12c-161 0 -266 97 -266 244v206c0 147 105 244 266 244c158 0 263 -82 263 -238c0 -20 -10 -32 -30 -32h-86c-20 0 -29 10 -32 30
c-6 66 -46 104 -115 104c-71 0 -118 -44 -118 -111v-200c0 -67 47 -111 118 -111s110 39 115 104c3 20 12 30 32 30h86c20 0 30 -12 30 -34c0 -157 -108 -236 -263 -236z" />
    <glyph glyph-name="Ccaron" unicode="&#x10c;" horiz-adv-x="636" 
d="M270 721c-16 0 -28 6 -37 19l-73 96c-14 20 -6 38 20 38h50c16 0 28 -5 38 -18l48 -52h7l48 52c11 13 22 18 38 18h50c26 0 34 -18 20 -38l-72 -96c-9 -13 -22 -19 -38 -19h-99zM320 -12c-161 0 -266 97 -266 244v206c0 147 105 244 266 244c158 0 263 -82 263 -238
c0 -20 -10 -32 -30 -32h-86c-20 0 -29 10 -32 30c-6 66 -46 104 -115 104c-71 0 -118 -44 -118 -111v-200c0 -67 47 -111 118 -111s110 39 115 104c3 20 12 30 32 30h86c20 0 30 -12 30 -34c0 -157 -108 -236 -263 -236z" />
    <glyph glyph-name="Ccedilla" unicode="&#xc7;" horiz-adv-x="636" 
d="M553 258c20 0 30 -12 30 -34c0 -146 -93 -224 -231 -235l-17 -30h12c55 0 92 -35 92 -89c0 -61 -53 -102 -133 -102c-22 0 -43 3 -61 8s-25 18 -25 35v14c0 22 10 30 29 26c14 -4 29 -7 44 -7c30 0 51 11 51 30c0 14 -11 24 -27 24h-51c-15 0 -24 8 -24 23v9
c0 8 2 14 6 21l24 40c-133 17 -218 109 -218 241v206c0 147 105 244 266 244c158 0 263 -82 263 -238c0 -20 -10 -32 -30 -32h-86c-20 0 -29 10 -32 30c-6 66 -46 104 -115 104c-71 0 -118 -44 -118 -111v-200c0 -67 47 -111 118 -111s110 39 115 104c3 20 12 30 32 30h86z
" />
    <glyph glyph-name="Ccircumflex" unicode="&#x108;" horiz-adv-x="636" 
d="M180 721c-26 0 -34 17 -20 38l72 96c9 13 22 19 38 19h99c16 0 28 -6 37 -19l73 -96c14 -21 6 -38 -20 -38h-50c-16 0 -27 5 -38 18l-48 52h-7l-48 -52c-10 -13 -22 -18 -38 -18h-50zM320 -12c-161 0 -266 97 -266 244v206c0 147 105 244 266 244c158 0 263 -82 263 -238
c0 -20 -10 -32 -30 -32h-86c-20 0 -29 10 -32 30c-6 66 -46 104 -115 104c-71 0 -118 -44 -118 -111v-200c0 -67 47 -111 118 -111s110 39 115 104c3 20 12 30 32 30h86c20 0 30 -12 30 -34c0 -157 -108 -236 -263 -236z" />
    <glyph glyph-name="Cdotaccent" unicode="&#x10a;" horiz-adv-x="636" 
d="M320 724c-48 0 -80 32 -80 80s32 80 80 80s79 -32 79 -80s-31 -80 -79 -80zM320 -12c-161 0 -266 97 -266 244v206c0 147 105 244 266 244c158 0 263 -82 263 -238c0 -20 -10 -32 -30 -32h-86c-20 0 -29 10 -32 30c-6 66 -46 104 -115 104c-71 0 -118 -44 -118 -111v-200
c0 -67 47 -111 118 -111s110 39 115 104c3 20 12 30 32 30h86c20 0 30 -12 30 -34c0 -157 -108 -236 -263 -236z" />
    <glyph glyph-name="D" unicode="D" horiz-adv-x="651" 
d="M331 670c160 0 266 -98 266 -248v-174c0 -150 -106 -248 -266 -248h-220c-22 0 -35 12 -35 35v600c0 23 13 35 35 35h220zM449 252v166c0 72 -46 116 -122 116h-103v-398h103c76 0 122 44 122 116z" />
    <glyph glyph-name="uni01F1" unicode="&#x1f1;" horiz-adv-x="1217" 
d="M331 670c160 0 266 -98 266 -248v-174c0 -150 -106 -248 -266 -248h-220c-22 0 -35 12 -35 35v600c0 23 13 35 35 35h220zM1132 136c22 0 34 -12 34 -34v-67c0 -23 -12 -35 -34 -35h-408c-22 0 -34 12 -34 35v53c0 17 4 29 14 43l263 395v8h-238c-22 0 -34 12 -34 34v67
c0 23 12 35 34 35h398c22 0 34 -12 34 -35v-53c0 -17 -4 -29 -14 -43l-263 -395v-8h248zM449 252v166c0 72 -46 116 -122 116h-103v-398h103c76 0 122 44 122 116z" />
    <glyph glyph-name="uni01C4" unicode="&#x1c4;" horiz-adv-x="1217" 
d="M841 740l-72 96c-14 20 -6 38 19 38h50c16 0 28 -5 38 -18l48 -52h8l48 52c10 13 22 18 38 18h50c25 0 34 -18 20 -38l-72 -96c-10 -13 -22 -19 -38 -19h-100c-16 0 -27 6 -37 19zM331 670c160 0 266 -98 266 -248v-174c0 -150 -106 -248 -266 -248h-220
c-22 0 -35 12 -35 35v600c0 23 13 35 35 35h220zM1132 136c22 0 34 -12 34 -34v-67c0 -23 -12 -35 -34 -35h-408c-22 0 -34 12 -34 35v53c0 17 4 29 14 43l263 395v8h-238c-22 0 -34 12 -34 34v67c0 23 12 35 34 35h398c22 0 34 -12 34 -35v-53c0 -17 -4 -29 -14 -43
l-263 -395v-8h248zM449 252v166c0 72 -46 116 -122 116h-103v-398h103c76 0 122 44 122 116z" />
    <glyph glyph-name="Eth" unicode="&#xd0;" horiz-adv-x="651" 
d="M331 670c160 0 266 -98 266 -248v-174c0 -150 -106 -248 -266 -248h-220c-22 0 -35 12 -35 35v241h-31c-20 0 -31 11 -31 31v56c0 20 11 31 31 31h31v241c0 23 13 35 35 35h220zM449 252v166c0 72 -46 116 -122 116h-103v-140h73c20 0 31 -11 31 -31v-56
c0 -20 -11 -31 -31 -31h-73v-140h103c76 0 122 44 122 116z" />
    <glyph glyph-name="Dcaron" unicode="&#x10e;" horiz-adv-x="651" 
d="M240 740l-73 96c-14 20 -6 38 20 38h50c16 0 28 -5 38 -18l48 -52h7l48 52c11 13 22 18 38 18h50c26 0 34 -18 20 -38l-72 -96c-9 -13 -22 -19 -38 -19h-99c-16 0 -28 6 -37 19zM331 670c160 0 266 -98 266 -248v-174c0 -150 -106 -248 -266 -248h-220
c-22 0 -35 12 -35 35v600c0 23 13 35 35 35h220zM449 252v166c0 72 -46 116 -122 116h-103v-398h103c76 0 122 44 122 116z" />
    <glyph glyph-name="Dcroat" unicode="&#x110;" horiz-adv-x="651" 
d="M331 670c160 0 266 -98 266 -248v-174c0 -150 -106 -248 -266 -248h-220c-22 0 -35 12 -35 35v241h-31c-20 0 -31 11 -31 31v56c0 20 11 31 31 31h31v241c0 23 13 35 35 35h220zM449 252v166c0 72 -46 116 -122 116h-103v-140h73c20 0 31 -11 31 -31v-56
c0 -20 -11 -31 -31 -31h-73v-140h103c76 0 122 44 122 116z" />
    <glyph glyph-name="uni1E0C" unicode="&#x1e0c;" horiz-adv-x="651" 
d="M331 670c160 0 266 -98 266 -248v-174c0 -150 -106 -248 -266 -248h-220c-22 0 -35 12 -35 35v600c0 23 13 35 35 35h220zM449 252v166c0 72 -46 116 -122 116h-103v-398h103c76 0 122 44 122 116zM327 -54c48 0 79 -32 79 -80s-31 -80 -79 -80s-80 32 -80 80
s32 80 80 80z" />
    <glyph glyph-name="uni01F2" unicode="&#x1f2;" horiz-adv-x="1142" 
d="M331 670c160 0 266 -98 266 -248v-174c0 -150 -106 -248 -266 -248h-220c-22 0 -35 12 -35 35v600c0 23 13 35 35 35h220zM449 252v166c0 72 -46 116 -122 116h-103v-398h103c76 0 122 44 122 116zM1070 127c20 0 31 -11 31 -31v-65c0 -20 -11 -31 -31 -31h-346
c-20 0 -31 11 -31 31v52c0 15 4 26 14 38l195 244v8h-173c-20 0 -31 11 -31 31v65c0 20 11 31 31 31h336c20 0 31 -11 31 -31v-52c0 -15 -5 -26 -15 -38l-194 -244v-8h183z" />
    <glyph glyph-name="uni01C5" unicode="&#x1c5;" horiz-adv-x="1142" 
d="M810 570l-72 96c-15 20 -6 38 19 38h50c16 0 28 -5 38 -18l48 -52h8l48 52c10 13 22 18 38 18h49c26 0 34 -18 20 -38l-72 -96c-9 -13 -21 -19 -37 -19h-100c-16 0 -28 6 -37 19zM331 670c160 0 266 -98 266 -248v-174c0 -150 -106 -248 -266 -248h-220
c-22 0 -35 12 -35 35v600c0 23 13 35 35 35h220zM449 252v166c0 72 -46 116 -122 116h-103v-398h103c76 0 122 44 122 116zM1070 127c20 0 31 -11 31 -31v-65c0 -20 -11 -31 -31 -31h-346c-20 0 -31 11 -31 31v52c0 15 4 26 14 38l195 244v8h-173c-20 0 -31 11 -31 31v65
c0 20 11 31 31 31h336c20 0 31 -11 31 -31v-52c0 -15 -5 -26 -15 -38l-194 -244v-8h183z" />
    <glyph glyph-name="E" unicode="E" horiz-adv-x="562" 
d="M475 535h-251v-130h212c22 0 34 -13 34 -35v-64c0 -22 -12 -35 -34 -35h-212v-136h251c21 0 34 -12 34 -34v-67c0 -22 -13 -34 -34 -34h-365c-21 0 -34 12 -34 34v602c0 22 13 34 34 34h365c21 0 34 -12 34 -34v-67c0 -22 -13 -34 -34 -34z" />
    <glyph glyph-name="Eacute" unicode="&#xc9;" horiz-adv-x="562" 
d="M263 721c-24 0 -33 16 -22 36l51 94c8 16 20 23 37 23h86c27 0 36 -18 17 -38l-85 -98c-10 -12 -22 -17 -37 -17h-47zM475 535h-251v-130h212c22 0 34 -13 34 -35v-64c0 -22 -12 -35 -34 -35h-212v-136h251c21 0 34 -12 34 -34v-67c0 -22 -13 -34 -34 -34h-365
c-21 0 -34 12 -34 34v602c0 22 13 34 34 34h365c21 0 34 -12 34 -34v-67c0 -22 -13 -34 -34 -34z" />
    <glyph glyph-name="Ebreve" unicode="&#x114;" horiz-adv-x="562" 
d="M293 713c-89 0 -149 47 -160 127c-3 21 10 33 30 33h54c15 0 21 -8 24 -20c5 -27 23 -40 52 -40s47 15 50 40c3 12 10 20 24 20h54c20 0 33 -13 30 -34c-12 -81 -71 -126 -158 -126zM475 535h-251v-130h212c22 0 34 -13 34 -35v-64c0 -22 -12 -35 -34 -35h-212v-136h251
c21 0 34 -12 34 -34v-67c0 -22 -13 -34 -34 -34h-365c-21 0 -34 12 -34 34v602c0 22 13 34 34 34h365c21 0 34 -12 34 -34v-67c0 -22 -13 -34 -34 -34z" />
    <glyph glyph-name="Ecaron" unicode="&#x11a;" horiz-adv-x="562" 
d="M206 740l-73 96c-14 20 -6 38 20 38h50c16 0 28 -5 38 -18l48 -52h7l48 52c11 13 22 18 38 18h50c26 0 34 -18 20 -38l-72 -96c-9 -13 -22 -19 -38 -19h-99c-16 0 -28 6 -37 19zM475 535h-251v-130h212c22 0 34 -13 34 -35v-64c0 -22 -12 -35 -34 -35h-212v-136h251
c21 0 34 -12 34 -34v-67c0 -22 -13 -34 -34 -34h-365c-21 0 -34 12 -34 34v602c0 22 13 34 34 34h365c21 0 34 -12 34 -34v-67c0 -22 -13 -34 -34 -34z" />
    <glyph glyph-name="Ecircumflex" unicode="&#xca;" horiz-adv-x="562" 
d="M153 721c-26 0 -34 17 -20 38l72 96c9 13 22 19 38 19h99c16 0 28 -6 37 -19l73 -96c14 -21 6 -38 -20 -38h-50c-16 0 -27 5 -38 18l-48 52h-7l-48 -52c-10 -13 -22 -18 -38 -18h-50zM475 535h-251v-130h212c22 0 34 -13 34 -35v-64c0 -22 -12 -35 -34 -35h-212v-136h251
c21 0 34 -12 34 -34v-67c0 -22 -13 -34 -34 -34h-365c-21 0 -34 12 -34 34v602c0 22 13 34 34 34h365c21 0 34 -12 34 -34v-67c0 -22 -13 -34 -34 -34z" />
    <glyph glyph-name="uni0204" unicode="&#x204;" horiz-adv-x="562" 
d="M143 743l-56 94c-12 20 -2 37 22 37h69c18 0 29 -8 36 -25l39 -92c8 -21 -3 -36 -26 -36h-47c-17 0 -28 6 -37 22zM342 743l-56 94c-11 20 -2 37 22 37h69c18 0 30 -8 36 -25l38 -92c7 -21 -2 -36 -25 -36h-47c-17 0 -29 6 -37 22zM475 535h-251v-130h212
c22 0 34 -13 34 -35v-64c0 -22 -12 -35 -34 -35h-212v-136h251c21 0 34 -12 34 -34v-67c0 -22 -13 -34 -34 -34h-365c-21 0 -34 12 -34 34v602c0 22 13 34 34 34h365c21 0 34 -12 34 -34v-67c0 -22 -13 -34 -34 -34z" />
    <glyph glyph-name="Edieresis" unicode="&#xcb;" horiz-adv-x="562" 
d="M190 724c-46 0 -77 31 -77 77c0 45 31 75 77 75c45 0 75 -30 75 -75c0 -46 -30 -77 -75 -77zM397 724c-46 0 -77 31 -77 77c0 45 31 75 77 75c45 0 75 -30 75 -75c0 -46 -30 -77 -75 -77zM475 535h-251v-130h212c22 0 34 -13 34 -35v-64c0 -22 -12 -35 -34 -35h-212v-136
h251c21 0 34 -12 34 -34v-67c0 -22 -13 -34 -34 -34h-365c-21 0 -34 12 -34 34v602c0 22 13 34 34 34h365c21 0 34 -12 34 -34v-67c0 -22 -13 -34 -34 -34z" />
    <glyph glyph-name="Edotaccent" unicode="&#x116;" horiz-adv-x="562" 
d="M293 724c-48 0 -80 32 -80 80s32 80 80 80s79 -32 79 -80s-31 -80 -79 -80zM475 535h-251v-130h212c22 0 34 -13 34 -35v-64c0 -22 -12 -35 -34 -35h-212v-136h251c21 0 34 -12 34 -34v-67c0 -22 -13 -34 -34 -34h-365c-21 0 -34 12 -34 34v602c0 22 13 34 34 34h365
c21 0 34 -12 34 -34v-67c0 -22 -13 -34 -34 -34z" />
    <glyph glyph-name="uni1EB8" unicode="&#x1eb8;" horiz-adv-x="562" 
d="M475 535h-251v-130h212c22 0 34 -13 34 -35v-64c0 -22 -12 -35 -34 -35h-212v-136h251c21 0 34 -12 34 -34v-67c0 -22 -13 -34 -34 -34h-365c-21 0 -34 12 -34 34v602c0 22 13 34 34 34h365c21 0 34 -12 34 -34v-67c0 -22 -13 -34 -34 -34zM293 -54c48 0 79 -32 79 -80
s-31 -80 -79 -80s-80 32 -80 80s32 80 80 80z" />
    <glyph glyph-name="Egrave" unicode="&#xc8;" horiz-adv-x="562" 
d="M237 738l-85 98c-18 20 -9 38 18 38h86c17 0 29 -7 36 -23l52 -94c11 -20 1 -36 -23 -36h-46c-15 0 -27 5 -38 17zM475 535h-251v-130h212c22 0 34 -13 34 -35v-64c0 -22 -12 -35 -34 -35h-212v-136h251c21 0 34 -12 34 -34v-67c0 -22 -13 -34 -34 -34h-365
c-21 0 -34 12 -34 34v602c0 22 13 34 34 34h365c21 0 34 -12 34 -34v-67c0 -22 -13 -34 -34 -34z" />
    <glyph glyph-name="uni0206" unicode="&#x206;" horiz-adv-x="562" 
d="M163 721c-20 0 -33 12 -30 33c12 80 71 126 160 126c87 0 146 -45 158 -125c3 -22 -10 -34 -30 -34h-54c-14 0 -21 8 -24 19c-3 26 -21 40 -50 40s-48 -13 -52 -40c-3 -11 -9 -19 -24 -19h-54zM475 535h-251v-130h212c22 0 34 -13 34 -35v-64c0 -22 -12 -35 -34 -35h-212
v-136h251c21 0 34 -12 34 -34v-67c0 -22 -13 -34 -34 -34h-365c-21 0 -34 12 -34 34v602c0 22 13 34 34 34h365c21 0 34 -12 34 -34v-67c0 -22 -13 -34 -34 -34z" />
    <glyph glyph-name="Emacron" unicode="&#x112;" horiz-adv-x="562" 
d="M174 739c-20 0 -31 11 -31 31v47c0 20 11 31 31 31h237c20 0 31 -11 31 -31v-47c0 -20 -11 -31 -31 -31h-237zM475 535h-251v-130h212c22 0 34 -13 34 -35v-64c0 -22 -12 -35 -34 -35h-212v-136h251c21 0 34 -12 34 -34v-67c0 -22 -13 -34 -34 -34h-365
c-21 0 -34 12 -34 34v602c0 22 13 34 34 34h365c21 0 34 -12 34 -34v-67c0 -22 -13 -34 -34 -34z" />
    <glyph glyph-name="Eogonek" unicode="&#x118;" horiz-adv-x="562" 
d="M498 -118c14 4 21 -1 21 -19v-46c0 -13 -4 -22 -15 -26c-15 -6 -39 -9 -65 -9c-75 0 -125 42 -125 105c0 49 29 93 74 112v1h-278c-21 0 -34 12 -34 34v602c0 22 13 34 34 34h365c21 0 34 -12 34 -34v-67c0 -22 -13 -34 -34 -34h-251v-130h212c22 0 34 -13 34 -35v-64
c0 -22 -12 -35 -34 -35h-212v-136h251c21 0 34 -12 34 -34v-88c0 -8 -4 -14 -13 -17c-34 -15 -55 -45 -55 -76c0 -24 16 -40 40 -40c6 0 12 1 17 2z" />
    <glyph glyph-name="uni1EBC" unicode="&#x1ebc;" horiz-adv-x="562" 
d="M125 728c-15 0 -24 8 -23 24c5 87 40 132 109 132c60 0 92 -46 130 -46c18 0 31 9 36 25c4 12 9 18 29 18h53c15 0 25 -12 23 -33c-7 -81 -42 -123 -108 -123c-60 0 -96 46 -133 46c-17 0 -29 -10 -34 -25c-4 -12 -9 -18 -29 -18h-53zM475 535h-251v-130h212
c22 0 34 -13 34 -35v-64c0 -22 -12 -35 -34 -35h-212v-136h251c21 0 34 -12 34 -34v-67c0 -22 -13 -34 -34 -34h-365c-21 0 -34 12 -34 34v602c0 22 13 34 34 34h365c21 0 34 -12 34 -34v-67c0 -22 -13 -34 -34 -34z" />
    <glyph glyph-name="F" unicode="F" horiz-adv-x="545" 
d="M464 670c22 0 35 -12 35 -35v-67c0 -22 -13 -34 -35 -34h-240v-148h193c22 0 35 -12 35 -34v-68c0 -22 -13 -34 -35 -34h-193v-215c0 -23 -13 -35 -35 -35h-78c-22 0 -35 12 -35 35v600c0 23 13 35 35 35h353z" />
    <glyph glyph-name="G" unicode="G" horiz-adv-x="639" 
d="M550 362c22 0 35 -13 35 -35v-102c0 -143 -106 -237 -265 -237c-161 0 -266 97 -266 244v206c0 147 105 244 266 244c151 0 249 -79 262 -216c3 -20 -9 -32 -29 -32h-86c-20 0 -28 10 -34 26c-10 55 -52 86 -113 86c-71 0 -118 -44 -118 -111v-207
c0 -67 47 -111 118 -111c70 0 117 41 117 103v25h-71c-22 0 -34 13 -34 35v47c0 22 12 35 34 35h184z" />
    <glyph glyph-name="uni01F4" unicode="&#x1f4;" horiz-adv-x="639" 
d="M290 721c-24 0 -33 16 -22 36l51 94c8 16 20 23 37 23h86c27 0 36 -18 17 -38l-85 -98c-10 -12 -22 -17 -37 -17h-47zM550 362c22 0 35 -13 35 -35v-102c0 -143 -106 -237 -265 -237c-161 0 -266 97 -266 244v206c0 147 105 244 266 244c151 0 249 -79 262 -216
c3 -20 -9 -32 -29 -32h-86c-20 0 -28 10 -34 26c-10 55 -52 86 -113 86c-71 0 -118 -44 -118 -111v-207c0 -67 47 -111 118 -111c70 0 117 41 117 103v25h-71c-22 0 -34 13 -34 35v47c0 22 12 35 34 35h184z" />
    <glyph glyph-name="Gbreve" unicode="&#x11e;" horiz-adv-x="639" 
d="M320 713c-89 0 -149 47 -160 127c-3 21 10 33 30 33h54c15 0 21 -8 24 -20c5 -27 23 -40 52 -40s47 15 50 40c3 12 10 20 24 20h54c20 0 33 -13 30 -34c-12 -81 -71 -126 -158 -126zM550 362c22 0 35 -13 35 -35v-102c0 -143 -106 -237 -265 -237
c-161 0 -266 97 -266 244v206c0 147 105 244 266 244c151 0 249 -79 262 -216c3 -20 -9 -32 -29 -32h-86c-20 0 -28 10 -34 26c-10 55 -52 86 -113 86c-71 0 -118 -44 -118 -111v-207c0 -67 47 -111 118 -111c70 0 117 41 117 103v25h-71c-22 0 -34 13 -34 35v47
c0 22 12 35 34 35h184z" />
    <glyph glyph-name="Gcaron" unicode="&#x1e6;" horiz-adv-x="639" 
d="M233 740l-73 96c-14 20 -6 38 20 38h50c16 0 28 -5 38 -18l48 -52h7l48 52c11 13 22 18 38 18h50c26 0 34 -18 20 -38l-72 -96c-9 -13 -22 -19 -38 -19h-99c-16 0 -28 6 -37 19zM550 362c22 0 35 -13 35 -35v-102c0 -143 -106 -237 -265 -237c-161 0 -266 97 -266 244
v206c0 147 105 244 266 244c151 0 249 -79 262 -216c3 -20 -9 -32 -29 -32h-86c-20 0 -28 10 -34 26c-10 55 -52 86 -113 86c-71 0 -118 -44 -118 -111v-207c0 -67 47 -111 118 -111c70 0 117 41 117 103v25h-71c-22 0 -34 13 -34 35v47c0 22 12 35 34 35h184z" />
    <glyph glyph-name="Gcircumflex" unicode="&#x11c;" horiz-adv-x="639" 
d="M180 721c-26 0 -34 17 -20 38l72 96c9 13 22 19 38 19h99c16 0 28 -6 37 -19l73 -96c14 -21 6 -38 -20 -38h-50c-16 0 -27 5 -38 18l-48 52h-7l-48 -52c-10 -13 -22 -18 -38 -18h-50zM550 362c22 0 35 -13 35 -35v-102c0 -143 -106 -237 -265 -237
c-161 0 -266 97 -266 244v206c0 147 105 244 266 244c151 0 249 -79 262 -216c3 -20 -9 -32 -29 -32h-86c-20 0 -28 10 -34 26c-10 55 -52 86 -113 86c-71 0 -118 -44 -118 -111v-207c0 -67 47 -111 118 -111c70 0 117 41 117 103v25h-71c-22 0 -34 13 -34 35v47
c0 22 12 35 34 35h184z" />
    <glyph glyph-name="uni0122" unicode="&#x122;" horiz-adv-x="639" 
d="M550 362c22 0 35 -13 35 -35v-102c0 -143 -106 -237 -265 -237c-161 0 -266 97 -266 244v206c0 147 105 244 266 244c151 0 249 -79 262 -216c3 -20 -9 -32 -29 -32h-86c-20 0 -28 10 -34 26c-10 55 -52 86 -113 86c-71 0 -118 -44 -118 -111v-207
c0 -67 47 -111 118 -111c70 0 117 41 117 103v25h-71c-22 0 -34 13 -34 35v47c0 22 12 35 34 35h184zM364 -51c24 0 33 -16 22 -37l-59 -124c-9 -15 -20 -22 -38 -22h-41c-22 0 -32 13 -27 34l28 122c3 18 15 27 34 27h81z" />
    <glyph glyph-name="Gdotaccent" unicode="&#x120;" horiz-adv-x="639" 
d="M320 724c-48 0 -80 32 -80 80s32 80 80 80s79 -32 79 -80s-31 -80 -79 -80zM550 362c22 0 35 -13 35 -35v-102c0 -143 -106 -237 -265 -237c-161 0 -266 97 -266 244v206c0 147 105 244 266 244c151 0 249 -79 262 -216c3 -20 -9 -32 -29 -32h-86c-20 0 -28 10 -34 26
c-10 55 -52 86 -113 86c-71 0 -118 -44 -118 -111v-207c0 -67 47 -111 118 -111c70 0 117 41 117 103v25h-71c-22 0 -34 13 -34 35v47c0 22 12 35 34 35h184z" />
    <glyph glyph-name="H" unicode="H" horiz-adv-x="656" 
d="M545 670c22 0 34 -12 34 -35v-600c0 -23 -12 -35 -34 -35h-79c-22 0 -34 12 -34 35v235h-208v-235c0 -23 -13 -35 -35 -35h-78c-22 0 -35 12 -35 35v600c0 23 13 35 35 35h78c22 0 35 -12 35 -35v-229h208v229c0 23 12 35 34 35h79z" />
    <glyph glyph-name="Hbar" unicode="&#x126;" horiz-adv-x="656" 
d="M596 584c20 0 31 -11 31 -31v-42c0 -20 -11 -31 -31 -31h-17v-445c0 -23 -12 -35 -34 -35h-79c-22 0 -34 12 -34 35v235h-208v-235c0 -23 -13 -35 -35 -35h-78c-22 0 -35 12 -35 35v445h-17c-20 0 -31 11 -31 31v42c0 20 11 31 31 31h17v51c0 23 13 35 35 35h78
c22 0 35 -12 35 -35v-51h208v51c0 23 12 35 34 35h79c22 0 34 -12 34 -35v-51h17zM432 406v74h-208v-74h208z" />
    <glyph glyph-name="Hcircumflex" unicode="&#x124;" horiz-adv-x="656" 
d="M188 721c-26 0 -34 17 -20 38l72 96c9 13 22 19 38 19h99c16 0 28 -6 37 -19l73 -96c14 -21 6 -38 -20 -38h-50c-16 0 -27 5 -38 18l-48 52h-7l-48 -52c-10 -13 -22 -18 -38 -18h-50zM545 670c22 0 34 -12 34 -35v-600c0 -23 -12 -35 -34 -35h-79c-22 0 -34 12 -34 35
v235h-208v-235c0 -23 -13 -35 -35 -35h-78c-22 0 -35 12 -35 35v600c0 23 13 35 35 35h78c22 0 35 -12 35 -35v-229h208v229c0 23 12 35 34 35h79z" />
    <glyph glyph-name="uni1E24" unicode="&#x1e24;" horiz-adv-x="656" 
d="M545 670c22 0 34 -12 34 -35v-600c0 -23 -12 -35 -34 -35h-79c-22 0 -34 12 -34 35v235h-208v-235c0 -23 -13 -35 -35 -35h-78c-22 0 -35 12 -35 35v600c0 23 13 35 35 35h78c22 0 35 -12 35 -35v-229h208v229c0 23 12 35 34 35h79zM328 -54c48 0 79 -32 79 -80
s-31 -80 -79 -80s-80 32 -80 80s32 80 80 80z" />
    <glyph glyph-name="I" unicode="I" horiz-adv-x="300" 
d="M111 0c-22 0 -35 12 -35 35v600c0 23 13 35 35 35h78c22 0 35 -12 35 -35v-600c0 -23 -13 -35 -35 -35h-78z" />
    <glyph glyph-name="IJ" unicode="&#x132;" horiz-adv-x="876" 
d="M111 0c-22 0 -35 12 -35 35v600c0 23 13 35 35 35h78c22 0 35 -12 35 -35v-600c0 -23 -13 -35 -35 -35h-78zM576 -12c-140 0 -233 84 -233 211v14c0 22 13 35 35 35h78c23 0 35 -13 35 -35v-11c0 -47 34 -78 85 -78s85 31 85 78v433c0 23 12 35 35 35h78
c22 0 34 -12 34 -35v-436c0 -127 -92 -211 -232 -211z" />
    <glyph glyph-name="Iacute" unicode="&#xcd;" horiz-adv-x="300" 
d="M121 721c-24 0 -33 16 -22 36l51 94c8 16 20 23 37 23h86c27 0 36 -18 17 -38l-85 -98c-10 -12 -22 -17 -37 -17h-47zM111 0c-22 0 -35 12 -35 35v600c0 23 13 35 35 35h78c22 0 35 -12 35 -35v-600c0 -23 -13 -35 -35 -35h-78z" />
    <glyph glyph-name="Ibreve" unicode="&#x12c;" horiz-adv-x="300" 
d="M151 713c-89 0 -149 47 -160 127c-3 21 10 33 30 33h54c15 0 21 -8 24 -20c5 -27 23 -40 52 -40s47 15 50 40c3 12 10 20 24 20h54c20 0 33 -13 30 -34c-12 -81 -71 -126 -158 -126zM111 0c-22 0 -35 12 -35 35v600c0 23 13 35 35 35h78c22 0 35 -12 35 -35v-600
c0 -23 -13 -35 -35 -35h-78z" />
    <glyph glyph-name="Icircumflex" unicode="&#xce;" horiz-adv-x="300" 
d="M11 721c-26 0 -34 17 -20 38l72 96c9 13 22 19 38 19h99c16 0 28 -6 37 -19l73 -96c14 -21 6 -38 -20 -38h-50c-16 0 -27 5 -38 18l-48 52h-7l-48 -52c-10 -13 -22 -18 -38 -18h-50zM111 0c-22 0 -35 12 -35 35v600c0 23 13 35 35 35h78c22 0 35 -12 35 -35v-600
c0 -23 -13 -35 -35 -35h-78z" />
    <glyph glyph-name="uni0208" unicode="&#x208;" horiz-adv-x="300" 
d="M38 721c-17 0 -28 6 -37 22l-56 94c-12 20 -2 37 22 37h69c18 0 29 -8 36 -25l39 -92c8 -21 -3 -36 -26 -36h-47zM237 721c-17 0 -29 6 -37 22l-56 94c-11 20 -2 37 22 37h69c18 0 30 -8 36 -25l38 -92c7 -21 -2 -36 -25 -36h-47zM111 0c-22 0 -35 12 -35 35v600
c0 23 13 35 35 35h78c22 0 35 -12 35 -35v-600c0 -23 -13 -35 -35 -35h-78z" />
    <glyph glyph-name="Idieresis" unicode="&#xcf;" horiz-adv-x="300" 
d="M48 724c-46 0 -77 31 -77 77c0 45 31 75 77 75c45 0 75 -30 75 -75c0 -46 -30 -77 -75 -77zM255 724c-46 0 -77 31 -77 77c0 45 31 75 77 75c45 0 75 -30 75 -75c0 -46 -30 -77 -75 -77zM111 0c-22 0 -35 12 -35 35v600c0 23 13 35 35 35h78c22 0 35 -12 35 -35v-600
c0 -23 -13 -35 -35 -35h-78z" />
    <glyph glyph-name="Idotaccent" unicode="&#x130;" horiz-adv-x="300" 
d="M151 724c-48 0 -80 32 -80 80s32 80 80 80s79 -32 79 -80s-31 -80 -79 -80zM111 0c-22 0 -35 12 -35 35v600c0 23 13 35 35 35h78c22 0 35 -12 35 -35v-600c0 -23 -13 -35 -35 -35h-78z" />
    <glyph glyph-name="uni1ECA" unicode="&#x1eca;" horiz-adv-x="300" 
d="M111 0c-22 0 -35 12 -35 35v600c0 23 13 35 35 35h78c22 0 35 -12 35 -35v-600c0 -23 -13 -35 -35 -35h-78zM151 -214c-48 0 -80 32 -80 80s32 80 80 80s79 -32 79 -80s-31 -80 -79 -80z" />
    <glyph glyph-name="Igrave" unicode="&#xcc;" horiz-adv-x="300" 
d="M132 721c-15 0 -27 5 -38 17l-85 98c-18 20 -9 38 18 38h86c17 0 29 -7 36 -23l52 -94c11 -20 1 -36 -23 -36h-46zM111 0c-22 0 -35 12 -35 35v600c0 23 13 35 35 35h78c22 0 35 -12 35 -35v-600c0 -23 -13 -35 -35 -35h-78z" />
    <glyph glyph-name="uni020A" unicode="&#x20a;" horiz-adv-x="300" 
d="M151 880c87 0 146 -45 158 -125c3 -22 -10 -34 -30 -34h-54c-14 0 -21 8 -24 19c-3 26 -21 40 -50 40s-48 -13 -52 -40c-3 -11 -9 -19 -24 -19h-54c-20 0 -33 12 -30 33c12 80 71 126 160 126zM111 0c-22 0 -35 12 -35 35v600c0 23 13 35 35 35h78c22 0 35 -12 35 -35
v-600c0 -23 -13 -35 -35 -35h-78z" />
    <glyph glyph-name="Imacron" unicode="&#x12a;" horiz-adv-x="300" 
d="M32 739c-20 0 -31 11 -31 31v47c0 20 11 31 31 31h237c20 0 31 -11 31 -31v-47c0 -20 -11 -31 -31 -31h-237zM111 0c-22 0 -35 12 -35 35v600c0 23 13 35 35 35h78c22 0 35 -12 35 -35v-600c0 -23 -13 -35 -35 -35h-78z" />
    <glyph glyph-name="Iogonek" unicode="&#x12e;" horiz-adv-x="300" 
d="M213 -118c14 4 21 -1 21 -19v-46c0 -13 -4 -22 -15 -26c-15 -6 -39 -9 -65 -9c-75 0 -125 42 -125 105c0 49 29 93 74 112v2c-17 2 -27 14 -27 34v600c0 23 13 35 35 35h78c22 0 35 -12 35 -35v-622c0 -8 -4 -14 -13 -17c-34 -15 -55 -45 -55 -76c0 -24 16 -40 40 -40
c6 0 12 1 17 2z" />
    <glyph glyph-name="Itilde" unicode="&#x128;" horiz-adv-x="300" 
d="M232 725c-60 0 -96 46 -133 46c-17 0 -29 -10 -34 -25c-4 -12 -9 -18 -29 -18h-53c-15 0 -24 8 -23 24c5 87 40 132 109 132c60 0 92 -46 130 -46c18 0 31 9 36 25c4 12 9 18 29 18h53c15 0 25 -12 23 -33c-7 -81 -42 -123 -108 -123zM111 0c-22 0 -35 12 -35 35v600
c0 23 13 35 35 35h78c22 0 35 -12 35 -35v-600c0 -23 -13 -35 -35 -35h-78z" />
    <glyph glyph-name="J" unicode="J" horiz-adv-x="575" 
d="M276 -12c-140 0 -233 84 -233 211v14c0 22 13 35 35 35h78c23 0 35 -13 35 -35v-11c0 -47 34 -78 85 -78s85 31 85 78v433c0 23 12 35 35 35h78c22 0 34 -12 34 -35v-436c0 -127 -92 -211 -232 -211z" />
    <glyph glyph-name="Jcircumflex" unicode="&#x134;" horiz-adv-x="575" 
d="M292 721c-26 0 -34 17 -20 38l72 96c9 13 22 19 38 19h99c16 0 28 -6 37 -19l73 -96c14 -21 6 -38 -20 -38h-50c-16 0 -27 5 -38 18l-48 52h-7l-48 -52c-10 -13 -22 -18 -38 -18h-50zM276 -12c-140 0 -233 84 -233 211v14c0 22 13 35 35 35h78c23 0 35 -13 35 -35v-11
c0 -47 34 -78 85 -78s85 31 85 78v433c0 23 12 35 35 35h78c22 0 34 -12 34 -35v-436c0 -127 -92 -211 -232 -211z" />
    <glyph glyph-name="K" unicode="K" horiz-adv-x="630" 
d="M587 42c13 -24 3 -42 -22 -42h-102c-19 0 -32 8 -41 25l-140 241l-58 -72v-159c0 -23 -13 -35 -35 -35h-78c-22 0 -35 12 -35 35v600c0 23 13 35 35 35h78c22 0 35 -12 35 -35v-235h9l188 247c10 16 23 23 41 23h93c27 0 36 -20 19 -42l-194 -241z" />
    <glyph glyph-name="uni0136" unicode="&#x136;" horiz-adv-x="630" 
d="M587 42c13 -24 3 -42 -22 -42h-102c-19 0 -32 8 -41 25l-140 241l-58 -72v-159c0 -23 -13 -35 -35 -35h-78c-22 0 -35 12 -35 35v600c0 23 13 35 35 35h78c22 0 35 -12 35 -35v-235h9l188 247c10 16 23 23 41 23h93c27 0 36 -20 19 -42l-194 -241zM377 -51
c24 0 33 -16 22 -37l-59 -124c-9 -15 -20 -22 -38 -22h-41c-22 0 -32 13 -27 34l28 122c3 18 15 27 34 27h81z" />
    <glyph glyph-name="L" unicode="L" horiz-adv-x="527" 
d="M454 136c22 0 35 -12 35 -34v-67c0 -23 -13 -35 -35 -35h-343c-22 0 -35 12 -35 35v600c0 23 13 35 35 35h78c22 0 35 -12 35 -35v-499h230z" />
    <glyph glyph-name="uni01C7" unicode="&#x1c7;" horiz-adv-x="1097" 
d="M454 136c22 0 35 -12 35 -34v-67c0 -23 -13 -35 -35 -35h-343c-22 0 -35 12 -35 35v600c0 23 13 35 35 35h78c22 0 35 -12 35 -35v-499h230zM996 670c22 0 34 -12 34 -35v-436c0 -127 -92 -211 -232 -211s-233 84 -233 211v14c0 22 13 35 35 35h78c23 0 35 -13 35 -35
v-11c0 -47 34 -78 85 -78s85 31 85 78v433c0 23 12 35 35 35h78z" />
    <glyph glyph-name="Lacute" unicode="&#x139;" horiz-adv-x="527" 
d="M121 721c-24 0 -33 16 -22 36l51 94c8 16 20 23 37 23h86c27 0 36 -18 17 -38l-85 -98c-10 -12 -22 -17 -37 -17h-47zM454 136c22 0 35 -12 35 -34v-67c0 -23 -13 -35 -35 -35h-343c-22 0 -35 12 -35 35v600c0 23 13 35 35 35h78c22 0 35 -12 35 -35v-499h230z" />
    <glyph glyph-name="Lcaron" unicode="&#x13d;" horiz-adv-x="527" 
d="M454 136c22 0 35 -12 35 -34v-67c0 -23 -13 -35 -35 -35h-343c-22 0 -35 12 -35 35v600c0 23 13 35 35 35h78c22 0 35 -12 35 -35v-499h230zM332 487c-20 0 -31 11 -31 31v121c0 20 11 31 31 31h62c21 0 32 -12 28 -33l-16 -122c-3 -19 -15 -28 -33 -28h-41z" />
    <glyph glyph-name="uni013B" unicode="&#x13b;" horiz-adv-x="527" 
d="M454 136c22 0 35 -12 35 -34v-67c0 -23 -13 -35 -35 -35h-343c-22 0 -35 12 -35 35v600c0 23 13 35 35 35h78c22 0 35 -12 35 -35v-499h230zM317 -51c24 0 33 -16 22 -37l-59 -124c-9 -15 -20 -22 -38 -22h-41c-22 0 -32 13 -27 34l28 122c3 18 15 27 34 27h81z" />
    <glyph glyph-name="Ldot" unicode="&#x13f;" horiz-adv-x="527" 
d="M454 136c22 0 35 -12 35 -34v-67c0 -23 -13 -35 -35 -35h-343c-22 0 -35 12 -35 35v600c0 23 13 35 35 35h78c22 0 35 -12 35 -35v-499h230zM364 286c-45 0 -74 29 -74 73s29 73 74 73c44 0 73 -29 73 -73s-29 -73 -73 -73z" />
    <glyph glyph-name="uni01C8" unicode="&#x1c8;" horiz-adv-x="792" 
d="M662 564c-52 0 -84 33 -84 80c0 49 33 81 84 81c50 0 83 -32 83 -80c0 -49 -33 -81 -83 -81zM489 102v-67c0 -23 -13 -35 -35 -35h-343c-22 0 -35 12 -35 35v600c0 23 13 35 35 35h78c22 0 35 -12 35 -35v-499h230c22 0 35 -12 35 -34zM701 500c20 0 31 -11 31 -31v-507
c0 -86 -60 -142 -152 -142h-61c-20 0 -31 11 -31 31v54c0 20 11 31 31 31h22c32 0 51 19 51 51v482c0 20 11 31 31 31h78z" />
    <glyph glyph-name="Lslash" unicode="&#x141;" horiz-adv-x="527" 
d="M454 136c22 0 35 -12 35 -34v-67c0 -23 -13 -35 -35 -35h-343c-22 0 -35 12 -35 35v220l-31 -15c-21 -10 -36 0 -36 24v66c0 17 7 29 23 36l44 21v248c0 23 13 35 35 35h78c22 0 35 -12 35 -35v-178l71 34c21 9 36 -1 36 -24v-66c0 -17 -7 -29 -23 -37l-84 -40v-188h230z
" />
    <glyph glyph-name="M" unicode="M" horiz-adv-x="828" 
d="M111 0c-22 0 -35 12 -35 35v600c0 23 13 35 35 35h131c19 0 33 -8 39 -28l132 -318h9l130 318c7 20 20 28 40 28h125c22 0 35 -12 35 -35v-600c0 -23 -13 -35 -35 -35h-78c-22 0 -35 12 -35 35v354l7 47h-11l-121 -280c-7 -19 -20 -28 -40 -28h-50c-20 0 -33 9 -39 28
l-121 280h-12l7 -47v-354c0 -23 -13 -35 -35 -35h-78z" />
    <glyph glyph-name="N" unicode="N" horiz-adv-x="685" 
d="M107 0c-20 0 -31 11 -31 31v608c0 20 11 31 31 31h116c18 0 30 -8 37 -24l197 -400h11l-7 47v346c0 20 11 31 31 31h86c20 0 31 -11 31 -31v-608c0 -20 -11 -31 -31 -31h-116c-18 0 -30 8 -37 24l-196 400h-12l7 -47v-346c0 -20 -11 -31 -31 -31h-86z" />
    <glyph glyph-name="uni01CA" unicode="&#x1ca;" horiz-adv-x="1261" 
d="M107 0c-20 0 -31 11 -31 31v608c0 20 11 31 31 31h116c18 0 30 -8 37 -24l197 -400h11l-7 47v346c0 20 11 31 31 31h86c20 0 31 -11 31 -31v-608c0 -20 -11 -31 -31 -31h-116c-18 0 -30 8 -37 24l-196 400h-12l7 -47v-346c0 -20 -11 -31 -31 -31h-86zM961 -12
c-140 0 -233 84 -233 211v14c0 22 13 35 35 35h78c23 0 35 -13 35 -35v-11c0 -47 34 -78 85 -78s85 31 85 78v433c0 23 12 35 35 35h78c22 0 34 -12 34 -35v-436c0 -127 -92 -211 -232 -211z" />
    <glyph glyph-name="Nacute" unicode="&#x143;" horiz-adv-x="685" 
d="M313 721c-24 0 -33 16 -22 36l51 94c8 16 20 23 37 23h86c27 0 36 -18 17 -38l-85 -98c-10 -12 -22 -17 -37 -17h-47zM107 0c-20 0 -31 11 -31 31v608c0 20 11 31 31 31h116c18 0 30 -8 37 -24l197 -400h11l-7 47v346c0 20 11 31 31 31h86c20 0 31 -11 31 -31v-608
c0 -20 -11 -31 -31 -31h-116c-18 0 -30 8 -37 24l-196 400h-12l7 -47v-346c0 -20 -11 -31 -31 -31h-86z" />
    <glyph glyph-name="Ncaron" unicode="&#x147;" horiz-adv-x="685" 
d="M293 721c-16 0 -28 6 -37 19l-73 96c-14 20 -6 38 20 38h50c16 0 28 -5 38 -18l48 -52h7l48 52c11 13 22 18 38 18h50c26 0 34 -18 20 -38l-72 -96c-9 -13 -22 -19 -38 -19h-99zM107 0c-20 0 -31 11 -31 31v608c0 20 11 31 31 31h116c18 0 30 -8 37 -24l197 -400h11
l-7 47v346c0 20 11 31 31 31h86c20 0 31 -11 31 -31v-608c0 -20 -11 -31 -31 -31h-116c-18 0 -30 8 -37 24l-196 400h-12l7 -47v-346c0 -20 -11 -31 -31 -31h-86z" />
    <glyph glyph-name="uni0145" unicode="&#x145;" horiz-adv-x="685" 
d="M107 0c-20 0 -31 11 -31 31v608c0 20 11 31 31 31h116c18 0 30 -8 37 -24l197 -400h11l-7 47v346c0 20 11 31 31 31h86c20 0 31 -11 31 -31v-608c0 -20 -11 -31 -31 -31h-116c-18 0 -30 8 -37 24l-196 400h-12l7 -47v-346c0 -20 -11 -31 -31 -31h-86zM278 -234
c-22 0 -32 13 -27 34l28 122c3 18 15 27 34 27h81c24 0 33 -16 22 -37l-59 -124c-9 -15 -20 -22 -38 -22h-41z" />
    <glyph glyph-name="uni1E44" unicode="&#x1e44;" horiz-adv-x="685" 
d="M343 724c-48 0 -80 32 -80 80s32 80 80 80s79 -32 79 -80s-31 -80 -79 -80zM107 0c-20 0 -31 11 -31 31v608c0 20 11 31 31 31h116c18 0 30 -8 37 -24l197 -400h11l-7 47v346c0 20 11 31 31 31h86c20 0 31 -11 31 -31v-608c0 -20 -11 -31 -31 -31h-116
c-18 0 -30 8 -37 24l-196 400h-12l7 -47v-346c0 -20 -11 -31 -31 -31h-86z" />
    <glyph glyph-name="Eng" unicode="&#x14a;" horiz-adv-x="685" 
d="M609 639v-608c0 -3 0 -7 -1 -10v-84c0 -81 -59 -134 -149 -134h-69c-20 0 -31 11 -31 31v45c0 20 11 31 31 31h18c32 0 53 19 53 48v42c-17 0 -29 8 -36 24l-196 400h-12l7 -47v-346c0 -20 -11 -31 -31 -31h-86c-20 0 -31 11 -31 31v608c0 20 11 31 31 31h116
c18 0 30 -8 37 -24l197 -400h11l-7 47v346c0 20 11 31 31 31h86c20 0 31 -11 31 -31z" />
    <glyph glyph-name="uni01CB" unicode="&#x1cb;" horiz-adv-x="951" 
d="M820 564c-52 0 -84 33 -84 80c0 49 33 81 84 81c50 0 83 -32 83 -80c0 -49 -33 -81 -83 -81zM107 0c-20 0 -31 11 -31 31v608c0 20 11 31 31 31h116c18 0 30 -8 37 -24l197 -400h11l-7 47v346c0 20 11 31 31 31h86c20 0 31 -11 31 -31v-608c0 -20 -11 -31 -31 -31h-116
c-18 0 -30 8 -37 24l-196 400h-12l7 -47v-346c0 -20 -11 -31 -31 -31h-86zM677 -180c-20 0 -31 11 -31 31v54c0 20 11 31 31 31h22c32 0 51 19 51 51v482c0 20 11 31 31 31h78c20 0 31 -11 31 -31v-507c0 -86 -60 -142 -152 -142h-61z" />
    <glyph glyph-name="Ntilde" unicode="&#xd1;" horiz-adv-x="685" 
d="M424 725c-60 0 -96 46 -133 46c-17 0 -29 -10 -34 -25c-4 -12 -9 -18 -29 -18h-53c-15 0 -24 8 -23 24c5 87 40 132 109 132c60 0 92 -46 130 -46c18 0 31 9 36 25c4 12 9 18 29 18h53c15 0 25 -12 23 -33c-7 -81 -42 -123 -108 -123zM107 0c-20 0 -31 11 -31 31v608
c0 20 11 31 31 31h116c18 0 30 -8 37 -24l197 -400h11l-7 47v346c0 20 11 31 31 31h86c20 0 31 -11 31 -31v-608c0 -20 -11 -31 -31 -31h-116c-18 0 -30 8 -37 24l-196 400h-12l7 -47v-346c0 -20 -11 -31 -31 -31h-86z" />
    <glyph glyph-name="O" unicode="O" horiz-adv-x="649" 
d="M325 -12c-164 0 -271 99 -271 249v196c0 150 107 249 271 249c162 0 270 -99 270 -249v-196c0 -150 -108 -249 -270 -249zM325 124c73 0 122 46 122 116v190c0 70 -49 116 -122 116c-74 0 -123 -46 -123 -116v-190c0 -70 49 -116 123 -116z" />
    <glyph glyph-name="Oacute" unicode="&#xd3;" horiz-adv-x="649" 
d="M295 721c-24 0 -33 16 -22 36l51 94c8 16 20 23 37 23h86c27 0 36 -18 17 -38l-85 -98c-10 -12 -22 -17 -37 -17h-47zM325 -12c-164 0 -271 99 -271 249v196c0 150 107 249 271 249c162 0 270 -99 270 -249v-196c0 -150 -108 -249 -270 -249zM325 124
c73 0 122 46 122 116v190c0 70 -49 116 -122 116c-74 0 -123 -46 -123 -116v-190c0 -70 49 -116 123 -116z" />
    <glyph glyph-name="Obreve" unicode="&#x14e;" horiz-adv-x="649" 
d="M325 713c-89 0 -149 47 -160 127c-3 21 10 33 30 33h54c15 0 21 -8 24 -20c5 -27 23 -40 52 -40s47 15 50 40c3 12 10 20 24 20h54c20 0 33 -13 30 -34c-12 -81 -71 -126 -158 -126zM325 -12c-164 0 -271 99 -271 249v196c0 150 107 249 271 249c162 0 270 -99 270 -249
v-196c0 -150 -108 -249 -270 -249zM325 124c73 0 122 46 122 116v190c0 70 -49 116 -122 116c-74 0 -123 -46 -123 -116v-190c0 -70 49 -116 123 -116z" />
    <glyph glyph-name="Ocircumflex" unicode="&#xd4;" horiz-adv-x="649" 
d="M185 721c-26 0 -34 17 -20 38l72 96c9 13 22 19 38 19h99c16 0 28 -6 37 -19l73 -96c14 -21 6 -38 -20 -38h-50c-16 0 -27 5 -38 18l-48 52h-7l-48 -52c-10 -13 -22 -18 -38 -18h-50zM325 -12c-164 0 -271 99 -271 249v196c0 150 107 249 271 249c162 0 270 -99 270 -249
v-196c0 -150 -108 -249 -270 -249zM325 124c73 0 122 46 122 116v190c0 70 -49 116 -122 116c-74 0 -123 -46 -123 -116v-190c0 -70 49 -116 123 -116z" />
    <glyph glyph-name="uni020C" unicode="&#x20c;" horiz-adv-x="649" 
d="M212 721c-17 0 -28 6 -37 22l-56 94c-12 20 -2 37 22 37h69c18 0 29 -8 36 -25l39 -92c8 -21 -3 -36 -26 -36h-47zM411 721c-17 0 -29 6 -37 22l-56 94c-11 20 -2 37 22 37h69c18 0 30 -8 36 -25l38 -92c7 -21 -2 -36 -25 -36h-47zM325 -12c-164 0 -271 99 -271 249v196
c0 150 107 249 271 249c162 0 270 -99 270 -249v-196c0 -150 -108 -249 -270 -249zM325 124c73 0 122 46 122 116v190c0 70 -49 116 -122 116c-74 0 -123 -46 -123 -116v-190c0 -70 49 -116 123 -116z" />
    <glyph glyph-name="Odieresis" unicode="&#xd6;" horiz-adv-x="649" 
d="M222 724c-46 0 -77 31 -77 77c0 45 31 75 77 75c45 0 75 -30 75 -75c0 -46 -30 -77 -75 -77zM429 724c-46 0 -77 31 -77 77c0 45 31 75 77 75c45 0 75 -30 75 -75c0 -46 -30 -77 -75 -77zM325 -12c-164 0 -271 99 -271 249v196c0 150 107 249 271 249
c162 0 270 -99 270 -249v-196c0 -150 -108 -249 -270 -249zM325 124c73 0 122 46 122 116v190c0 70 -49 116 -122 116c-74 0 -123 -46 -123 -116v-190c0 -70 49 -116 123 -116z" />
    <glyph glyph-name="uni1ECC" unicode="&#x1ecc;" horiz-adv-x="649" 
d="M325 -12c-164 0 -271 99 -271 249v196c0 150 107 249 271 249c162 0 270 -99 270 -249v-196c0 -150 -108 -249 -270 -249zM325 124c73 0 122 46 122 116v190c0 70 -49 116 -122 116c-74 0 -123 -46 -123 -116v-190c0 -70 49 -116 123 -116zM325 -214c-48 0 -80 32 -80 80
s32 80 80 80s79 -32 79 -80s-31 -80 -79 -80z" />
    <glyph glyph-name="Ograve" unicode="&#xd2;" horiz-adv-x="649" 
d="M307 721c-15 0 -27 5 -38 17l-85 98c-18 20 -9 38 18 38h86c17 0 29 -7 36 -23l52 -94c11 -20 1 -36 -23 -36h-46zM325 -12c-164 0 -271 99 -271 249v196c0 150 107 249 271 249c162 0 270 -99 270 -249v-196c0 -150 -108 -249 -270 -249zM325 124c73 0 122 46 122 116
v190c0 70 -49 116 -122 116c-74 0 -123 -46 -123 -116v-190c0 -70 49 -116 123 -116z" />
    <glyph glyph-name="Ohungarumlaut" unicode="&#x150;" horiz-adv-x="649" 
d="M190 721c-22 0 -31 15 -24 36l38 92c6 17 18 25 36 25h69c24 0 34 -17 22 -37l-55 -94c-9 -16 -21 -22 -38 -22h-48zM389 721c-22 0 -33 15 -25 36l40 92c6 17 17 25 35 25h69c24 0 35 -17 22 -37l-56 -94c-9 -16 -20 -22 -37 -22h-48zM325 -12c-164 0 -271 99 -271 249
v196c0 150 107 249 271 249c162 0 270 -99 270 -249v-196c0 -150 -108 -249 -270 -249zM325 124c73 0 122 46 122 116v190c0 70 -49 116 -122 116c-74 0 -123 -46 -123 -116v-190c0 -70 49 -116 123 -116z" />
    <glyph glyph-name="uni020E" unicode="&#x20e;" horiz-adv-x="649" 
d="M325 880c87 0 146 -45 158 -125c3 -22 -10 -34 -30 -34h-54c-14 0 -21 8 -24 19c-3 26 -21 40 -50 40s-48 -13 -52 -40c-3 -11 -9 -19 -24 -19h-54c-20 0 -33 12 -30 33c12 80 71 126 160 126zM325 -12c-164 0 -271 99 -271 249v196c0 150 107 249 271 249
c162 0 270 -99 270 -249v-196c0 -150 -108 -249 -270 -249zM325 124c73 0 122 46 122 116v190c0 70 -49 116 -122 116c-74 0 -123 -46 -123 -116v-190c0 -70 49 -116 123 -116z" />
    <glyph glyph-name="Omacron" unicode="&#x14c;" horiz-adv-x="649" 
d="M206 739c-20 0 -31 11 -31 31v47c0 20 11 31 31 31h237c20 0 31 -11 31 -31v-47c0 -20 -11 -31 -31 -31h-237zM325 -12c-164 0 -271 99 -271 249v196c0 150 107 249 271 249c162 0 270 -99 270 -249v-196c0 -150 -108 -249 -270 -249zM325 124c73 0 122 46 122 116v190
c0 70 -49 116 -122 116c-74 0 -123 -46 -123 -116v-190c0 -70 49 -116 123 -116z" />
    <glyph glyph-name="uni01EA" unicode="&#x1ea;" horiz-adv-x="649" 
d="M325 682c162 0 270 -99 270 -249v-196c0 -124 -74 -213 -192 -240c0 -1 -1 -1 -1 -1c-34 -15 -55 -45 -55 -76c0 -24 16 -40 40 -40c6 0 12 1 17 2c14 4 21 -1 21 -19v-46c0 -13 -4 -22 -15 -26c-15 -6 -39 -9 -65 -9c-75 0 -125 42 -125 105c0 43 22 82 58 104
c-137 17 -224 111 -224 246v196c0 150 107 249 271 249zM447 240v190c0 70 -49 116 -122 116c-74 0 -123 -46 -123 -116v-190c0 -70 49 -116 123 -116c73 0 122 46 122 116z" />
    <glyph glyph-name="Oslash" unicode="&#xd8;" horiz-adv-x="649" 
d="M529 606c42 -43 66 -102 66 -173v-196c0 -150 -108 -249 -270 -249c-55 0 -103 11 -144 31l-17 -29c-8 -14 -19 -20 -34 -20h-29c-19 0 -28 14 -17 34l36 60c-42 43 -66 102 -66 173v196c0 150 107 249 271 249c54 0 102 -11 143 -31l17 29c7 14 18 20 33 20h30
c19 0 28 -14 16 -34zM202 240c0 -11 1 -21 4 -31l189 319c-19 12 -43 18 -70 18c-74 0 -123 -46 -123 -116v-190zM447 240v190c0 11 -1 22 -4 32l-189 -320c19 -12 43 -18 71 -18c73 0 122 46 122 116z" />
    <glyph glyph-name="Oslashacute" unicode="&#x1fe;" horiz-adv-x="649" 
d="M292 721c-24 0 -33 16 -22 36l51 94c8 16 20 23 37 23h86c27 0 36 -18 17 -38l-85 -98c-10 -12 -22 -17 -37 -17h-47zM529 606c42 -43 66 -102 66 -173v-196c0 -150 -108 -249 -270 -249c-55 0 -103 11 -144 31l-17 -29c-8 -14 -19 -20 -34 -20h-29c-19 0 -28 14 -17 34
l36 60c-42 43 -66 102 -66 173v196c0 150 107 249 271 249c54 0 102 -11 143 -31l17 29c7 14 18 20 33 20h30c19 0 28 -14 16 -34zM202 240c0 -11 1 -21 4 -31l189 319c-19 12 -43 18 -70 18c-74 0 -123 -46 -123 -116v-190zM447 240v190c0 11 -1 22 -4 32l-189 -320
c19 -12 43 -18 71 -18c73 0 122 46 122 116z" />
    <glyph glyph-name="Otilde" unicode="&#xd5;" horiz-adv-x="649" 
d="M406 725c-60 0 -96 46 -133 46c-17 0 -29 -10 -34 -25c-4 -12 -9 -18 -29 -18h-53c-15 0 -24 8 -23 24c5 87 40 132 109 132c60 0 92 -46 130 -46c18 0 31 9 36 25c4 12 9 18 29 18h53c15 0 25 -12 23 -33c-7 -81 -42 -123 -108 -123zM325 -12c-164 0 -271 99 -271 249
v196c0 150 107 249 271 249c162 0 270 -99 270 -249v-196c0 -150 -108 -249 -270 -249zM325 124c73 0 122 46 122 116v190c0 70 -49 116 -122 116c-74 0 -123 -46 -123 -116v-190c0 -70 49 -116 123 -116z" />
    <glyph glyph-name="OE" unicode="&#x152;" horiz-adv-x="913" 
d="M821 534h-251v-131h212c22 0 35 -13 35 -35v-60c0 -22 -13 -35 -35 -35h-212v-137h251c22 0 34 -12 34 -34v-67c0 -23 -12 -35 -34 -35h-496c-164 0 -271 99 -271 249v172c0 150 107 249 271 249h496c22 0 34 -12 34 -35v-67c0 -22 -12 -34 -34 -34zM325 136h98v398h-98
c-74 0 -123 -46 -123 -116v-166c0 -70 49 -116 123 -116z" />
    <glyph glyph-name="P" unicode="P" horiz-adv-x="621" 
d="M352 670c143 0 237 -95 237 -239c0 -145 -94 -239 -237 -239h-128v-157c0 -23 -13 -35 -35 -35h-78c-22 0 -35 12 -35 35v600c0 23 13 35 35 35h241zM340 328c62 0 101 39 101 103c0 63 -39 103 -101 103h-116v-206h116z" />
    <glyph glyph-name="Thorn" unicode="&#xde;" horiz-adv-x="629" 
d="M373 564c136 0 226 -88 226 -226c0 -139 -90 -232 -226 -232h-149v-71c0 -23 -13 -35 -35 -35h-78c-22 0 -35 12 -35 35v600c0 23 13 35 35 35h78c22 0 35 -12 35 -35v-71h149zM358 242c58 0 93 36 93 93s-35 93 -93 93h-134v-186h134z" />
    <glyph glyph-name="Q" unicode="Q" horiz-adv-x="649" 
d="M595 237c0 -85 -35 -154 -94 -197l42 -85c12 -24 1 -40 -25 -40h-65c-19 0 -31 9 -40 25l-27 53c-19 -3 -40 -5 -61 -5c-164 0 -271 99 -271 249v196c0 150 107 249 271 249c162 0 270 -99 270 -249v-196zM428 185l3 -7c10 18 16 38 16 62v190c0 70 -49 116 -122 116
c-74 0 -123 -46 -123 -116v-190c0 -70 49 -116 123 -116c6 0 13 0 18 1l-22 45c-11 23 -1 39 25 39h43c18 0 31 -7 39 -24z" />
    <glyph glyph-name="R" unicode="R" horiz-adv-x="640" 
d="M477 233l112 -192c14 -25 5 -41 -22 -41h-98c-21 0 -33 6 -43 27l-96 185h-106v-177c0 -23 -13 -35 -35 -35h-78c-22 0 -35 12 -35 35v600c0 23 13 35 35 35h262c136 0 226 -88 226 -226c0 -100 -46 -176 -122 -211zM224 534v-186h134c58 0 93 35 93 93
c0 57 -35 93 -93 93h-134z" />
    <glyph glyph-name="Racute" unicode="&#x154;" horiz-adv-x="640" 
d="M295 721c-24 0 -33 16 -22 36l51 94c8 16 20 23 37 23h86c27 0 36 -18 17 -38l-85 -98c-10 -12 -22 -17 -37 -17h-47zM477 233l112 -192c14 -25 5 -41 -22 -41h-98c-21 0 -33 6 -43 27l-96 185h-106v-177c0 -23 -13 -35 -35 -35h-78c-22 0 -35 12 -35 35v600
c0 23 13 35 35 35h262c136 0 226 -88 226 -226c0 -100 -46 -176 -122 -211zM224 534v-186h134c58 0 93 35 93 93c0 57 -35 93 -93 93h-134z" />
    <glyph glyph-name="Rcaron" unicode="&#x158;" horiz-adv-x="640" 
d="M238 740l-73 96c-14 20 -6 38 20 38h50c16 0 28 -5 38 -18l48 -52h7l48 52c11 13 22 18 38 18h50c26 0 34 -18 20 -38l-72 -96c-9 -13 -22 -19 -38 -19h-99c-16 0 -28 6 -37 19zM477 233l112 -192c14 -25 5 -41 -22 -41h-98c-21 0 -33 6 -43 27l-96 185h-106v-177
c0 -23 -13 -35 -35 -35h-78c-22 0 -35 12 -35 35v600c0 23 13 35 35 35h262c136 0 226 -88 226 -226c0 -100 -46 -176 -122 -211zM224 534v-186h134c58 0 93 35 93 93c0 57 -35 93 -93 93h-134z" />
    <glyph glyph-name="uni0156" unicode="&#x156;" horiz-adv-x="640" 
d="M477 233l112 -192c14 -25 5 -41 -22 -41h-98c-21 0 -33 6 -43 27l-96 185h-106v-177c0 -23 -13 -35 -35 -35h-78c-22 0 -35 12 -35 35v600c0 23 13 35 35 35h262c136 0 226 -88 226 -226c0 -100 -46 -176 -122 -211zM224 534v-186h134c58 0 93 35 93 93
c0 57 -35 93 -93 93h-134zM369 -51c24 0 33 -16 22 -37l-59 -124c-9 -15 -20 -22 -38 -22h-41c-22 0 -32 13 -27 34l28 122c3 18 15 27 34 27h81z" />
    <glyph glyph-name="uni0210" unicode="&#x210;" horiz-adv-x="640" 
d="M175 743l-56 94c-12 20 -2 37 22 37h69c18 0 29 -8 36 -25l39 -92c8 -21 -3 -36 -26 -36h-47c-17 0 -28 6 -37 22zM374 743l-56 94c-11 20 -2 37 22 37h69c18 0 30 -8 36 -25l38 -92c7 -21 -2 -36 -25 -36h-47c-17 0 -29 6 -37 22zM477 233l112 -192
c14 -25 5 -41 -22 -41h-98c-21 0 -33 6 -43 27l-96 185h-106v-177c0 -23 -13 -35 -35 -35h-78c-22 0 -35 12 -35 35v600c0 23 13 35 35 35h262c136 0 226 -88 226 -226c0 -100 -46 -176 -122 -211zM224 534v-186h134c58 0 93 35 93 93c0 57 -35 93 -93 93h-134z" />
    <glyph glyph-name="uni1E5A" unicode="&#x1e5a;" horiz-adv-x="640" 
d="M477 233l112 -192c14 -25 5 -41 -22 -41h-98c-21 0 -33 6 -43 27l-96 185h-106v-177c0 -23 -13 -35 -35 -35h-78c-22 0 -35 12 -35 35v600c0 23 13 35 35 35h262c136 0 226 -88 226 -226c0 -100 -46 -176 -122 -211zM224 534v-186h134c58 0 93 35 93 93
c0 57 -35 93 -93 93h-134zM325 -54c48 0 79 -32 79 -80s-31 -80 -79 -80s-80 32 -80 80s32 80 80 80z" />
    <glyph glyph-name="uni0212" unicode="&#x212;" horiz-adv-x="640" 
d="M195 721c-20 0 -33 12 -30 33c12 80 71 126 160 126c87 0 146 -45 158 -125c3 -22 -10 -34 -30 -34h-54c-14 0 -21 8 -24 19c-3 26 -21 40 -50 40s-48 -13 -52 -40c-3 -11 -9 -19 -24 -19h-54zM477 233l112 -192c14 -25 5 -41 -22 -41h-98c-21 0 -33 6 -43 27l-96 185
h-106v-177c0 -23 -13 -35 -35 -35h-78c-22 0 -35 12 -35 35v600c0 23 13 35 35 35h262c136 0 226 -88 226 -226c0 -100 -46 -176 -122 -211zM224 534v-186h134c58 0 93 35 93 93c0 57 -35 93 -93 93h-134z" />
    <glyph glyph-name="S" unicode="S" horiz-adv-x="593" 
d="M299 -12c-146 0 -241 65 -258 179c-2 23 11 36 34 36h89c21 0 28 -10 34 -28c11 -46 47 -67 100 -67c55 0 100 27 100 69c0 122 -353 65 -353 307c0 125 102 198 249 198c139 0 229 -60 245 -168c3 -23 -11 -35 -33 -35h-88c-20 0 -28 10 -33 25c-12 39 -46 58 -93 58
c-50 0 -90 -24 -90 -64c0 -121 352 -57 352 -304c0 -127 -101 -206 -255 -206z" />
    <glyph glyph-name="Sacute" unicode="&#x15a;" horiz-adv-x="593" 
d="M268 721c-24 0 -33 16 -22 36l51 94c8 16 20 23 37 23h86c27 0 36 -18 17 -38l-85 -98c-10 -12 -22 -17 -37 -17h-47zM299 -12c-146 0 -241 65 -258 179c-2 23 11 36 34 36h89c21 0 28 -10 34 -28c11 -46 47 -67 100 -67c55 0 100 27 100 69c0 122 -353 65 -353 307
c0 125 102 198 249 198c139 0 229 -60 245 -168c3 -23 -11 -35 -33 -35h-88c-20 0 -28 10 -33 25c-12 39 -46 58 -93 58c-50 0 -90 -24 -90 -64c0 -121 352 -57 352 -304c0 -127 -101 -206 -255 -206z" />
    <glyph glyph-name="Scaron" unicode="&#x160;" horiz-adv-x="593" 
d="M247 721c-16 0 -28 6 -37 19l-73 96c-14 20 -6 38 20 38h50c16 0 28 -5 38 -18l48 -52h7l48 52c11 13 22 18 38 18h50c26 0 34 -18 20 -38l-72 -96c-9 -13 -22 -19 -38 -19h-99zM299 -12c-146 0 -241 65 -258 179c-2 23 11 36 34 36h89c21 0 28 -10 34 -28
c11 -46 47 -67 100 -67c55 0 100 27 100 69c0 122 -353 65 -353 307c0 125 102 198 249 198c139 0 229 -60 245 -168c3 -23 -11 -35 -33 -35h-88c-20 0 -28 10 -33 25c-12 39 -46 58 -93 58c-50 0 -90 -24 -90 -64c0 -121 352 -57 352 -304c0 -127 -101 -206 -255 -206z" />
    <glyph glyph-name="Scedilla" unicode="&#x15e;" horiz-adv-x="593" 
d="M554 194c0 -119 -88 -195 -225 -205l-17 -30h12c55 0 92 -35 92 -89c0 -61 -53 -102 -133 -102c-22 0 -43 3 -61 8s-25 18 -25 35v14c0 22 10 30 29 26c14 -4 29 -7 44 -7c30 0 51 11 51 30c0 14 -11 24 -27 24h-51c-15 0 -24 8 -24 23v9c0 8 2 14 6 21l24 40
c-117 13 -193 76 -208 176c-2 23 11 36 34 36h89c21 0 28 -10 34 -28c11 -46 47 -67 100 -67c55 0 100 27 100 69c0 122 -353 65 -353 307c0 125 102 198 249 198c139 0 229 -60 245 -168c3 -23 -11 -35 -33 -35h-88c-20 0 -28 10 -33 25c-12 39 -46 58 -93 58
c-50 0 -90 -24 -90 -64c0 -121 352 -57 352 -304z" />
    <glyph glyph-name="Scircumflex" unicode="&#x15c;" horiz-adv-x="593" 
d="M157 721c-26 0 -34 17 -20 38l72 96c9 13 22 19 38 19h99c16 0 28 -6 37 -19l73 -96c14 -21 6 -38 -20 -38h-50c-16 0 -27 5 -38 18l-48 52h-7l-48 -52c-10 -13 -22 -18 -38 -18h-50zM299 -12c-146 0 -241 65 -258 179c-2 23 11 36 34 36h89c21 0 28 -10 34 -28
c11 -46 47 -67 100 -67c55 0 100 27 100 69c0 122 -353 65 -353 307c0 125 102 198 249 198c139 0 229 -60 245 -168c3 -23 -11 -35 -33 -35h-88c-20 0 -28 10 -33 25c-12 39 -46 58 -93 58c-50 0 -90 -24 -90 -64c0 -121 352 -57 352 -304c0 -127 -101 -206 -255 -206z" />
    <glyph glyph-name="uni0218" unicode="&#x218;" horiz-adv-x="593" 
d="M299 -12c-146 0 -241 65 -258 179c-2 23 11 36 34 36h89c21 0 28 -10 34 -28c11 -46 47 -67 100 -67c55 0 100 27 100 69c0 122 -353 65 -353 307c0 125 102 198 249 198c139 0 229 -60 245 -168c3 -23 -11 -35 -33 -35h-88c-20 0 -28 10 -33 25c-12 39 -46 58 -93 58
c-50 0 -90 -24 -90 -64c0 -121 352 -57 352 -304c0 -127 -101 -206 -255 -206zM225 -234c-22 0 -32 13 -27 34l28 122c3 18 15 27 34 27h81c24 0 33 -16 22 -37l-59 -124c-9 -15 -20 -22 -38 -22h-41z" />
    <glyph glyph-name="uni1E62" unicode="&#x1e62;" horiz-adv-x="593" 
d="M299 -12c-146 0 -241 65 -258 179c-2 23 11 36 34 36h89c21 0 28 -10 34 -28c11 -46 47 -67 100 -67c55 0 100 27 100 69c0 122 -353 65 -353 307c0 125 102 198 249 198c139 0 229 -60 245 -168c3 -23 -11 -35 -33 -35h-88c-20 0 -28 10 -33 25c-12 39 -46 58 -93 58
c-50 0 -90 -24 -90 -64c0 -121 352 -57 352 -304c0 -127 -101 -206 -255 -206zM297 -214c-48 0 -80 32 -80 80s32 80 80 80s79 -32 79 -80s-31 -80 -79 -80z" />
    <glyph glyph-name="uni1E9E" unicode="&#x1e9e;" horiz-adv-x="665" 
d="M487 408c87 -13 145 -92 145 -198c0 -127 -82 -210 -208 -210h-85c-22 0 -34 12 -34 35v62c0 22 12 34 34 34h63c50 0 83 33 83 83s-33 84 -83 84h-42c-22 0 -35 12 -35 34v43c0 16 4 30 13 43l78 113v8h-192v-504c0 -23 -13 -35 -35 -35h-78c-22 0 -35 12 -35 35v600
c0 23 13 35 35 35h432c22 0 34 -12 34 -35v-48c0 -17 -4 -29 -14 -43l-92 -125v-9z" />
    <glyph glyph-name="T" unicode="T" horiz-adv-x="569" 
d="M500 670c22 0 35 -12 35 -35v-67c0 -22 -13 -34 -35 -34h-141v-499c0 -23 -13 -35 -35 -35h-78c-23 0 -35 12 -35 35v499h-143c-22 0 -34 12 -34 34v67c0 23 12 35 34 35h432z" />
    <glyph glyph-name="Tbar" unicode="&#x166;" horiz-adv-x="569" 
d="M500 670c22 0 35 -12 35 -35v-67c0 -22 -13 -34 -35 -34h-141v-176h74c20 0 31 -11 31 -31v-57c0 -20 -11 -31 -31 -31h-74v-204c0 -23 -13 -35 -35 -35h-78c-23 0 -35 12 -35 35v204h-75c-20 0 -31 11 -31 31v57c0 20 11 31 31 31h75v176h-143c-22 0 -34 12 -34 34v67
c0 23 12 35 34 35h432z" />
    <glyph glyph-name="Tcaron" unicode="&#x164;" horiz-adv-x="569" 
d="M197 740l-73 96c-14 20 -6 38 20 38h50c16 0 28 -5 38 -18l48 -52h7l48 52c11 13 22 18 38 18h50c26 0 34 -18 20 -38l-72 -96c-9 -13 -22 -19 -38 -19h-99c-16 0 -28 6 -37 19zM500 670c22 0 35 -12 35 -35v-67c0 -22 -13 -34 -35 -34h-141v-499c0 -23 -13 -35 -35 -35
h-78c-23 0 -35 12 -35 35v499h-143c-22 0 -34 12 -34 34v67c0 23 12 35 34 35h432z" />
    <glyph glyph-name="uni0162" unicode="&#x162;" horiz-adv-x="569" 
d="M500 670c22 0 35 -12 35 -35v-67c0 -22 -13 -34 -35 -34h-141v-499c0 -23 -13 -35 -35 -35h-2l-23 -41h12c55 0 92 -35 92 -89c0 -61 -53 -102 -133 -102c-22 0 -43 3 -61 8s-25 18 -25 35v14c0 22 10 30 29 26c14 -4 29 -7 44 -7c30 0 51 11 51 30c0 14 -11 24 -27 24
h-51c-15 0 -24 8 -24 23v9c0 8 2 14 6 21l30 49c-20 2 -31 13 -31 35v499h-143c-22 0 -34 12 -34 34v67c0 23 12 35 34 35h432z" />
    <glyph glyph-name="uni021A" unicode="&#x21a;" horiz-adv-x="569" 
d="M500 670c22 0 35 -12 35 -35v-67c0 -22 -13 -34 -35 -34h-141v-499c0 -23 -13 -35 -35 -35h-78c-23 0 -35 12 -35 35v499h-143c-22 0 -34 12 -34 34v67c0 23 12 35 34 35h432zM328 -51c24 0 33 -16 22 -37l-59 -124c-9 -15 -20 -22 -38 -22h-41c-22 0 -32 13 -27 34
l28 122c3 18 15 27 34 27h81z" />
    <glyph glyph-name="uni1E6C" unicode="&#x1e6c;" horiz-adv-x="569" 
d="M500 670c22 0 35 -12 35 -35v-67c0 -22 -13 -34 -35 -34h-141v-499c0 -23 -13 -35 -35 -35h-78c-23 0 -35 12 -35 35v499h-143c-22 0 -34 12 -34 34v67c0 23 12 35 34 35h432zM285 -54c48 0 79 -32 79 -80s-31 -80 -79 -80s-80 32 -80 80s32 80 80 80z" />
    <glyph glyph-name="U" unicode="U" horiz-adv-x="654" 
d="M328 -12c-158 0 -261 95 -261 239v408c0 23 12 35 35 35h78c22 0 35 -12 35 -35v-405c0 -64 44 -106 113 -106c67 0 112 42 112 106v405c0 23 12 35 35 35h78c22 0 34 -12 34 -35v-408c0 -144 -103 -239 -259 -239z" />
    <glyph glyph-name="Uacute" unicode="&#xda;" horiz-adv-x="654" 
d="M298 721c-24 0 -33 16 -22 36l51 94c8 16 20 23 37 23h86c27 0 36 -18 17 -38l-85 -98c-10 -12 -22 -17 -37 -17h-47zM328 -12c-158 0 -261 95 -261 239v408c0 23 12 35 35 35h78c22 0 35 -12 35 -35v-405c0 -64 44 -106 113 -106c67 0 112 42 112 106v405
c0 23 12 35 35 35h78c22 0 34 -12 34 -35v-408c0 -144 -103 -239 -259 -239z" />
    <glyph glyph-name="Ubreve" unicode="&#x16c;" horiz-adv-x="654" 
d="M328 713c-89 0 -149 47 -160 127c-3 21 10 33 30 33h54c15 0 21 -8 24 -20c5 -27 23 -40 52 -40s47 15 50 40c3 12 10 20 24 20h54c20 0 33 -13 30 -34c-12 -81 -71 -126 -158 -126zM328 -12c-158 0 -261 95 -261 239v408c0 23 12 35 35 35h78c22 0 35 -12 35 -35v-405
c0 -64 44 -106 113 -106c67 0 112 42 112 106v405c0 23 12 35 35 35h78c22 0 34 -12 34 -35v-408c0 -144 -103 -239 -259 -239z" />
    <glyph glyph-name="Ucircumflex" unicode="&#xdb;" horiz-adv-x="654" 
d="M188 721c-26 0 -34 17 -20 38l72 96c9 13 22 19 38 19h99c16 0 28 -6 37 -19l73 -96c14 -21 6 -38 -20 -38h-50c-16 0 -27 5 -38 18l-48 52h-7l-48 -52c-10 -13 -22 -18 -38 -18h-50zM328 -12c-158 0 -261 95 -261 239v408c0 23 12 35 35 35h78c22 0 35 -12 35 -35v-405
c0 -64 44 -106 113 -106c67 0 112 42 112 106v405c0 23 12 35 35 35h78c22 0 34 -12 34 -35v-408c0 -144 -103 -239 -259 -239z" />
    <glyph glyph-name="uni0214" unicode="&#x214;" horiz-adv-x="654" 
d="M215 721c-17 0 -28 6 -37 22l-56 94c-12 20 -2 37 22 37h69c18 0 29 -8 36 -25l39 -92c8 -21 -3 -36 -26 -36h-47zM414 721c-17 0 -29 6 -37 22l-56 94c-11 20 -2 37 22 37h69c18 0 30 -8 36 -25l38 -92c7 -21 -2 -36 -25 -36h-47zM328 -12c-158 0 -261 95 -261 239v408
c0 23 12 35 35 35h78c22 0 35 -12 35 -35v-405c0 -64 44 -106 113 -106c67 0 112 42 112 106v405c0 23 12 35 35 35h78c22 0 34 -12 34 -35v-408c0 -144 -103 -239 -259 -239z" />
    <glyph glyph-name="Udieresis" unicode="&#xdc;" horiz-adv-x="654" 
d="M225 724c-46 0 -77 31 -77 77c0 45 31 75 77 75c45 0 75 -30 75 -75c0 -46 -30 -77 -75 -77zM432 724c-46 0 -77 31 -77 77c0 45 31 75 77 75c45 0 75 -30 75 -75c0 -46 -30 -77 -75 -77zM328 -12c-158 0 -261 95 -261 239v408c0 23 12 35 35 35h78c22 0 35 -12 35 -35
v-405c0 -64 44 -106 113 -106c67 0 112 42 112 106v405c0 23 12 35 35 35h78c22 0 34 -12 34 -35v-408c0 -144 -103 -239 -259 -239z" />
    <glyph glyph-name="uni1EE4" unicode="&#x1ee4;" horiz-adv-x="654" 
d="M328 -12c-158 0 -261 95 -261 239v408c0 23 12 35 35 35h78c22 0 35 -12 35 -35v-405c0 -64 44 -106 113 -106c67 0 112 42 112 106v405c0 23 12 35 35 35h78c22 0 34 -12 34 -35v-408c0 -144 -103 -239 -259 -239zM328 -214c-48 0 -80 32 -80 80s32 80 80 80
s79 -32 79 -80s-31 -80 -79 -80z" />
    <glyph glyph-name="Ugrave" unicode="&#xd9;" horiz-adv-x="654" 
d="M309 721c-15 0 -27 5 -38 17l-85 98c-18 20 -9 38 18 38h86c17 0 29 -7 36 -23l52 -94c11 -20 1 -36 -23 -36h-46zM328 -12c-158 0 -261 95 -261 239v408c0 23 12 35 35 35h78c22 0 35 -12 35 -35v-405c0 -64 44 -106 113 -106c67 0 112 42 112 106v405c0 23 12 35 35 35
h78c22 0 34 -12 34 -35v-408c0 -144 -103 -239 -259 -239z" />
    <glyph glyph-name="Uhungarumlaut" unicode="&#x170;" horiz-adv-x="654" 
d="M192 721c-22 0 -31 15 -24 36l38 92c6 17 18 25 36 25h69c24 0 34 -17 22 -37l-55 -94c-9 -16 -21 -22 -38 -22h-48zM391 721c-22 0 -33 15 -25 36l40 92c6 17 17 25 35 25h69c24 0 35 -17 22 -37l-56 -94c-9 -16 -20 -22 -37 -22h-48zM328 -12c-158 0 -261 95 -261 239
v408c0 23 12 35 35 35h78c22 0 35 -12 35 -35v-405c0 -64 44 -106 113 -106c67 0 112 42 112 106v405c0 23 12 35 35 35h78c22 0 34 -12 34 -35v-408c0 -144 -103 -239 -259 -239z" />
    <glyph glyph-name="uni0216" unicode="&#x216;" horiz-adv-x="654" 
d="M328 880c87 0 146 -45 158 -125c3 -22 -10 -34 -30 -34h-54c-14 0 -21 8 -24 19c-3 26 -21 40 -50 40s-48 -13 -52 -40c-3 -11 -9 -19 -24 -19h-54c-20 0 -33 12 -30 33c12 80 71 126 160 126zM328 -12c-158 0 -261 95 -261 239v408c0 23 12 35 35 35h78
c22 0 35 -12 35 -35v-405c0 -64 44 -106 113 -106c67 0 112 42 112 106v405c0 23 12 35 35 35h78c22 0 34 -12 34 -35v-408c0 -144 -103 -239 -259 -239z" />
    <glyph glyph-name="Umacron" unicode="&#x16a;" horiz-adv-x="654" 
d="M209 739c-20 0 -31 11 -31 31v47c0 20 11 31 31 31h237c20 0 31 -11 31 -31v-47c0 -20 -11 -31 -31 -31h-237zM328 -12c-158 0 -261 95 -261 239v408c0 23 12 35 35 35h78c22 0 35 -12 35 -35v-405c0 -64 44 -106 113 -106c67 0 112 42 112 106v405c0 23 12 35 35 35h78
c22 0 34 -12 34 -35v-408c0 -144 -103 -239 -259 -239z" />
    <glyph glyph-name="Uogonek" unicode="&#x172;" horiz-adv-x="654" 
d="M553 670c22 0 34 -12 34 -35v-408c0 -119 -71 -205 -183 -231h-1c-34 -15 -55 -45 -55 -76c0 -24 16 -40 40 -40c6 0 12 1 17 2c14 4 21 -1 21 -19v-46c0 -13 -4 -22 -15 -26c-15 -6 -39 -9 -65 -9c-75 0 -125 42 -125 105c0 43 22 82 59 104c-131 18 -213 107 -213 236
v408c0 23 12 35 35 35h78c22 0 35 -12 35 -35v-405c0 -64 44 -106 113 -106c67 0 112 42 112 106v405c0 23 12 35 35 35h78z" />
    <glyph glyph-name="Uring" unicode="&#x16e;" horiz-adv-x="654" 
d="M328 713c-72 0 -119 46 -119 113s47 113 119 113c70 0 117 -46 117 -113s-47 -113 -117 -113zM328 780c26 0 44 19 44 46s-18 46 -44 46c-27 0 -46 -19 -46 -46c0 -26 18 -46 46 -46zM328 -12c-158 0 -261 95 -261 239v408c0 23 12 35 35 35h78c22 0 35 -12 35 -35v-405
c0 -64 44 -106 113 -106c67 0 112 42 112 106v405c0 23 12 35 35 35h78c22 0 34 -12 34 -35v-408c0 -144 -103 -239 -259 -239z" />
    <glyph glyph-name="Utilde" unicode="&#x168;" horiz-adv-x="654" 
d="M409 725c-60 0 -96 46 -133 46c-17 0 -29 -10 -34 -25c-4 -12 -9 -18 -29 -18h-53c-15 0 -24 8 -23 24c5 87 40 132 109 132c60 0 92 -46 130 -46c18 0 31 9 36 25c4 12 9 18 29 18h53c15 0 25 -12 23 -33c-7 -81 -42 -123 -108 -123zM328 -12c-158 0 -261 95 -261 239
v408c0 23 12 35 35 35h78c22 0 35 -12 35 -35v-405c0 -64 44 -106 113 -106c67 0 112 42 112 106v405c0 23 12 35 35 35h78c22 0 34 -12 34 -35v-408c0 -144 -103 -239 -259 -239z" />
    <glyph glyph-name="V" unicode="V" horiz-adv-x="632" 
d="M251 0c-20 0 -33 10 -38 30l-179 601c-6 24 5 39 30 39h91c21 0 34 -10 38 -31l121 -473h10l120 473c4 21 17 31 38 31h86c25 0 36 -15 30 -39l-179 -601c-5 -20 -18 -30 -38 -30h-130z" />
    <glyph glyph-name="W" unicode="W" horiz-adv-x="946" 
d="M222 0c-20 0 -34 11 -38 31l-144 601c-5 23 6 38 30 38h93c21 0 34 -11 36 -32l87 -435h9l104 436c4 21 17 31 37 31h79c20 0 33 -10 37 -31l105 -436h9l86 435c2 21 15 32 36 32h87c24 0 35 -15 31 -38l-145 -601c-4 -20 -17 -31 -38 -31h-115c-20 0 -33 10 -37 31
l-93 384h-10l-94 -384c-4 -21 -16 -31 -37 -31h-115z" />
    <glyph glyph-name="Wacute" unicode="&#x1e82;" horiz-adv-x="946" 
d="M443 721c-24 0 -33 16 -22 36l51 94c8 16 20 23 37 23h86c27 0 36 -18 17 -38l-85 -98c-10 -12 -22 -17 -37 -17h-47zM222 0c-20 0 -34 11 -38 31l-144 601c-5 23 6 38 30 38h93c21 0 34 -11 36 -32l87 -435h9l104 436c4 21 17 31 37 31h79c20 0 33 -10 37 -31l105 -436
h9l86 435c2 21 15 32 36 32h87c24 0 35 -15 31 -38l-145 -601c-4 -20 -17 -31 -38 -31h-115c-20 0 -33 10 -37 31l-93 384h-10l-94 -384c-4 -21 -16 -31 -37 -31h-115z" />
    <glyph glyph-name="Wcircumflex" unicode="&#x174;" horiz-adv-x="946" 
d="M333 721c-26 0 -34 17 -20 38l72 96c9 13 22 19 38 19h99c16 0 28 -6 37 -19l73 -96c14 -21 6 -38 -20 -38h-50c-16 0 -27 5 -38 18l-48 52h-7l-48 -52c-10 -13 -22 -18 -38 -18h-50zM222 0c-20 0 -34 11 -38 31l-144 601c-5 23 6 38 30 38h93c21 0 34 -11 36 -32
l87 -435h9l104 436c4 21 17 31 37 31h79c20 0 33 -10 37 -31l105 -436h9l86 435c2 21 15 32 36 32h87c24 0 35 -15 31 -38l-145 -601c-4 -20 -17 -31 -38 -31h-115c-20 0 -33 10 -37 31l-93 384h-10l-94 -384c-4 -21 -16 -31 -37 -31h-115z" />
    <glyph glyph-name="Wdieresis" unicode="&#x1e84;" horiz-adv-x="946" 
d="M370 724c-46 0 -77 31 -77 77c0 45 31 75 77 75c45 0 75 -30 75 -75c0 -46 -30 -77 -75 -77zM577 724c-46 0 -77 31 -77 77c0 45 31 75 77 75c45 0 75 -30 75 -75c0 -46 -30 -77 -75 -77zM222 0c-20 0 -34 11 -38 31l-144 601c-5 23 6 38 30 38h93c21 0 34 -11 36 -32
l87 -435h9l104 436c4 21 17 31 37 31h79c20 0 33 -10 37 -31l105 -436h9l86 435c2 21 15 32 36 32h87c24 0 35 -15 31 -38l-145 -601c-4 -20 -17 -31 -38 -31h-115c-20 0 -33 10 -37 31l-93 384h-10l-94 -384c-4 -21 -16 -31 -37 -31h-115z" />
    <glyph glyph-name="Wgrave" unicode="&#x1e80;" horiz-adv-x="946" 
d="M455 721c-15 0 -27 5 -38 17l-85 98c-18 20 -9 38 18 38h86c17 0 29 -7 36 -23l52 -94c11 -20 1 -36 -23 -36h-46zM222 0c-20 0 -34 11 -38 31l-144 601c-5 23 6 38 30 38h93c21 0 34 -11 36 -32l87 -435h9l104 436c4 21 17 31 37 31h79c20 0 33 -10 37 -31l105 -436h9
l86 435c2 21 15 32 36 32h87c24 0 35 -15 31 -38l-145 -601c-4 -20 -17 -31 -38 -31h-115c-20 0 -33 10 -37 31l-93 384h-10l-94 -384c-4 -21 -16 -31 -37 -31h-115z" />
    <glyph glyph-name="X" unicode="X" horiz-adv-x="640" 
d="M76 0c-26 0 -36 17 -22 44l172 285l-178 297c-15 26 -4 44 23 44h104c19 0 32 -8 41 -26l103 -178h11l102 178c8 18 22 26 41 26h90c27 0 37 -17 22 -44l-171 -285l179 -297c15 -26 4 -44 -22 -44h-105c-19 0 -32 8 -41 26l-103 178h-11l-103 -178
c-9 -18 -22 -26 -41 -26h-91z" />
    <glyph glyph-name="Y" unicode="Y" horiz-adv-x="612" 
d="M267 0c-22 0 -35 12 -35 35v228l-197 366c-12 25 -1 41 26 41h95c19 0 32 -9 40 -27l108 -219h10l107 219c8 19 21 27 40 27h90c27 0 38 -16 25 -41l-196 -365v-229c0 -23 -12 -35 -35 -35h-78z" />
    <glyph glyph-name="Yacute" unicode="&#xdd;" horiz-adv-x="612" 
d="M277 721c-24 0 -33 16 -22 36l51 94c8 16 20 23 37 23h86c27 0 36 -18 17 -38l-85 -98c-10 -12 -22 -17 -37 -17h-47zM267 0c-22 0 -35 12 -35 35v228l-197 366c-12 25 -1 41 26 41h95c19 0 32 -9 40 -27l108 -219h10l107 219c8 19 21 27 40 27h90c27 0 38 -16 25 -41
l-196 -365v-229c0 -23 -12 -35 -35 -35h-78z" />
    <glyph glyph-name="Ycircumflex" unicode="&#x176;" horiz-adv-x="612" 
d="M166 721c-26 0 -34 17 -20 38l72 96c9 13 22 19 38 19h99c16 0 28 -6 37 -19l73 -96c14 -21 6 -38 -20 -38h-50c-16 0 -27 5 -38 18l-48 52h-7l-48 -52c-10 -13 -22 -18 -38 -18h-50zM267 0c-22 0 -35 12 -35 35v228l-197 366c-12 25 -1 41 26 41h95c19 0 32 -9 40 -27
l108 -219h10l107 219c8 19 21 27 40 27h90c27 0 38 -16 25 -41l-196 -365v-229c0 -23 -12 -35 -35 -35h-78z" />
    <glyph glyph-name="Ydieresis" unicode="&#x178;" horiz-adv-x="612" 
d="M203 724c-46 0 -77 31 -77 77c0 45 31 75 77 75c45 0 75 -30 75 -75c0 -46 -30 -77 -75 -77zM410 724c-46 0 -77 31 -77 77c0 45 31 75 77 75c45 0 75 -30 75 -75c0 -46 -30 -77 -75 -77zM267 0c-22 0 -35 12 -35 35v228l-197 366c-12 25 -1 41 26 41h95
c19 0 32 -9 40 -27l108 -219h10l107 219c8 19 21 27 40 27h90c27 0 38 -16 25 -41l-196 -365v-229c0 -23 -12 -35 -35 -35h-78z" />
    <glyph glyph-name="Ygrave" unicode="&#x1ef2;" horiz-adv-x="612" 
d="M288 721c-15 0 -27 5 -38 17l-85 98c-18 20 -9 38 18 38h86c17 0 29 -7 36 -23l52 -94c11 -20 1 -36 -23 -36h-46zM267 0c-22 0 -35 12 -35 35v228l-197 366c-12 25 -1 41 26 41h95c19 0 32 -9 40 -27l108 -219h10l107 219c8 19 21 27 40 27h90c27 0 38 -16 25 -41
l-196 -365v-229c0 -23 -12 -35 -35 -35h-78z" />
    <glyph glyph-name="uni0232" unicode="&#x232;" horiz-adv-x="612" 
d="M188 739c-20 0 -31 11 -31 31v47c0 20 11 31 31 31h237c20 0 31 -11 31 -31v-47c0 -20 -11 -31 -31 -31h-237zM267 0c-22 0 -35 12 -35 35v228l-197 366c-12 25 -1 41 26 41h95c19 0 32 -9 40 -27l108 -219h10l107 219c8 19 21 27 40 27h90c27 0 38 -16 25 -41l-196 -365
v-229c0 -23 -12 -35 -35 -35h-78z" />
    <glyph glyph-name="uni1EF8" unicode="&#x1ef8;" horiz-adv-x="612" 
d="M388 725c-60 0 -96 46 -133 46c-17 0 -29 -10 -34 -25c-4 -12 -9 -18 -29 -18h-53c-15 0 -24 8 -23 24c5 87 40 132 109 132c60 0 92 -46 130 -46c18 0 31 9 36 25c4 12 9 18 29 18h53c15 0 25 -12 23 -33c-7 -81 -42 -123 -108 -123zM267 0c-22 0 -35 12 -35 35v228
l-197 366c-12 25 -1 41 26 41h95c19 0 32 -9 40 -27l108 -219h10l107 219c8 19 21 27 40 27h90c27 0 38 -16 25 -41l-196 -365v-229c0 -23 -12 -35 -35 -35h-78z" />
    <glyph glyph-name="Z" unicode="Z" horiz-adv-x="578" 
d="M85 0c-22 0 -34 12 -34 35v53c0 17 4 29 14 43l263 395v8h-238c-22 0 -34 12 -34 34v67c0 23 12 35 34 35h398c22 0 34 -12 34 -35v-53c0 -17 -4 -29 -14 -43l-263 -395v-8h248c22 0 34 -12 34 -34v-67c0 -23 -12 -35 -34 -35h-408z" />
    <glyph glyph-name="Zacute" unicode="&#x179;" horiz-adv-x="578" 
d="M260 721c-24 0 -33 16 -22 36l51 94c8 16 20 23 37 23h86c27 0 36 -18 17 -38l-85 -98c-10 -12 -22 -17 -37 -17h-47zM85 0c-22 0 -34 12 -34 35v53c0 17 4 29 14 43l263 395v8h-238c-22 0 -34 12 -34 34v67c0 23 12 35 34 35h398c22 0 34 -12 34 -35v-53
c0 -17 -4 -29 -14 -43l-263 -395v-8h248c22 0 34 -12 34 -34v-67c0 -23 -12 -35 -34 -35h-408z" />
    <glyph glyph-name="Zcaron" unicode="&#x17d;" horiz-adv-x="578" 
d="M240 721c-16 0 -28 6 -37 19l-73 96c-14 20 -6 38 20 38h50c16 0 28 -5 38 -18l48 -52h7l48 52c11 13 22 18 38 18h50c26 0 34 -18 20 -38l-72 -96c-9 -13 -22 -19 -38 -19h-99zM85 0c-22 0 -34 12 -34 35v53c0 17 4 29 14 43l263 395v8h-238c-22 0 -34 12 -34 34v67
c0 23 12 35 34 35h398c22 0 34 -12 34 -35v-53c0 -17 -4 -29 -14 -43l-263 -395v-8h248c22 0 34 -12 34 -34v-67c0 -23 -12 -35 -34 -35h-408z" />
    <glyph glyph-name="Zdotaccent" unicode="&#x17b;" horiz-adv-x="578" 
d="M290 724c-48 0 -80 32 -80 80s32 80 80 80s79 -32 79 -80s-31 -80 -79 -80zM85 0c-22 0 -34 12 -34 35v53c0 17 4 29 14 43l263 395v8h-238c-22 0 -34 12 -34 34v67c0 23 12 35 34 35h398c22 0 34 -12 34 -35v-53c0 -17 -4 -29 -14 -43l-263 -395v-8h248
c22 0 34 -12 34 -34v-67c0 -23 -12 -35 -34 -35h-408z" />
    <glyph glyph-name="uni1E92" unicode="&#x1e92;" horiz-adv-x="578" 
d="M85 0c-22 0 -34 12 -34 35v53c0 17 4 29 14 43l263 395v8h-238c-22 0 -34 12 -34 34v67c0 23 12 35 34 35h398c22 0 34 -12 34 -35v-53c0 -17 -4 -29 -14 -43l-263 -395v-8h248c22 0 34 -12 34 -34v-67c0 -23 -12 -35 -34 -35h-408zM290 -214c-48 0 -80 32 -80 80
s32 80 80 80s79 -32 79 -80s-31 -80 -79 -80z" />
    <glyph glyph-name="K.ss02" horiz-adv-x="632" 
d="M590 41c12 -25 0 -41 -24 -41h-101c-20 0 -33 8 -40 27l-122 243h-79v-235c0 -23 -13 -35 -35 -35h-78c-22 0 -35 12 -35 35v600c0 23 13 35 35 35h78c22 0 35 -12 35 -35v-229h76l131 238c8 18 21 26 40 26h90c24 0 35 -17 22 -42l-164 -275z" />
    <glyph glyph-name="uni0136.ss02" horiz-adv-x="632" 
d="M590 41c12 -25 0 -41 -24 -41h-101c-20 0 -33 8 -40 27l-122 243h-79v-235c0 -23 -13 -35 -35 -35h-78c-22 0 -35 12 -35 35v600c0 23 13 35 35 35h78c22 0 35 -12 35 -35v-229h76l131 238c8 18 21 26 40 26h90c24 0 35 -17 22 -42l-164 -275zM387 -51
c24 0 33 -16 22 -37l-59 -124c-9 -15 -20 -22 -38 -22h-41c-22 0 -32 13 -27 34l28 122c3 18 15 27 34 27h81z" />
    <glyph glyph-name="I.ss03" horiz-adv-x="422" 
d="M339 534h-54v-398h54c22 0 35 -12 35 -34v-67c0 -23 -13 -35 -35 -35h-256c-22 0 -35 12 -35 35v67c0 22 13 34 35 34h55v398h-55c-22 0 -35 12 -35 34v67c0 23 13 35 35 35h256c22 0 35 -12 35 -35v-67c0 -22 -13 -34 -35 -34z" />
    <glyph glyph-name="Iacute.ss03" horiz-adv-x="422" 
d="M182 721c-24 0 -33 16 -22 36l51 94c8 16 20 23 37 23h86c27 0 36 -18 17 -38l-85 -98c-10 -12 -22 -17 -37 -17h-47zM339 534h-54v-398h54c22 0 35 -12 35 -34v-67c0 -23 -13 -35 -35 -35h-256c-22 0 -35 12 -35 35v67c0 22 13 34 35 34h55v398h-55c-22 0 -35 12 -35 34
v67c0 23 13 35 35 35h256c22 0 35 -12 35 -35v-67c0 -22 -13 -34 -35 -34z" />
    <glyph glyph-name="Ibreve.ss03" horiz-adv-x="422" 
d="M211 713c-89 0 -149 47 -160 127c-3 21 10 33 30 33h54c15 0 21 -8 24 -20c5 -27 23 -40 52 -40s47 15 50 40c3 12 10 20 24 20h54c20 0 33 -13 30 -34c-12 -81 -71 -126 -158 -126zM339 534h-54v-398h54c22 0 35 -12 35 -34v-67c0 -23 -13 -35 -35 -35h-256
c-22 0 -35 12 -35 35v67c0 22 13 34 35 34h55v398h-55c-22 0 -35 12 -35 34v67c0 23 13 35 35 35h256c22 0 35 -12 35 -35v-67c0 -22 -13 -34 -35 -34z" />
    <glyph glyph-name="Icircumflex.ss03" horiz-adv-x="422" 
d="M71 721c-26 0 -34 17 -20 38l72 96c9 13 22 19 38 19h99c16 0 28 -6 37 -19l73 -96c14 -21 6 -38 -20 -38h-50c-16 0 -27 5 -38 18l-48 52h-7l-48 -52c-10 -13 -22 -18 -38 -18h-50zM339 670c22 0 35 -12 35 -35v-67c0 -22 -13 -34 -35 -34h-54v-398h54
c22 0 35 -12 35 -34v-67c0 -23 -13 -35 -35 -35h-256c-22 0 -35 12 -35 35v67c0 22 13 34 35 34h55v398h-55c-22 0 -35 12 -35 34v67c0 23 13 35 35 35h256z" />
    <glyph glyph-name="uni0208.ss03" horiz-adv-x="422" 
d="M98 721c-17 0 -28 6 -37 22l-56 94c-12 20 -2 37 22 37h69c18 0 29 -8 36 -25l39 -92c8 -21 -3 -36 -26 -36h-47zM260 743l-56 94c-11 20 -2 37 22 37h69c18 0 30 -8 36 -25l38 -92c7 -21 -2 -36 -25 -36h-47c-17 0 -29 6 -37 22zM339 534h-54v-398h54
c22 0 35 -12 35 -34v-67c0 -23 -13 -35 -35 -35h-256c-22 0 -35 12 -35 35v67c0 22 13 34 35 34h55v398h-55c-22 0 -35 12 -35 34v67c0 23 13 35 35 35h256c22 0 35 -12 35 -35v-67c0 -22 -13 -34 -35 -34z" />
    <glyph glyph-name="Idieresis.ss03" horiz-adv-x="422" 
d="M108 724c-46 0 -77 31 -77 77c0 45 31 75 77 75c45 0 75 -30 75 -75c0 -46 -30 -77 -75 -77zM315 724c-46 0 -77 31 -77 77c0 45 31 75 77 75c45 0 75 -30 75 -75c0 -46 -30 -77 -75 -77zM339 670c22 0 35 -12 35 -35v-67c0 -22 -13 -34 -35 -34h-54v-398h54
c22 0 35 -12 35 -34v-67c0 -23 -13 -35 -35 -35h-256c-22 0 -35 12 -35 35v67c0 22 13 34 35 34h55v398h-55c-22 0 -35 12 -35 34v67c0 23 13 35 35 35h256z" />
    <glyph glyph-name="Idotaccent.ss03" horiz-adv-x="422" 
d="M211 724c-48 0 -80 32 -80 80s32 80 80 80s79 -32 79 -80s-31 -80 -79 -80zM339 534h-54v-398h54c22 0 35 -12 35 -34v-67c0 -23 -13 -35 -35 -35h-256c-22 0 -35 12 -35 35v67c0 22 13 34 35 34h55v398h-55c-22 0 -35 12 -35 34v67c0 23 13 35 35 35h256
c22 0 35 -12 35 -35v-67c0 -22 -13 -34 -35 -34z" />
    <glyph glyph-name="uni1ECA.ss03" horiz-adv-x="422" 
d="M339 534h-54v-398h54c22 0 35 -12 35 -34v-67c0 -23 -13 -35 -35 -35h-256c-22 0 -35 12 -35 35v67c0 22 13 34 35 34h55v398h-55c-22 0 -35 12 -35 34v67c0 23 13 35 35 35h256c22 0 35 -12 35 -35v-67c0 -22 -13 -34 -35 -34zM211 -54c48 0 79 -32 79 -80
s-31 -80 -79 -80s-80 32 -80 80s32 80 80 80z" />
    <glyph glyph-name="Igrave.ss03" horiz-adv-x="422" 
d="M155 738l-85 98c-18 20 -9 38 18 38h86c17 0 29 -7 36 -23l52 -94c11 -20 1 -36 -23 -36h-46c-15 0 -27 5 -38 17zM339 534h-54v-398h54c22 0 35 -12 35 -34v-67c0 -23 -13 -35 -35 -35h-256c-22 0 -35 12 -35 35v67c0 22 13 34 35 34h55v398h-55c-22 0 -35 12 -35 34v67
c0 23 13 35 35 35h256c22 0 35 -12 35 -35v-67c0 -22 -13 -34 -35 -34z" />
    <glyph glyph-name="uni020A.ss03" horiz-adv-x="422" 
d="M81 721c-20 0 -33 12 -30 33c12 80 71 126 160 126c87 0 146 -45 158 -125c3 -22 -10 -34 -30 -34h-54c-14 0 -21 8 -24 19c-3 26 -21 40 -50 40s-48 -13 -52 -40c-3 -11 -9 -19 -24 -19h-54zM339 534h-54v-398h54c22 0 35 -12 35 -34v-67c0 -23 -13 -35 -35 -35h-256
c-22 0 -35 12 -35 35v67c0 22 13 34 35 34h55v398h-55c-22 0 -35 12 -35 34v67c0 23 13 35 35 35h256c22 0 35 -12 35 -35v-67c0 -22 -13 -34 -35 -34z" />
    <glyph glyph-name="Imacron.ss03" horiz-adv-x="422" 
d="M93 739c-20 0 -31 11 -31 31v47c0 20 11 31 31 31h237c20 0 31 -11 31 -31v-47c0 -20 -11 -31 -31 -31h-237zM339 534h-54v-398h54c22 0 35 -12 35 -34v-67c0 -23 -13 -35 -35 -35h-256c-22 0 -35 12 -35 35v67c0 22 13 34 35 34h55v398h-55c-22 0 -35 12 -35 34v67
c0 23 13 35 35 35h256c22 0 35 -12 35 -35v-67c0 -22 -13 -34 -35 -34z" />
    <glyph glyph-name="Iogonek.ss03" horiz-adv-x="422" 
d="M362 -118c14 4 21 -1 21 -19v-46c0 -13 -4 -22 -15 -26c-15 -6 -39 -9 -65 -9c-75 0 -125 42 -125 105c0 49 29 93 74 112v1h-169c-22 0 -35 12 -35 35v67c0 22 13 34 35 34h55v398h-55c-22 0 -35 12 -35 34v67c0 23 13 35 35 35h256c22 0 35 -12 35 -35v-67
c0 -22 -13 -34 -35 -34h-54v-398h54c22 0 35 -12 35 -34v-67c0 -4 0 -7 -1 -10v-12c0 -8 -4 -14 -13 -17c-34 -15 -55 -45 -55 -76c0 -24 16 -40 40 -40c6 0 12 1 17 2z" />
    <glyph glyph-name="Itilde.ss03" horiz-adv-x="422" 
d="M378 881c15 0 25 -12 23 -33c-7 -81 -42 -123 -108 -123c-60 0 -96 46 -133 46c-17 0 -29 -10 -34 -25c-4 -12 -9 -18 -29 -18h-53c-15 0 -24 8 -23 24c5 87 40 132 109 132c60 0 92 -46 130 -46c18 0 31 9 36 25c4 12 9 18 29 18h53zM339 670c22 0 35 -12 35 -35v-67
c0 -22 -13 -34 -35 -34h-54v-398h54c22 0 35 -12 35 -34v-67c0 -23 -13 -35 -35 -35h-256c-22 0 -35 12 -35 35v67c0 22 13 34 35 34h55v398h-55c-22 0 -35 12 -35 34v67c0 23 13 35 35 35h256z" />
    <glyph glyph-name="J.ss04" horiz-adv-x="575" 
d="M474 670c22 0 34 -12 34 -35v-436c0 -127 -92 -211 -232 -211s-233 84 -233 211v14c0 22 13 35 35 35h78c23 0 35 -13 35 -35v-11c0 -47 34 -78 85 -78s85 31 85 78v332h-150c-22 0 -35 12 -35 34v67c0 23 13 35 35 35h263z" />
    <glyph glyph-name="Jcircumflex.ss04" horiz-adv-x="575" 
d="M206 721c-26 0 -34 17 -20 38l72 96c9 13 22 19 38 19h99c16 0 28 -6 37 -19l73 -96c14 -21 6 -38 -20 -38h-50c-16 0 -27 5 -38 18l-48 52h-7l-48 -52c-10 -13 -22 -18 -38 -18h-50zM474 670c22 0 34 -12 34 -35v-436c0 -127 -92 -211 -232 -211s-233 84 -233 211v14
c0 22 13 35 35 35h78c23 0 35 -13 35 -35v-11c0 -47 34 -78 85 -78s85 31 85 78v332h-150c-22 0 -35 12 -35 34v67c0 23 13 35 35 35h263z" />
    <glyph glyph-name="Q.ss05" horiz-adv-x="649" 
d="M325 682c162 0 270 -99 270 -249v-196c0 -128 -79 -219 -203 -243v-16c0 -24 15 -39 40 -39h22c22 0 35 -12 35 -34v-43c0 -22 -13 -35 -35 -35h-67c-77 0 -128 49 -128 123v44c-126 23 -205 114 -205 243v196c0 150 107 249 271 249zM447 240v190c0 70 -49 116 -122 116
c-74 0 -123 -46 -123 -116v-190c0 -70 49 -116 123 -116c73 0 122 46 122 116z" />
    <glyph glyph-name="a" unicode="a" horiz-adv-x="525" 
d="M260 512c129 0 212 -67 212 -169v-312c0 -20 -11 -31 -31 -31h-73c-20 0 -31 11 -31 31v32h-9c-20 -46 -69 -75 -135 -75c-97 0 -162 58 -162 148c0 91 66 151 165 151h136v46c0 40 -29 66 -75 66c-36 0 -60 -12 -69 -40c-4 -14 -12 -24 -30 -24h-77c-20 0 -31 11 -31 31
c0 87 89 146 210 146zM247 94c50 0 85 23 85 58v43h-102c-35 0 -58 -20 -58 -49c0 -31 29 -52 75 -52z" />
    <glyph glyph-name="aacute" unicode="&#xe1;" horiz-adv-x="525" 
d="M234 551c-24 0 -33 16 -22 36l51 94c8 16 20 23 37 23h86c27 0 36 -18 17 -38l-85 -98c-10 -12 -22 -17 -37 -17h-47zM260 512c129 0 212 -67 212 -169v-312c0 -20 -11 -31 -31 -31h-73c-20 0 -31 11 -31 31v32h-9c-20 -46 -69 -75 -135 -75c-97 0 -162 58 -162 148
c0 91 66 151 165 151h136v46c0 40 -29 66 -75 66c-36 0 -60 -12 -69 -40c-4 -14 -12 -24 -30 -24h-77c-20 0 -31 11 -31 31c0 87 89 146 210 146zM247 94c50 0 85 23 85 58v43h-102c-35 0 -58 -20 -58 -49c0 -31 29 -52 75 -52z" />
    <glyph glyph-name="abreve" unicode="&#x103;" horiz-adv-x="525" 
d="M263 543c-89 0 -149 47 -160 127c-3 21 10 33 30 33h54c15 0 21 -8 24 -20c5 -27 23 -40 52 -40s47 15 50 40c3 12 10 20 24 20h54c20 0 33 -13 30 -34c-12 -81 -71 -126 -158 -126zM260 512c129 0 212 -67 212 -169v-312c0 -20 -11 -31 -31 -31h-73c-20 0 -31 11 -31 31
v32h-9c-20 -46 -69 -75 -135 -75c-97 0 -162 58 -162 148c0 91 66 151 165 151h136v46c0 40 -29 66 -75 66c-36 0 -60 -12 -69 -40c-4 -14 -12 -24 -30 -24h-77c-20 0 -31 11 -31 31c0 87 89 146 210 146zM247 94c50 0 85 23 85 58v43h-102c-35 0 -58 -20 -58 -49
c0 -31 29 -52 75 -52z" />
    <glyph glyph-name="uni01CE" unicode="&#x1ce;" horiz-adv-x="525" 
d="M176 570l-73 96c-14 20 -6 38 20 38h50c16 0 28 -5 38 -18l48 -52h7l48 52c11 13 22 18 38 18h50c26 0 34 -18 20 -38l-72 -96c-9 -13 -22 -19 -38 -19h-99c-16 0 -28 6 -37 19zM260 512c129 0 212 -67 212 -169v-312c0 -20 -11 -31 -31 -31h-73c-20 0 -31 11 -31 31v32
h-9c-20 -46 -69 -75 -135 -75c-97 0 -162 58 -162 148c0 91 66 151 165 151h136v46c0 40 -29 66 -75 66c-36 0 -60 -12 -69 -40c-4 -14 -12 -24 -30 -24h-77c-20 0 -31 11 -31 31c0 87 89 146 210 146zM247 94c50 0 85 23 85 58v43h-102c-35 0 -58 -20 -58 -49
c0 -31 29 -52 75 -52z" />
    <glyph glyph-name="acircumflex" unicode="&#xe2;" horiz-adv-x="525" 
d="M123 551c-26 0 -34 17 -20 38l72 96c9 13 22 19 38 19h99c16 0 28 -6 37 -19l73 -96c14 -21 6 -38 -20 -38h-50c-16 0 -27 5 -38 18l-48 52h-7l-48 -52c-10 -13 -22 -18 -38 -18h-50zM260 512c129 0 212 -67 212 -169v-312c0 -20 -11 -31 -31 -31h-73
c-20 0 -31 11 -31 31v32h-9c-20 -46 -69 -75 -135 -75c-97 0 -162 58 -162 148c0 91 66 151 165 151h136v46c0 40 -29 66 -75 66c-36 0 -60 -12 -69 -40c-4 -14 -12 -24 -30 -24h-77c-20 0 -31 11 -31 31c0 87 89 146 210 146zM247 94c50 0 85 23 85 58v43h-102
c-35 0 -58 -20 -58 -49c0 -31 29 -52 75 -52z" />
    <glyph glyph-name="uni0201" unicode="&#x201;" horiz-adv-x="525" 
d="M113 573l-56 94c-12 20 -2 37 22 37h69c18 0 29 -8 36 -25l39 -92c8 -21 -3 -36 -26 -36h-47c-17 0 -28 6 -37 22zM312 573l-56 94c-11 20 -2 37 22 37h69c18 0 30 -8 36 -25l38 -92c7 -21 -2 -36 -25 -36h-47c-17 0 -29 6 -37 22zM260 512c129 0 212 -67 212 -169v-312
c0 -20 -11 -31 -31 -31h-73c-20 0 -31 11 -31 31v32h-9c-20 -46 -69 -75 -135 -75c-97 0 -162 58 -162 148c0 91 66 151 165 151h136v46c0 40 -29 66 -75 66c-36 0 -60 -12 -69 -40c-4 -14 -12 -24 -30 -24h-77c-20 0 -31 11 -31 31c0 87 89 146 210 146zM247 94
c50 0 85 23 85 58v43h-102c-35 0 -58 -20 -58 -49c0 -31 29 -52 75 -52z" />
    <glyph glyph-name="adieresis" unicode="&#xe4;" horiz-adv-x="525" 
d="M160 554c-46 0 -77 31 -77 77c0 45 31 75 77 75c45 0 75 -30 75 -75c0 -46 -30 -77 -75 -77zM367 554c-46 0 -77 31 -77 77c0 45 31 75 77 75c45 0 75 -30 75 -75c0 -46 -30 -77 -75 -77zM260 512c129 0 212 -67 212 -169v-312c0 -20 -11 -31 -31 -31h-73
c-20 0 -31 11 -31 31v32h-9c-20 -46 -69 -75 -135 -75c-97 0 -162 58 -162 148c0 91 66 151 165 151h136v46c0 40 -29 66 -75 66c-36 0 -60 -12 -69 -40c-4 -14 -12 -24 -30 -24h-77c-20 0 -31 11 -31 31c0 87 89 146 210 146zM247 94c50 0 85 23 85 58v43h-102
c-35 0 -58 -20 -58 -49c0 -31 29 -52 75 -52z" />
    <glyph glyph-name="uni1EA1" unicode="&#x1ea1;" horiz-adv-x="525" 
d="M260 512c129 0 212 -67 212 -169v-312c0 -20 -11 -31 -31 -31h-73c-20 0 -31 11 -31 31v32h-9c-20 -46 -69 -75 -135 -75c-97 0 -162 58 -162 148c0 91 66 151 165 151h136v46c0 40 -29 66 -75 66c-36 0 -60 -12 -69 -40c-4 -14 -12 -24 -30 -24h-77c-20 0 -31 11 -31 31
c0 87 89 146 210 146zM247 94c50 0 85 23 85 58v43h-102c-35 0 -58 -20 -58 -49c0 -31 29 -52 75 -52zM263 -54c48 0 79 -32 79 -80s-31 -80 -79 -80s-80 32 -80 80s32 80 80 80z" />
    <glyph glyph-name="agrave" unicode="&#xe0;" horiz-adv-x="525" 
d="M207 568l-85 98c-18 20 -9 38 18 38h86c17 0 29 -7 36 -23l52 -94c11 -20 1 -36 -23 -36h-46c-15 0 -27 5 -38 17zM260 512c129 0 212 -67 212 -169v-312c0 -20 -11 -31 -31 -31h-73c-20 0 -31 11 -31 31v32h-9c-20 -46 -69 -75 -135 -75c-97 0 -162 58 -162 148
c0 91 66 151 165 151h136v46c0 40 -29 66 -75 66c-36 0 -60 -12 -69 -40c-4 -14 -12 -24 -30 -24h-77c-20 0 -31 11 -31 31c0 87 89 146 210 146zM247 94c50 0 85 23 85 58v43h-102c-35 0 -58 -20 -58 -49c0 -31 29 -52 75 -52z" />
    <glyph glyph-name="uni0203" unicode="&#x203;" horiz-adv-x="525" 
d="M133 551c-20 0 -33 12 -30 33c12 80 71 126 160 126c87 0 146 -45 158 -125c3 -22 -10 -34 -30 -34h-54c-14 0 -21 8 -24 19c-3 26 -21 40 -50 40s-48 -13 -52 -40c-3 -11 -9 -19 -24 -19h-54zM260 512c129 0 212 -67 212 -169v-312c0 -20 -11 -31 -31 -31h-73
c-20 0 -31 11 -31 31v32h-9c-20 -46 -69 -75 -135 -75c-97 0 -162 58 -162 148c0 91 66 151 165 151h136v46c0 40 -29 66 -75 66c-36 0 -60 -12 -69 -40c-4 -14 -12 -24 -30 -24h-77c-20 0 -31 11 -31 31c0 87 89 146 210 146zM247 94c50 0 85 23 85 58v43h-102
c-35 0 -58 -20 -58 -49c0 -31 29 -52 75 -52z" />
    <glyph glyph-name="amacron" unicode="&#x101;" horiz-adv-x="525" 
d="M145 569c-20 0 -31 11 -31 31v47c0 20 11 31 31 31h237c20 0 31 -11 31 -31v-47c0 -20 -11 -31 -31 -31h-237zM260 512c129 0 212 -67 212 -169v-312c0 -20 -11 -31 -31 -31h-73c-20 0 -31 11 -31 31v32h-9c-20 -46 -69 -75 -135 -75c-97 0 -162 58 -162 148
c0 91 66 151 165 151h136v46c0 40 -29 66 -75 66c-36 0 -60 -12 -69 -40c-4 -14 -12 -24 -30 -24h-77c-20 0 -31 11 -31 31c0 87 89 146 210 146zM247 94c50 0 85 23 85 58v43h-102c-35 0 -58 -20 -58 -49c0 -31 29 -52 75 -52z" />
    <glyph glyph-name="aogonek" unicode="&#x105;" horiz-adv-x="525" 
d="M460 -118c14 4 21 -1 21 -19v-46c0 -13 -4 -22 -15 -26c-15 -6 -39 -9 -65 -9c-75 0 -125 42 -125 105c0 49 29 93 74 112v5c-9 5 -13 14 -13 27v32h-9c-20 -46 -69 -75 -135 -75c-97 0 -162 58 -162 148c0 91 66 151 165 151h136v46c0 40 -29 66 -75 66
c-36 0 -60 -12 -69 -40c-4 -14 -12 -24 -30 -24h-77c-20 0 -31 11 -31 31c0 87 89 146 210 146c129 0 212 -67 212 -169v-312c0 -3 0 -7 -1 -10v-8c0 -8 -4 -14 -13 -17c-34 -15 -55 -45 -55 -76c0 -24 16 -40 40 -40c6 0 12 1 17 2zM247 94c50 0 85 23 85 58v43h-102
c-35 0 -58 -20 -58 -49c0 -31 29 -52 75 -52z" />
    <glyph glyph-name="aring" unicode="&#xe5;" horiz-adv-x="525" 
d="M263 543c-72 0 -119 46 -119 113s47 113 119 113c70 0 117 -46 117 -113s-47 -113 -117 -113zM263 702c-27 0 -46 -19 -46 -46c0 -26 18 -46 46 -46c26 0 44 19 44 46s-18 46 -44 46zM260 512c129 0 212 -67 212 -169v-312c0 -20 -11 -31 -31 -31h-73
c-20 0 -31 11 -31 31v32h-9c-20 -46 -69 -75 -135 -75c-97 0 -162 58 -162 148c0 91 66 151 165 151h136v46c0 40 -29 66 -75 66c-36 0 -60 -12 -69 -40c-4 -14 -12 -24 -30 -24h-77c-20 0 -31 11 -31 31c0 87 89 146 210 146zM247 94c50 0 85 23 85 58v43h-102
c-35 0 -58 -20 -58 -49c0 -31 29 -52 75 -52z" />
    <glyph glyph-name="atilde" unicode="&#xe3;" horiz-adv-x="525" 
d="M96 558c-15 0 -24 8 -23 24c5 87 40 132 109 132c60 0 92 -46 130 -46c18 0 31 9 36 25c4 12 9 18 29 18h53c15 0 25 -12 23 -33c-7 -81 -42 -123 -108 -123c-60 0 -96 46 -133 46c-17 0 -29 -10 -34 -25c-4 -12 -9 -18 -29 -18h-53zM260 512c129 0 212 -67 212 -169
v-312c0 -20 -11 -31 -31 -31h-73c-20 0 -31 11 -31 31v32h-9c-20 -46 -69 -75 -135 -75c-97 0 -162 58 -162 148c0 91 66 151 165 151h136v46c0 40 -29 66 -75 66c-36 0 -60 -12 -69 -40c-4 -14 -12 -24 -30 -24h-77c-20 0 -31 11 -31 31c0 87 89 146 210 146zM247 94
c50 0 85 23 85 58v43h-102c-35 0 -58 -20 -58 -49c0 -31 29 -52 75 -52z" />
    <glyph glyph-name="ae" unicode="&#xe6;" horiz-adv-x="815" 
d="M740 202h-268v-26c0 -45 33 -75 85 -75c35 0 59 12 71 35c6 12 13 20 29 20h84c18 0 31 -11 28 -32c-15 -89 -90 -136 -197 -136c-76 0 -140 27 -166 67h-7c-29 -40 -101 -67 -178 -67c-116 0 -190 61 -190 153c0 90 66 150 167 150h134v42c0 40 -29 66 -74 66
c-41 0 -62 -15 -69 -39c-5 -17 -13 -25 -29 -25h-78c-20 0 -31 11 -31 31c0 97 83 146 190 146c73 0 132 -27 158 -67h7c25 40 86 67 157 67c124 0 208 -79 208 -198v-81c0 -20 -11 -31 -31 -31zM552 399c-47 0 -80 -29 -80 -74v-28h159v28c0 45 -31 74 -79 74zM248 94
c50 0 84 24 84 59v44h-101c-35 0 -59 -19 -59 -49c0 -32 30 -54 76 -54z" />
    <glyph glyph-name="aeacute" unicode="&#x1fd;" horiz-adv-x="815" 
d="M372 551c-24 0 -33 16 -22 36l51 94c8 16 20 23 37 23h86c27 0 36 -18 17 -38l-85 -98c-10 -12 -22 -17 -37 -17h-47zM740 202h-268v-26c0 -45 33 -75 85 -75c35 0 59 12 71 35c6 12 13 20 29 20h84c18 0 31 -11 28 -32c-15 -89 -90 -136 -197 -136
c-76 0 -140 27 -166 67h-7c-29 -40 -101 -67 -178 -67c-116 0 -190 61 -190 153c0 90 66 150 167 150h134v42c0 40 -29 66 -74 66c-41 0 -62 -15 -69 -39c-5 -17 -13 -25 -29 -25h-78c-20 0 -31 11 -31 31c0 97 83 146 190 146c73 0 132 -27 158 -67h7c25 40 86 67 157 67
c124 0 208 -79 208 -198v-81c0 -20 -11 -31 -31 -31zM552 399c-47 0 -80 -29 -80 -74v-28h159v28c0 45 -31 74 -79 74zM248 94c50 0 84 24 84 59v44h-101c-35 0 -59 -19 -59 -49c0 -32 30 -54 76 -54z" />
    <glyph glyph-name="b" unicode="b" horiz-adv-x="547" 
d="M343 512c94 0 158 -65 158 -163v-198c0 -98 -64 -163 -158 -163c-65 0 -114 34 -133 82h-8v-39c0 -20 -11 -31 -31 -31h-78c-20 0 -31 11 -31 31v638c0 20 11 31 31 31h78c20 0 31 -11 31 -31v-239h8c19 48 68 82 133 82zM361 193v114c0 45 -31 74 -78 74
c-49 0 -81 -32 -81 -73v-116c0 -41 32 -73 81 -73c47 0 78 29 78 74z" />
    <glyph glyph-name="c" unicode="c" horiz-adv-x="512" 
d="M259 -12c-130 0 -216 79 -216 200v124c0 121 86 200 216 200c124 0 215 -65 215 -181c0 -20 -9 -32 -29 -32h-80c-18 0 -27 10 -30 22c-5 41 -35 62 -76 62c-46 0 -76 -29 -76 -72v-122c0 -43 30 -72 76 -72c43 0 71 22 76 62c3 12 12 22 30 22h80c20 0 29 -12 29 -33
c0 -117 -93 -180 -215 -180z" />
    <glyph glyph-name="cacute" unicode="&#x107;" horiz-adv-x="512" 
d="M231 551c-24 0 -33 16 -22 36l51 94c8 16 20 23 37 23h86c27 0 36 -18 17 -38l-85 -98c-10 -12 -22 -17 -37 -17h-47zM259 -12c-130 0 -216 79 -216 200v124c0 121 86 200 216 200c124 0 215 -65 215 -181c0 -20 -9 -32 -29 -32h-80c-18 0 -27 10 -30 22
c-5 41 -35 62 -76 62c-46 0 -76 -29 -76 -72v-122c0 -43 30 -72 76 -72c43 0 71 22 76 62c3 12 12 22 30 22h80c20 0 29 -12 29 -33c0 -117 -93 -180 -215 -180z" />
    <glyph glyph-name="ccaron" unicode="&#x10d;" horiz-adv-x="512" 
d="M210 551c-16 0 -28 6 -37 19l-73 96c-14 20 -6 38 20 38h50c16 0 28 -5 38 -18l48 -52h7l48 52c11 13 22 18 38 18h50c26 0 34 -18 20 -38l-72 -96c-9 -13 -22 -19 -38 -19h-99zM259 -12c-130 0 -216 79 -216 200v124c0 121 86 200 216 200c124 0 215 -65 215 -181
c0 -20 -9 -32 -29 -32h-80c-18 0 -27 10 -30 22c-5 41 -35 62 -76 62c-46 0 -76 -29 -76 -72v-122c0 -43 30 -72 76 -72c43 0 71 22 76 62c3 12 12 22 30 22h80c20 0 29 -12 29 -33c0 -117 -93 -180 -215 -180z" />
    <glyph glyph-name="ccedilla" unicode="&#xe7;" horiz-adv-x="512" 
d="M445 201c20 0 29 -12 29 -33c0 -106 -76 -168 -182 -178l-17 -31h12c55 0 92 -35 92 -89c0 -61 -53 -102 -133 -102c-22 0 -43 3 -61 8s-25 18 -25 35v14c0 22 10 30 29 26c14 -4 29 -7 44 -7c30 0 51 11 51 30c0 14 -11 24 -27 24h-51c-15 0 -24 8 -24 23v9
c0 8 2 14 6 21l25 41c-104 16 -170 90 -170 196v124c0 121 86 200 216 200c124 0 215 -65 215 -181c0 -20 -9 -32 -29 -32h-80c-18 0 -27 10 -30 22c-5 41 -35 62 -76 62c-46 0 -76 -29 -76 -72v-122c0 -43 30 -72 76 -72c43 0 71 22 76 62c3 12 12 22 30 22h80z" />
    <glyph glyph-name="ccircumflex" unicode="&#x109;" horiz-adv-x="512" 
d="M120 551c-26 0 -34 17 -20 38l72 96c9 13 22 19 38 19h99c16 0 28 -6 37 -19l73 -96c14 -21 6 -38 -20 -38h-50c-16 0 -27 5 -38 18l-48 52h-7l-48 -52c-10 -13 -22 -18 -38 -18h-50zM259 -12c-130 0 -216 79 -216 200v124c0 121 86 200 216 200c124 0 215 -65 215 -181
c0 -20 -9 -32 -29 -32h-80c-18 0 -27 10 -30 22c-5 41 -35 62 -76 62c-46 0 -76 -29 -76 -72v-122c0 -43 30 -72 76 -72c43 0 71 22 76 62c3 12 12 22 30 22h80c20 0 29 -12 29 -33c0 -117 -93 -180 -215 -180z" />
    <glyph glyph-name="cdotaccent" unicode="&#x10b;" horiz-adv-x="512" 
d="M261 554c-48 0 -80 32 -80 80s32 80 80 80s79 -32 79 -80s-31 -80 -79 -80zM259 -12c-130 0 -216 79 -216 200v124c0 121 86 200 216 200c124 0 215 -65 215 -181c0 -20 -9 -32 -29 -32h-80c-18 0 -27 10 -30 22c-5 41 -35 62 -76 62c-46 0 -76 -29 -76 -72v-122
c0 -43 30 -72 76 -72c43 0 71 22 76 62c3 12 12 22 30 22h80c20 0 29 -12 29 -33c0 -117 -93 -180 -215 -180z" />
    <glyph glyph-name="d" unicode="d" horiz-adv-x="547" 
d="M454 700c20 0 31 -11 31 -31v-638c0 -20 -11 -31 -31 -31h-78c-20 0 -31 11 -31 31v39h-8c-19 -48 -68 -82 -133 -82c-93 0 -158 65 -158 163v198c0 98 65 163 158 163c65 0 114 -34 133 -82h8v239c0 20 11 31 31 31h78zM264 119c49 0 81 32 81 73v116
c0 41 -32 73 -81 73c-47 0 -78 -29 -78 -74v-114c0 -45 31 -74 78 -74z" />
    <glyph glyph-name="eth" unicode="&#xf0;" horiz-adv-x="526" 
d="M390 566c56 -86 89 -190 89 -288v-88c0 -122 -87 -202 -219 -202s-220 80 -220 202v95c0 112 70 187 167 187c47 0 85 -16 106 -40h8c-9 34 -23 69 -41 102l-85 -25c-21 -5 -34 5 -34 27v19c0 18 9 30 27 34l47 14c-13 16 -27 31 -41 45c-19 20 -14 34 13 34h61
c15 0 26 -4 38 -15s23 -22 33 -34l70 21c21 5 35 -5 35 -27v-18c0 -19 -10 -31 -27 -35zM339 191v78c0 45 -31 74 -79 74s-80 -29 -80 -74v-78c0 -45 32 -74 80 -74s79 29 79 74z" />
    <glyph glyph-name="dcaron" unicode="&#x10f;" horiz-adv-x="659" 
d="M454 700c20 0 31 -11 31 -31v-638c0 -20 -11 -31 -31 -31h-78c-20 0 -31 11 -31 31v39h-8c-19 -48 -68 -82 -133 -82c-93 0 -158 65 -158 163v198c0 98 65 163 158 163c65 0 114 -34 133 -82h8v239c0 20 11 31 31 31h78zM637 700c21 0 32 -12 29 -33l-17 -122
c-3 -18 -14 -28 -33 -28h-42c-20 0 -31 11 -31 31v121c0 20 11 31 31 31h63zM264 119c49 0 81 32 81 73v116c0 41 -32 73 -81 73c-47 0 -78 -29 -78 -74v-114c0 -45 31 -74 78 -74z" />
    <glyph glyph-name="dcroat" unicode="&#x111;" horiz-adv-x="547" 
d="M511 626c21 0 31 -11 31 -31v-21c0 -20 -10 -31 -31 -31h-26v-512c0 -20 -11 -31 -31 -31h-78c-20 0 -31 11 -31 31v39h-8c-19 -48 -68 -82 -133 -82c-93 0 -158 65 -158 163v198c0 98 65 163 158 163c65 0 114 -34 133 -82h8v113h-65c-20 0 -31 11 -31 31v21
c0 20 11 31 31 31h65v43c0 20 11 31 31 31h78c20 0 31 -11 31 -31v-43h26zM264 119c49 0 81 32 81 73v116c0 41 -32 73 -81 73c-47 0 -78 -29 -78 -74v-114c0 -45 31 -74 78 -74z" />
    <glyph glyph-name="uni1E0D" unicode="&#x1e0d;" horiz-adv-x="547" 
d="M454 700c20 0 31 -11 31 -31v-638c0 -20 -11 -31 -31 -31h-78c-20 0 -31 11 -31 31v39h-8c-19 -48 -68 -82 -133 -82c-93 0 -158 65 -158 163v198c0 98 65 163 158 163c65 0 114 -34 133 -82h8v239c0 20 11 31 31 31h78zM264 119c49 0 81 32 81 73v116
c0 41 -32 73 -81 73c-47 0 -78 -29 -78 -74v-114c0 -45 31 -74 78 -74zM277 -54c48 0 79 -32 79 -80s-31 -80 -79 -80s-80 32 -80 80s32 80 80 80z" />
    <glyph glyph-name="uni01F3" unicode="&#x1f3;" horiz-adv-x="1039" 
d="M454 700c20 0 31 -11 31 -31v-638c0 -20 -11 -31 -31 -31h-78c-20 0 -31 11 -31 31v39h-8c-19 -48 -68 -82 -133 -82c-93 0 -158 65 -158 163v198c0 98 65 163 158 163c65 0 114 -34 133 -82h8v239c0 20 11 31 31 31h78zM966 127c20 0 31 -11 31 -31v-65
c0 -20 -11 -31 -31 -31h-346c-20 0 -31 11 -31 31v52c0 15 4 26 14 38l195 244v8h-173c-20 0 -31 11 -31 31v65c0 20 11 31 31 31h336c20 0 31 -11 31 -31v-52c0 -15 -5 -26 -15 -38l-194 -244v-8h183zM264 119c49 0 81 32 81 73v116c0 41 -32 73 -81 73
c-47 0 -78 -29 -78 -74v-114c0 -45 31 -74 78 -74z" />
    <glyph glyph-name="uni01C6" unicode="&#x1c6;" horiz-adv-x="1039" 
d="M706 570l-72 96c-15 20 -6 38 19 38h50c16 0 28 -5 38 -18l48 -52h8l48 52c10 13 22 18 38 18h49c26 0 34 -18 20 -38l-72 -96c-9 -13 -21 -19 -37 -19h-100c-16 0 -28 6 -37 19zM454 700c20 0 31 -11 31 -31v-638c0 -20 -11 -31 -31 -31h-78c-20 0 -31 11 -31 31v39h-8
c-19 -48 -68 -82 -133 -82c-93 0 -158 65 -158 163v198c0 98 65 163 158 163c65 0 114 -34 133 -82h8v239c0 20 11 31 31 31h78zM966 127c20 0 31 -11 31 -31v-65c0 -20 -11 -31 -31 -31h-346c-20 0 -31 11 -31 31v52c0 15 4 26 14 38l195 244v8h-173c-20 0 -31 11 -31 31
v65c0 20 11 31 31 31h336c20 0 31 -11 31 -31v-52c0 -15 -5 -26 -15 -38l-194 -244v-8h183zM264 119c49 0 81 32 81 73v116c0 41 -32 73 -81 73c-47 0 -78 -29 -78 -74v-114c0 -45 31 -74 78 -74z" />
    <glyph glyph-name="e" unicode="e" horiz-adv-x="526" 
d="M451 204h-268v-28c0 -45 33 -75 83 -75c35 0 61 12 72 34c6 13 12 21 30 21h84c18 0 30 -10 27 -30c-13 -85 -95 -138 -213 -138c-135 0 -223 80 -223 202v120c0 122 87 202 220 202c132 0 219 -81 219 -204v-73c0 -20 -11 -31 -31 -31zM263 399c-48 0 -80 -29 -80 -74
v-25h159v25c0 45 -31 74 -79 74z" />
    <glyph glyph-name="eacute" unicode="&#xe9;" horiz-adv-x="526" 
d="M234 551c-24 0 -33 16 -22 36l51 94c8 16 20 23 37 23h86c27 0 36 -18 17 -38l-85 -98c-10 -12 -22 -17 -37 -17h-47zM451 204h-268v-28c0 -45 33 -75 83 -75c35 0 61 12 72 34c6 13 12 21 30 21h84c18 0 30 -10 27 -30c-13 -85 -95 -138 -213 -138
c-135 0 -223 80 -223 202v120c0 122 87 202 220 202c132 0 219 -81 219 -204v-73c0 -20 -11 -31 -31 -31zM263 399c-48 0 -80 -29 -80 -74v-25h159v25c0 45 -31 74 -79 74z" />
    <glyph glyph-name="ebreve" unicode="&#x115;" horiz-adv-x="526" 
d="M263 543c-89 0 -149 47 -160 127c-3 21 10 33 30 33h54c15 0 21 -8 24 -20c5 -27 23 -40 52 -40s47 15 50 40c3 12 10 20 24 20h54c20 0 33 -13 30 -34c-12 -81 -71 -126 -158 -126zM451 204h-268v-28c0 -45 33 -75 83 -75c35 0 61 12 72 34c6 13 12 21 30 21h84
c18 0 30 -10 27 -30c-13 -85 -95 -138 -213 -138c-135 0 -223 80 -223 202v120c0 122 87 202 220 202c132 0 219 -81 219 -204v-73c0 -20 -11 -31 -31 -31zM263 399c-48 0 -80 -29 -80 -74v-25h159v25c0 45 -31 74 -79 74z" />
    <glyph glyph-name="ecaron" unicode="&#x11b;" horiz-adv-x="526" 
d="M176 570l-73 96c-14 20 -6 38 20 38h50c16 0 28 -5 38 -18l48 -52h7l48 52c11 13 22 18 38 18h50c26 0 34 -18 20 -38l-72 -96c-9 -13 -22 -19 -38 -19h-99c-16 0 -28 6 -37 19zM451 204h-268v-28c0 -45 33 -75 83 -75c35 0 61 12 72 34c6 13 12 21 30 21h84
c18 0 30 -10 27 -30c-13 -85 -95 -138 -213 -138c-135 0 -223 80 -223 202v120c0 122 87 202 220 202c132 0 219 -81 219 -204v-73c0 -20 -11 -31 -31 -31zM263 399c-48 0 -80 -29 -80 -74v-25h159v25c0 45 -31 74 -79 74z" />
    <glyph glyph-name="ecircumflex" unicode="&#xea;" horiz-adv-x="526" 
d="M123 551c-26 0 -34 17 -20 38l72 96c9 13 22 19 38 19h99c16 0 28 -6 37 -19l73 -96c14 -21 6 -38 -20 -38h-50c-16 0 -27 5 -38 18l-48 52h-7l-48 -52c-10 -13 -22 -18 -38 -18h-50zM451 204h-268v-28c0 -45 33 -75 83 -75c35 0 61 12 72 34c6 13 12 21 30 21h84
c18 0 30 -10 27 -30c-13 -85 -95 -138 -213 -138c-135 0 -223 80 -223 202v120c0 122 87 202 220 202c132 0 219 -81 219 -204v-73c0 -20 -11 -31 -31 -31zM263 399c-48 0 -80 -29 -80 -74v-25h159v25c0 45 -31 74 -79 74z" />
    <glyph glyph-name="uni0205" unicode="&#x205;" horiz-adv-x="526" 
d="M113 573l-56 94c-12 20 -2 37 22 37h69c18 0 29 -8 36 -25l39 -92c8 -21 -3 -36 -26 -36h-47c-17 0 -28 6 -37 22zM312 573l-56 94c-11 20 -2 37 22 37h69c18 0 30 -8 36 -25l38 -92c7 -21 -2 -36 -25 -36h-47c-17 0 -29 6 -37 22zM451 204h-268v-28c0 -45 33 -75 83 -75
c35 0 61 12 72 34c6 13 12 21 30 21h84c18 0 30 -10 27 -30c-13 -85 -95 -138 -213 -138c-135 0 -223 80 -223 202v120c0 122 87 202 220 202c132 0 219 -81 219 -204v-73c0 -20 -11 -31 -31 -31zM263 399c-48 0 -80 -29 -80 -74v-25h159v25c0 45 -31 74 -79 74z" />
    <glyph glyph-name="edieresis" unicode="&#xeb;" horiz-adv-x="526" 
d="M160 554c-46 0 -77 31 -77 77c0 45 31 75 77 75c45 0 75 -30 75 -75c0 -46 -30 -77 -75 -77zM367 554c-46 0 -77 31 -77 77c0 45 31 75 77 75c45 0 75 -30 75 -75c0 -46 -30 -77 -75 -77zM451 204h-268v-28c0 -45 33 -75 83 -75c35 0 61 12 72 34c6 13 12 21 30 21h84
c18 0 30 -10 27 -30c-13 -85 -95 -138 -213 -138c-135 0 -223 80 -223 202v120c0 122 87 202 220 202c132 0 219 -81 219 -204v-73c0 -20 -11 -31 -31 -31zM263 399c-48 0 -80 -29 -80 -74v-25h159v25c0 45 -31 74 -79 74z" />
    <glyph glyph-name="edotaccent" unicode="&#x117;" horiz-adv-x="526" 
d="M263 554c-48 0 -80 32 -80 80s32 80 80 80s79 -32 79 -80s-31 -80 -79 -80zM451 204h-268v-28c0 -45 33 -75 83 -75c35 0 61 12 72 34c6 13 12 21 30 21h84c18 0 30 -10 27 -30c-13 -85 -95 -138 -213 -138c-135 0 -223 80 -223 202v120c0 122 87 202 220 202
c132 0 219 -81 219 -204v-73c0 -20 -11 -31 -31 -31zM263 399c-48 0 -80 -29 -80 -74v-25h159v25c0 45 -31 74 -79 74z" />
    <glyph glyph-name="uni1EB9" unicode="&#x1eb9;" horiz-adv-x="526" 
d="M451 204h-268v-28c0 -45 33 -75 83 -75c35 0 61 12 72 34c6 13 12 21 30 21h84c18 0 30 -10 27 -30c-13 -85 -95 -138 -213 -138c-135 0 -223 80 -223 202v120c0 122 87 202 220 202c132 0 219 -81 219 -204v-73c0 -20 -11 -31 -31 -31zM263 399c-48 0 -80 -29 -80 -74
v-25h159v25c0 45 -31 74 -79 74zM263 -54c48 0 79 -32 79 -80s-31 -80 -79 -80s-80 32 -80 80s32 80 80 80z" />
    <glyph glyph-name="egrave" unicode="&#xe8;" horiz-adv-x="526" 
d="M207 568l-85 98c-18 20 -9 38 18 38h86c17 0 29 -7 36 -23l52 -94c11 -20 1 -36 -23 -36h-46c-15 0 -27 5 -38 17zM451 204h-268v-28c0 -45 33 -75 83 -75c35 0 61 12 72 34c6 13 12 21 30 21h84c18 0 30 -10 27 -30c-13 -85 -95 -138 -213 -138c-135 0 -223 80 -223 202
v120c0 122 87 202 220 202c132 0 219 -81 219 -204v-73c0 -20 -11 -31 -31 -31zM263 399c-48 0 -80 -29 -80 -74v-25h159v25c0 45 -31 74 -79 74z" />
    <glyph glyph-name="uni0207" unicode="&#x207;" horiz-adv-x="526" 
d="M133 551c-20 0 -33 12 -30 33c12 80 71 126 160 126c87 0 146 -45 158 -125c3 -22 -10 -34 -30 -34h-54c-14 0 -21 8 -24 19c-3 26 -21 40 -50 40s-48 -13 -52 -40c-3 -11 -9 -19 -24 -19h-54zM451 204h-268v-28c0 -45 33 -75 83 -75c35 0 61 12 72 34c6 13 12 21 30 21
h84c18 0 30 -10 27 -30c-13 -85 -95 -138 -213 -138c-135 0 -223 80 -223 202v120c0 122 87 202 220 202c132 0 219 -81 219 -204v-73c0 -20 -11 -31 -31 -31zM263 399c-48 0 -80 -29 -80 -74v-25h159v25c0 45 -31 74 -79 74z" />
    <glyph glyph-name="emacron" unicode="&#x113;" horiz-adv-x="526" 
d="M145 569c-20 0 -31 11 -31 31v47c0 20 11 31 31 31h237c20 0 31 -11 31 -31v-47c0 -20 -11 -31 -31 -31h-237zM451 204h-268v-28c0 -45 33 -75 83 -75c35 0 61 12 72 34c6 13 12 21 30 21h84c18 0 30 -10 27 -30c-13 -85 -95 -138 -213 -138c-135 0 -223 80 -223 202v120
c0 122 87 202 220 202c132 0 219 -81 219 -204v-73c0 -20 -11 -31 -31 -31zM263 399c-48 0 -80 -29 -80 -74v-25h159v25c0 45 -31 74 -79 74z" />
    <glyph glyph-name="eogonek" unicode="&#x119;" horiz-adv-x="526" 
d="M451 204h-268v-28c0 -45 33 -75 83 -75c35 0 61 12 72 34c6 13 12 21 30 21h84c18 0 30 -10 27 -30c-9 -61 -54 -105 -122 -126c-24 -16 -39 -41 -39 -67c0 -24 16 -40 40 -40c6 0 12 1 17 2c14 4 21 -1 21 -19v-46c0 -13 -4 -22 -15 -26c-15 -6 -39 -9 -65 -9
c-75 0 -125 42 -125 105c0 35 15 67 40 90c-115 13 -188 89 -188 200v120c0 122 87 202 220 202c132 0 219 -81 219 -204v-73c0 -20 -11 -31 -31 -31zM263 399c-48 0 -80 -29 -80 -74v-25h159v25c0 45 -31 74 -79 74z" />
    <glyph glyph-name="uni1EBD" unicode="&#x1ebd;" horiz-adv-x="526" 
d="M96 558c-15 0 -24 8 -23 24c5 87 40 132 109 132c60 0 92 -46 130 -46c18 0 31 9 36 25c4 12 9 18 29 18h53c15 0 25 -12 23 -33c-7 -81 -42 -123 -108 -123c-60 0 -96 46 -133 46c-17 0 -29 -10 -34 -25c-4 -12 -9 -18 -29 -18h-53zM451 204h-268v-28
c0 -45 33 -75 83 -75c35 0 61 12 72 34c6 13 12 21 30 21h84c18 0 30 -10 27 -30c-13 -85 -95 -138 -213 -138c-135 0 -223 80 -223 202v120c0 122 87 202 220 202c132 0 219 -81 219 -204v-73c0 -20 -11 -31 -31 -31zM263 399c-48 0 -80 -29 -80 -74v-25h159v25
c0 45 -31 74 -79 74z" />
    <glyph glyph-name="f" unicode="f" horiz-adv-x="394" 
d="M310 584c-31 0 -50 -19 -50 -50v-34h73c20 0 31 -11 31 -31v-63c0 -20 -11 -31 -31 -31h-73v-344c0 -20 -11 -31 -31 -31h-78c-20 0 -31 11 -31 31v344h-52c-20 0 -31 11 -31 31v63c0 20 11 31 31 31h52v58c0 86 60 142 152 142h61c20 0 31 -11 31 -31v-54
c0 -20 -11 -31 -31 -31h-23z" />
    <glyph glyph-name="g" unicode="g" horiz-adv-x="544" 
d="M454 500c20 0 31 -11 31 -31v-488c0 -102 -83 -173 -216 -173c-117 0 -197 50 -211 136c-3 21 10 33 26 33h81c14 0 23 -7 29 -17c8 -32 38 -46 73 -46c48 0 78 30 78 74v106h-8c-19 -47 -71 -79 -133 -79c-93 0 -158 65 -158 163v171c0 98 65 163 158 163
c65 0 114 -34 133 -82h8v39c0 20 11 31 31 31h78zM264 146c49 0 81 33 81 73v89c0 41 -32 73 -81 73c-47 0 -78 -29 -78 -74v-87c0 -45 31 -74 78 -74z" />
    <glyph glyph-name="uni01F5" unicode="&#x1f5;" horiz-adv-x="544" 
d="M247 551c-24 0 -33 16 -22 36l51 94c8 16 20 23 37 23h86c27 0 36 -18 17 -38l-85 -98c-10 -12 -22 -17 -37 -17h-47zM454 500c20 0 31 -11 31 -31v-488c0 -102 -83 -173 -216 -173c-117 0 -197 50 -211 136c-3 21 10 33 26 33h81c14 0 23 -7 29 -17c8 -32 38 -46 73 -46
c48 0 78 30 78 74v106h-8c-19 -47 -71 -79 -133 -79c-93 0 -158 65 -158 163v171c0 98 65 163 158 163c65 0 114 -34 133 -82h8v39c0 20 11 31 31 31h78zM264 146c49 0 81 33 81 73v89c0 41 -32 73 -81 73c-47 0 -78 -29 -78 -74v-87c0 -45 31 -74 78 -74z" />
    <glyph glyph-name="gbreve" unicode="&#x11f;" horiz-adv-x="544" 
d="M276 543c-89 0 -149 47 -160 127c-3 21 10 33 30 33h54c15 0 21 -8 24 -20c5 -27 23 -40 52 -40s47 15 50 40c3 12 10 20 24 20h54c20 0 33 -13 30 -34c-12 -81 -71 -126 -158 -126zM454 500c20 0 31 -11 31 -31v-488c0 -102 -83 -173 -216 -173c-117 0 -197 50 -211 136
c-3 21 10 33 26 33h81c14 0 23 -7 29 -17c8 -32 38 -46 73 -46c48 0 78 30 78 74v106h-8c-19 -47 -71 -79 -133 -79c-93 0 -158 65 -158 163v171c0 98 65 163 158 163c65 0 114 -34 133 -82h8v39c0 20 11 31 31 31h78zM264 146c49 0 81 33 81 73v89c0 41 -32 73 -81 73
c-47 0 -78 -29 -78 -74v-87c0 -45 31 -74 78 -74z" />
    <glyph glyph-name="gcaron" unicode="&#x1e7;" horiz-adv-x="544" 
d="M189 570l-73 96c-14 20 -6 38 20 38h50c16 0 28 -5 38 -18l48 -52h7l48 52c11 13 22 18 38 18h50c26 0 34 -18 20 -38l-72 -96c-9 -13 -22 -19 -38 -19h-99c-16 0 -28 6 -37 19zM454 500c20 0 31 -11 31 -31v-488c0 -102 -83 -173 -216 -173c-117 0 -197 50 -211 136
c-3 21 10 33 26 33h81c14 0 23 -7 29 -17c8 -32 38 -46 73 -46c48 0 78 30 78 74v106h-8c-19 -47 -71 -79 -133 -79c-93 0 -158 65 -158 163v171c0 98 65 163 158 163c65 0 114 -34 133 -82h8v39c0 20 11 31 31 31h78zM264 146c49 0 81 33 81 73v89c0 41 -32 73 -81 73
c-47 0 -78 -29 -78 -74v-87c0 -45 31 -74 78 -74z" />
    <glyph glyph-name="gcircumflex" unicode="&#x11d;" horiz-adv-x="544" 
d="M136 551c-26 0 -34 17 -20 38l72 96c9 13 22 19 38 19h99c16 0 28 -6 37 -19l73 -96c14 -21 6 -38 -20 -38h-50c-16 0 -27 5 -38 18l-48 52h-7l-48 -52c-10 -13 -22 -18 -38 -18h-50zM454 500c20 0 31 -11 31 -31v-488c0 -102 -83 -173 -216 -173
c-117 0 -197 50 -211 136c-3 21 10 33 26 33h81c14 0 23 -7 29 -17c8 -32 38 -46 73 -46c48 0 78 30 78 74v106h-8c-19 -47 -71 -79 -133 -79c-93 0 -158 65 -158 163v171c0 98 65 163 158 163c65 0 114 -34 133 -82h8v39c0 20 11 31 31 31h78zM264 146c49 0 81 33 81 73v89
c0 41 -32 73 -81 73c-47 0 -78 -29 -78 -74v-87c0 -45 31 -74 78 -74z" />
    <glyph glyph-name="uni0123" unicode="&#x123;" horiz-adv-x="544" 
d="M231 551c-24 0 -33 16 -22 37l59 123c8 16 20 22 37 22h42c22 0 32 -13 27 -34l-28 -121c-4 -18 -16 -27 -34 -27h-81zM454 500c20 0 31 -11 31 -31v-488c0 -102 -83 -173 -216 -173c-117 0 -197 50 -211 136c-3 21 10 33 26 33h81c14 0 23 -7 29 -17
c8 -32 38 -46 73 -46c48 0 78 30 78 74v106h-8c-19 -47 -71 -79 -133 -79c-93 0 -158 65 -158 163v171c0 98 65 163 158 163c65 0 114 -34 133 -82h8v39c0 20 11 31 31 31h78zM264 146c49 0 81 33 81 73v89c0 41 -32 73 -81 73c-47 0 -78 -29 -78 -74v-87
c0 -45 31 -74 78 -74z" />
    <glyph glyph-name="gdotaccent" unicode="&#x121;" horiz-adv-x="544" 
d="M277 554c-48 0 -80 32 -80 80s32 80 80 80s79 -32 79 -80s-31 -80 -79 -80zM454 500c20 0 31 -11 31 -31v-488c0 -102 -83 -173 -216 -173c-117 0 -197 50 -211 136c-3 21 10 33 26 33h81c14 0 23 -7 29 -17c8 -32 38 -46 73 -46c48 0 78 30 78 74v106h-8
c-19 -47 -71 -79 -133 -79c-93 0 -158 65 -158 163v171c0 98 65 163 158 163c65 0 114 -34 133 -82h8v39c0 20 11 31 31 31h78zM264 146c49 0 81 33 81 73v89c0 41 -32 73 -81 73c-47 0 -78 -29 -78 -74v-87c0 -45 31 -74 78 -74z" />
    <glyph glyph-name="h" unicode="h" horiz-adv-x="550" 
d="M345 512c89 0 150 -59 150 -147v-334c0 -20 -11 -31 -31 -31h-78c-20 0 -31 11 -31 31v280c0 42 -29 70 -73 70c-48 0 -80 -31 -80 -69v-281c0 -20 -11 -31 -31 -31h-78c-20 0 -31 11 -31 31v638c0 20 11 31 31 31h78c20 0 31 -11 31 -31v-239h8c20 48 70 82 135 82z" />
    <glyph glyph-name="hbar" unicode="&#x127;" horiz-adv-x="550" 
d="M345 512c89 0 150 -59 150 -147v-334c0 -20 -11 -31 -31 -31h-78c-20 0 -31 11 -31 31v280c0 42 -29 70 -73 70c-48 0 -80 -31 -80 -69v-281c0 -20 -11 -31 -31 -31h-78c-20 0 -31 11 -31 31v512h-26c-20 0 -31 11 -31 31v21c0 20 11 31 31 31h26v43c0 20 11 31 31 31h78
c20 0 31 -11 31 -31v-43h65c21 0 31 -11 31 -31v-21c0 -20 -10 -31 -31 -31h-65v-113h8c20 48 70 82 135 82z" />
    <glyph glyph-name="hcircumflex" unicode="&#x125;" horiz-adv-x="550" 
d="M80 749c-10 -13 -22 -18 -38 -18h-50c-26 0 -34 17 -20 38l72 96c9 13 22 19 38 19h99c16 0 28 -6 37 -19l73 -96c14 -21 6 -38 -20 -38h-50c-16 0 -27 5 -38 18l-48 52h-7zM345 512c89 0 150 -59 150 -147v-334c0 -20 -11 -31 -31 -31h-78c-20 0 -31 11 -31 31v280
c0 42 -29 70 -73 70c-48 0 -80 -31 -80 -69v-281c0 -20 -11 -31 -31 -31h-78c-20 0 -31 11 -31 31v638c0 20 11 31 31 31h78c20 0 31 -11 31 -31v-239h8c20 48 70 82 135 82z" />
    <glyph glyph-name="uni1E25" unicode="&#x1e25;" horiz-adv-x="550" 
d="M345 512c89 0 150 -59 150 -147v-334c0 -20 -11 -31 -31 -31h-78c-20 0 -31 11 -31 31v280c0 42 -29 70 -73 70c-48 0 -80 -31 -80 -69v-281c0 -20 -11 -31 -31 -31h-78c-20 0 -31 11 -31 31v638c0 20 11 31 31 31h78c20 0 31 -11 31 -31v-239h8c20 48 70 82 135 82z
M279 -54c48 0 79 -32 79 -80s-31 -80 -79 -80s-80 32 -80 80s32 80 80 80z" />
    <glyph glyph-name="i" unicode="i" horiz-adv-x="264" 
d="M133 564c-52 0 -84 33 -84 80c0 49 33 81 84 81c50 0 83 -32 83 -80c0 -49 -33 -81 -83 -81zM93 0c-20 0 -31 11 -31 31v438c0 20 11 31 31 31h78c20 0 31 -11 31 -31v-438c0 -20 -11 -31 -31 -31h-78z" />
    <glyph glyph-name="dotlessi" unicode="&#x131;" horiz-adv-x="264" 
d="M93 0c-20 0 -31 11 -31 31v438c0 20 11 31 31 31h78c20 0 31 -11 31 -31v-438c0 -20 -11 -31 -31 -31h-78z" />
    <glyph glyph-name="iacute" unicode="&#xed;" horiz-adv-x="264" 
d="M103 551c-24 0 -33 16 -22 36l51 94c8 16 20 23 37 23h86c27 0 36 -18 17 -38l-85 -98c-10 -12 -22 -17 -37 -17h-47zM93 0c-20 0 -31 11 -31 31v438c0 20 11 31 31 31h78c20 0 31 -11 31 -31v-438c0 -20 -11 -31 -31 -31h-78z" />
    <glyph glyph-name="ibreve" unicode="&#x12d;" horiz-adv-x="264" 
d="M133 543c-89 0 -149 47 -160 127c-3 21 10 33 30 33h54c15 0 21 -8 24 -20c5 -27 23 -40 52 -40s47 15 50 40c3 12 10 20 24 20h54c20 0 33 -13 30 -34c-12 -81 -71 -126 -158 -126zM93 0c-20 0 -31 11 -31 31v438c0 20 11 31 31 31h78c20 0 31 -11 31 -31v-438
c0 -20 -11 -31 -31 -31h-78z" />
    <glyph glyph-name="icircumflex" unicode="&#xee;" horiz-adv-x="264" 
d="M-8 551c-26 0 -34 17 -20 38l72 96c9 13 22 19 38 19h99c16 0 28 -6 37 -19l73 -96c14 -21 6 -38 -20 -38h-50c-16 0 -27 5 -38 18l-48 52h-7l-48 -52c-10 -13 -22 -18 -38 -18h-50zM93 0c-20 0 -31 11 -31 31v438c0 20 11 31 31 31h78c20 0 31 -11 31 -31v-438
c0 -20 -11 -31 -31 -31h-78z" />
    <glyph glyph-name="uni0209" unicode="&#x209;" horiz-adv-x="264" 
d="M20 551c-17 0 -28 6 -37 22l-56 94c-12 20 -2 37 22 37h69c18 0 29 -8 36 -25l39 -92c8 -21 -3 -36 -26 -36h-47zM219 551c-17 0 -29 6 -37 22l-56 94c-11 20 -2 37 22 37h69c18 0 30 -8 36 -25l38 -92c7 -21 -2 -36 -25 -36h-47zM93 0c-20 0 -31 11 -31 31v438
c0 20 11 31 31 31h78c20 0 31 -11 31 -31v-438c0 -20 -11 -31 -31 -31h-78z" />
    <glyph glyph-name="idieresis" unicode="&#xef;" horiz-adv-x="264" 
d="M29 554c-46 0 -77 31 -77 77c0 45 31 75 77 75c45 0 75 -30 75 -75c0 -46 -30 -77 -75 -77zM236 554c-46 0 -77 31 -77 77c0 45 31 75 77 75c45 0 75 -30 75 -75c0 -46 -30 -77 -75 -77zM93 0c-20 0 -31 11 -31 31v438c0 20 11 31 31 31h78c20 0 31 -11 31 -31v-438
c0 -20 -11 -31 -31 -31h-78z" />
    <glyph glyph-name="i.loclTRK" horiz-adv-x="264" 
d="M133 554c-48 0 -80 32 -80 80s32 80 80 80s79 -32 79 -80s-31 -80 -79 -80zM93 0c-20 0 -31 11 -31 31v438c0 20 11 31 31 31h78c20 0 31 -11 31 -31v-438c0 -20 -11 -31 -31 -31h-78z" />
    <glyph glyph-name="uni1ECB" unicode="&#x1ecb;" horiz-adv-x="264" 
d="M133 564c-52 0 -84 33 -84 80c0 49 33 81 84 81c50 0 83 -32 83 -80c0 -49 -33 -81 -83 -81zM93 0c-20 0 -31 11 -31 31v438c0 20 11 31 31 31h78c20 0 31 -11 31 -31v-438c0 -20 -11 -31 -31 -31h-78zM133 -214c-48 0 -80 32 -80 80s32 80 80 80s79 -32 79 -80
s-31 -80 -79 -80z" />
    <glyph glyph-name="igrave" unicode="&#xec;" horiz-adv-x="264" 
d="M114 551c-15 0 -27 5 -38 17l-85 98c-18 20 -9 38 18 38h86c17 0 29 -7 36 -23l52 -94c11 -20 1 -36 -23 -36h-46zM93 0c-20 0 -31 11 -31 31v438c0 20 11 31 31 31h78c20 0 31 -11 31 -31v-438c0 -20 -11 -31 -31 -31h-78z" />
    <glyph glyph-name="uni020B" unicode="&#x20b;" horiz-adv-x="264" 
d="M133 710c87 0 146 -45 158 -125c3 -22 -10 -34 -30 -34h-54c-14 0 -21 8 -24 19c-3 26 -21 40 -50 40s-48 -13 -52 -40c-3 -11 -9 -19 -24 -19h-54c-20 0 -33 12 -30 33c12 80 71 126 160 126zM93 0c-20 0 -31 11 -31 31v438c0 20 11 31 31 31h78c20 0 31 -11 31 -31
v-438c0 -20 -11 -31 -31 -31h-78z" />
    <glyph glyph-name="ij" unicode="&#x133;" horiz-adv-x="530" 
d="M133 564c-52 0 -84 33 -84 80c0 49 33 81 84 81c50 0 83 -32 83 -80c0 -49 -33 -81 -83 -81zM399 564c-52 0 -84 33 -84 80c0 49 33 81 84 81c50 0 83 -32 83 -80c0 -49 -33 -81 -83 -81zM93 0c-20 0 -31 11 -31 31v438c0 20 11 31 31 31h78c20 0 31 -11 31 -31v-438
c0 -20 -11 -31 -31 -31h-78zM256 -180c-20 0 -31 11 -31 31v54c0 20 11 31 31 31h22c32 0 51 19 51 51v482c0 20 11 31 31 31h78c20 0 31 -11 31 -31v-507c0 -86 -60 -142 -152 -142h-61z" />
    <glyph glyph-name="imacron" unicode="&#x12b;" horiz-adv-x="264" 
d="M14 569c-20 0 -31 11 -31 31v47c0 20 11 31 31 31h237c20 0 31 -11 31 -31v-47c0 -20 -11 -31 -31 -31h-237zM93 0c-20 0 -31 11 -31 31v438c0 20 11 31 31 31h78c20 0 31 -11 31 -31v-438c0 -20 -11 -31 -31 -31h-78z" />
    <glyph glyph-name="iogonek" unicode="&#x12f;" horiz-adv-x="264" 
d="M133 554c-48 0 -80 32 -80 80s32 80 80 80s79 -32 79 -80s-31 -80 -79 -80zM191 -118c14 4 21 -1 21 -19v-46c0 -13 -4 -22 -15 -26c-15 -6 -39 -9 -65 -9c-75 0 -125 42 -125 105c0 49 29 93 74 112v3c-12 3 -19 14 -19 29v438c0 20 11 31 31 31h78c20 0 31 -11 31 -31
v-456c0 -8 -4 -14 -13 -17c-34 -15 -55 -45 -55 -76c0 -24 16 -40 40 -40c6 0 12 1 17 2z" />
    <glyph glyph-name="itilde" unicode="&#x129;" horiz-adv-x="264" 
d="M214 555c-60 0 -96 46 -133 46c-17 0 -29 -10 -34 -25c-4 -12 -9 -18 -29 -18h-53c-15 0 -24 8 -23 24c5 87 40 132 109 132c60 0 92 -46 130 -46c18 0 31 9 36 25c4 12 9 18 29 18h53c15 0 25 -12 23 -33c-7 -81 -42 -123 -108 -123zM93 0c-20 0 -31 11 -31 31v438
c0 20 11 31 31 31h78c20 0 31 -11 31 -31v-438c0 -20 -11 -31 -31 -31h-78z" />
    <glyph glyph-name="j" unicode="j" horiz-adv-x="266" 
d="M135 564c-52 0 -84 33 -84 80c0 49 33 81 84 81c50 0 83 -32 83 -80c0 -49 -33 -81 -83 -81zM-8 -180c-20 0 -31 11 -31 31v54c0 20 11 31 31 31h22c32 0 51 19 51 51v482c0 20 11 31 31 31h78c20 0 31 -11 31 -31v-507c0 -86 -60 -142 -152 -142h-61z" />
    <glyph glyph-name="uni0237" unicode="&#x237;" horiz-adv-x="264" 
d="M-8 -180c-20 0 -31 11 -31 31v54c0 20 11 31 31 31h22c32 0 51 19 51 51v482c0 20 11 31 31 31h78c20 0 31 -11 31 -31v-507c0 -86 -60 -142 -152 -142h-61z" />
    <glyph glyph-name="jcircumflex" unicode="&#x135;" horiz-adv-x="264" 
d="M-5 551c-26 0 -34 17 -20 38l72 96c9 13 22 19 38 19h99c16 0 28 -6 37 -19l73 -96c14 -21 6 -38 -20 -38h-50c-16 0 -27 5 -38 18l-48 52h-7l-48 -52c-10 -13 -22 -18 -38 -18h-50zM-8 -180c-20 0 -31 11 -31 31v54c0 20 11 31 31 31h22c32 0 51 19 51 51v482
c0 20 11 31 31 31h78c20 0 31 -11 31 -31v-507c0 -86 -60 -142 -152 -142h-61z" />
    <glyph glyph-name="k" unicode="k" horiz-adv-x="528" 
d="M500 37c13 -21 3 -37 -21 -37h-96c-17 0 -30 8 -37 23l-96 171l-48 -54v-109c0 -20 -11 -31 -31 -31h-78c-20 0 -31 11 -31 31v638c0 20 11 31 31 31h78c20 0 31 -11 31 -31v-350h10l131 161c9 14 21 20 37 20h94c22 0 30 -18 13 -38l-146 -165z" />
    <glyph glyph-name="uni0137" unicode="&#x137;" horiz-adv-x="528" 
d="M500 37c13 -21 3 -37 -21 -37h-96c-17 0 -30 8 -37 23l-96 171l-48 -54v-109c0 -20 -11 -31 -31 -31h-78c-20 0 -31 11 -31 31v638c0 20 11 31 31 31h78c20 0 31 -11 31 -31v-350h10l131 161c9 14 21 20 37 20h94c22 0 30 -18 13 -38l-146 -165zM332 -51
c24 0 33 -16 22 -37l-59 -124c-9 -15 -20 -22 -38 -22h-41c-22 0 -32 13 -27 34l28 122c3 18 15 27 34 27h81z" />
    <glyph glyph-name="l" unicode="l" horiz-adv-x="308" 
d="M207 0c-90 0 -150 56 -150 140v529c0 20 11 31 31 31h78c20 0 31 -11 31 -31v-492c0 -30 18 -48 48 -48h11c12 0 19 -8 19 -20v-78c0 -20 -11 -31 -31 -31h-37z" />
    <glyph glyph-name="lacute" unicode="&#x13a;" horiz-adv-x="308" 
d="M98 731c-24 0 -33 16 -22 36l51 94c8 16 20 23 37 23h86c27 0 36 -18 17 -38l-85 -98c-10 -12 -22 -17 -37 -17h-47zM207 0c-90 0 -150 56 -150 140v529c0 20 11 31 31 31h78c20 0 31 -11 31 -31v-492c0 -30 18 -48 48 -48h11c12 0 19 -8 19 -20v-78
c0 -20 -11 -31 -31 -31h-37z" />
    <glyph glyph-name="lcaron" unicode="&#x13e;" horiz-adv-x="378" 
d="M207 0c-90 0 -150 56 -150 140v529c0 20 11 31 31 31h78c20 0 31 -11 31 -31v-492c0 -30 18 -48 48 -48h11c12 0 19 -8 19 -20v-78c0 -20 -11 -31 -31 -31h-37zM293 517c-20 0 -31 11 -31 31v121c0 20 11 31 31 31h63c21 0 32 -12 28 -33l-17 -122
c-2 -19 -14 -28 -33 -28h-41z" />
    <glyph glyph-name="uni013C" unicode="&#x13c;" horiz-adv-x="308" 
d="M207 0c-90 0 -150 56 -150 140v529c0 20 11 31 31 31h78c20 0 31 -11 31 -31v-492c0 -30 18 -48 48 -48h11c12 0 19 -8 19 -20v-78c0 -20 -11 -31 -31 -31h-37zM93 -234c-22 0 -32 13 -27 34l28 122c3 18 15 27 34 27h81c24 0 33 -16 22 -37l-59 -124
c-9 -15 -20 -22 -38 -22h-41z" />
    <glyph glyph-name="ldot" unicode="&#x140;" horiz-adv-x="401" 
d="M207 0c-90 0 -150 56 -150 140v529c0 20 11 31 31 31h78c20 0 31 -11 31 -31v-492c0 -30 18 -48 48 -48h11c12 0 19 -8 19 -20v-78c0 -20 -11 -31 -31 -31h-37zM313 286c-45 0 -75 29 -75 74c0 43 30 73 75 73c43 0 73 -30 73 -73c0 -45 -30 -74 -73 -74z" />
    <glyph glyph-name="uni01C9" unicode="&#x1c9;" horiz-adv-x="573" 
d="M443 564c-52 0 -84 33 -84 80c0 49 33 81 84 81c50 0 83 -32 83 -80c0 -49 -33 -81 -83 -81zM207 0c-90 0 -150 56 -150 140v529c0 20 11 31 31 31h78c20 0 31 -11 31 -31v-492c0 -30 18 -48 48 -48h11c12 0 19 -8 19 -20v-78c0 -20 -11 -31 -31 -31h-37zM300 -180
c-20 0 -31 11 -31 31v54c0 20 11 31 31 31h22c32 0 51 19 51 51v482c0 20 11 31 31 31h78c20 0 31 -11 31 -31v-507c0 -86 -60 -142 -152 -142h-61z" />
    <glyph glyph-name="lslash" unicode="&#x142;" horiz-adv-x="344" 
d="M292 129c12 0 19 -8 19 -20v-78c0 -20 -11 -31 -31 -31h-37c-90 0 -150 56 -150 140v130l-17 -7c-22 -9 -36 1 -36 25v66c0 18 7 29 24 36l29 13v266c0 20 11 31 31 31h78c20 0 31 -11 31 -31v-206l35 15c22 9 36 -1 36 -25v-66c0 -18 -8 -29 -24 -36l-47 -20v-154
c0 -30 18 -48 49 -48h10z" />
    <glyph glyph-name="m" unicode="m" horiz-adv-x="827" 
d="M626 512c86 0 146 -59 146 -148v-333c0 -20 -11 -31 -31 -31h-78c-20 0 -31 11 -31 31v282c0 41 -27 68 -70 68c-45 0 -75 -29 -75 -67v-283c0 -20 -11 -31 -31 -31h-78c-20 0 -31 11 -31 31v282c0 41 -27 68 -70 68c-45 0 -75 -29 -75 -67v-283c0 -20 -11 -31 -31 -31
h-78c-20 0 -31 11 -31 31v438c0 20 11 31 31 31h78c20 0 31 -11 31 -31v-39h8c19 48 67 82 130 82c66 0 116 -34 137 -89h7c21 51 72 89 142 89z" />
    <glyph glyph-name="n" unicode="n" horiz-adv-x="550" 
d="M345 512c89 0 150 -59 150 -147v-334c0 -20 -11 -31 -31 -31h-78c-20 0 -31 11 -31 31v280c0 42 -29 70 -73 70c-48 0 -80 -31 -80 -69v-281c0 -20 -11 -31 -31 -31h-78c-20 0 -31 11 -31 31v438c0 20 11 31 31 31h78c20 0 31 -11 31 -31v-39h8c20 48 70 82 135 82z" />
    <glyph glyph-name="nacute" unicode="&#x144;" horiz-adv-x="550" 
d="M250 551c-24 0 -33 16 -22 36l51 94c8 16 20 23 37 23h86c27 0 36 -18 17 -38l-85 -98c-10 -12 -22 -17 -37 -17h-47zM345 512c89 0 150 -59 150 -147v-334c0 -20 -11 -31 -31 -31h-78c-20 0 -31 11 -31 31v280c0 42 -29 70 -73 70c-48 0 -80 -31 -80 -69v-281
c0 -20 -11 -31 -31 -31h-78c-20 0 -31 11 -31 31v438c0 20 11 31 31 31h78c20 0 31 -11 31 -31v-39h8c20 48 70 82 135 82z" />
    <glyph glyph-name="ncaron" unicode="&#x148;" horiz-adv-x="550" 
d="M192 570l-73 96c-14 20 -6 38 20 38h50c16 0 28 -5 38 -18l48 -52h7l48 52c11 13 22 18 38 18h50c26 0 34 -18 20 -38l-72 -96c-9 -13 -22 -19 -38 -19h-99c-16 0 -28 6 -37 19zM345 512c89 0 150 -59 150 -147v-334c0 -20 -11 -31 -31 -31h-78c-20 0 -31 11 -31 31v280
c0 42 -29 70 -73 70c-48 0 -80 -31 -80 -69v-281c0 -20 -11 -31 -31 -31h-78c-20 0 -31 11 -31 31v438c0 20 11 31 31 31h78c20 0 31 -11 31 -31v-39h8c20 48 70 82 135 82z" />
    <glyph glyph-name="uni0146" unicode="&#x146;" horiz-adv-x="550" 
d="M345 512c89 0 150 -59 150 -147v-334c0 -20 -11 -31 -31 -31h-78c-20 0 -31 11 -31 31v280c0 42 -29 70 -73 70c-48 0 -80 -31 -80 -69v-281c0 -20 -11 -31 -31 -31h-78c-20 0 -31 11 -31 31v438c0 20 11 31 31 31h78c20 0 31 -11 31 -31v-39h8c20 48 70 82 135 82z
M323 -51c24 0 33 -16 22 -37l-59 -124c-9 -15 -20 -22 -38 -22h-41c-22 0 -32 13 -27 34l28 122c3 18 15 27 34 27h81z" />
    <glyph glyph-name="uni1E45" unicode="&#x1e45;" horiz-adv-x="550" 
d="M279 554c-48 0 -80 32 -80 80s32 80 80 80s79 -32 79 -80s-31 -80 -79 -80zM345 512c89 0 150 -59 150 -147v-334c0 -20 -11 -31 -31 -31h-78c-20 0 -31 11 -31 31v280c0 42 -29 70 -73 70c-48 0 -80 -31 -80 -69v-281c0 -20 -11 -31 -31 -31h-78c-20 0 -31 11 -31 31
v438c0 20 11 31 31 31h78c20 0 31 -11 31 -31v-39h8c20 48 70 82 135 82z" />
    <glyph glyph-name="eng" unicode="&#x14b;" horiz-adv-x="550" 
d="M345 512c89 0 150 -59 150 -147v-418c0 -81 -59 -134 -149 -134h-43c-20 0 -31 11 -31 31v52c0 15 9 24 24 24h14c27 0 45 16 45 41v350c0 42 -29 70 -73 70c-48 0 -80 -31 -80 -69v-281c0 -20 -11 -31 -31 -31h-78c-20 0 -31 11 -31 31v438c0 20 11 31 31 31h78
c20 0 31 -11 31 -31v-39h8c20 48 70 82 135 82z" />
    <glyph glyph-name="uni01CC" unicode="&#x1cc;" horiz-adv-x="816" 
d="M685 564c-52 0 -84 33 -84 80c0 49 33 81 84 81c50 0 83 -32 83 -80c0 -49 -33 -81 -83 -81zM345 512c89 0 150 -59 150 -147v-334c0 -20 -11 -31 -31 -31h-78c-20 0 -31 11 -31 31v280c0 42 -29 70 -73 70c-48 0 -80 -31 -80 -69v-281c0 -20 -11 -31 -31 -31h-78
c-20 0 -31 11 -31 31v438c0 20 11 31 31 31h78c20 0 31 -11 31 -31v-39h8c20 48 70 82 135 82zM724 500c20 0 31 -11 31 -31v-507c0 -86 -60 -142 -152 -142h-61c-20 0 -31 11 -31 31v54c0 20 11 31 31 31h22c32 0 51 19 51 51v482c0 20 11 31 31 31h78z" />
    <glyph glyph-name="ntilde" unicode="&#xf1;" horiz-adv-x="550" 
d="M112 558c-15 0 -24 8 -23 24c5 87 40 132 109 132c60 0 92 -46 130 -46c18 0 31 9 36 25c4 12 9 18 29 18h53c15 0 25 -12 23 -33c-7 -81 -42 -123 -108 -123c-60 0 -96 46 -133 46c-17 0 -29 -10 -34 -25c-4 -12 -9 -18 -29 -18h-53zM345 512c89 0 150 -59 150 -147
v-334c0 -20 -11 -31 -31 -31h-78c-20 0 -31 11 -31 31v280c0 42 -29 70 -73 70c-48 0 -80 -31 -80 -69v-281c0 -20 -11 -31 -31 -31h-78c-20 0 -31 11 -31 31v438c0 20 11 31 31 31h78c20 0 31 -11 31 -31v-39h8c20 48 70 82 135 82z" />
    <glyph glyph-name="o" unicode="o" horiz-adv-x="526" 
d="M263 -12c-132 0 -220 80 -220 202v120c0 122 88 202 220 202s219 -80 219 -202v-120c0 -122 -87 -202 -219 -202zM263 117c48 0 79 29 79 74v118c0 45 -31 74 -79 74s-80 -29 -80 -74v-118c0 -45 32 -74 80 -74z" />
    <glyph glyph-name="oacute" unicode="&#xf3;" horiz-adv-x="526" 
d="M234 551c-24 0 -33 16 -22 36l51 94c8 16 20 23 37 23h86c27 0 36 -18 17 -38l-85 -98c-10 -12 -22 -17 -37 -17h-47zM263 -12c-132 0 -220 80 -220 202v120c0 122 88 202 220 202s219 -80 219 -202v-120c0 -122 -87 -202 -219 -202zM263 117c48 0 79 29 79 74v118
c0 45 -31 74 -79 74s-80 -29 -80 -74v-118c0 -45 32 -74 80 -74z" />
    <glyph glyph-name="obreve" unicode="&#x14f;" horiz-adv-x="526" 
d="M263 543c-89 0 -149 47 -160 127c-3 21 10 33 30 33h54c15 0 21 -8 24 -20c5 -27 23 -40 52 -40s47 15 50 40c3 12 10 20 24 20h54c20 0 33 -13 30 -34c-12 -81 -71 -126 -158 -126zM263 -12c-132 0 -220 80 -220 202v120c0 122 88 202 220 202s219 -80 219 -202v-120
c0 -122 -87 -202 -219 -202zM263 117c48 0 79 29 79 74v118c0 45 -31 74 -79 74s-80 -29 -80 -74v-118c0 -45 32 -74 80 -74z" />
    <glyph glyph-name="ocircumflex" unicode="&#xf4;" horiz-adv-x="526" 
d="M123 551c-26 0 -34 17 -20 38l72 96c9 13 22 19 38 19h99c16 0 28 -6 37 -19l73 -96c14 -21 6 -38 -20 -38h-50c-16 0 -27 5 -38 18l-48 52h-7l-48 -52c-10 -13 -22 -18 -38 -18h-50zM263 -12c-132 0 -220 80 -220 202v120c0 122 88 202 220 202s219 -80 219 -202v-120
c0 -122 -87 -202 -219 -202zM263 117c48 0 79 29 79 74v118c0 45 -31 74 -79 74s-80 -29 -80 -74v-118c0 -45 32 -74 80 -74z" />
    <glyph glyph-name="uni020D" unicode="&#x20d;" horiz-adv-x="526" 
d="M150 551c-17 0 -28 6 -37 22l-56 94c-12 20 -2 37 22 37h69c18 0 29 -8 36 -25l39 -92c8 -21 -3 -36 -26 -36h-47zM349 551c-17 0 -29 6 -37 22l-56 94c-11 20 -2 37 22 37h69c18 0 30 -8 36 -25l38 -92c7 -21 -2 -36 -25 -36h-47zM263 -12c-132 0 -220 80 -220 202v120
c0 122 88 202 220 202s219 -80 219 -202v-120c0 -122 -87 -202 -219 -202zM263 117c48 0 79 29 79 74v118c0 45 -31 74 -79 74s-80 -29 -80 -74v-118c0 -45 32 -74 80 -74z" />
    <glyph glyph-name="odieresis" unicode="&#xf6;" horiz-adv-x="526" 
d="M160 554c-46 0 -77 31 -77 77c0 45 31 75 77 75c45 0 75 -30 75 -75c0 -46 -30 -77 -75 -77zM367 554c-46 0 -77 31 -77 77c0 45 31 75 77 75c45 0 75 -30 75 -75c0 -46 -30 -77 -75 -77zM263 -12c-132 0 -220 80 -220 202v120c0 122 88 202 220 202s219 -80 219 -202
v-120c0 -122 -87 -202 -219 -202zM263 117c48 0 79 29 79 74v118c0 45 -31 74 -79 74s-80 -29 -80 -74v-118c0 -45 32 -74 80 -74z" />
    <glyph glyph-name="uni1ECD" unicode="&#x1ecd;" horiz-adv-x="526" 
d="M263 -12c-132 0 -220 80 -220 202v120c0 122 88 202 220 202s219 -80 219 -202v-120c0 -122 -87 -202 -219 -202zM263 117c48 0 79 29 79 74v118c0 45 -31 74 -79 74s-80 -29 -80 -74v-118c0 -45 32 -74 80 -74zM264 -214c-48 0 -80 32 -80 80s32 80 80 80s79 -32 79 -80
s-31 -80 -79 -80z" />
    <glyph glyph-name="ograve" unicode="&#xf2;" horiz-adv-x="526" 
d="M245 551c-15 0 -27 5 -38 17l-85 98c-18 20 -9 38 18 38h86c17 0 29 -7 36 -23l52 -94c11 -20 1 -36 -23 -36h-46zM263 -12c-132 0 -220 80 -220 202v120c0 122 88 202 220 202s219 -80 219 -202v-120c0 -122 -87 -202 -219 -202zM263 117c48 0 79 29 79 74v118
c0 45 -31 74 -79 74s-80 -29 -80 -74v-118c0 -45 32 -74 80 -74z" />
    <glyph glyph-name="ohungarumlaut" unicode="&#x151;" horiz-adv-x="526" 
d="M128 551c-22 0 -31 15 -24 36l38 92c6 17 18 25 36 25h69c24 0 34 -17 22 -37l-55 -94c-9 -16 -21 -22 -38 -22h-48zM327 551c-22 0 -33 15 -25 36l40 92c6 17 17 25 35 25h69c24 0 35 -17 22 -37l-56 -94c-9 -16 -20 -22 -37 -22h-48zM263 -12c-132 0 -220 80 -220 202
v120c0 122 88 202 220 202s219 -80 219 -202v-120c0 -122 -87 -202 -219 -202zM263 117c48 0 79 29 79 74v118c0 45 -31 74 -79 74s-80 -29 -80 -74v-118c0 -45 32 -74 80 -74z" />
    <glyph glyph-name="uni020F" unicode="&#x20f;" horiz-adv-x="526" 
d="M263 710c87 0 146 -45 158 -125c3 -22 -10 -34 -30 -34h-54c-14 0 -21 8 -24 19c-3 26 -21 40 -50 40s-48 -13 -52 -40c-3 -11 -9 -19 -24 -19h-54c-20 0 -33 12 -30 33c12 80 71 126 160 126zM263 -12c-132 0 -220 80 -220 202v120c0 122 88 202 220 202
s219 -80 219 -202v-120c0 -122 -87 -202 -219 -202zM263 117c48 0 79 29 79 74v118c0 45 -31 74 -79 74s-80 -29 -80 -74v-118c0 -45 32 -74 80 -74z" />
    <glyph glyph-name="omacron" unicode="&#x14d;" horiz-adv-x="526" 
d="M145 569c-20 0 -31 11 -31 31v47c0 20 11 31 31 31h237c20 0 31 -11 31 -31v-47c0 -20 -11 -31 -31 -31h-237zM263 -12c-132 0 -220 80 -220 202v120c0 122 88 202 220 202s219 -80 219 -202v-120c0 -122 -87 -202 -219 -202zM263 117c48 0 79 29 79 74v118
c0 45 -31 74 -79 74s-80 -29 -80 -74v-118c0 -45 32 -74 80 -74z" />
    <glyph glyph-name="uni01EB" unicode="&#x1eb;" horiz-adv-x="526" 
d="M263 512c132 0 219 -80 219 -202v-120c0 -95 -52 -164 -138 -190c-27 -17 -44 -43 -44 -71c0 -24 16 -40 40 -40c6 0 12 1 17 2c14 4 21 -1 21 -19v-46c0 -13 -4 -22 -15 -26c-15 -6 -39 -9 -65 -9c-75 0 -125 42 -125 105c0 38 17 73 46 95c-107 16 -176 91 -176 199
v120c0 122 88 202 220 202zM183 191c0 -45 32 -74 80 -74s79 29 79 74v118c0 45 -31 74 -79 74s-80 -29 -80 -74v-118z" />
    <glyph glyph-name="oslash" unicode="&#xf8;" horiz-adv-x="526" 
d="M426 453c36 -35 56 -84 56 -143v-120c0 -122 -87 -202 -219 -202c-40 0 -75 7 -106 21l-12 -20c-9 -13 -19 -19 -34 -19h-22c-20 0 -29 15 -16 35l27 42c-37 35 -57 84 -57 143v120c0 122 88 202 220 202c40 0 75 -7 105 -21l13 20c8 14 19 19 34 19h22
c20 0 29 -15 16 -35zM183 309v-118c0 -7 1 -13 2 -19l121 201c-12 7 -27 10 -43 10c-48 0 -80 -29 -80 -74zM342 191v118c0 6 -1 13 -2 18l-120 -200c12 -7 27 -10 43 -10c48 0 79 29 79 74z" />
    <glyph glyph-name="oslashacute" unicode="&#x1ff;" horiz-adv-x="526" 
d="M242 551c-24 0 -33 16 -22 36l51 94c8 16 20 23 37 23h86c27 0 36 -18 17 -38l-85 -98c-10 -12 -22 -17 -37 -17h-47zM426 453c36 -35 56 -84 56 -143v-120c0 -122 -87 -202 -219 -202c-40 0 -75 7 -106 21l-12 -20c-9 -13 -19 -19 -34 -19h-22c-20 0 -29 15 -16 35
l27 42c-37 35 -57 84 -57 143v120c0 122 88 202 220 202c40 0 75 -7 105 -21l13 20c8 14 19 19 34 19h22c20 0 29 -15 16 -35zM183 309v-118c0 -7 1 -13 2 -19l121 201c-12 7 -27 10 -43 10c-48 0 -80 -29 -80 -74zM342 191v118c0 6 -1 13 -2 18l-120 -200
c12 -7 27 -10 43 -10c48 0 79 29 79 74z" />
    <glyph glyph-name="otilde" unicode="&#xf5;" horiz-adv-x="526" 
d="M345 555c-60 0 -96 46 -133 46c-17 0 -29 -10 -34 -25c-4 -12 -9 -18 -29 -18h-53c-15 0 -24 8 -23 24c5 87 40 132 109 132c60 0 92 -46 130 -46c18 0 31 9 36 25c4 12 9 18 29 18h53c15 0 25 -12 23 -33c-7 -81 -42 -123 -108 -123zM263 -12c-132 0 -220 80 -220 202
v120c0 122 88 202 220 202s219 -80 219 -202v-120c0 -122 -87 -202 -219 -202zM263 117c48 0 79 29 79 74v118c0 45 -31 74 -79 74s-80 -29 -80 -74v-118c0 -45 32 -74 80 -74z" />
    <glyph glyph-name="oe" unicode="&#x153;" horiz-adv-x="825" 
d="M751 204h-268v-28c0 -45 32 -75 84 -75c35 0 59 12 71 35c6 11 14 20 31 20h80c20 0 34 -11 30 -32c-15 -89 -91 -136 -199 -136c-76 0 -137 27 -163 67h-9c-24 -40 -85 -67 -157 -67c-124 0 -208 77 -208 195v134c0 118 84 195 208 195c70 0 129 -25 157 -67h8
c27 42 86 67 157 67c125 0 209 -79 209 -198v-79c0 -20 -11 -31 -31 -31zM563 399c-48 0 -80 -29 -80 -74v-25h159v25c0 45 -32 74 -79 74zM342 191v118c0 45 -31 74 -79 74s-80 -29 -80 -74v-118c0 -45 32 -74 80 -74s79 29 79 74z" />
    <glyph glyph-name="p" unicode="p" horiz-adv-x="547" 
d="M343 512c94 0 158 -65 158 -163v-198c0 -98 -64 -163 -158 -163c-65 0 -114 34 -133 82h-8v-219c0 -20 -11 -31 -31 -31h-78c-20 0 -31 11 -31 31v618c0 20 11 31 31 31h78c20 0 31 -11 31 -31v-39h8c19 48 68 82 133 82zM361 193v114c0 45 -31 74 -78 74
c-49 0 -81 -32 -81 -73v-116c0 -41 32 -73 81 -73c47 0 78 29 78 74z" />
    <glyph glyph-name="thorn" unicode="&#xfe;" horiz-adv-x="547" 
d="M343 512c94 0 158 -65 158 -163v-198c0 -98 -64 -163 -158 -163c-65 0 -114 34 -133 82h-8v-219c0 -20 -11 -31 -31 -31h-78c-20 0 -31 11 -31 31v818c0 20 11 31 31 31h78c20 0 31 -11 31 -31v-239h8c19 48 68 82 133 82zM361 193v114c0 45 -31 74 -78 74
c-49 0 -81 -32 -81 -73v-116c0 -41 32 -73 81 -73c47 0 78 29 78 74z" />
    <glyph glyph-name="q" unicode="q" horiz-adv-x="547" 
d="M454 500c20 0 31 -11 31 -31v-618c0 -20 -11 -31 -31 -31h-78c-20 0 -31 11 -31 31v219h-8c-19 -48 -68 -82 -133 -82c-93 0 -158 65 -158 163v198c0 98 65 163 158 163c65 0 114 -34 133 -82h8v39c0 20 11 31 31 31h78zM264 119c49 0 81 32 81 73v116
c0 41 -32 73 -81 73c-47 0 -78 -29 -78 -74v-114c0 -45 31 -74 78 -74z" />
    <glyph glyph-name="r" unicode="r" horiz-adv-x="382" 
d="M323 511c21 2 33 -11 33 -31v-81c0 -19 -12 -31 -31 -31c-84 0 -123 -44 -123 -113v-224c0 -20 -11 -31 -31 -31h-78c-20 0 -31 11 -31 31v438c0 20 11 31 31 31h78c20 0 31 -11 31 -31v-53h8c18 60 54 91 113 95z" />
    <glyph glyph-name="racute" unicode="&#x155;" horiz-adv-x="382" 
d="M177 551c-24 0 -33 16 -22 36l51 94c8 16 20 23 37 23h86c27 0 36 -18 17 -38l-85 -98c-10 -12 -22 -17 -37 -17h-47zM323 511c21 2 33 -11 33 -31v-81c0 -19 -12 -31 -31 -31c-84 0 -123 -44 -123 -113v-224c0 -20 -11 -31 -31 -31h-78c-20 0 -31 11 -31 31v438
c0 20 11 31 31 31h78c20 0 31 -11 31 -31v-53h8c18 60 54 91 113 95z" />
    <glyph glyph-name="rcaron" unicode="&#x159;" horiz-adv-x="382" 
d="M345 704c26 0 34 -18 20 -38l-72 -96c-9 -13 -22 -19 -38 -19h-99c-16 0 -28 6 -37 19l-73 96c-14 20 -6 38 20 38h50c16 0 28 -5 38 -18l48 -52h7l48 52c11 13 22 18 38 18h50zM323 511c21 2 33 -11 33 -31v-81c0 -19 -12 -31 -31 -31c-84 0 -123 -44 -123 -113v-224
c0 -20 -11 -31 -31 -31h-78c-20 0 -31 11 -31 31v438c0 20 11 31 31 31h78c20 0 31 -11 31 -31v-53h8c18 60 54 91 113 95z" />
    <glyph glyph-name="uni0157" unicode="&#x157;" horiz-adv-x="382" 
d="M323 511c21 2 33 -11 33 -31v-81c0 -19 -12 -31 -31 -31c-84 0 -123 -44 -123 -113v-224c0 -20 -11 -31 -31 -31h-78c-20 0 -31 11 -31 31v438c0 20 11 31 31 31h78c20 0 31 -11 31 -31v-53h8c18 60 54 91 113 95zM176 -51c24 0 33 -16 22 -37l-59 -124
c-9 -15 -20 -22 -38 -22h-41c-22 0 -32 13 -27 34l28 122c3 18 15 27 34 27h81z" />
    <glyph glyph-name="uni0211" unicode="&#x211;" horiz-adv-x="382" 
d="M94 551c-17 0 -28 6 -37 22l-56 94c-12 20 -2 37 22 37h69c18 0 29 -8 36 -25l39 -92c8 -21 -3 -36 -26 -36h-47zM365 587c7 -21 -2 -36 -25 -36h-47c-17 0 -29 6 -37 22l-56 94c-11 20 -2 37 22 37h69c18 0 30 -8 36 -25zM323 511c21 2 33 -11 33 -31v-81
c0 -19 -12 -31 -31 -31c-84 0 -123 -44 -123 -113v-224c0 -20 -11 -31 -31 -31h-78c-20 0 -31 11 -31 31v438c0 20 11 31 31 31h78c20 0 31 -11 31 -31v-53h8c18 60 54 91 113 95z" />
    <glyph glyph-name="uni1E5B" unicode="&#x1e5b;" horiz-adv-x="382" 
d="M323 511c21 2 33 -11 33 -31v-81c0 -19 -12 -31 -31 -31c-84 0 -123 -44 -123 -113v-224c0 -20 -11 -31 -31 -31h-78c-20 0 -31 11 -31 31v438c0 20 11 31 31 31h78c20 0 31 -11 31 -31v-53h8c18 60 54 91 113 95zM133 -54c48 0 79 -32 79 -80s-31 -80 -79 -80
s-80 32 -80 80s32 80 80 80z" />
    <glyph glyph-name="uni0213" unicode="&#x213;" horiz-adv-x="382" 
d="M365 585c3 -22 -10 -34 -30 -34h-54c-14 0 -21 8 -24 19c-3 26 -21 40 -50 40s-48 -13 -52 -40c-3 -11 -9 -19 -24 -19h-54c-20 0 -33 12 -30 33c12 80 71 126 160 126c87 0 146 -45 158 -125zM323 511c21 2 33 -11 33 -31v-81c0 -19 -12 -31 -31 -31
c-84 0 -123 -44 -123 -113v-224c0 -20 -11 -31 -31 -31h-78c-20 0 -31 11 -31 31v438c0 20 11 31 31 31h78c20 0 31 -11 31 -31v-53h8c18 60 54 91 113 95z" />
    <glyph glyph-name="s" unicode="s" horiz-adv-x="478" 
d="M241 -12c-115 0 -193 49 -208 134c-5 21 9 33 27 33h82c20 0 25 -8 31 -23c10 -26 34 -38 67 -38c41 0 66 17 66 43c0 82 -271 31 -271 218c0 102 80 157 199 157c111 0 186 -45 201 -126c4 -20 -9 -32 -27 -32h-82c-18 0 -22 10 -30 21c-14 21 -32 31 -60 31
c-37 0 -60 -16 -60 -40c0 -81 272 -26 272 -215c0 -102 -80 -163 -207 -163z" />
    <glyph glyph-name="sacute" unicode="&#x15b;" horiz-adv-x="478" 
d="M209 551c-24 0 -33 16 -22 36l51 94c8 16 20 23 37 23h86c27 0 36 -18 17 -38l-85 -98c-10 -12 -22 -17 -37 -17h-47zM241 -12c-115 0 -193 49 -208 134c-5 21 9 33 27 33h82c20 0 25 -8 31 -23c10 -26 34 -38 67 -38c41 0 66 17 66 43c0 82 -271 31 -271 218
c0 102 80 157 199 157c111 0 186 -45 201 -126c4 -20 -9 -32 -27 -32h-82c-18 0 -22 10 -30 21c-14 21 -32 31 -60 31c-37 0 -60 -16 -60 -40c0 -81 272 -26 272 -215c0 -102 -80 -163 -207 -163z" />
    <glyph glyph-name="scaron" unicode="&#x161;" horiz-adv-x="478" 
d="M188 551c-16 0 -28 6 -37 19l-73 96c-14 20 -6 38 20 38h50c16 0 28 -5 38 -18l48 -52h7l48 52c11 13 22 18 38 18h50c26 0 34 -18 20 -38l-72 -96c-9 -13 -22 -19 -38 -19h-99zM241 -12c-115 0 -193 49 -208 134c-5 21 9 33 27 33h82c20 0 25 -8 31 -23
c10 -26 34 -38 67 -38c41 0 66 17 66 43c0 82 -271 31 -271 218c0 102 80 157 199 157c111 0 186 -45 201 -126c4 -20 -9 -32 -27 -32h-82c-18 0 -22 10 -30 21c-14 21 -32 31 -60 31c-37 0 -60 -16 -60 -40c0 -81 272 -26 272 -215c0 -102 -80 -163 -207 -163z" />
    <glyph glyph-name="scedilla" unicode="&#x15f;" horiz-adv-x="478" 
d="M448 151c0 -94 -68 -153 -178 -162l-17 -30h12c55 0 92 -35 92 -89c0 -61 -53 -102 -133 -102c-22 0 -43 3 -61 8s-25 18 -25 35v14c0 22 10 30 29 26c14 -4 29 -7 44 -7c30 0 51 11 51 30c0 14 -11 24 -27 24h-51c-15 0 -24 8 -24 23v9c0 8 2 14 6 21l25 40
c-87 13 -145 59 -158 131c-5 21 9 33 27 33h82c20 0 25 -8 31 -23c10 -26 34 -38 67 -38c41 0 66 17 66 43c0 82 -271 31 -271 218c0 102 80 157 199 157c111 0 186 -45 201 -126c4 -20 -9 -32 -27 -32h-82c-18 0 -22 10 -30 21c-14 21 -32 31 -60 31c-37 0 -60 -16 -60 -40
c0 -81 272 -26 272 -215z" />
    <glyph glyph-name="scircumflex" unicode="&#x15d;" horiz-adv-x="478" 
d="M98 551c-26 0 -34 17 -20 38l72 96c9 13 22 19 38 19h99c16 0 28 -6 37 -19l73 -96c14 -21 6 -38 -20 -38h-50c-16 0 -27 5 -38 18l-48 52h-7l-48 -52c-10 -13 -22 -18 -38 -18h-50zM241 -12c-115 0 -193 49 -208 134c-5 21 9 33 27 33h82c20 0 25 -8 31 -23
c10 -26 34 -38 67 -38c41 0 66 17 66 43c0 82 -271 31 -271 218c0 102 80 157 199 157c111 0 186 -45 201 -126c4 -20 -9 -32 -27 -32h-82c-18 0 -22 10 -30 21c-14 21 -32 31 -60 31c-37 0 -60 -16 -60 -40c0 -81 272 -26 272 -215c0 -102 -80 -163 -207 -163z" />
    <glyph glyph-name="uni0219" unicode="&#x219;" horiz-adv-x="478" 
d="M241 -12c-115 0 -193 49 -208 134c-5 21 9 33 27 33h82c20 0 25 -8 31 -23c10 -26 34 -38 67 -38c41 0 66 17 66 43c0 82 -271 31 -271 218c0 102 80 157 199 157c111 0 186 -45 201 -126c4 -20 -9 -32 -27 -32h-82c-18 0 -22 10 -30 21c-14 21 -32 31 -60 31
c-37 0 -60 -16 -60 -40c0 -81 272 -26 272 -215c0 -102 -80 -163 -207 -163zM166 -234c-22 0 -32 13 -27 34l28 122c3 18 15 27 34 27h81c24 0 33 -16 22 -37l-59 -124c-9 -15 -20 -22 -38 -22h-41z" />
    <glyph glyph-name="uni1E63" unicode="&#x1e63;" horiz-adv-x="478" 
d="M241 -12c-115 0 -193 49 -208 134c-5 21 9 33 27 33h82c20 0 25 -8 31 -23c10 -26 34 -38 67 -38c41 0 66 17 66 43c0 82 -271 31 -271 218c0 102 80 157 199 157c111 0 186 -45 201 -126c4 -20 -9 -32 -27 -32h-82c-18 0 -22 10 -30 21c-14 21 -32 31 -60 31
c-37 0 -60 -16 -60 -40c0 -81 272 -26 272 -215c0 -102 -80 -163 -207 -163zM238 -214c-48 0 -80 32 -80 80s32 80 80 80s79 -32 79 -80s-31 -80 -79 -80z" />
    <glyph glyph-name="germandbls" unicode="&#xdf;" horiz-adv-x="552" 
d="M88 0c-20 0 -31 11 -31 31v462c0 114 89 189 224 189c133 0 221 -75 221 -187c0 -69 -35 -123 -90 -143v-7c67 -16 111 -84 111 -166c0 -109 -78 -179 -196 -179h-39c-20 0 -31 11 -31 31v68c0 14 9 23 24 23h22c48 0 80 33 80 83c0 49 -32 81 -80 81h-18
c-12 0 -20 9 -20 21v80c0 10 5 16 15 16h10c43 0 72 31 72 78s-33 79 -82 79c-50 0 -83 -32 -83 -80v-449c0 -20 -11 -31 -31 -31h-78z" />
    <glyph glyph-name="t" unicode="t" horiz-adv-x="399" 
d="M328 375h-79v-196c0 -31 19 -50 51 -50h22c20 0 31 -11 31 -31v-67c0 -20 -11 -31 -31 -31h-61c-92 0 -152 56 -152 142v233h-52c-20 0 -31 11 -31 31v66c0 18 10 28 28 28h25c25 0 39 15 39 39v60c0 20 11 31 31 31h69c20 0 31 -11 31 -31v-99h79c20 0 31 -11 31 -31
v-63c0 -20 -11 -31 -31 -31z" />
    <glyph glyph-name="tbar" unicode="&#x167;" horiz-adv-x="399" 
d="M328 375h-79v-77h59c21 0 31 -11 31 -31v-21c0 -20 -10 -31 -31 -31h-59v-36c0 -31 19 -50 51 -50h22c20 0 31 -11 31 -31v-67c0 -20 -11 -31 -31 -31h-61c-92 0 -152 56 -152 142v73h-32c-20 0 -31 11 -31 31v21c0 20 11 31 31 31h32v77h-52c-20 0 -31 11 -31 31v66
c0 18 10 28 28 28h25c25 0 39 15 39 39v60c0 20 11 31 31 31h69c20 0 31 -11 31 -31v-99h79c20 0 31 -11 31 -31v-63c0 -20 -11 -31 -31 -31z" />
    <glyph glyph-name="tcaron" unicode="&#x165;" horiz-adv-x="399" 
d="M395 733c21 0 32 -12 28 -33l-16 -122c-3 -19 -15 -28 -33 -28h-41c-20 0 -31 11 -31 31v121c0 20 11 31 31 31h62zM328 500c20 0 31 -11 31 -31v-63c0 -20 -11 -31 -31 -31h-79v-196c0 -31 19 -50 51 -50h22c20 0 31 -11 31 -31v-67c0 -20 -11 -31 -31 -31h-61
c-92 0 -152 56 -152 142v233h-52c-20 0 -31 11 -31 31v66c0 18 10 28 28 28h25c25 0 39 15 39 39v60c0 20 11 31 31 31h69c20 0 31 -11 31 -31v-99h79z" />
    <glyph glyph-name="uni0163" unicode="&#x163;" horiz-adv-x="399" 
d="M328 375h-79v-196c0 -31 19 -50 51 -50h22c20 0 31 -11 31 -31v-67c0 -20 -11 -31 -31 -31h-61h-4l-22 -41h12c55 0 92 -35 92 -89c0 -61 -53 -102 -133 -102c-22 0 -43 3 -61 8c-18 4 -25 18 -25 35v14c0 22 10 30 29 26c14 -4 29 -7 44 -7c30 0 51 11 51 30
c0 14 -11 24 -27 24h-51c-15 0 -24 8 -24 23v10c0 7 2 13 6 20l37 65c-48 22 -76 67 -76 126v233h-52c-20 0 -31 11 -31 31v66c0 18 10 28 28 28h25c25 0 39 15 39 39v60c0 20 11 31 31 31h69c20 0 31 -11 31 -31v-99h79c20 0 31 -11 31 -31v-63c0 -20 -11 -31 -31 -31z" />
    <glyph glyph-name="uni021B" unicode="&#x21b;" horiz-adv-x="399" 
d="M328 375h-79v-196c0 -31 19 -50 51 -50h22c20 0 31 -11 31 -31v-67c0 -20 -11 -31 -31 -31h-61c-92 0 -152 56 -152 142v233h-52c-20 0 -31 11 -31 31v66c0 18 10 28 28 28h25c25 0 39 15 39 39v60c0 20 11 31 31 31h69c20 0 31 -11 31 -31v-99h79c20 0 31 -11 31 -31
v-63c0 -20 -11 -31 -31 -31zM264 -51c24 0 33 -16 22 -37l-59 -124c-9 -15 -20 -22 -38 -22h-41c-22 0 -32 13 -27 34l28 122c3 18 15 27 34 27h81z" />
    <glyph glyph-name="uni1E6D" unicode="&#x1e6d;" horiz-adv-x="399" 
d="M328 375h-79v-196c0 -31 19 -50 51 -50h22c20 0 31 -11 31 -31v-67c0 -20 -11 -31 -31 -31h-61c-92 0 -152 56 -152 142v233h-52c-20 0 -31 11 -31 31v66c0 18 10 28 28 28h25c25 0 39 15 39 39v60c0 20 11 31 31 31h69c20 0 31 -11 31 -31v-99h79c20 0 31 -11 31 -31
v-63c0 -20 -11 -31 -31 -31zM220 -54c48 0 79 -32 79 -80s-31 -80 -79 -80s-80 32 -80 80s32 80 80 80z" />
    <glyph glyph-name="u" unicode="u" horiz-adv-x="543" 
d="M450 500c20 0 31 -11 31 -31v-438c0 -20 -11 -31 -31 -31h-78c-20 0 -31 11 -31 31v39h-8c-19 -48 -66 -82 -130 -82c-87 0 -147 58 -147 146v335c0 20 11 31 31 31h78c20 0 31 -11 31 -31v-282c0 -41 27 -68 70 -68c45 0 75 29 75 67v283c0 20 11 31 31 31h78z" />
    <glyph glyph-name="uacute" unicode="&#xfa;" horiz-adv-x="543" 
d="M239 551c-24 0 -33 16 -22 36l51 94c8 16 20 23 37 23h86c27 0 36 -18 17 -38l-85 -98c-10 -12 -22 -17 -37 -17h-47zM450 500c20 0 31 -11 31 -31v-438c0 -20 -11 -31 -31 -31h-78c-20 0 -31 11 -31 31v39h-8c-19 -48 -66 -82 -130 -82c-87 0 -147 58 -147 146v335
c0 20 11 31 31 31h78c20 0 31 -11 31 -31v-282c0 -41 27 -68 70 -68c45 0 75 29 75 67v283c0 20 11 31 31 31h78z" />
    <glyph glyph-name="ubreve" unicode="&#x16d;" horiz-adv-x="543" 
d="M269 543c-89 0 -149 47 -160 127c-3 21 10 33 30 33h54c15 0 21 -8 24 -20c5 -27 23 -40 52 -40s47 15 50 40c3 12 10 20 24 20h54c20 0 33 -13 30 -34c-12 -81 -71 -126 -158 -126zM450 500c20 0 31 -11 31 -31v-438c0 -20 -11 -31 -31 -31h-78c-20 0 -31 11 -31 31v39
h-8c-19 -48 -66 -82 -130 -82c-87 0 -147 58 -147 146v335c0 20 11 31 31 31h78c20 0 31 -11 31 -31v-282c0 -41 27 -68 70 -68c45 0 75 29 75 67v283c0 20 11 31 31 31h78z" />
    <glyph glyph-name="ucircumflex" unicode="&#xfb;" horiz-adv-x="543" 
d="M129 551c-26 0 -34 17 -20 38l72 96c9 13 22 19 38 19h99c16 0 28 -6 37 -19l73 -96c14 -21 6 -38 -20 -38h-50c-16 0 -27 5 -38 18l-48 52h-7l-48 -52c-10 -13 -22 -18 -38 -18h-50zM450 500c20 0 31 -11 31 -31v-438c0 -20 -11 -31 -31 -31h-78c-20 0 -31 11 -31 31v39
h-8c-19 -48 -66 -82 -130 -82c-87 0 -147 58 -147 146v335c0 20 11 31 31 31h78c20 0 31 -11 31 -31v-282c0 -41 27 -68 70 -68c45 0 75 29 75 67v283c0 20 11 31 31 31h78z" />
    <glyph glyph-name="uni0215" unicode="&#x215;" horiz-adv-x="543" 
d="M119 573l-56 94c-12 20 -2 37 22 37h69c18 0 29 -8 36 -25l39 -92c8 -21 -3 -36 -26 -36h-47c-17 0 -28 6 -37 22zM318 573l-56 94c-11 20 -2 37 22 37h69c18 0 30 -8 36 -25l38 -92c7 -21 -2 -36 -25 -36h-47c-17 0 -29 6 -37 22zM450 500c20 0 31 -11 31 -31v-438
c0 -20 -11 -31 -31 -31h-78c-20 0 -31 11 -31 31v39h-8c-19 -48 -66 -82 -130 -82c-87 0 -147 58 -147 146v335c0 20 11 31 31 31h78c20 0 31 -11 31 -31v-282c0 -41 27 -68 70 -68c45 0 75 29 75 67v283c0 20 11 31 31 31h78z" />
    <glyph glyph-name="udieresis" unicode="&#xfc;" horiz-adv-x="543" 
d="M166 554c-46 0 -77 31 -77 77c0 45 31 75 77 75c45 0 75 -30 75 -75c0 -46 -30 -77 -75 -77zM373 554c-46 0 -77 31 -77 77c0 45 31 75 77 75c45 0 75 -30 75 -75c0 -46 -30 -77 -75 -77zM450 500c20 0 31 -11 31 -31v-438c0 -20 -11 -31 -31 -31h-78
c-20 0 -31 11 -31 31v39h-8c-19 -48 -66 -82 -130 -82c-87 0 -147 58 -147 146v335c0 20 11 31 31 31h78c20 0 31 -11 31 -31v-282c0 -41 27 -68 70 -68c45 0 75 29 75 67v283c0 20 11 31 31 31h78z" />
    <glyph glyph-name="uni1EE5" unicode="&#x1ee5;" horiz-adv-x="543" 
d="M450 500c20 0 31 -11 31 -31v-438c0 -20 -11 -31 -31 -31h-78c-20 0 -31 11 -31 31v39h-8c-19 -48 -66 -82 -130 -82c-87 0 -147 58 -147 146v335c0 20 11 31 31 31h78c20 0 31 -11 31 -31v-282c0 -41 27 -68 70 -68c45 0 75 29 75 67v283c0 20 11 31 31 31h78zM269 -54
c48 0 79 -32 79 -80s-31 -80 -79 -80s-80 32 -80 80s32 80 80 80z" />
    <glyph glyph-name="ugrave" unicode="&#xf9;" horiz-adv-x="543" 
d="M213 568l-85 98c-18 20 -9 38 18 38h86c17 0 29 -7 36 -23l52 -94c11 -20 1 -36 -23 -36h-46c-15 0 -27 5 -38 17zM450 500c20 0 31 -11 31 -31v-438c0 -20 -11 -31 -31 -31h-78c-20 0 -31 11 -31 31v39h-8c-19 -48 -66 -82 -130 -82c-87 0 -147 58 -147 146v335
c0 20 11 31 31 31h78c20 0 31 -11 31 -31v-282c0 -41 27 -68 70 -68c45 0 75 29 75 67v283c0 20 11 31 31 31h78z" />
    <glyph glyph-name="uhungarumlaut" unicode="&#x171;" horiz-adv-x="543" 
d="M134 551c-22 0 -31 15 -24 36l38 92c6 17 18 25 36 25h69c24 0 34 -17 22 -37l-55 -94c-9 -16 -21 -22 -38 -22h-48zM333 551c-22 0 -33 15 -25 36l40 92c6 17 17 25 35 25h69c24 0 35 -17 22 -37l-56 -94c-9 -16 -20 -22 -37 -22h-48zM450 500c20 0 31 -11 31 -31v-438
c0 -20 -11 -31 -31 -31h-78c-20 0 -31 11 -31 31v39h-8c-19 -48 -66 -82 -130 -82c-87 0 -147 58 -147 146v335c0 20 11 31 31 31h78c20 0 31 -11 31 -31v-282c0 -41 27 -68 70 -68c45 0 75 29 75 67v283c0 20 11 31 31 31h78z" />
    <glyph glyph-name="uni0217" unicode="&#x217;" horiz-adv-x="543" 
d="M139 551c-20 0 -33 12 -30 33c12 80 71 126 160 126c87 0 146 -45 158 -125c3 -22 -10 -34 -30 -34h-54c-14 0 -21 8 -24 19c-3 26 -21 40 -50 40s-48 -13 -52 -40c-3 -11 -9 -19 -24 -19h-54zM450 500c20 0 31 -11 31 -31v-438c0 -20 -11 -31 -31 -31h-78
c-20 0 -31 11 -31 31v39h-8c-19 -48 -66 -82 -130 -82c-87 0 -147 58 -147 146v335c0 20 11 31 31 31h78c20 0 31 -11 31 -31v-282c0 -41 27 -68 70 -68c45 0 75 29 75 67v283c0 20 11 31 31 31h78z" />
    <glyph glyph-name="umacron" unicode="&#x16b;" horiz-adv-x="543" 
d="M150 569c-20 0 -31 11 -31 31v47c0 20 11 31 31 31h237c20 0 31 -11 31 -31v-47c0 -20 -11 -31 -31 -31h-237zM450 500c20 0 31 -11 31 -31v-438c0 -20 -11 -31 -31 -31h-78c-20 0 -31 11 -31 31v39h-8c-19 -48 -66 -82 -130 -82c-87 0 -147 58 -147 146v335
c0 20 11 31 31 31h78c20 0 31 -11 31 -31v-282c0 -41 27 -68 70 -68c45 0 75 29 75 67v283c0 20 11 31 31 31h78z" />
    <glyph glyph-name="uogonek" unicode="&#x173;" horiz-adv-x="543" 
d="M470 -118c14 4 21 -1 21 -19v-46c0 -13 -4 -22 -15 -26c-15 -6 -39 -9 -65 -9c-75 0 -125 42 -125 105c0 49 29 93 74 112v3c-12 3 -19 14 -19 29v39h-8c-19 -48 -66 -82 -130 -82c-87 0 -147 58 -147 146v335c0 20 11 31 31 31h78c20 0 31 -11 31 -31v-282
c0 -41 27 -68 70 -68c45 0 75 29 75 67v283c0 20 11 31 31 31h78c20 0 31 -11 31 -31v-456c0 -8 -4 -14 -13 -17c-34 -15 -55 -45 -55 -76c0 -24 16 -40 40 -40c6 0 12 1 17 2z" />
    <glyph glyph-name="uring" unicode="&#x16f;" horiz-adv-x="543" 
d="M269 543c-72 0 -119 46 -119 113s47 113 119 113c70 0 117 -46 117 -113s-47 -113 -117 -113zM269 702c-27 0 -46 -19 -46 -46c0 -26 18 -46 46 -46c26 0 44 19 44 46s-18 46 -44 46zM450 500c20 0 31 -11 31 -31v-438c0 -20 -11 -31 -31 -31h-78c-20 0 -31 11 -31 31v39
h-8c-19 -48 -66 -82 -130 -82c-87 0 -147 58 -147 146v335c0 20 11 31 31 31h78c20 0 31 -11 31 -31v-282c0 -41 27 -68 70 -68c45 0 75 29 75 67v283c0 20 11 31 31 31h78z" />
    <glyph glyph-name="utilde" unicode="&#x169;" horiz-adv-x="543" 
d="M101 558c-15 0 -24 8 -23 24c5 87 40 132 109 132c60 0 92 -46 130 -46c18 0 31 9 36 25c4 12 9 18 29 18h53c15 0 25 -12 23 -33c-7 -81 -42 -123 -108 -123c-60 0 -96 46 -133 46c-17 0 -29 -10 -34 -25c-4 -12 -9 -18 -29 -18h-53zM450 500c20 0 31 -11 31 -31v-438
c0 -20 -11 -31 -31 -31h-78c-20 0 -31 11 -31 31v39h-8c-19 -48 -66 -82 -130 -82c-87 0 -147 58 -147 146v335c0 20 11 31 31 31h78c20 0 31 -11 31 -31v-282c0 -41 27 -68 70 -68c45 0 75 29 75 67v283c0 20 11 31 31 31h78z" />
    <glyph glyph-name="v" unicode="v" horiz-adv-x="522" 
d="M204 0c-18 0 -30 9 -35 26l-140 439c-6 21 5 35 23 35h93c18 0 30 -9 33 -28l82 -315h9l81 315c3 19 15 28 33 28h87c19 0 30 -14 23 -35l-140 -439c-4 -17 -17 -26 -35 -26h-114z" />
    <glyph glyph-name="w" unicode="w" horiz-adv-x="801" 
d="M190 0c-19 0 -30 9 -35 27l-123 439c-5 21 5 34 24 34h93c19 0 30 -10 33 -29l66 -299h10l73 300c4 19 15 28 34 28h77c18 0 30 -9 33 -28l73 -300h10l67 299c2 19 14 29 33 29h87c19 0 30 -13 24 -34l-123 -439c-4 -18 -16 -27 -35 -27h-103c-18 0 -31 10 -34 28
l-69 262h-9l-69 -262c-3 -18 -16 -28 -34 -28h-103z" />
    <glyph glyph-name="wacute" unicode="&#x1e83;" horiz-adv-x="801" 
d="M371 551c-24 0 -33 16 -22 36l51 94c8 16 20 23 37 23h86c27 0 36 -18 17 -38l-85 -98c-10 -12 -22 -17 -37 -17h-47zM190 0c-19 0 -30 9 -35 27l-123 439c-5 21 5 34 24 34h93c19 0 30 -10 33 -29l66 -299h10l73 300c4 19 15 28 34 28h77c18 0 30 -9 33 -28l73 -300h10
l67 299c2 19 14 29 33 29h87c19 0 30 -13 24 -34l-123 -439c-4 -18 -16 -27 -35 -27h-103c-18 0 -31 10 -34 28l-69 262h-9l-69 -262c-3 -18 -16 -28 -34 -28h-103z" />
    <glyph glyph-name="wcircumflex" unicode="&#x175;" horiz-adv-x="801" 
d="M261 551c-26 0 -34 17 -20 38l72 96c9 13 22 19 38 19h99c16 0 28 -6 37 -19l73 -96c14 -21 6 -38 -20 -38h-50c-16 0 -27 5 -38 18l-48 52h-7l-48 -52c-10 -13 -22 -18 -38 -18h-50zM190 0c-19 0 -30 9 -35 27l-123 439c-5 21 5 34 24 34h93c19 0 30 -10 33 -29l66 -299
h10l73 300c4 19 15 28 34 28h77c18 0 30 -9 33 -28l73 -300h10l67 299c2 19 14 29 33 29h87c19 0 30 -13 24 -34l-123 -439c-4 -18 -16 -27 -35 -27h-103c-18 0 -31 10 -34 28l-69 262h-9l-69 -262c-3 -18 -16 -28 -34 -28h-103z" />
    <glyph glyph-name="wdieresis" unicode="&#x1e85;" horiz-adv-x="801" 
d="M298 554c-46 0 -77 31 -77 77c0 45 31 75 77 75c45 0 75 -30 75 -75c0 -46 -30 -77 -75 -77zM505 554c-46 0 -77 31 -77 77c0 45 31 75 77 75c45 0 75 -30 75 -75c0 -46 -30 -77 -75 -77zM190 0c-19 0 -30 9 -35 27l-123 439c-5 21 5 34 24 34h93c19 0 30 -10 33 -29
l66 -299h10l73 300c4 19 15 28 34 28h77c18 0 30 -9 33 -28l73 -300h10l67 299c2 19 14 29 33 29h87c19 0 30 -13 24 -34l-123 -439c-4 -18 -16 -27 -35 -27h-103c-18 0 -31 10 -34 28l-69 262h-9l-69 -262c-3 -18 -16 -28 -34 -28h-103z" />
    <glyph glyph-name="wgrave" unicode="&#x1e81;" horiz-adv-x="801" 
d="M382 551c-15 0 -27 5 -38 17l-85 98c-18 20 -9 38 18 38h86c17 0 29 -7 36 -23l52 -94c11 -20 1 -36 -23 -36h-46zM190 0c-19 0 -30 9 -35 27l-123 439c-5 21 5 34 24 34h93c19 0 30 -10 33 -29l66 -299h10l73 300c4 19 15 28 34 28h77c18 0 30 -9 33 -28l73 -300h10
l67 299c2 19 14 29 33 29h87c19 0 30 -13 24 -34l-123 -439c-4 -18 -16 -27 -35 -27h-103c-18 0 -31 10 -34 28l-69 262h-9l-69 -262c-3 -18 -16 -28 -34 -28h-103z" />
    <glyph glyph-name="x" unicode="x" horiz-adv-x="522" 
d="M61 0c-22 0 -31 16 -18 37l131 207l-138 219c-12 21 -4 37 19 37h99c17 0 29 -8 36 -23l71 -123h8l70 123c8 15 20 23 37 23h84c23 0 31 -16 19 -37l-131 -207l139 -219c12 -21 4 -37 -19 -37h-99c-17 0 -29 8 -36 23l-71 124h-9l-71 -124c-7 -15 -19 -23 -36 -23h-85z
" />
    <glyph glyph-name="y" unicode="y" horiz-adv-x="528" 
d="M106 -180c-20 0 -31 11 -31 31v54c0 20 11 31 31 31h33c29 0 48 11 56 36l16 43h-16c-15 0 -24 6 -29 21l-137 429c-6 21 5 35 24 35h92c18 0 30 -9 33 -28l82 -315h15l81 315c3 19 15 28 33 28h86c20 0 31 -14 24 -35l-172 -536c-23 -73 -73 -109 -153 -109h-68z" />
    <glyph glyph-name="yacute" unicode="&#xfd;" horiz-adv-x="528" 
d="M235 551c-24 0 -33 16 -22 36l51 94c8 16 20 23 37 23h86c27 0 36 -18 17 -38l-85 -98c-10 -12 -22 -17 -37 -17h-47zM106 -180c-20 0 -31 11 -31 31v54c0 20 11 31 31 31h33c29 0 48 11 56 36l16 43h-16c-15 0 -24 6 -29 21l-137 429c-6 21 5 35 24 35h92
c18 0 30 -9 33 -28l82 -315h15l81 315c3 19 15 28 33 28h86c20 0 31 -14 24 -35l-172 -536c-23 -73 -73 -109 -153 -109h-68z" />
    <glyph glyph-name="ycircumflex" unicode="&#x177;" horiz-adv-x="528" 
d="M124 551c-26 0 -34 17 -20 38l72 96c9 13 22 19 38 19h99c16 0 28 -6 37 -19l73 -96c14 -21 6 -38 -20 -38h-50c-16 0 -27 5 -38 18l-48 52h-7l-48 -52c-10 -13 -22 -18 -38 -18h-50zM106 -180c-20 0 -31 11 -31 31v54c0 20 11 31 31 31h33c29 0 48 11 56 36l16 43h-16
c-15 0 -24 6 -29 21l-137 429c-6 21 5 35 24 35h92c18 0 30 -9 33 -28l82 -315h15l81 315c3 19 15 28 33 28h86c20 0 31 -14 24 -35l-172 -536c-23 -73 -73 -109 -153 -109h-68z" />
    <glyph glyph-name="ydieresis" unicode="&#xff;" horiz-adv-x="528" 
d="M161 554c-46 0 -77 31 -77 77c0 45 31 75 77 75c45 0 75 -30 75 -75c0 -46 -30 -77 -75 -77zM368 554c-46 0 -77 31 -77 77c0 45 31 75 77 75c45 0 75 -30 75 -75c0 -46 -30 -77 -75 -77zM106 -180c-20 0 -31 11 -31 31v54c0 20 11 31 31 31h33c29 0 48 11 56 36l16 43
h-16c-15 0 -24 6 -29 21l-137 429c-6 21 5 35 24 35h92c18 0 30 -9 33 -28l82 -315h15l81 315c3 19 15 28 33 28h86c20 0 31 -14 24 -35l-172 -536c-23 -73 -73 -109 -153 -109h-68z" />
    <glyph glyph-name="ygrave" unicode="&#x1ef3;" horiz-adv-x="528" 
d="M246 551c-15 0 -27 5 -38 17l-85 98c-18 20 -9 38 18 38h86c17 0 29 -7 36 -23l52 -94c11 -20 1 -36 -23 -36h-46zM106 -180c-20 0 -31 11 -31 31v54c0 20 11 31 31 31h33c29 0 48 11 56 36l16 43h-16c-15 0 -24 6 -29 21l-137 429c-6 21 5 35 24 35h92
c18 0 30 -9 33 -28l82 -315h15l81 315c3 19 15 28 33 28h86c20 0 31 -14 24 -35l-172 -536c-23 -73 -73 -109 -153 -109h-68z" />
    <glyph glyph-name="uni0233" unicode="&#x233;" horiz-adv-x="528" 
d="M146 569c-20 0 -31 11 -31 31v47c0 20 11 31 31 31h237c20 0 31 -11 31 -31v-47c0 -20 -11 -31 -31 -31h-237zM106 -180c-20 0 -31 11 -31 31v54c0 20 11 31 31 31h33c29 0 48 11 56 36l16 43h-16c-15 0 -24 6 -29 21l-137 429c-6 21 5 35 24 35h92c18 0 30 -9 33 -28
l82 -315h15l81 315c3 19 15 28 33 28h86c20 0 31 -14 24 -35l-172 -536c-23 -73 -73 -109 -153 -109h-68z" />
    <glyph glyph-name="uni1EF9" unicode="&#x1ef9;" horiz-adv-x="528" 
d="M346 555c-60 0 -96 46 -133 46c-17 0 -29 -10 -34 -25c-4 -12 -9 -18 -29 -18h-53c-15 0 -24 8 -23 24c5 87 40 132 109 132c60 0 92 -46 130 -46c18 0 31 9 36 25c4 12 9 18 29 18h53c15 0 25 -12 23 -33c-7 -81 -42 -123 -108 -123zM106 -180c-20 0 -31 11 -31 31v54
c0 20 11 31 31 31h33c29 0 48 11 56 36l16 43h-16c-15 0 -24 6 -29 21l-137 429c-6 21 5 35 24 35h92c18 0 30 -9 33 -28l82 -315h15l81 315c3 19 15 28 33 28h86c20 0 31 -14 24 -35l-172 -536c-23 -73 -73 -109 -153 -109h-68z" />
    <glyph glyph-name="z" unicode="z" horiz-adv-x="492" 
d="M73 0c-20 0 -31 11 -31 31v52c0 15 4 26 14 38l195 244v8h-173c-20 0 -31 11 -31 31v65c0 20 11 31 31 31h336c20 0 31 -11 31 -31v-52c0 -15 -5 -26 -15 -38l-194 -244v-8h183c20 0 31 -11 31 -31v-65c0 -20 -11 -31 -31 -31h-346z" />
    <glyph glyph-name="zacute" unicode="&#x17a;" horiz-adv-x="492" 
d="M217 551c-24 0 -33 16 -22 36l51 94c8 16 20 23 37 23h86c27 0 36 -18 17 -38l-85 -98c-10 -12 -22 -17 -37 -17h-47zM73 0c-20 0 -31 11 -31 31v52c0 15 4 26 14 38l195 244v8h-173c-20 0 -31 11 -31 31v65c0 20 11 31 31 31h336c20 0 31 -11 31 -31v-52
c0 -15 -5 -26 -15 -38l-194 -244v-8h183c20 0 31 -11 31 -31v-65c0 -20 -11 -31 -31 -31h-346z" />
    <glyph glyph-name="zcaron" unicode="&#x17e;" horiz-adv-x="492" 
d="M196 551c-16 0 -28 6 -37 19l-73 96c-14 20 -6 38 20 38h50c16 0 28 -5 38 -18l48 -52h7l48 52c11 13 22 18 38 18h50c26 0 34 -18 20 -38l-72 -96c-9 -13 -22 -19 -38 -19h-99zM73 0c-20 0 -31 11 -31 31v52c0 15 4 26 14 38l195 244v8h-173c-20 0 -31 11 -31 31v65
c0 20 11 31 31 31h336c20 0 31 -11 31 -31v-52c0 -15 -5 -26 -15 -38l-194 -244v-8h183c20 0 31 -11 31 -31v-65c0 -20 -11 -31 -31 -31h-346z" />
    <glyph glyph-name="zdotaccent" unicode="&#x17c;" horiz-adv-x="492" 
d="M247 554c-48 0 -80 32 -80 80s32 80 80 80s79 -32 79 -80s-31 -80 -79 -80zM73 0c-20 0 -31 11 -31 31v52c0 15 4 26 14 38l195 244v8h-173c-20 0 -31 11 -31 31v65c0 20 11 31 31 31h336c20 0 31 -11 31 -31v-52c0 -15 -5 -26 -15 -38l-194 -244v-8h183
c20 0 31 -11 31 -31v-65c0 -20 -11 -31 -31 -31h-346z" />
    <glyph glyph-name="uni1E93" unicode="&#x1e93;" horiz-adv-x="492" 
d="M73 0c-20 0 -31 11 -31 31v52c0 15 4 26 14 38l195 244v8h-173c-20 0 -31 11 -31 31v65c0 20 11 31 31 31h336c20 0 31 -11 31 -31v-52c0 -15 -5 -26 -15 -38l-194 -244v-8h183c20 0 31 -11 31 -31v-65c0 -20 -11 -31 -31 -31h-346zM247 -214c-48 0 -80 32 -80 80
s32 80 80 80s79 -32 79 -80s-31 -80 -79 -80z" />
    <glyph glyph-name="a.ss01" horiz-adv-x="547" 
d="M454 500c20 0 31 -11 31 -31v-438c0 -20 -11 -31 -31 -31h-78c-20 0 -31 11 -31 31v39h-8c-19 -48 -68 -82 -133 -82c-93 0 -158 65 -158 163v198c0 98 65 163 158 163c65 0 114 -34 133 -82h8v39c0 20 11 31 31 31h78zM264 119c49 0 81 32 81 73v116c0 41 -32 73 -81 73
c-47 0 -78 -29 -78 -74v-114c0 -45 31 -74 78 -74z" />
    <glyph glyph-name="aacute.ss01" horiz-adv-x="547" 
d="M245 551c-24 0 -33 16 -22 36l51 94c8 16 20 23 37 23h86c27 0 36 -18 17 -38l-85 -98c-10 -12 -22 -17 -37 -17h-47zM454 500c20 0 31 -11 31 -31v-438c0 -20 -11 -31 -31 -31h-78c-20 0 -31 11 -31 31v39h-8c-19 -48 -68 -82 -133 -82c-93 0 -158 65 -158 163v198
c0 98 65 163 158 163c65 0 114 -34 133 -82h8v39c0 20 11 31 31 31h78zM264 119c49 0 81 32 81 73v116c0 41 -32 73 -81 73c-47 0 -78 -29 -78 -74v-114c0 -45 31 -74 78 -74z" />
    <glyph glyph-name="abreve.ss01" horiz-adv-x="547" 
d="M274 543c-89 0 -149 47 -160 127c-3 21 10 33 30 33h54c15 0 21 -8 24 -20c5 -27 23 -40 52 -40s47 15 50 40c3 12 10 20 24 20h54c20 0 33 -13 30 -34c-12 -81 -71 -126 -158 -126zM454 500c20 0 31 -11 31 -31v-438c0 -20 -11 -31 -31 -31h-78c-20 0 -31 11 -31 31v39
h-8c-19 -48 -68 -82 -133 -82c-93 0 -158 65 -158 163v198c0 98 65 163 158 163c65 0 114 -34 133 -82h8v39c0 20 11 31 31 31h78zM264 119c49 0 81 32 81 73v116c0 41 -32 73 -81 73c-47 0 -78 -29 -78 -74v-114c0 -45 31 -74 78 -74z" />
    <glyph glyph-name="uni01CE.ss01" horiz-adv-x="547" 
d="M187 570l-73 96c-14 20 -6 38 20 38h50c16 0 28 -5 38 -18l48 -52h7l48 52c11 13 22 18 38 18h50c26 0 34 -18 20 -38l-72 -96c-9 -13 -22 -19 -38 -19h-99c-16 0 -28 6 -37 19zM454 500c20 0 31 -11 31 -31v-438c0 -20 -11 -31 -31 -31h-78c-20 0 -31 11 -31 31v39h-8
c-19 -48 -68 -82 -133 -82c-93 0 -158 65 -158 163v198c0 98 65 163 158 163c65 0 114 -34 133 -82h8v39c0 20 11 31 31 31h78zM264 119c49 0 81 32 81 73v116c0 41 -32 73 -81 73c-47 0 -78 -29 -78 -74v-114c0 -45 31 -74 78 -74z" />
    <glyph glyph-name="acircumflex.ss01" horiz-adv-x="547" 
d="M134 551c-26 0 -34 17 -20 38l72 96c9 13 22 19 38 19h99c16 0 28 -6 37 -19l73 -96c14 -21 6 -38 -20 -38h-50c-16 0 -27 5 -38 18l-48 52h-7l-48 -52c-10 -13 -22 -18 -38 -18h-50zM454 500c20 0 31 -11 31 -31v-438c0 -20 -11 -31 -31 -31h-78c-20 0 -31 11 -31 31v39
h-8c-19 -48 -68 -82 -133 -82c-93 0 -158 65 -158 163v198c0 98 65 163 158 163c65 0 114 -34 133 -82h8v39c0 20 11 31 31 31h78zM264 119c49 0 81 32 81 73v116c0 41 -32 73 -81 73c-47 0 -78 -29 -78 -74v-114c0 -45 31 -74 78 -74z" />
    <glyph glyph-name="uni0201.ss01" horiz-adv-x="547" 
d="M124 573l-56 94c-12 20 -2 37 22 37h69c18 0 29 -8 36 -25l39 -92c8 -21 -3 -36 -26 -36h-47c-17 0 -28 6 -37 22zM323 573l-56 94c-11 20 -2 37 22 37h69c18 0 30 -8 36 -25l38 -92c7 -21 -2 -36 -25 -36h-47c-17 0 -29 6 -37 22zM454 500c20 0 31 -11 31 -31v-438
c0 -20 -11 -31 -31 -31h-78c-20 0 -31 11 -31 31v39h-8c-19 -48 -68 -82 -133 -82c-93 0 -158 65 -158 163v198c0 98 65 163 158 163c65 0 114 -34 133 -82h8v39c0 20 11 31 31 31h78zM264 119c49 0 81 32 81 73v116c0 41 -32 73 -81 73c-47 0 -78 -29 -78 -74v-114
c0 -45 31 -74 78 -74z" />
    <glyph glyph-name="adieresis.ss01" horiz-adv-x="547" 
d="M171 554c-46 0 -77 31 -77 77c0 45 31 75 77 75c45 0 75 -30 75 -75c0 -46 -30 -77 -75 -77zM378 554c-46 0 -77 31 -77 77c0 45 31 75 77 75c45 0 75 -30 75 -75c0 -46 -30 -77 -75 -77zM454 500c20 0 31 -11 31 -31v-438c0 -20 -11 -31 -31 -31h-78
c-20 0 -31 11 -31 31v39h-8c-19 -48 -68 -82 -133 -82c-93 0 -158 65 -158 163v198c0 98 65 163 158 163c65 0 114 -34 133 -82h8v39c0 20 11 31 31 31h78zM264 119c49 0 81 32 81 73v116c0 41 -32 73 -81 73c-47 0 -78 -29 -78 -74v-114c0 -45 31 -74 78 -74z" />
    <glyph glyph-name="uni1EA1.ss01" horiz-adv-x="547" 
d="M454 500c20 0 31 -11 31 -31v-438c0 -20 -11 -31 -31 -31h-78c-20 0 -31 11 -31 31v39h-8c-19 -48 -68 -82 -133 -82c-93 0 -158 65 -158 163v198c0 98 65 163 158 163c65 0 114 -34 133 -82h8v39c0 20 11 31 31 31h78zM264 119c49 0 81 32 81 73v116c0 41 -32 73 -81 73
c-47 0 -78 -29 -78 -74v-114c0 -45 31 -74 78 -74zM275 -54c48 0 79 -32 79 -80s-31 -80 -79 -80s-80 32 -80 80s32 80 80 80z" />
    <glyph glyph-name="agrave.ss01" horiz-adv-x="547" 
d="M218 568l-85 98c-18 20 -9 38 18 38h86c17 0 29 -7 36 -23l52 -94c11 -20 1 -36 -23 -36h-46c-15 0 -27 5 -38 17zM454 500c20 0 31 -11 31 -31v-438c0 -20 -11 -31 -31 -31h-78c-20 0 -31 11 -31 31v39h-8c-19 -48 -68 -82 -133 -82c-93 0 -158 65 -158 163v198
c0 98 65 163 158 163c65 0 114 -34 133 -82h8v39c0 20 11 31 31 31h78zM264 119c49 0 81 32 81 73v116c0 41 -32 73 -81 73c-47 0 -78 -29 -78 -74v-114c0 -45 31 -74 78 -74z" />
    <glyph glyph-name="uni0203.ss01" horiz-adv-x="547" 
d="M144 551c-20 0 -33 12 -30 33c12 80 71 126 160 126c87 0 146 -45 158 -125c3 -22 -10 -34 -30 -34h-54c-14 0 -21 8 -24 19c-3 26 -21 40 -50 40s-48 -13 -52 -40c-3 -11 -9 -19 -24 -19h-54zM454 500c20 0 31 -11 31 -31v-438c0 -20 -11 -31 -31 -31h-78
c-20 0 -31 11 -31 31v39h-8c-19 -48 -68 -82 -133 -82c-93 0 -158 65 -158 163v198c0 98 65 163 158 163c65 0 114 -34 133 -82h8v39c0 20 11 31 31 31h78zM264 119c49 0 81 32 81 73v116c0 41 -32 73 -81 73c-47 0 -78 -29 -78 -74v-114c0 -45 31 -74 78 -74z" />
    <glyph glyph-name="amacron.ss01" horiz-adv-x="547" 
d="M156 569c-20 0 -31 11 -31 31v47c0 20 11 31 31 31h237c20 0 31 -11 31 -31v-47c0 -20 -11 -31 -31 -31h-237zM454 500c20 0 31 -11 31 -31v-438c0 -20 -11 -31 -31 -31h-78c-20 0 -31 11 -31 31v39h-8c-19 -48 -68 -82 -133 -82c-93 0 -158 65 -158 163v198
c0 98 65 163 158 163c65 0 114 -34 133 -82h8v39c0 20 11 31 31 31h78zM264 119c49 0 81 32 81 73v116c0 41 -32 73 -81 73c-47 0 -78 -29 -78 -74v-114c0 -45 31 -74 78 -74z" />
    <glyph glyph-name="aogonek.ss01" horiz-adv-x="547" 
d="M474 -118c14 4 21 -1 21 -19v-46c0 -13 -4 -22 -15 -26c-15 -6 -39 -9 -65 -9c-75 0 -125 42 -125 105c0 49 29 93 74 112v3c-12 3 -19 14 -19 29v39h-8c-19 -48 -68 -82 -133 -82c-93 0 -158 65 -158 163v198c0 98 65 163 158 163c65 0 114 -34 133 -82h8v39
c0 20 11 31 31 31h78c20 0 31 -11 31 -31v-456c0 -8 -4 -14 -13 -17c-34 -15 -55 -45 -55 -76c0 -24 16 -40 40 -40c6 0 12 1 17 2zM264 119c49 0 81 32 81 73v116c0 41 -32 73 -81 73c-47 0 -78 -29 -78 -74v-114c0 -45 31 -74 78 -74z" />
    <glyph glyph-name="aring.ss01" horiz-adv-x="547" 
d="M275 543c-72 0 -119 46 -119 113s47 113 119 113c70 0 117 -46 117 -113s-47 -113 -117 -113zM275 702c-27 0 -46 -19 -46 -46c0 -26 18 -46 46 -46c26 0 44 19 44 46s-18 46 -44 46zM454 500c20 0 31 -11 31 -31v-438c0 -20 -11 -31 -31 -31h-78c-20 0 -31 11 -31 31v39
h-8c-19 -48 -68 -82 -133 -82c-93 0 -158 65 -158 163v198c0 98 65 163 158 163c65 0 114 -34 133 -82h8v39c0 20 11 31 31 31h78zM264 119c49 0 81 32 81 73v116c0 41 -32 73 -81 73c-47 0 -78 -29 -78 -74v-114c0 -45 31 -74 78 -74z" />
    <glyph glyph-name="atilde.ss01" horiz-adv-x="547" 
d="M107 558c-15 0 -24 8 -23 24c5 87 40 132 109 132c60 0 92 -46 130 -46c18 0 31 9 36 25c4 12 9 18 29 18h53c15 0 25 -12 23 -33c-7 -81 -42 -123 -108 -123c-60 0 -96 46 -133 46c-17 0 -29 -10 -34 -25c-4 -12 -9 -18 -29 -18h-53zM454 500c20 0 31 -11 31 -31v-438
c0 -20 -11 -31 -31 -31h-78c-20 0 -31 11 -31 31v39h-8c-19 -48 -68 -82 -133 -82c-93 0 -158 65 -158 163v198c0 98 65 163 158 163c65 0 114 -34 133 -82h8v39c0 20 11 31 31 31h78zM264 119c49 0 81 32 81 73v116c0 41 -32 73 -81 73c-47 0 -78 -29 -78 -74v-114
c0 -45 31 -74 78 -74z" />
    <glyph glyph-name="k.ss02" horiz-adv-x="529" 
d="M502 37c11 -21 2 -37 -22 -37h-91c-17 0 -29 8 -35 24l-89 165h-63v-158c0 -20 -11 -31 -31 -31h-78c-20 0 -31 11 -31 31v638c0 20 11 31 31 31h78c20 0 31 -11 31 -31v-348h59l93 156c7 16 19 23 36 23h87c23 0 32 -17 19 -37l-130 -196z" />
    <glyph glyph-name="uni0137.ss02" horiz-adv-x="529" 
d="M502 37c11 -21 2 -37 -22 -37h-91c-17 0 -29 8 -35 24l-89 165h-63v-158c0 -20 -11 -31 -31 -31h-78c-20 0 -31 11 -31 31v638c0 20 11 31 31 31h78c20 0 31 -11 31 -31v-348h59l93 156c7 16 19 23 36 23h87c23 0 32 -17 19 -37l-130 -196zM330 -51c24 0 33 -16 22 -37
l-59 -124c-9 -15 -20 -22 -38 -22h-41c-22 0 -32 13 -27 34l28 122c3 18 15 27 34 27h81z" />
    <glyph glyph-name="f_t.dlig" horiz-adv-x="753" 
d="M682 375h-79v-196c0 -31 19 -50 51 -50h22c20 0 31 -11 31 -31v-67c0 -20 -11 -31 -31 -31h-61c-91 0 -152 56 -152 142v233h-203v-344c0 -20 -11 -31 -31 -31h-78c-20 0 -31 11 -31 31v344h-52c-20 0 -31 11 -31 31v63c0 20 11 31 31 31h52v58c0 86 60 142 152 142h61
c20 0 31 -11 31 -31v-54c0 -20 -11 -31 -31 -31h-23c-31 0 -50 -19 -50 -50v-34h173c25 0 39 15 39 39v60c0 20 11 31 31 31h69c20 0 31 -11 31 -31v-99h79c20 0 31 -11 31 -31v-63c0 -20 -11 -31 -31 -31z" />
    <glyph glyph-name="t_t.dlig" horiz-adv-x="746" 
d="M675 375h-79v-196c0 -31 19 -50 51 -50h22c20 0 31 -11 31 -31v-67c0 -20 -11 -31 -31 -31h-61c-92 0 -152 56 -152 142v233h-207v-196c0 -31 19 -50 51 -50h22c20 0 31 -11 31 -31v-67c0 -20 -11 -31 -31 -31h-61c-92 0 -152 56 -152 142v233h-52c-20 0 -31 11 -31 31
v66c0 18 10 28 28 28h25c25 0 39 15 39 39v60c0 20 11 31 31 31h69c20 0 31 -11 31 -31v-99h177c25 0 39 15 39 39v60c0 20 11 31 31 31h69c20 0 31 -11 31 -31v-99h79c20 0 31 -11 31 -31v-63c0 -20 -11 -31 -31 -31z" />
    <glyph glyph-name="ordfeminine" unicode="&#xaa;" horiz-adv-x="419" 
d="M217 682c89 0 149 -47 149 -116v-217c0 -16 -9 -25 -25 -25h-51c-16 0 -25 9 -25 25v10h-7c-15 -28 -51 -43 -93 -43c-68 0 -112 40 -112 102c0 64 46 106 115 106h93v37c0 25 -20 42 -47 42c-22 0 -38 -8 -44 -30c-3 -8 -9 -17 -23 -17h-56c-16 0 -25 9 -25 25v3
c0 53 61 98 151 98zM205 390c33 0 56 17 56 43v28h-58c-27 0 -43 -14 -43 -35c0 -22 18 -36 45 -36z" />
    <glyph glyph-name="ordmasculine" unicode="&#xba;" horiz-adv-x="418" 
d="M209 316c-93 0 -156 57 -156 143v80c0 86 63 143 156 143s155 -57 155 -143v-80c0 -86 -62 -143 -155 -143zM209 413c29 0 50 18 50 47v78c0 29 -21 47 -50 47c-30 0 -50 -19 -50 -47v-78c0 -28 20 -47 50 -47z" />
    <glyph glyph-name="pi" unicode="&#x3c0;" horiz-adv-x="726" 
d="M633 364h-59v-187c0 -30 18 -48 48 -48h9c18 0 28 -10 28 -29v-69c0 -20 -11 -31 -31 -31h-44c-95 0 -158 56 -158 140v224h-126v-333c0 -20 -11 -31 -31 -31h-85c-20 0 -31 11 -31 31v333h-60c-20 0 -31 11 -31 31v74c0 20 11 31 31 31h540c20 0 31 -11 31 -31v-74
c0 -20 -11 -31 -31 -31z" />
    <glyph glyph-name="zero" unicode="0" horiz-adv-x="629" 
d="M315 -12c-151 0 -251 91 -251 229v236c0 138 100 229 251 229s250 -91 250 -229v-236c0 -138 -99 -229 -250 -229zM315 124c61 0 102 38 102 96v230c0 58 -41 96 -102 96c-62 0 -103 -38 -103 -96v-230c0 -58 41 -96 103 -96z" />
    <glyph glyph-name="one" unicode="1" horiz-adv-x="406" 
d="M204 0c-20 0 -31 11 -31 31v486h-9l-83 -37c-22 -10 -37 0 -37 24v71c0 17 8 29 24 35l119 52c14 6 25 8 39 8h64c20 0 31 -11 31 -31v-608c0 -20 -11 -31 -31 -31h-86z" />
    <glyph glyph-name="two" unicode="2" horiz-adv-x="572" 
d="M82 0c-20 0 -31 11 -31 31v64c0 15 4 27 16 38l213 212c62 61 89 100 89 135c0 39 -31 67 -82 67c-52 0 -85 -28 -85 -72v-8c0 -20 -13 -27 -29 -27h-92c-19 0 -31 9 -31 29v18c0 116 94 195 237 195s235 -77 235 -188c0 -63 -24 -125 -102 -199l-149 -151v-8h218
c20 0 31 -11 31 -31v-74c0 -20 -11 -31 -31 -31h-407z" />
    <glyph glyph-name="three" unicode="3" horiz-adv-x="579" 
d="M289 -12c-150 0 -247 79 -247 180v11c0 20 11 31 31 31h90c20 0 29 -9 34 -22c5 -40 36 -71 93 -71c56 0 93 33 93 82s-34 81 -86 81h-80c-20 0 -31 11 -31 31v55c0 20 11 31 31 31h68c52 0 86 31 86 79c0 47 -33 77 -82 77c-50 0 -78 -27 -81 -67
c-3 -12 -14 -21 -30 -21h-94c-20 0 -31 11 -31 31v8c0 101 94 178 237 178c142 0 236 -75 236 -185c0 -71 -40 -128 -100 -148v-8c67 -21 111 -84 111 -160c0 -115 -98 -193 -248 -193z" />
    <glyph glyph-name="four" unicode="4" horiz-adv-x="605" 
d="M538 260c20 0 31 -11 31 -31v-67c0 -20 -11 -31 -31 -31h-41v-100c0 -20 -11 -31 -31 -31h-86c-20 0 -31 11 -31 31v100h-281c-20 0 -31 11 -31 31v60c0 14 2 26 10 39l243 388c8 15 20 21 37 21h139c20 0 31 -11 31 -31v-379h41zM189 260h160v208l7 48h-12l-155 -248v-8
z" />
    <glyph glyph-name="five" unicode="5" horiz-adv-x="578" 
d="M288 -12c-139 0 -239 75 -239 179v10c0 18 12 30 31 30h91c19 0 26 -8 31 -22c8 -44 39 -68 92 -68c60 0 98 39 98 99c0 61 -39 101 -96 101c-32 0 -62 -13 -76 -31c-5 -4 -9 -6 -17 -6h-111c-21 0 -32 12 -29 33l45 328c2 19 14 29 33 29h323c20 0 31 -11 31 -31v-67
c0 -20 -11 -31 -31 -31h-226l-21 -137h8c21 21 62 35 110 35c125 0 210 -87 210 -217c0 -141 -101 -234 -257 -234z" />
    <glyph glyph-name="six" unicode="6" horiz-adv-x="583" 
d="M292 -12c-153 0 -251 96 -251 234c0 73 27 151 69 214l143 214c9 15 21 20 37 20h97c23 0 31 -17 17 -38l-154 -218h8c16 15 51 25 90 25c120 0 200 -87 200 -213c0 -144 -104 -238 -256 -238zM293 117c59 0 103 40 103 101c0 59 -41 99 -102 99s-101 -39 -101 -100
c0 -60 39 -100 100 -100z" />
    <glyph glyph-name="seven" unicode="7" horiz-adv-x="543" 
d="M132 0c-23 0 -33 15 -22 40l222 486v8h-254c-20 0 -31 11 -31 31v74c0 20 11 31 31 31h396c20 0 31 -11 31 -31v-64c0 -14 -2 -25 -8 -39l-231 -513c-7 -16 -19 -23 -36 -23h-98z" />
    <glyph glyph-name="eight" unicode="8" horiz-adv-x="593" 
d="M296 -12c-153 0 -254 80 -254 195c0 76 45 138 116 162v8c-61 24 -99 79 -99 146c0 106 94 183 237 183s238 -76 238 -183c0 -65 -37 -121 -99 -146v-8c71 -25 116 -86 116 -162c0 -115 -101 -195 -255 -195zM296 401c56 0 94 31 94 77c0 47 -38 78 -94 78
c-55 0 -94 -31 -94 -78c0 -46 39 -77 94 -77zM296 116c64 0 106 33 106 87c0 53 -42 86 -106 86c-63 0 -105 -33 -105 -86c0 -54 42 -87 105 -87z" />
    <glyph glyph-name="nine" unicode="9" horiz-adv-x="583" 
d="M200 0c-23 0 -32 17 -16 38l147 210h-8c-15 -15 -49 -24 -88 -24c-120 0 -199 90 -199 218c0 147 103 240 255 240c154 0 252 -96 252 -235c0 -73 -29 -150 -69 -211l-141 -216c-9 -15 -21 -20 -37 -20h-96zM290 353c60 0 101 39 101 100c0 60 -40 100 -101 100
c-59 0 -102 -40 -102 -101c0 -59 40 -99 102 -99z" />
    <glyph glyph-name="uni24FF" unicode="&#x24ff;" 
d="M409 -12c-192 0 -347 155 -347 347s155 347 347 347s347 -155 347 -347s-155 -347 -347 -347zM410 127c91 0 151 55 151 138v140c0 83 -60 138 -151 138s-152 -55 -152 -138v-140c0 -83 61 -138 152 -138zM410 214c-35 0 -58 21 -58 53v136c0 32 23 53 58 53
c34 0 57 -21 57 -53v-136c0 -32 -23 -53 -57 -53z" />
    <glyph glyph-name="uni2776" unicode="&#x2776;" 
d="M409 -12c-192 0 -347 155 -347 347s155 347 347 347s347 -155 347 -347s-155 -347 -347 -347zM297 167c0 -14 9 -23 23 -23h199c15 0 23 9 23 23v40c0 15 -8 23 -23 23h-49v293c0 14 -8 23 -23 23h-35c-11 0 -18 -2 -28 -6l-66 -28c-11 -6 -18 -15 -18 -27v-39
c0 -16 11 -24 27 -17l44 19h6v-218h-57c-14 0 -23 -8 -23 -23v-40z" />
    <glyph glyph-name="uni2777" unicode="&#x2777;" 
d="M409 -12c-192 0 -347 155 -347 347s155 347 347 347s347 -155 347 -347s-155 -347 -347 -347zM270 164c0 -14 8 -23 23 -23h238c15 0 23 9 23 23v40c0 15 -8 24 -23 24h-121v5l84 83c32 31 62 68 62 119c0 69 -57 115 -144 115c-86 0 -143 -48 -143 -112v-11
c0 -15 9 -23 23 -23h56c11 0 17 6 17 17v4c0 23 19 40 47 40s46 -16 46 -38c0 -23 -23 -51 -53 -81l-123 -121c-9 -9 -12 -18 -12 -29v-32z" />
    <glyph glyph-name="uni2778" unicode="&#x2778;" 
d="M409 -12c-192 0 -347 155 -347 347s155 347 347 347s347 -155 347 -347s-155 -347 -347 -347zM409 127c90 0 150 47 150 116c0 47 -28 83 -67 95v5c37 12 61 47 61 89c0 66 -58 111 -143 111c-87 0 -144 -46 -144 -108v-4c0 -11 7 -17 18 -17h59c13 0 17 5 22 14
c3 22 20 34 43 34c28 0 47 -17 47 -43c0 -27 -21 -45 -50 -45h-36c-14 0 -23 -9 -23 -23v-28c0 -15 9 -23 23 -23h43c29 0 49 -18 49 -46c0 -27 -21 -46 -52 -46c-27 0 -45 12 -50 35c-5 10 -10 17 -23 17h-59c-11 0 -18 -6 -18 -17v-8c0 -61 59 -108 150 -108z" />
    <glyph glyph-name="uni2779" unicode="&#x2779;" 
d="M409 -12c-187 0 -347 153 -347 347c0 192 155 347 347 347s347 -155 347 -347s-155 -347 -347 -347zM446 134h47c15 0 23 9 23 23v54h19c15 0 23 8 23 23v36c0 14 -8 23 -23 23h-19v220c0 14 -8 23 -23 23h-81c-13 0 -22 -5 -28 -16l-140 -225c-5 -10 -8 -18 -8 -29v-32
c0 -15 9 -23 23 -23h164v-54c0 -14 8 -23 23 -23zM333 293v5l87 140h7l-4 -28v-117h-90z" />
    <glyph glyph-name="uni277A" unicode="&#x277a;" 
d="M409 -12c-192 0 -347 155 -347 347s155 347 347 347s347 -155 347 -347s-155 -347 -347 -347zM410 126c94 0 154 55 154 141c0 77 -49 130 -122 130c-28 0 -54 -8 -66 -20h-6l12 76h128c15 0 23 8 23 23v36c0 14 -8 23 -23 23h-187c-13 0 -22 -7 -24 -22l-26 -189
c-3 -16 6 -25 21 -25h69c4 0 7 2 10 5c9 10 25 16 42 16c30 0 52 -23 52 -57s-21 -56 -54 -56c-26 0 -43 11 -49 33c-5 8 -8 15 -19 15h-57c-15 0 -24 -9 -24 -23v-6c0 -53 60 -100 146 -100z" />
    <glyph glyph-name="uni277B" unicode="&#x277b;" 
d="M409 -12c-192 0 -347 155 -347 347s155 347 347 347s347 -155 347 -347s-155 -347 -347 -347zM408 131c92 0 155 57 155 144c0 75 -48 127 -119 127c-22 0 -44 -6 -52 -14h-6l88 124c10 16 4 28 -15 28h-51c-12 0 -21 -5 -28 -15l-82 -123c-25 -38 -42 -85 -42 -129
c0 -84 60 -142 152 -142zM409 212c-34 0 -57 23 -57 57c0 33 23 56 57 56c35 0 58 -23 58 -56c0 -34 -25 -57 -58 -57z" />
    <glyph glyph-name="uni277C" unicode="&#x277c;" 
d="M409 -12c-192 0 -347 155 -347 347s155 347 347 347s347 -155 347 -347s-155 -347 -347 -347zM321 151c-7 -16 0 -27 18 -27h54c13 0 22 6 27 18l135 297c5 10 6 18 6 29v35c0 14 -8 23 -23 23h-232c-14 0 -23 -9 -23 -23v-40c0 -15 9 -24 23 -24h145v-5z" />
    <glyph glyph-name="uni277D" unicode="&#x277d;" 
d="M409 -12c-192 0 -347 155 -347 347s155 347 347 347s347 -155 347 -347s-155 -347 -347 -347zM409 127c93 0 155 48 155 118c0 45 -28 81 -68 96v5c36 15 57 48 57 87c0 64 -57 110 -144 110c-86 0 -143 -47 -143 -110c0 -38 21 -72 57 -87v-5c-41 -15 -68 -52 -68 -96
c0 -70 62 -118 154 -118zM409 376c-30 0 -52 18 -52 44s22 43 52 43c31 0 53 -17 53 -43s-22 -44 -53 -44zM409 208c-35 0 -59 19 -59 48c0 31 24 50 59 50c37 0 60 -20 60 -50c0 -29 -24 -48 -60 -48z" />
    <glyph glyph-name="uni277E" unicode="&#x277e;" 
d="M409 -12c-192 0 -347 155 -347 347s155 347 347 347s347 -155 347 -347s-155 -347 -347 -347zM348 160c-12 -17 -6 -29 14 -29h51c12 0 21 5 28 15l80 123c23 35 42 84 42 130c0 83 -60 141 -152 141c-93 0 -155 -57 -155 -145c0 -76 47 -130 119 -130c20 0 42 4 51 12h5
zM409 346c-34 0 -57 23 -57 56c0 34 25 57 58 57s57 -23 57 -57c0 -33 -23 -56 -58 -56z" />
    <glyph glyph-name="uni277F" unicode="&#x277f;" 
d="M409 -12c-192 0 -347 155 -347 347s155 347 347 347s347 -155 347 -347s-155 -347 -347 -347zM515 179c70 0 116 42 116 106v103c0 64 -46 106 -116 106s-116 -42 -116 -106v-103c0 -64 46 -106 116 -106zM205 200c0 -10 5 -16 16 -16h131c10 0 16 6 16 16v45
c0 10 -6 15 -16 15h-21v213c0 10 -6 16 -16 16h-40c-7 0 -13 -1 -20 -4l-37 -17c-8 -4 -12 -10 -12 -19v-46c0 -10 8 -16 18 -11l18 9h6v-141h-27c-11 0 -16 -5 -16 -15v-45zM515 256c-20 0 -33 12 -33 32v97c0 20 13 32 33 32s34 -12 34 -32v-97c0 -20 -14 -32 -34 -32z
" />
    <glyph glyph-name="uni24EA" unicode="&#x24ea;" 
d="M409 -12c-192 0 -347 155 -347 347s155 347 347 347c191 0 347 -155 347 -347s-155 -347 -347 -347zM409 49c158 0 286 128 286 286s-128 286 -286 286s-286 -128 -286 -286s128 -286 286 -286zM410 127c-91 0 -152 55 -152 138v140c0 83 61 138 152 138
s151 -55 151 -138v-140c0 -83 -60 -138 -151 -138zM410 214c34 0 57 21 57 53v136c0 32 -23 53 -57 53c-35 0 -58 -21 -58 -53v-136c0 -32 23 -53 58 -53z" />
    <glyph glyph-name="uni2460" unicode="&#x2460;" 
d="M409 -12c-192 0 -347 155 -347 347s155 347 347 347c191 0 347 -155 347 -347s-155 -347 -347 -347zM409 49c158 0 286 128 286 286s-128 286 -286 286s-286 -128 -286 -286s128 -286 286 -286zM297 167c0 -14 9 -23 23 -23h199c15 0 23 9 23 23v40c0 15 -8 23 -23 23
h-49v293c0 14 -8 23 -23 23h-35c-11 0 -18 -2 -28 -6l-66 -28c-11 -6 -18 -15 -18 -27v-39c0 -16 11 -24 27 -17l44 19h6v-218h-57c-14 0 -23 -8 -23 -23v-40z" />
    <glyph glyph-name="uni2461" unicode="&#x2461;" 
d="M409 -12c-192 0 -347 155 -347 347s155 347 347 347c191 0 347 -155 347 -347s-155 -347 -347 -347zM409 49c158 0 286 128 286 286s-128 286 -286 286s-286 -128 -286 -286s128 -286 286 -286zM270 164c0 -14 8 -23 23 -23h238c15 0 23 9 23 23v40c0 15 -8 24 -23 24
h-121v5l84 83c32 31 62 68 62 119c0 69 -57 115 -144 115c-86 0 -143 -48 -143 -112v-11c0 -15 9 -23 23 -23h56c11 0 17 6 17 17v4c0 23 19 40 47 40s46 -16 46 -38c0 -23 -23 -51 -53 -81l-123 -121c-9 -9 -12 -18 -12 -29v-32z" />
    <glyph glyph-name="uni2462" unicode="&#x2462;" 
d="M409 -12c-192 0 -347 155 -347 347s155 347 347 347c191 0 347 -155 347 -347s-155 -347 -347 -347zM409 49c158 0 286 128 286 286s-128 286 -286 286s-286 -128 -286 -286s128 -286 286 -286zM409 127c90 0 150 47 150 116c0 47 -28 83 -67 95v5c37 12 61 47 61 89
c0 66 -58 111 -143 111c-87 0 -144 -46 -144 -108v-4c0 -11 7 -17 18 -17h59c13 0 17 5 22 14c3 22 20 34 43 34c28 0 47 -17 47 -43c0 -27 -21 -45 -50 -45h-36c-14 0 -23 -9 -23 -23v-28c0 -15 9 -23 23 -23h43c29 0 49 -18 49 -46c0 -27 -21 -46 -52 -46
c-27 0 -45 12 -50 35c-5 10 -10 17 -23 17h-59c-11 0 -18 -6 -18 -17v-8c0 -61 59 -108 150 -108z" />
    <glyph glyph-name="uni2463" unicode="&#x2463;" 
d="M409 -12c-192 0 -347 155 -347 347s155 347 347 347c191 0 347 -155 347 -347s-155 -347 -347 -347zM409 49c158 0 286 128 286 286s-128 286 -286 286s-286 -128 -286 -286s128 -286 286 -286zM446 134h47c15 0 23 9 23 23v54h19c15 0 23 8 23 23v36c0 14 -8 23 -23 23
h-19v220c0 14 -8 23 -23 23h-81c-13 0 -22 -5 -28 -16l-140 -225c-5 -10 -8 -18 -8 -29v-32c0 -15 9 -23 23 -23h164v-54c0 -14 8 -23 23 -23zM333 293v5l87 140h7l-4 -28v-117h-90z" />
    <glyph glyph-name="uni2464" unicode="&#x2464;" 
d="M409 -12c-192 0 -347 155 -347 347s155 347 347 347c191 0 347 -155 347 -347s-155 -347 -347 -347zM409 49c158 0 286 128 286 286s-128 286 -286 286s-286 -128 -286 -286s128 -286 286 -286zM410 126c94 0 154 55 154 141c0 77 -49 130 -122 130c-28 0 -54 -8 -66 -20
h-6l12 76h128c15 0 23 8 23 23v36c0 14 -8 23 -23 23h-187c-13 0 -22 -7 -24 -22l-26 -189c-3 -16 6 -25 21 -25h69c4 0 7 2 10 5c9 10 25 16 42 16c30 0 52 -23 52 -57s-21 -56 -54 -56c-26 0 -43 11 -49 33c-5 8 -8 15 -19 15h-57c-15 0 -24 -9 -24 -23v-6
c0 -53 60 -100 146 -100z" />
    <glyph glyph-name="uni2465" unicode="&#x2465;" 
d="M409 -12c-192 0 -347 155 -347 347s155 347 347 347c191 0 347 -155 347 -347s-155 -347 -347 -347zM409 49c158 0 286 128 286 286s-128 286 -286 286s-286 -128 -286 -286s128 -286 286 -286zM408 131c92 0 155 57 155 144c0 75 -48 127 -119 127c-22 0 -44 -6 -52 -14
h-6l88 124c10 16 4 28 -15 28h-51c-12 0 -21 -5 -28 -15l-82 -123c-25 -38 -42 -85 -42 -129c0 -84 60 -142 152 -142zM409 212c-34 0 -57 23 -57 57c0 33 23 56 57 56c35 0 58 -23 58 -56c0 -34 -25 -57 -58 -57z" />
    <glyph glyph-name="uni2466" unicode="&#x2466;" 
d="M409 -12c-192 0 -347 155 -347 347s155 347 347 347c191 0 347 -155 347 -347s-155 -347 -347 -347zM409 49c158 0 286 128 286 286s-128 286 -286 286s-286 -128 -286 -286s128 -286 286 -286zM321 151c-7 -16 0 -27 18 -27h54c13 0 22 6 27 18l135 297c5 10 6 18 6 29
v35c0 14 -8 23 -23 23h-232c-14 0 -23 -9 -23 -23v-40c0 -15 9 -24 23 -24h145v-5z" />
    <glyph glyph-name="uni2467" unicode="&#x2467;" 
d="M409 -12c-192 0 -347 155 -347 347s155 347 347 347c191 0 347 -155 347 -347s-155 -347 -347 -347zM409 49c158 0 286 128 286 286s-128 286 -286 286s-286 -128 -286 -286s128 -286 286 -286zM409 127c93 0 155 48 155 118c0 45 -28 81 -68 96v5c36 15 57 48 57 87
c0 64 -57 110 -144 110c-86 0 -143 -47 -143 -110c0 -38 21 -72 57 -87v-5c-41 -15 -68 -52 -68 -96c0 -70 62 -118 154 -118zM409 376c-30 0 -52 18 -52 44s22 43 52 43c31 0 53 -17 53 -43s-22 -44 -53 -44zM409 208c-35 0 -59 19 -59 48c0 31 24 50 59 50
c37 0 60 -20 60 -50c0 -29 -24 -48 -60 -48z" />
    <glyph glyph-name="uni2468" unicode="&#x2468;" 
d="M409 -12c-192 0 -347 155 -347 347s155 347 347 347c191 0 347 -155 347 -347s-155 -347 -347 -347zM409 49c158 0 286 128 286 286s-128 286 -286 286s-286 -128 -286 -286s128 -286 286 -286zM348 160c-12 -17 -6 -29 14 -29h51c12 0 21 5 28 15l80 123
c23 35 42 84 42 130c0 83 -60 141 -152 141c-93 0 -155 -57 -155 -145c0 -76 47 -130 119 -130c20 0 42 4 51 12h5zM409 346c-34 0 -57 23 -57 56c0 34 25 57 58 57s57 -23 57 -57c0 -33 -23 -56 -58 -56z" />
    <glyph glyph-name="uni2469" unicode="&#x2469;" 
d="M409 -12c-192 0 -347 155 -347 347s155 347 347 347c191 0 347 -155 347 -347s-155 -347 -347 -347zM409 49c158 0 286 128 286 286s-128 286 -286 286s-286 -128 -286 -286s128 -286 286 -286zM509 184c68 0 112 41 112 103v99c0 62 -44 102 -112 102
c-67 0 -112 -40 -112 -102v-99c0 -62 45 -103 112 -103zM214 204c0 -9 5 -15 15 -15h126c11 0 16 6 16 15v43c0 10 -5 16 -16 16h-20v206c0 9 -5 15 -15 15h-38c-7 0 -13 -1 -19 -4l-36 -17c-8 -4 -12 -10 -12 -17v-45c0 -10 8 -16 17 -11l18 10h6v-137h-27
c-10 0 -15 -6 -15 -16v-43zM509 258c-19 0 -32 13 -32 31v95c0 19 13 31 32 31c20 0 33 -12 33 -31v-95c0 -18 -13 -31 -33 -31z" />
    <glyph glyph-name="zero.tf" horiz-adv-x="628" 
d="M314 -12c-151 0 -250 91 -250 229v236c0 138 99 229 250 229s250 -91 250 -229v-236c0 -138 -99 -229 -250 -229zM314 124c62 0 102 38 102 96v230c0 58 -40 96 -102 96s-103 -38 -103 -96v-230c0 -58 41 -96 103 -96z" />
    <glyph glyph-name="one.tf" horiz-adv-x="628" 
d="M529 136c20 0 31 -11 31 -31v-74c0 -20 -11 -31 -31 -31h-383c-20 0 -31 11 -31 31v74c0 20 11 31 31 31h122v381h-9l-104 -40c-21 -8 -36 3 -36 25v72c0 18 9 29 25 36l138 53c13 5 24 7 38 7h65c20 0 31 -11 31 -31v-503h113z" />
    <glyph glyph-name="two.tf" horiz-adv-x="628" 
d="M110 0c-20 0 -31 11 -31 31v64c0 15 5 27 16 38l214 212c62 61 89 100 89 135c0 39 -32 67 -83 67s-85 -28 -85 -72v-8c0 -20 -12 -27 -28 -27h-93c-18 0 -31 9 -31 29v18c0 116 95 195 238 195c142 0 235 -77 235 -188c0 -63 -24 -125 -102 -199l-150 -151v-8h219
c20 0 31 -11 31 -31v-74c0 -20 -11 -31 -31 -31h-408z" />
    <glyph glyph-name="three.tf" horiz-adv-x="628" 
d="M314 -12c-151 0 -247 79 -247 180v11c0 20 11 31 31 31h90c20 0 29 -9 34 -22c4 -40 35 -71 92 -71c56 0 93 33 93 82s-33 81 -85 81h-80c-20 0 -31 11 -31 31v55c0 20 11 31 31 31h68c52 0 86 31 86 79c0 47 -33 77 -82 77c-50 0 -78 -27 -81 -67
c-3 -12 -15 -21 -31 -21h-93c-20 0 -31 11 -31 31v8c0 101 94 178 237 178c142 0 236 -75 236 -185c0 -71 -40 -128 -100 -148v-8c67 -21 111 -84 111 -160c0 -115 -99 -193 -248 -193z" />
    <glyph glyph-name="four.tf" horiz-adv-x="628" 
d="M549 260c20 0 31 -11 31 -31v-67c0 -20 -11 -31 -31 -31h-41v-100c0 -20 -11 -31 -31 -31h-85c-20 0 -31 11 -31 31v100h-282c-20 0 -31 11 -31 31v60c0 14 3 26 11 39l243 388c8 15 20 21 37 21h138c20 0 31 -11 31 -31v-379h41zM201 260h160v208l6 48h-11l-155 -248v-8
z" />
    <glyph glyph-name="five.tf" horiz-adv-x="628" 
d="M308 -12c-140 0 -239 75 -239 179v10c0 18 12 30 30 30h92c19 0 26 -8 31 -22c8 -44 39 -68 92 -68c60 0 98 39 98 99c0 61 -39 101 -96 101c-32 0 -62 -13 -76 -31c-5 -4 -10 -6 -17 -6h-112c-20 0 -32 12 -28 33l45 328c2 19 14 29 32 29h324c20 0 31 -11 31 -31v-67
c0 -20 -11 -31 -31 -31h-227l-20 -137h8c21 21 62 35 109 35c126 0 210 -87 210 -217c0 -141 -100 -234 -256 -234z" />
    <glyph glyph-name="six.tf" horiz-adv-x="628" 
d="M312 -12c-153 0 -251 96 -251 234c0 73 27 151 69 214l143 214c9 15 21 20 37 20h97c23 0 31 -17 17 -38l-154 -218h8c16 15 51 25 90 25c120 0 200 -87 200 -213c0 -144 -104 -238 -256 -238zM313 117c59 0 103 40 103 101c0 59 -41 99 -102 99s-101 -39 -101 -100
c0 -60 39 -100 100 -100z" />
    <glyph glyph-name="seven.tf" horiz-adv-x="628" 
d="M183 0c-23 0 -33 15 -22 40l223 486v8h-255c-20 0 -31 11 -31 31v74c0 20 11 31 31 31h397c20 0 31 -11 31 -31v-64c0 -14 -3 -25 -9 -39l-231 -513c-7 -16 -19 -23 -36 -23h-98z" />
    <glyph glyph-name="eight.tf" horiz-adv-x="628" 
d="M314 -12c-153 0 -254 80 -254 195c0 76 45 138 115 162v8c-60 24 -99 79 -99 146c0 106 95 183 238 183s238 -76 238 -183c0 -65 -37 -121 -99 -146v-8c70 -25 115 -86 115 -162c0 -115 -101 -195 -254 -195zM314 401c56 0 94 31 94 77c0 47 -38 78 -94 78
s-94 -31 -94 -78c0 -46 38 -77 94 -77zM314 116c64 0 105 33 105 87c0 53 -41 86 -105 86s-105 -33 -105 -86c0 -54 41 -87 105 -87z" />
    <glyph glyph-name="nine.tf" horiz-adv-x="628" 
d="M225 0c-23 0 -32 17 -16 38l147 210h-8c-15 -15 -49 -24 -88 -24c-120 0 -199 90 -199 218c0 147 103 240 255 240c154 0 252 -96 252 -235c0 -73 -29 -150 -69 -211l-141 -216c-9 -15 -21 -20 -37 -20h-96zM315 353c60 0 101 39 101 100c0 60 -40 100 -101 100
c-59 0 -102 -40 -102 -101c0 -59 40 -99 102 -99z" />
    <glyph glyph-name="zero.tf.zero" horiz-adv-x="628" 
d="M314 682c151 0 250 -91 250 -229v-236c0 -138 -99 -229 -250 -229s-250 91 -250 229v236c0 138 99 229 250 229zM314 546c-62 0 -103 -38 -103 -96v-161l195 206c-15 32 -48 51 -92 51zM314 124c62 0 102 38 102 96v162l-195 -207c15 -32 49 -51 93 -51z" />
    <glyph glyph-name="zero.zero" horiz-adv-x="629" 
d="M315 682c151 0 250 -91 250 -229v-236c0 -138 -99 -229 -250 -229s-251 91 -251 229v236c0 138 100 229 251 229zM315 546c-62 0 -103 -38 -103 -96v-161l195 206c-16 32 -49 51 -92 51zM315 124c61 0 102 38 102 96v163l-195 -208c15 -32 49 -51 93 -51z" />
    <glyph glyph-name="zero.subs" horiz-adv-x="377" 
d="M189 -107c-91 0 -153 55 -153 139v138c0 84 62 139 153 139s152 -55 152 -139v-138c0 -84 -61 -139 -152 -139zM189 -17c33 0 55 20 55 51v134c0 31 -22 51 -55 51c-34 0 -56 -20 -56 -51v-134c0 -31 22 -51 56 -51z" />
    <glyph glyph-name="one.subs" horiz-adv-x="328" 
d="M267 -10c15 0 24 -9 24 -25v-40c0 -16 -9 -25 -24 -25h-196c-16 0 -25 9 -25 25v40c0 16 9 25 25 25h53v211h-6l-41 -18c-17 -8 -29 0 -29 19v37c0 14 6 23 19 29l64 28c10 4 19 6 30 6h35c16 0 25 -9 25 -25v-287h46z" />
    <glyph glyph-name="two.subs" horiz-adv-x="361" 
d="M62 -100c-16 0 -25 9 -25 25v31c0 12 4 21 13 31l121 118c32 31 53 58 53 80c0 21 -17 36 -43 36c-27 0 -44 -17 -44 -39v-3c0 -13 -8 -20 -20 -20h-55c-16 0 -25 9 -25 25v5c0 72 57 120 144 120c86 0 144 -46 144 -115c0 -49 -27 -86 -62 -119l-81 -80v-5h117
c16 0 25 -9 25 -25v-40c0 -16 -9 -25 -25 -25h-237z" />
    <glyph glyph-name="three.subs" horiz-adv-x="375" 
d="M187 -107c-92 0 -151 49 -151 109v5c0 13 7 20 20 20h59c14 0 20 -8 25 -19c6 -22 22 -31 47 -31c29 0 49 18 49 44s-19 43 -47 43h-41c-16 0 -25 9 -25 25v27c0 16 9 25 25 25h34c28 0 48 17 48 43c0 25 -18 41 -44 41c-21 0 -35 -9 -41 -29c-4 -11 -9 -17 -23 -17h-59
c-13 0 -20 8 -20 20v3c0 59 57 107 145 107c85 0 144 -45 144 -111c0 -42 -24 -77 -61 -89v-5c40 -12 67 -49 67 -95c0 -68 -61 -116 -151 -116z" />
    <glyph glyph-name="four.subs" horiz-adv-x="387" 
d="M326 61c16 0 25 -9 25 -25v-36c0 -16 -9 -25 -25 -25h-17v-50c0 -16 -9 -25 -25 -25h-47c-16 0 -25 9 -25 25v50h-161c-16 0 -25 9 -25 25v32c0 12 3 20 9 31l136 222c7 11 17 17 30 17h83c16 0 25 -9 25 -25v-216h17zM126 61h86v111l4 28h-7l-83 -135v-4z" />
    <glyph glyph-name="five.subs" horiz-adv-x="375" 
d="M183 -107c-87 0 -147 50 -147 100v4c0 16 9 25 25 25h57c12 0 17 -7 22 -17c7 -20 23 -28 46 -28c31 0 52 21 52 53c0 33 -21 55 -51 55c-14 0 -27 -4 -37 -12c-4 -5 -9 -7 -15 -7h-68c-16 0 -26 9 -23 26l26 187c3 15 12 23 27 23h185c16 0 25 -9 25 -25v-35
c0 -16 -9 -25 -25 -25h-126l-10 -72h5c13 12 38 20 65 20c73 0 122 -54 122 -130c0 -86 -61 -142 -155 -142z" />
    <glyph glyph-name="six.subs" horiz-adv-x="382" 
d="M190 -107c-93 0 -154 58 -154 142c0 44 17 93 42 131l80 120c8 10 17 16 30 16h52c20 0 27 -14 15 -30l-85 -121h5c9 8 30 14 51 14c72 0 120 -52 120 -127c0 -88 -64 -145 -156 -145zM191 -23c30 0 55 22 55 54s-23 54 -56 54c-32 0 -54 -22 -54 -54s22 -54 55 -54z" />
    <glyph glyph-name="seven.subs" horiz-adv-x="338" 
d="M93 -100c-19 0 -27 12 -19 29l128 278v5h-141c-16 0 -25 9 -25 25v40c0 16 9 25 25 25h230c16 0 25 -9 25 -25v-35c0 -12 -2 -21 -7 -31l-132 -293c-6 -12 -16 -18 -30 -18h-54z" />
    <glyph glyph-name="eight.subs" horiz-adv-x="383" 
d="M191 -107c-93 0 -155 49 -155 118c0 44 26 81 68 95v6c-37 15 -57 49 -57 87c0 63 57 110 144 110c88 0 145 -47 145 -110c0 -39 -22 -72 -57 -87v-6c40 -14 67 -50 67 -95c0 -69 -62 -118 -155 -118zM191 143c29 0 51 17 51 42s-22 41 -51 41s-50 -16 -50 -41
s21 -42 50 -42zM191 -24c34 0 57 19 57 47c0 29 -22 48 -57 48c-34 0 -57 -19 -57 -48c0 -27 23 -47 57 -47z" />
    <glyph glyph-name="nine.subs" horiz-adv-x="382" 
d="M144 -100c-21 0 -28 14 -16 31l82 114h-5c-9 -8 -31 -12 -50 -12c-71 0 -119 54 -119 130c0 89 63 146 156 146s154 -58 154 -143c0 -43 -18 -91 -43 -129l-78 -121c-8 -10 -17 -16 -30 -16h-51zM191 117c33 0 55 22 55 54s-23 54 -55 54c-31 0 -55 -22 -55 -54
s23 -54 55 -54z" />
    <glyph glyph-name="zero.dnom" horiz-adv-x="377" 
d="M189 -7c-91 0 -153 55 -153 139v138c0 84 62 139 153 139s152 -55 152 -139v-138c0 -84 -61 -139 -152 -139zM189 83c33 0 55 20 55 51v134c0 31 -22 51 -55 51c-34 0 -56 -20 -56 -51v-134c0 -31 22 -51 56 -51z" />
    <glyph glyph-name="one.dnom" horiz-adv-x="328" 
d="M267 90c15 0 24 -9 24 -25v-40c0 -16 -9 -25 -24 -25h-196c-16 0 -25 9 -25 25v40c0 16 9 25 25 25h53v211h-6l-41 -18c-17 -8 -29 0 -29 19v37c0 14 6 23 19 29l64 28c10 4 19 6 30 6h35c16 0 25 -9 25 -25v-287h46z" />
    <glyph glyph-name="two.dnom" horiz-adv-x="361" 
d="M62 0c-16 0 -25 9 -25 25v31c0 12 4 21 13 31l121 118c32 31 53 58 53 80c0 21 -17 36 -43 36c-27 0 -44 -17 -44 -39v-3c0 -13 -8 -20 -20 -20h-55c-16 0 -25 9 -25 25v5c0 72 57 120 144 120c86 0 144 -46 144 -115c0 -49 -27 -86 -62 -119l-81 -80v-5h117
c16 0 25 -9 25 -25v-40c0 -16 -9 -25 -25 -25h-237z" />
    <glyph glyph-name="three.dnom" horiz-adv-x="375" 
d="M187 -7c-92 0 -151 49 -151 109v5c0 13 7 20 20 20h59c14 0 20 -8 25 -19c6 -22 22 -31 47 -31c29 0 49 18 49 44s-19 43 -47 43h-41c-16 0 -25 9 -25 25v27c0 16 9 25 25 25h34c28 0 48 17 48 43c0 25 -18 41 -44 41c-21 0 -35 -9 -41 -29c-4 -11 -9 -17 -23 -17h-59
c-13 0 -20 8 -20 20v3c0 59 57 107 145 107c85 0 144 -45 144 -111c0 -42 -24 -77 -61 -89v-5c40 -12 67 -49 67 -95c0 -68 -61 -116 -151 -116z" />
    <glyph glyph-name="four.dnom" horiz-adv-x="387" 
d="M326 161c16 0 25 -9 25 -25v-36c0 -16 -9 -25 -25 -25h-17v-50c0 -16 -9 -25 -25 -25h-47c-16 0 -25 9 -25 25v50h-161c-16 0 -25 9 -25 25v32c0 12 3 20 9 31l136 222c7 11 17 17 30 17h83c16 0 25 -9 25 -25v-216h17zM126 161h86v111l4 28h-7l-83 -135v-4z" />
    <glyph glyph-name="five.dnom" horiz-adv-x="375" 
d="M183 -7c-87 0 -147 50 -147 100v4c0 16 9 25 25 25h57c12 0 17 -7 22 -17c7 -20 23 -28 46 -28c31 0 52 21 52 53c0 33 -21 55 -51 55c-14 0 -27 -4 -37 -12c-4 -5 -9 -7 -15 -7h-68c-16 0 -26 9 -23 26l26 187c3 15 12 23 27 23h185c16 0 25 -9 25 -25v-35
c0 -16 -9 -25 -25 -25h-126l-10 -72h5c13 12 38 20 65 20c73 0 122 -54 122 -130c0 -86 -61 -142 -155 -142z" />
    <glyph glyph-name="six.dnom" horiz-adv-x="382" 
d="M190 -7c-93 0 -154 58 -154 142c0 44 17 93 42 131l80 120c8 10 17 16 30 16h52c20 0 27 -14 15 -30l-85 -121h5c9 8 30 14 51 14c72 0 120 -52 120 -127c0 -88 -64 -145 -156 -145zM191 77c30 0 55 22 55 54s-23 54 -56 54c-32 0 -54 -22 -54 -54s22 -54 55 -54z" />
    <glyph glyph-name="seven.dnom" horiz-adv-x="338" 
d="M93 0c-19 0 -27 12 -19 29l128 278v5h-141c-16 0 -25 9 -25 25v40c0 16 9 25 25 25h230c16 0 25 -9 25 -25v-35c0 -12 -2 -21 -7 -31l-132 -293c-6 -12 -16 -18 -30 -18h-54z" />
    <glyph glyph-name="eight.dnom" horiz-adv-x="383" 
d="M191 -7c-93 0 -155 49 -155 118c0 44 26 81 68 95v6c-37 15 -57 49 -57 87c0 63 57 110 144 110c88 0 145 -47 145 -110c0 -39 -22 -72 -57 -87v-6c40 -14 67 -50 67 -95c0 -69 -62 -118 -155 -118zM191 243c29 0 51 17 51 42s-22 41 -51 41s-50 -16 -50 -41
s21 -42 50 -42zM191 76c34 0 57 19 57 47c0 29 -22 48 -57 48c-34 0 -57 -19 -57 -48c0 -27 23 -47 57 -47z" />
    <glyph glyph-name="nine.dnom" horiz-adv-x="382" 
d="M144 0c-21 0 -28 14 -16 31l82 114h-5c-9 -8 -31 -12 -50 -12c-71 0 -119 54 -119 130c0 89 63 146 156 146s154 -58 154 -143c0 -43 -18 -91 -43 -129l-78 -121c-8 -10 -17 -16 -30 -16h-51zM191 217c33 0 55 22 55 54s-23 54 -55 54c-31 0 -55 -22 -55 -54
s23 -54 55 -54z" />
    <glyph glyph-name="zero.numr" horiz-adv-x="377" 
d="M189 261c-91 0 -153 55 -153 139v138c0 84 62 139 153 139s152 -55 152 -139v-138c0 -84 -61 -139 -152 -139zM189 351c33 0 55 20 55 51v134c0 31 -22 51 -55 51c-34 0 -56 -20 -56 -51v-134c0 -31 22 -51 56 -51z" />
    <glyph glyph-name="one.numr" horiz-adv-x="328" 
d="M267 358c15 0 24 -9 24 -25v-40c0 -16 -9 -25 -24 -25h-196c-16 0 -25 9 -25 25v40c0 16 9 25 25 25h53v211h-6l-41 -18c-17 -8 -29 0 -29 19v37c0 14 6 23 19 29l64 28c10 4 19 6 30 6h35c16 0 25 -9 25 -25v-287h46z" />
    <glyph glyph-name="two.numr" horiz-adv-x="361" 
d="M62 268c-16 0 -25 9 -25 25v31c0 12 4 21 13 31l121 118c32 31 53 58 53 80c0 21 -17 36 -43 36c-27 0 -44 -17 -44 -39v-3c0 -13 -8 -20 -20 -20h-55c-16 0 -25 9 -25 25v5c0 72 57 120 144 120c86 0 144 -46 144 -115c0 -49 -27 -86 -62 -119l-81 -80v-5h117
c16 0 25 -9 25 -25v-40c0 -16 -9 -25 -25 -25h-237z" />
    <glyph glyph-name="three.numr" horiz-adv-x="375" 
d="M187 261c-92 0 -151 49 -151 109v5c0 13 7 20 20 20h59c14 0 20 -8 25 -19c6 -22 22 -31 47 -31c29 0 49 18 49 44s-19 43 -47 43h-41c-16 0 -25 9 -25 25v27c0 16 9 25 25 25h34c28 0 48 17 48 43c0 25 -18 41 -44 41c-21 0 -35 -9 -41 -29c-4 -11 -9 -17 -23 -17h-59
c-13 0 -20 8 -20 20v3c0 59 57 107 145 107c85 0 144 -45 144 -111c0 -42 -24 -77 -61 -89v-5c40 -12 67 -49 67 -95c0 -68 -61 -116 -151 -116z" />
    <glyph glyph-name="four.numr" horiz-adv-x="387" 
d="M326 429c16 0 25 -9 25 -25v-36c0 -16 -9 -25 -25 -25h-17v-50c0 -16 -9 -25 -25 -25h-47c-16 0 -25 9 -25 25v50h-161c-16 0 -25 9 -25 25v32c0 12 3 20 9 31l136 222c7 11 17 17 30 17h83c16 0 25 -9 25 -25v-216h17zM126 429h86v111l4 28h-7l-83 -135v-4z" />
    <glyph glyph-name="five.numr" horiz-adv-x="375" 
d="M183 261c-87 0 -147 50 -147 100v4c0 16 9 25 25 25h57c12 0 17 -7 22 -17c7 -20 23 -28 46 -28c31 0 52 21 52 53c0 33 -21 55 -51 55c-14 0 -27 -4 -37 -12c-4 -5 -9 -7 -15 -7h-68c-16 0 -26 9 -23 26l26 187c3 15 12 23 27 23h185c16 0 25 -9 25 -25v-35
c0 -16 -9 -25 -25 -25h-126l-10 -72h5c13 12 38 20 65 20c73 0 122 -54 122 -130c0 -86 -61 -142 -155 -142z" />
    <glyph glyph-name="six.numr" horiz-adv-x="382" 
d="M190 261c-93 0 -154 58 -154 142c0 44 17 93 42 131l80 120c8 10 17 16 30 16h52c20 0 27 -14 15 -30l-85 -121h5c9 8 30 14 51 14c72 0 120 -52 120 -127c0 -88 -64 -145 -156 -145zM191 345c30 0 55 22 55 54s-23 54 -56 54c-32 0 -54 -22 -54 -54s22 -54 55 -54z" />
    <glyph glyph-name="seven.numr" horiz-adv-x="338" 
d="M93 268c-19 0 -27 12 -19 29l128 278v5h-141c-16 0 -25 9 -25 25v40c0 16 9 25 25 25h230c16 0 25 -9 25 -25v-35c0 -12 -2 -21 -7 -31l-132 -293c-6 -12 -16 -18 -30 -18h-54z" />
    <glyph glyph-name="eight.numr" horiz-adv-x="383" 
d="M191 261c-93 0 -155 49 -155 118c0 44 26 81 68 95v6c-37 15 -57 49 -57 87c0 63 57 110 144 110c88 0 145 -47 145 -110c0 -39 -22 -72 -57 -87v-6c40 -14 67 -50 67 -95c0 -69 -62 -118 -155 -118zM191 511c29 0 51 17 51 42s-22 41 -51 41s-50 -16 -50 -41
s21 -42 50 -42zM191 344c34 0 57 19 57 47c0 29 -22 48 -57 48c-34 0 -57 -19 -57 -48c0 -27 23 -47 57 -47z" />
    <glyph glyph-name="nine.numr" horiz-adv-x="382" 
d="M144 268c-21 0 -28 14 -16 31l82 114h-5c-9 -8 -31 -12 -50 -12c-71 0 -119 54 -119 130c0 89 63 146 156 146s154 -58 154 -143c0 -43 -18 -91 -43 -129l-78 -121c-8 -10 -17 -16 -30 -16h-51zM191 485c33 0 55 22 55 54s-23 54 -55 54c-31 0 -55 -22 -55 -54
s23 -54 55 -54z" />
    <glyph glyph-name="uni2070" unicode="&#x2070;" horiz-adv-x="377" 
d="M189 361c-91 0 -153 55 -153 139v138c0 84 62 139 153 139s152 -55 152 -139v-138c0 -84 -61 -139 -152 -139zM189 451c33 0 55 20 55 51v134c0 31 -22 51 -55 51c-34 0 -56 -20 -56 -51v-134c0 -31 22 -51 56 -51z" />
    <glyph glyph-name="uni00B9" unicode="&#xb9;" horiz-adv-x="328" 
d="M267 458c15 0 24 -9 24 -25v-40c0 -16 -9 -25 -24 -25h-196c-16 0 -25 9 -25 25v40c0 16 9 25 25 25h53v211h-6l-41 -18c-17 -8 -29 0 -29 19v37c0 14 6 23 19 29l64 28c10 4 19 6 30 6h35c16 0 25 -9 25 -25v-287h46z" />
    <glyph glyph-name="uni00B2" unicode="&#xb2;" horiz-adv-x="361" 
d="M62 368c-16 0 -25 9 -25 25v31c0 12 4 21 13 31l121 118c32 31 53 58 53 80c0 21 -17 36 -43 36c-27 0 -44 -17 -44 -39v-3c0 -13 -8 -20 -20 -20h-55c-16 0 -25 9 -25 25v5c0 72 57 120 144 120c86 0 144 -46 144 -115c0 -49 -27 -86 -62 -119l-81 -80v-5h117
c16 0 25 -9 25 -25v-40c0 -16 -9 -25 -25 -25h-237z" />
    <glyph glyph-name="uni00B3" unicode="&#xb3;" horiz-adv-x="375" 
d="M187 361c-92 0 -151 49 -151 109v5c0 13 7 20 20 20h59c14 0 20 -8 25 -19c6 -22 22 -31 47 -31c29 0 49 18 49 44s-19 43 -47 43h-41c-16 0 -25 9 -25 25v27c0 16 9 25 25 25h34c28 0 48 17 48 43c0 25 -18 41 -44 41c-21 0 -35 -9 -41 -29c-4 -11 -9 -17 -23 -17h-59
c-13 0 -20 8 -20 20v3c0 59 57 107 145 107c85 0 144 -45 144 -111c0 -42 -24 -77 -61 -89v-5c40 -12 67 -49 67 -95c0 -68 -61 -116 -151 -116z" />
    <glyph glyph-name="uni2074" unicode="&#x2074;" horiz-adv-x="387" 
d="M326 529c16 0 25 -9 25 -25v-36c0 -16 -9 -25 -25 -25h-17v-50c0 -16 -9 -25 -25 -25h-47c-16 0 -25 9 -25 25v50h-161c-16 0 -25 9 -25 25v32c0 12 3 20 9 31l136 222c7 11 17 17 30 17h83c16 0 25 -9 25 -25v-216h17zM126 529h86v111l4 28h-7l-83 -135v-4z" />
    <glyph glyph-name="uni2075" unicode="&#x2075;" horiz-adv-x="375" 
d="M183 361c-87 0 -147 50 -147 100v4c0 16 9 25 25 25h57c12 0 17 -7 22 -17c7 -20 23 -28 46 -28c31 0 52 21 52 53c0 33 -21 55 -51 55c-14 0 -27 -4 -37 -12c-4 -5 -9 -7 -15 -7h-68c-16 0 -26 9 -23 26l26 187c3 15 12 23 27 23h185c16 0 25 -9 25 -25v-35
c0 -16 -9 -25 -25 -25h-126l-10 -72h5c13 12 38 20 65 20c73 0 122 -54 122 -130c0 -86 -61 -142 -155 -142z" />
    <glyph glyph-name="uni2076" unicode="&#x2076;" horiz-adv-x="382" 
d="M190 361c-93 0 -154 58 -154 142c0 44 17 93 42 131l80 120c8 10 17 16 30 16h52c20 0 27 -14 15 -30l-85 -121h5c9 8 30 14 51 14c72 0 120 -52 120 -127c0 -88 -64 -145 -156 -145zM191 445c30 0 55 22 55 54s-23 54 -56 54c-32 0 -54 -22 -54 -54s22 -54 55 -54z" />
    <glyph glyph-name="uni2077" unicode="&#x2077;" horiz-adv-x="338" 
d="M93 368c-19 0 -27 12 -19 29l128 278v5h-141c-16 0 -25 9 -25 25v40c0 16 9 25 25 25h230c16 0 25 -9 25 -25v-35c0 -12 -2 -21 -7 -31l-132 -293c-6 -12 -16 -18 -30 -18h-54z" />
    <glyph glyph-name="uni2078" unicode="&#x2078;" horiz-adv-x="383" 
d="M191 361c-93 0 -155 49 -155 118c0 44 26 81 68 95v6c-37 15 -57 49 -57 87c0 63 57 110 144 110c88 0 145 -47 145 -110c0 -39 -22 -72 -57 -87v-6c40 -14 67 -50 67 -95c0 -69 -62 -118 -155 -118zM191 611c29 0 51 17 51 42s-22 41 -51 41s-50 -16 -50 -41
s21 -42 50 -42zM191 444c34 0 57 19 57 47c0 29 -22 48 -57 48c-34 0 -57 -19 -57 -48c0 -27 23 -47 57 -47z" />
    <glyph glyph-name="uni2079" unicode="&#x2079;" horiz-adv-x="382" 
d="M144 368c-21 0 -28 14 -16 31l82 114h-5c-9 -8 -31 -12 -50 -12c-71 0 -119 54 -119 130c0 89 63 146 156 146s154 -58 154 -143c0 -43 -18 -91 -43 -129l-78 -121c-8 -10 -17 -16 -30 -16h-51zM191 585c33 0 55 22 55 54s-23 54 -55 54c-31 0 -55 -22 -55 -54
s23 -54 55 -54z" />
    <glyph glyph-name="fraction" unicode="&#x2044;" horiz-adv-x="227" 
d="M-99 0c-18 0 -25 12 -16 28l347 626c6 11 16 16 28 16h66c18 0 25 -12 16 -28l-347 -626c-6 -11 -16 -16 -28 -16h-66z" />
    <glyph glyph-name="onehalf" unicode="&#xbd;" horiz-adv-x="947" 
d="M291 293c0 -16 -9 -25 -24 -25h-196c-16 0 -25 9 -25 25v40c0 16 9 25 25 25h53v211h-6l-41 -18c-17 -8 -29 0 -29 19v37c0 14 6 23 19 29l64 28c10 4 19 6 30 6h35c16 0 25 -9 25 -25v-287h46c15 0 24 -9 24 -25v-40zM684 670c18 0 25 -12 16 -28l-347 -626
c-6 -11 -16 -16 -28 -16h-66c-18 0 -25 12 -16 28l347 626c6 11 16 16 28 16h66zM884 90c16 0 25 -9 25 -25v-40c0 -16 -9 -25 -25 -25h-237c-16 0 -25 9 -25 25v31c0 12 4 21 13 31l121 118c32 31 53 58 53 80c0 21 -17 36 -43 36c-27 0 -44 -17 -44 -39v-3
c0 -13 -8 -20 -20 -20h-55c-16 0 -25 9 -25 25v5c0 72 57 120 144 120c86 0 144 -46 144 -115c0 -49 -27 -86 -62 -119l-81 -80v-5h117z" />
    <glyph glyph-name="uni2153" unicode="&#x2153;" horiz-adv-x="960" 
d="M291 293c0 -16 -9 -25 -24 -25h-196c-16 0 -25 9 -25 25v40c0 16 9 25 25 25h53v211h-6l-41 -18c-17 -8 -29 0 -29 19v37c0 14 6 23 19 29l64 28c10 4 19 6 30 6h35c16 0 25 -9 25 -25v-287h46c15 0 24 -9 24 -25v-40zM684 670c18 0 25 -12 16 -28l-347 -626
c-6 -11 -16 -16 -28 -16h-66c-18 0 -25 12 -16 28l347 626c6 11 16 16 28 16h66zM856 204c40 -12 67 -49 67 -95c0 -68 -61 -116 -151 -116c-92 0 -151 49 -151 109v5c0 13 7 20 20 20h59c14 0 20 -8 25 -19c6 -22 22 -31 47 -31c29 0 49 18 49 44s-19 43 -47 43h-41
c-16 0 -25 9 -25 25v27c0 16 9 25 25 25h34c28 0 48 17 48 43c0 25 -18 41 -44 41c-21 0 -35 -9 -41 -29c-4 -11 -9 -17 -23 -17h-59c-13 0 -20 8 -20 20v3c0 59 57 107 145 107c85 0 144 -45 144 -111c0 -42 -24 -77 -61 -89v-5z" />
    <glyph glyph-name="uni2154" unicode="&#x2154;" horiz-adv-x="993" 
d="M62 268c-16 0 -25 9 -25 25v31c0 12 4 21 13 31l121 118c32 31 53 58 53 80c0 21 -17 36 -43 36c-27 0 -44 -17 -44 -39v-3c0 -13 -8 -20 -20 -20h-55c-16 0 -25 9 -25 25v5c0 72 57 120 144 120c86 0 144 -46 144 -115c0 -49 -27 -86 -62 -119l-81 -80v-5h117
c16 0 25 -9 25 -25v-40c0 -16 -9 -25 -25 -25h-237zM292 0c-18 0 -25 12 -16 28l347 626c6 11 16 16 28 16h66c18 0 25 -12 16 -28l-347 -626c-6 -11 -16 -16 -28 -16h-66zM805 -7c-92 0 -151 49 -151 109v5c0 13 7 20 20 20h59c14 0 20 -8 25 -19c6 -22 22 -31 47 -31
c29 0 49 18 49 44s-19 43 -47 43h-41c-16 0 -25 9 -25 25v27c0 16 9 25 25 25h34c28 0 48 17 48 43c0 25 -18 41 -44 41c-21 0 -35 -9 -41 -29c-4 -11 -9 -17 -23 -17h-59c-13 0 -20 8 -20 20v3c0 59 57 107 145 107c85 0 144 -45 144 -111c0 -42 -24 -77 -61 -89v-5
c40 -12 67 -49 67 -95c0 -68 -61 -116 -151 -116z" />
    <glyph glyph-name="onequarter" unicode="&#xbc;" horiz-adv-x="927" 
d="M291 293c0 -16 -9 -25 -24 -25h-196c-16 0 -25 9 -25 25v40c0 16 9 25 25 25h53v211h-6l-41 -18c-17 -8 -29 0 -29 19v37c0 14 6 23 19 29l64 28c10 4 19 6 30 6h35c16 0 25 -9 25 -25v-287h46c15 0 24 -9 24 -25v-40zM684 670c18 0 25 -12 16 -28l-347 -626
c-6 -11 -16 -16 -28 -16h-66c-18 0 -25 12 -16 28l347 626c6 11 16 16 28 16h66zM866 161c16 0 25 -9 25 -25v-36c0 -16 -9 -25 -25 -25h-17v-50c0 -16 -9 -25 -25 -25h-47c-16 0 -25 9 -25 25v50h-161c-16 0 -25 9 -25 25v32c0 12 3 20 9 31l136 222c7 11 17 17 30 17h83
c16 0 25 -9 25 -25v-216h17zM666 161h86v111l4 28h-7l-83 -135v-4z" />
    <glyph glyph-name="threequarters" unicode="&#xbe;" horiz-adv-x="944" 
d="M338 377c0 -68 -61 -116 -151 -116c-92 0 -151 49 -151 109v5c0 13 7 20 20 20h59c14 0 20 -8 25 -19c6 -22 22 -31 47 -31c29 0 49 18 49 44s-19 43 -47 43h-41c-16 0 -25 9 -25 25v27c0 16 9 25 25 25h34c28 0 48 17 48 43c0 25 -18 41 -44 41c-21 0 -35 -9 -41 -29
c-4 -11 -9 -17 -23 -17h-59c-13 0 -20 8 -20 20v3c0 59 57 107 145 107c85 0 144 -45 144 -111c0 -42 -24 -77 -61 -89v-5c40 -12 67 -49 67 -95zM701 670c18 0 25 -12 16 -28l-347 -626c-6 -11 -16 -16 -28 -16h-66c-18 0 -25 12 -16 28l347 626c6 11 16 16 28 16h66z
M883 161c16 0 25 -9 25 -25v-36c0 -16 -9 -25 -25 -25h-17v-50c0 -16 -9 -25 -25 -25h-47c-16 0 -25 9 -25 25v50h-161c-16 0 -25 9 -25 25v32c0 12 3 20 9 31l136 222c7 11 17 17 30 17h83c16 0 25 -9 25 -25v-216h17zM683 161h86v111l4 28h-7l-83 -135v-4z" />
    </font>
</defs>
</svg>
