<?xml version="1.0" standalone="no"?>
<!DOCTYPE svg PUBLIC "-//W3C//DTD SVG 1.1//EN" "http://www.w3.org/Graphics/SVG/1.1/DTD/svg11.dtd" >
<svg xmlns="http://www.w3.org/2000/svg" xmlns:xlink="http://www.w3.org/1999/xlink" version="1.1">
<metadata>
Created by FontForge 20170812 at Mon Oct  8 18:21:49 2018
 By www-data
Copyright \(c\) 2018 by Adam Ladd. All rights reserved.
</metadata>
<defs>
<font id="ConfigRounded-Regular" horiz-adv-x="518" >
  <font-face 
    font-family="Config Rounded"
    font-weight="400"
    font-stretch="normal"
    units-per-em="1000"
    panose-1="0 0 5 0 0 0 0 0 0 0"
    ascent="770"
    descent="-230"
    x-height="500"
    cap-height="670"
    bbox="-570 -230 1163 913"
    underline-thickness="54"
    underline-position="-120"
    stemh="74"
    stemv="80"
    unicode-range="U+0020-FB02"
  />
<missing-glyph horiz-adv-x="500" 
d="M410 770v-1000h-317v1000h317zM333 703h-165v-33h65v-37h-66v-33h166v33h-66v37h66v33zM267 574h-100v-104h166v34h-66v70zM233 540v-36h-33v36h33zM333 443h-166v-33h66v-37h-66v-33h100v70h66v33zM333 383h-33v-66h-133v-34h166v100zM333 261h-100v-56h34v23h33v-47
h-100v80h-33v-113h166v113zM333 88h-166v-113h166v113zM300 55v-47h-100v47h100zM333 -48h-166v-33h70l-70 -47v-33h166v33h-102l70 47h32v33z" />
    <glyph glyph-name="fi" unicode="fi" horiz-adv-x="600" 
d="M503 500c12 0 19 -7 19 -19v-462c0 -12 -7 -19 -19 -19h-42c-12 0 -19 7 -19 19v409h-227v-409c0 -12 -7 -19 -19 -19h-42c-12 0 -19 7 -19 19v409h-71c-12 0 -19 7 -19 19v34c0 12 7 19 19 19h71v74c0 76 54 126 135 126h43c12 0 19 -7 19 -19v-29c0 -12 -7 -19 -19 -19
h-25c-44 0 -73 -28 -73 -72v-61h288zM482 596c-33 0 -54 21 -54 52s21 51 54 51c31 0 52 -20 52 -51s-21 -52 -52 -52z" />
    <glyph glyph-name="fl" unicode="fl" horiz-adv-x="673" 
d="M317 700c12 0 19 -7 19 -19v-29c0 -12 -7 -19 -19 -19h-29c-44 0 -73 -28 -73 -72v-61h102c12 0 19 -7 19 -19v-34c0 -12 -7 -19 -19 -19h-102v-409c0 -12 -7 -19 -19 -19h-42c-12 0 -19 7 -19 19v409h-71c-12 0 -19 7 -19 19v34c0 12 7 19 19 19h71v74
c0 76 54 126 135 126h47zM622 74c8 0 13 -5 13 -13v-42c0 -12 -7 -19 -19 -19h-25c-78 0 -129 48 -129 121v560c0 12 7 19 19 19h42c12 0 19 -7 19 -19v-541c0 -40 27 -66 68 -66h12z" />
    <glyph glyph-name="f_f.liga" unicode="ff" horiz-adv-x="699" 
d="M614 633c-44 0 -73 -28 -73 -72v-61h102c12 0 19 -7 19 -19v-34c0 -12 -7 -19 -19 -19h-102v-409c0 -12 -7 -19 -19 -19h-42c-12 0 -19 7 -19 19v409h-246v-409c0 -12 -7 -19 -19 -19h-42c-12 0 -19 7 -19 19v409h-71c-12 0 -19 7 -19 19v34c0 12 7 19 19 19h71v74
c0 76 54 126 135 126h47c12 0 19 -7 19 -19v-29c0 -12 -7 -19 -19 -19h-29c-44 0 -73 -28 -73 -72v-61h246v74c0 76 53 126 134 126h48c12 0 19 -7 19 -19v-29c0 -12 -7 -19 -19 -19h-29z" />
    <glyph glyph-name="f_f_i.liga" unicode="ffi" horiz-adv-x="926" 
d="M829 500c12 0 19 -7 19 -19v-462c0 -12 -7 -19 -19 -19h-42c-12 0 -19 7 -19 19v409h-227v-409c0 -12 -7 -19 -19 -19h-42c-12 0 -19 7 -19 19v409h-246v-409c0 -12 -7 -19 -19 -19h-42c-12 0 -19 7 -19 19v409h-71c-12 0 -19 7 -19 19v34c0 12 7 19 19 19h71v74
c0 76 54 126 135 126h47c12 0 19 -7 19 -19v-29c0 -12 -7 -19 -19 -19h-29c-44 0 -73 -28 -73 -72v-61h246v74c0 76 53 126 134 126h44c12 0 19 -7 19 -19v-29c0 -12 -7 -19 -19 -19h-25c-44 0 -73 -28 -73 -72v-61h288zM808 596c-33 0 -54 21 -54 52s21 51 54 51
c31 0 52 -20 52 -51s-21 -52 -52 -52z" />
    <glyph glyph-name="f_f_l.liga" unicode="ffl" horiz-adv-x="1000" 
d="M643 700c12 0 19 -7 19 -19v-29c0 -12 -7 -19 -19 -19h-29c-44 0 -73 -28 -73 -72v-61h102c12 0 19 -7 19 -19v-34c0 -12 -7 -19 -19 -19h-102v-409c0 -12 -7 -19 -19 -19h-42c-12 0 -19 7 -19 19v409h-246v-409c0 -12 -7 -19 -19 -19h-42c-12 0 -19 7 -19 19v409h-71
c-12 0 -19 7 -19 19v34c0 12 7 19 19 19h71v74c0 76 54 126 135 126h47c12 0 19 -7 19 -19v-29c0 -12 -7 -19 -19 -19h-29c-44 0 -73 -28 -73 -72v-61h246v74c0 76 53 126 134 126h48zM948 74c8 0 13 -5 13 -13v-42c0 -12 -7 -19 -19 -19h-25c-77 0 -129 48 -129 121v560
c0 12 7 19 19 19h42c12 0 19 -7 19 -19v-541c0 -40 27 -66 68 -66h12z" />
    <glyph glyph-name=".notdef" horiz-adv-x="500" 
d="M410 770v-1000h-317v1000h317zM333 703h-165v-33h65v-37h-66v-33h166v33h-66v37h66v33zM267 574h-100v-104h166v34h-66v70zM233 540v-36h-33v36h33zM333 443h-166v-33h66v-37h-66v-33h100v70h66v33zM333 383h-33v-66h-133v-34h166v100zM333 261h-100v-56h34v23h33v-47
h-100v80h-33v-113h166v113zM333 88h-166v-113h166v113zM300 55v-47h-100v47h100zM333 -48h-166v-33h70l-70 -47v-33h166v33h-102l70 47h32v33z" />
    <glyph glyph-name="A" unicode="A" horiz-adv-x="643" 
d="M599 23c4 -15 -3 -23 -18 -23h-53c-11 0 -18 6 -21 17l-49 150h-277l-48 -150c-3 -11 -10 -17 -21 -17h-50c-15 0 -22 8 -18 23l214 629c3 13 10 18 23 18h81c13 0 20 -5 23 -18zM206 244h227l-110 341h-7z" />
    <glyph glyph-name="Aacute" unicode="&#xc1;" horiz-adv-x="643" 
d="M307 727c-14 0 -19 9 -12 22l60 100c5 10 13 14 23 14h47c16 0 22 -11 12 -24l-82 -102c-7 -8 -14 -10 -23 -10h-25zM599 23c4 -15 -3 -23 -18 -23h-53c-11 0 -18 6 -21 17l-49 150h-277l-48 -150c-3 -11 -10 -17 -21 -17h-50c-15 0 -22 8 -18 23l214 629
c3 13 10 18 23 18h81c13 0 20 -5 23 -18zM206 244h227l-110 341h-7z" />
    <glyph glyph-name="Abreve" unicode="&#x102;" horiz-adv-x="643" 
d="M322 721c-77 0 -128 42 -134 113c-1 12 7 19 19 19h30c9 0 14 -5 15 -13c2 -37 29 -60 70 -60c40 0 67 23 69 60c1 8 6 13 15 13h30c12 0 20 -7 18 -20c-5 -70 -56 -112 -132 -112zM599 23c4 -15 -3 -23 -18 -23h-53c-11 0 -18 6 -21 17l-49 150h-277l-48 -150
c-3 -11 -10 -17 -21 -17h-50c-15 0 -22 8 -18 23l214 629c3 13 10 18 23 18h81c13 0 20 -5 23 -18zM206 244h227l-110 341h-7z" />
    <glyph glyph-name="uni01CD" unicode="&#x1cd;" horiz-adv-x="643" 
d="M267 738l-85 101c-9 13 -4 24 11 24h27c10 0 17 -3 24 -10l74 -75h6l75 75c6 7 14 10 23 10h26c16 0 22 -11 12 -24l-84 -101c-6 -8 -14 -11 -23 -11h-63c-10 0 -17 3 -23 11zM599 23c4 -15 -3 -23 -18 -23h-53c-11 0 -18 6 -21 17l-49 150h-277l-48 -150
c-3 -11 -10 -17 -21 -17h-50c-15 0 -22 8 -18 23l214 629c3 13 10 18 23 18h81c13 0 20 -5 23 -18zM206 244h227l-110 341h-7z" />
    <glyph glyph-name="Acircumflex" unicode="&#xc2;" horiz-adv-x="643" 
d="M193 727c-15 0 -20 11 -11 23l85 101c6 8 13 12 23 12h63c9 0 17 -4 22 -12l85 -101c10 -12 5 -23 -10 -23h-28c-9 0 -17 2 -23 10l-75 74h-6l-74 -74c-7 -8 -14 -10 -24 -10h-27zM599 23c4 -15 -3 -23 -18 -23h-53c-11 0 -18 6 -21 17l-49 150h-277l-48 -150
c-3 -11 -10 -17 -21 -17h-50c-15 0 -22 8 -18 23l214 629c3 13 10 18 23 18h81c13 0 20 -5 23 -18zM206 244h227l-110 341h-7z" />
    <glyph glyph-name="uni0200" unicode="&#x200;" horiz-adv-x="643" 
d="M218 740l-62 100c-8 13 -2 23 12 23h40c10 0 18 -4 22 -15l50 -100c6 -12 -1 -21 -15 -21h-24c-10 0 -18 3 -23 13zM382 740l-62 100c-7 13 -2 23 13 23h40c10 0 18 -4 22 -15l50 -100c5 -12 -2 -21 -15 -21h-25c-10 0 -17 3 -23 13zM599 23c4 -15 -3 -23 -18 -23h-53
c-11 0 -18 6 -21 17l-49 150h-277l-48 -150c-3 -11 -10 -17 -21 -17h-50c-15 0 -22 8 -18 23l214 629c3 13 10 18 23 18h81c13 0 20 -5 23 -18zM206 244h227l-110 341h-7z" />
    <glyph glyph-name="Adieresis" unicode="&#xc4;" horiz-adv-x="643" 
d="M232 746c-29 0 -49 19 -49 49c0 29 20 49 49 49c30 0 49 -20 49 -49c0 -30 -19 -49 -49 -49zM411 746c-30 0 -50 19 -50 49c0 29 20 49 50 49c29 0 49 -20 49 -49c0 -30 -20 -49 -49 -49zM599 23c4 -15 -3 -23 -18 -23h-53c-11 0 -18 6 -21 17l-49 150h-277l-48 -150
c-3 -11 -10 -17 -21 -17h-50c-15 0 -22 8 -18 23l214 629c3 13 10 18 23 18h81c13 0 20 -5 23 -18zM206 244h227l-110 341h-7z" />
    <glyph glyph-name="uni1EA0" unicode="&#x1ea0;" horiz-adv-x="643" 
d="M599 23c4 -15 -3 -23 -18 -23h-53c-11 0 -18 6 -21 17l-49 150h-277l-48 -150c-3 -11 -10 -17 -21 -17h-50c-15 0 -22 8 -18 23l214 629c3 13 10 18 23 18h81c13 0 20 -5 23 -18zM206 244h227l-110 341h-7zM322 -76c31 0 52 -20 52 -51s-21 -51 -52 -51s-51 20 -51 51
s20 51 51 51z" />
    <glyph glyph-name="Agrave" unicode="&#xc0;" horiz-adv-x="643" 
d="M288 737l-82 102c-10 13 -5 24 11 24h49c9 0 17 -4 22 -14l60 -100c7 -13 2 -22 -13 -22h-24c-9 0 -17 2 -23 10zM599 23c4 -15 -3 -23 -18 -23h-53c-11 0 -18 6 -21 17l-49 150h-277l-48 -150c-3 -11 -10 -17 -21 -17h-50c-15 0 -22 8 -18 23l214 629c3 13 10 18 23 18
h81c13 0 20 -5 23 -18zM206 244h227l-110 341h-7z" />
    <glyph glyph-name="uni0202" unicode="&#x202;" horiz-adv-x="643" 
d="M207 727c-12 0 -21 7 -19 19c6 70 57 113 134 113c76 0 127 -42 132 -112c2 -13 -6 -20 -18 -20h-30c-9 0 -14 4 -15 13c-2 36 -29 60 -69 60c-41 0 -68 -23 -70 -60c-1 -9 -6 -13 -15 -13h-30zM599 23c4 -15 -3 -23 -18 -23h-53c-11 0 -18 6 -21 17l-49 150h-277
l-48 -150c-3 -11 -10 -17 -21 -17h-50c-15 0 -22 8 -18 23l214 629c3 13 10 18 23 18h81c13 0 20 -5 23 -18zM206 244h227l-110 341h-7z" />
    <glyph glyph-name="Amacron" unicode="&#x100;" horiz-adv-x="643" 
d="M206 757c-12 0 -19 7 -19 19v27c0 12 7 19 19 19h232c12 0 19 -7 19 -19v-27c0 -12 -7 -19 -19 -19h-232zM599 23c4 -15 -3 -23 -18 -23h-53c-11 0 -18 6 -21 17l-49 150h-277l-48 -150c-3 -11 -10 -17 -21 -17h-50c-15 0 -22 8 -18 23l214 629c3 13 10 18 23 18h81
c13 0 20 -5 23 -18zM206 244h227l-110 341h-7z" />
    <glyph glyph-name="Aogonek" unicode="&#x104;" horiz-adv-x="643" 
d="M582 -135c10 3 15 -1 15 -12v-25c0 -9 -2 -14 -9 -17c-11 -5 -31 -9 -51 -9c-59 0 -97 34 -97 86c0 47 31 91 78 113v1c-5 3 -9 8 -11 15l-49 150h-277l-48 -150c-3 -11 -10 -17 -21 -17h-50c-15 0 -22 8 -18 23l214 629c3 13 10 18 23 18h81c13 0 20 -5 23 -18l214 -629
c4 -15 -3 -23 -17 -23c0 0 -1 -1 -2 -1c-40 -21 -67 -58 -67 -94c0 -27 19 -45 46 -45c8 0 17 2 23 5zM206 244h227l-110 341h-7z" />
    <glyph glyph-name="Aring" unicode="&#xc5;" horiz-adv-x="643" 
d="M322 721c-61 0 -101 38 -101 96s40 96 101 96c59 0 100 -38 100 -96s-41 -96 -100 -96zM322 872c-34 0 -56 -22 -56 -55s22 -55 56 -55c32 0 55 22 55 55s-23 55 -55 55zM599 23c4 -15 -3 -23 -18 -23h-53c-11 0 -18 6 -21 17l-49 150h-277l-48 -150
c-3 -11 -10 -17 -21 -17h-50c-15 0 -22 8 -18 23l214 629c3 13 10 18 23 18h81c13 0 20 -5 23 -18zM206 244h227l-110 341h-7z" />
    <glyph glyph-name="Atilde" unicode="&#xc3;" horiz-adv-x="643" 
d="M172 746c-9 0 -15 6 -15 16c4 63 35 98 88 98c59 0 92 -52 137 -52c23 0 39 13 42 36c3 8 7 12 18 12h30c9 0 15 -7 14 -21c-5 -60 -35 -94 -87 -94c-59 0 -95 53 -137 53c-23 0 -39 -13 -42 -36c-3 -8 -7 -12 -18 -12h-30zM599 23c4 -15 -3 -23 -18 -23h-53
c-11 0 -18 6 -21 17l-49 150h-277l-48 -150c-3 -11 -10 -17 -21 -17h-50c-15 0 -22 8 -18 23l214 629c3 13 10 18 23 18h81c13 0 20 -5 23 -18zM206 244h227l-110 341h-7z" />
    <glyph glyph-name="AE" unicode="&#xc6;" horiz-adv-x="898" 
d="M809 592h-304v-217h267c13 0 21 -7 21 -21v-32c0 -14 -8 -21 -21 -21h-267v-223h304c13 0 21 -8 21 -21v-36c0 -13 -8 -21 -21 -21h-368c-13 0 -21 8 -21 21v146h-233l-79 -150c-5 -13 -13 -17 -25 -17h-52c-16 0 -22 9 -15 24l337 630c5 12 13 16 25 16h431
c13 0 21 -8 21 -21v-36c0 -13 -8 -21 -21 -21zM228 244h192v348h-8z" />
    <glyph glyph-name="AEacute" unicode="&#x1fc;" horiz-adv-x="898" 
d="M456 727c-14 0 -19 9 -12 22l60 100c5 10 13 14 23 14h47c16 0 22 -11 12 -24l-82 -102c-7 -8 -14 -10 -23 -10h-25zM809 592h-304v-217h267c13 0 21 -7 21 -21v-32c0 -14 -8 -21 -21 -21h-267v-223h304c13 0 21 -8 21 -21v-36c0 -13 -8 -21 -21 -21h-368
c-13 0 -21 8 -21 21v146h-233l-79 -150c-5 -13 -13 -17 -25 -17h-52c-16 0 -22 9 -15 24l337 630c5 12 13 16 25 16h431c13 0 21 -8 21 -21v-36c0 -13 -8 -21 -21 -21zM228 244h192v348h-8z" />
    <glyph glyph-name="B" unicode="B" horiz-adv-x="607" 
d="M433 341c78 -15 130 -77 130 -165c0 -105 -71 -176 -179 -176h-269c-13 0 -21 8 -21 21v628c0 13 8 21 21 21h249c108 0 179 -70 179 -172c0 -79 -44 -137 -110 -152v-5zM344 595h-166v-220h166c69 0 115 42 115 109c0 66 -46 111 -115 111zM364 75c69 0 115 46 115 116
s-46 116 -115 116h-186v-232h186z" />
    <glyph glyph-name="C" unicode="C" horiz-adv-x="630" 
d="M317 -12c-150 0 -249 91 -249 230v234c0 139 99 230 249 230c151 0 248 -81 248 -234c0 -12 -7 -19 -19 -19h-47c-11 0 -17 6 -19 19c-3 101 -64 156 -163 156c-100 0 -165 -61 -165 -154v-230c0 -93 65 -154 165 -154c101 0 160 56 163 156c2 13 8 19 19 19h47
c12 0 19 -8 19 -21c0 -155 -99 -232 -248 -232z" />
    <glyph glyph-name="Cacute" unicode="&#x106;" horiz-adv-x="630" 
d="M302 727c-14 0 -19 9 -12 22l60 100c5 10 13 14 23 14h47c16 0 22 -11 12 -24l-82 -102c-7 -8 -14 -10 -23 -10h-25zM317 -12c-150 0 -249 91 -249 230v234c0 139 99 230 249 230c151 0 248 -81 248 -234c0 -12 -7 -19 -19 -19h-47c-11 0 -17 6 -19 19
c-3 101 -64 156 -163 156c-100 0 -165 -61 -165 -154v-230c0 -93 65 -154 165 -154c101 0 160 56 163 156c2 13 8 19 19 19h47c12 0 19 -8 19 -21c0 -155 -99 -232 -248 -232z" />
    <glyph glyph-name="Ccaron" unicode="&#x10c;" horiz-adv-x="630" 
d="M285 727c-10 0 -17 3 -23 11l-85 101c-9 13 -4 24 11 24h27c10 0 17 -3 24 -10l74 -75h6l75 75c6 7 14 10 23 10h26c16 0 22 -11 12 -24l-84 -101c-6 -8 -14 -11 -23 -11h-63zM317 -12c-150 0 -249 91 -249 230v234c0 139 99 230 249 230c151 0 248 -81 248 -234
c0 -12 -7 -19 -19 -19h-47c-11 0 -17 6 -19 19c-3 101 -64 156 -163 156c-100 0 -165 -61 -165 -154v-230c0 -93 65 -154 165 -154c101 0 160 56 163 156c2 13 8 19 19 19h47c12 0 19 -8 19 -21c0 -155 -99 -232 -248 -232z" />
    <glyph glyph-name="Ccedilla" unicode="&#xc7;" horiz-adv-x="630" 
d="M546 241c12 0 19 -8 19 -21c0 -149 -92 -226 -232 -232l-21 -41h27c50 0 82 -31 82 -77c0 -53 -46 -87 -113 -87c-22 0 -45 4 -62 10c-11 3 -16 11 -16 22v10c0 13 7 19 19 16c14 -7 33 -11 51 -11c38 0 64 16 64 42c0 22 -16 36 -41 36h-55c-9 0 -15 5 -15 15v5
c0 5 2 10 4 15l25 47c-130 13 -214 100 -214 228v234c0 139 99 230 249 230c151 0 248 -81 248 -234c0 -12 -7 -19 -19 -19h-47c-11 0 -17 6 -19 19c-3 101 -64 156 -163 156c-100 0 -165 -61 -165 -154v-230c0 -93 65 -154 165 -154c101 0 160 56 163 156c2 13 8 19 19 19
h47z" />
    <glyph glyph-name="Ccircumflex" unicode="&#x108;" horiz-adv-x="630" 
d="M188 727c-15 0 -20 11 -11 23l85 101c6 8 13 12 23 12h63c9 0 17 -4 22 -12l85 -101c10 -12 5 -23 -10 -23h-28c-9 0 -17 2 -23 10l-75 74h-6l-74 -74c-7 -8 -14 -10 -24 -10h-27zM317 -12c-150 0 -249 91 -249 230v234c0 139 99 230 249 230c151 0 248 -81 248 -234
c0 -12 -7 -19 -19 -19h-47c-11 0 -17 6 -19 19c-3 101 -64 156 -163 156c-100 0 -165 -61 -165 -154v-230c0 -93 65 -154 165 -154c101 0 160 56 163 156c2 13 8 19 19 19h47c12 0 19 -8 19 -21c0 -155 -99 -232 -248 -232z" />
    <glyph glyph-name="Cdotaccent" unicode="&#x10a;" horiz-adv-x="630" 
d="M317 746c-31 0 -51 20 -51 51s20 51 51 51s52 -20 52 -51s-21 -51 -52 -51zM317 -12c-150 0 -249 91 -249 230v234c0 139 99 230 249 230c151 0 248 -81 248 -234c0 -12 -7 -19 -19 -19h-47c-11 0 -17 6 -19 19c-3 101 -64 156 -163 156c-100 0 -165 -61 -165 -154v-230
c0 -93 65 -154 165 -154c101 0 160 56 163 156c2 13 8 19 19 19h47c12 0 19 -8 19 -21c0 -155 -99 -232 -248 -232z" />
    <glyph glyph-name="D" unicode="D" horiz-adv-x="649" 
d="M331 670c151 0 251 -92 251 -234v-202c0 -142 -100 -234 -251 -234h-216c-13 0 -21 8 -21 21v628c0 13 8 21 21 21h216zM498 237v196c0 97 -67 159 -169 159h-151v-514h151c102 0 169 62 169 159z" />
    <glyph glyph-name="uni01F1" unicode="&#x1f1;" horiz-adv-x="1208" 
d="M331 670c151 0 251 -92 251 -234v-202c0 -142 -100 -234 -251 -234h-216c-13 0 -21 8 -21 21v628c0 13 8 21 21 21h216zM1127 78c13 0 21 -8 21 -21v-36c0 -13 -8 -21 -21 -21h-410c-13 0 -21 8 -21 21v30c0 10 3 18 8 26l328 509v6h-310c-13 0 -21 8 -21 21v36
c0 13 8 21 21 21h400c13 0 21 -8 21 -21v-30c0 -10 -3 -18 -9 -26l-327 -509v-6h320zM498 237v196c0 97 -67 159 -169 159h-151v-514h151c102 0 169 62 169 159z" />
    <glyph glyph-name="uni01C4" unicode="&#x1c4;" horiz-adv-x="1208" 
d="M868 738l-85 101c-9 13 -5 24 11 24h27c10 0 17 -3 24 -10l74 -75h6l74 75c7 7 14 10 24 10h26c16 0 21 -11 12 -24l-85 -101c-5 -8 -13 -11 -23 -11h-62c-10 0 -17 3 -23 11zM331 670c151 0 251 -92 251 -234v-202c0 -142 -100 -234 -251 -234h-216c-13 0 -21 8 -21 21
v628c0 13 8 21 21 21h216zM1127 78c13 0 21 -8 21 -21v-36c0 -13 -8 -21 -21 -21h-410c-13 0 -21 8 -21 21v30c0 10 3 18 8 26l328 509v6h-310c-13 0 -21 8 -21 21v36c0 13 8 21 21 21h400c13 0 21 -8 21 -21v-30c0 -10 -3 -18 -9 -26l-327 -509v-6h320zM498 237v196
c0 97 -67 159 -169 159h-151v-514h151c102 0 169 62 169 159z" />
    <glyph glyph-name="Eth" unicode="&#xd0;" horiz-adv-x="649" 
d="M331 670c151 0 251 -92 251 -234v-202c0 -142 -100 -234 -251 -234h-216c-13 0 -21 8 -21 21v279h-49c-12 0 -19 7 -19 19v32c0 12 7 19 19 19h49v279c0 13 8 21 21 21h216zM498 237v196c0 97 -67 159 -169 159h-151v-222h117c12 0 19 -7 19 -19v-32
c0 -12 -7 -19 -19 -19h-117v-222h151c102 0 169 62 169 159z" />
    <glyph glyph-name="Dcaron" unicode="&#x10e;" horiz-adv-x="649" 
d="M274 738l-85 101c-9 13 -4 24 11 24h27c10 0 17 -3 24 -10l74 -75h6l75 75c6 7 14 10 23 10h26c16 0 22 -11 12 -24l-84 -101c-6 -8 -14 -11 -23 -11h-63c-10 0 -17 3 -23 11zM331 670c151 0 251 -92 251 -234v-202c0 -142 -100 -234 -251 -234h-216c-13 0 -21 8 -21 21
v628c0 13 8 21 21 21h216zM498 237v196c0 97 -67 159 -169 159h-151v-514h151c102 0 169 62 169 159z" />
    <glyph glyph-name="Dcroat" unicode="&#x110;" horiz-adv-x="649" 
d="M331 670c151 0 251 -92 251 -234v-202c0 -142 -100 -234 -251 -234h-216c-13 0 -21 8 -21 21v279h-49c-12 0 -19 7 -19 19v32c0 12 7 19 19 19h49v279c0 13 8 21 21 21h216zM498 237v196c0 97 -67 159 -169 159h-151v-222h117c12 0 19 -7 19 -19v-32
c0 -12 -7 -19 -19 -19h-117v-222h151c102 0 169 62 169 159z" />
    <glyph glyph-name="uni1E0C" unicode="&#x1e0c;" horiz-adv-x="649" 
d="M331 670c151 0 251 -92 251 -234v-202c0 -142 -100 -234 -251 -234h-216c-13 0 -21 8 -21 21v628c0 13 8 21 21 21h216zM498 237v196c0 97 -67 159 -169 159h-151v-514h151c102 0 169 62 169 159zM328 -76c31 0 52 -20 52 -51s-21 -51 -52 -51s-51 20 -51 51s20 51 51 51
z" />
    <glyph glyph-name="uni01F2" unicode="&#x1f2;" horiz-adv-x="1126" 
d="M331 670c151 0 251 -92 251 -234v-202c0 -142 -100 -234 -251 -234h-216c-13 0 -21 8 -21 21v628c0 13 8 21 21 21h216zM498 237v196c0 97 -67 159 -169 159h-151v-514h151c102 0 169 62 169 159zM1058 73c12 0 19 -7 19 -19v-35c0 -12 -7 -19 -19 -19h-342
c-12 0 -19 7 -19 19v29c0 9 3 16 9 23l256 351v5h-241c-12 0 -19 7 -19 19v35c0 12 7 19 19 19h332c12 0 19 -7 19 -19v-29c0 -9 -2 -16 -8 -23l-257 -351v-5h251z" />
    <glyph glyph-name="uni01C5" unicode="&#x1c5;" horiz-adv-x="1126" 
d="M834 568l-86 101c-9 13 -4 24 11 24h28c9 0 16 -3 23 -10l75 -75h5l75 75c6 7 14 10 23 10h27c15 0 21 -11 12 -24l-85 -101c-6 -8 -14 -11 -23 -11h-63c-9 0 -17 3 -22 11zM331 670c151 0 251 -92 251 -234v-202c0 -142 -100 -234 -251 -234h-216c-13 0 -21 8 -21 21
v628c0 13 8 21 21 21h216zM498 237v196c0 97 -67 159 -169 159h-151v-514h151c102 0 169 62 169 159zM1058 73c12 0 19 -7 19 -19v-35c0 -12 -7 -19 -19 -19h-342c-12 0 -19 7 -19 19v29c0 9 3 16 9 23l256 351v5h-241c-12 0 -19 7 -19 19v35c0 12 7 19 19 19h332
c12 0 19 -7 19 -19v-29c0 -9 -2 -16 -8 -23l-257 -351v-5h251z" />
    <glyph glyph-name="E" unicode="E" horiz-adv-x="566" 
d="M483 592h-305v-215h268c13 0 20 -8 20 -21v-36c0 -13 -7 -21 -20 -21h-268v-221h305c13 0 20 -8 20 -20v-38c0 -12 -7 -20 -20 -20h-369c-12 0 -20 8 -20 20v630c0 12 8 20 20 20h369c13 0 20 -8 20 -20v-38c0 -12 -7 -20 -20 -20z" />
    <glyph glyph-name="Eacute" unicode="&#xc9;" horiz-adv-x="566" 
d="M284 727c-14 0 -19 9 -12 22l60 100c5 10 13 14 23 14h47c16 0 22 -11 12 -24l-82 -102c-7 -8 -14 -10 -23 -10h-25zM483 592h-305v-215h268c13 0 20 -8 20 -21v-36c0 -13 -7 -21 -20 -21h-268v-221h305c13 0 20 -8 20 -20v-38c0 -12 -7 -20 -20 -20h-369
c-12 0 -20 8 -20 20v630c0 12 8 20 20 20h369c13 0 20 -8 20 -20v-38c0 -12 -7 -20 -20 -20z" />
    <glyph glyph-name="Ebreve" unicode="&#x114;" horiz-adv-x="566" 
d="M299 721c-77 0 -128 42 -134 113c-1 12 7 19 19 19h30c9 0 14 -5 15 -13c2 -37 29 -60 70 -60c40 0 67 23 69 60c1 8 6 13 15 13h30c12 0 20 -7 18 -20c-5 -70 -56 -112 -132 -112zM483 592h-305v-215h268c13 0 20 -8 20 -21v-36c0 -13 -7 -21 -20 -21h-268v-221h305
c13 0 20 -8 20 -20v-38c0 -12 -7 -20 -20 -20h-369c-12 0 -20 8 -20 20v630c0 12 8 20 20 20h369c13 0 20 -8 20 -20v-38c0 -12 -7 -20 -20 -20z" />
    <glyph glyph-name="Ecaron" unicode="&#x11a;" horiz-adv-x="566" 
d="M245 738l-85 101c-9 13 -4 24 11 24h27c10 0 17 -3 24 -10l74 -75h6l75 75c6 7 14 10 23 10h26c16 0 22 -11 12 -24l-84 -101c-6 -8 -14 -11 -23 -11h-63c-10 0 -17 3 -23 11zM483 592h-305v-215h268c13 0 20 -8 20 -21v-36c0 -13 -7 -21 -20 -21h-268v-221h305
c13 0 20 -8 20 -20v-38c0 -12 -7 -20 -20 -20h-369c-12 0 -20 8 -20 20v630c0 12 8 20 20 20h369c13 0 20 -8 20 -20v-38c0 -12 -7 -20 -20 -20z" />
    <glyph glyph-name="Ecircumflex" unicode="&#xca;" horiz-adv-x="566" 
d="M171 727c-15 0 -20 11 -11 23l85 101c6 8 13 12 23 12h63c9 0 17 -4 22 -12l85 -101c10 -12 5 -23 -10 -23h-28c-9 0 -17 2 -23 10l-75 74h-6l-74 -74c-7 -8 -14 -10 -24 -10h-27zM483 592h-305v-215h268c13 0 20 -8 20 -21v-36c0 -13 -7 -21 -20 -21h-268v-221h305
c13 0 20 -8 20 -20v-38c0 -12 -7 -20 -20 -20h-369c-12 0 -20 8 -20 20v630c0 12 8 20 20 20h369c13 0 20 -8 20 -20v-38c0 -12 -7 -20 -20 -20z" />
    <glyph glyph-name="uni0204" unicode="&#x204;" horiz-adv-x="566" 
d="M195 740l-62 100c-8 13 -2 23 12 23h40c10 0 18 -4 22 -15l50 -100c6 -12 -1 -21 -15 -21h-24c-10 0 -18 3 -23 13zM359 740l-62 100c-7 13 -2 23 13 23h40c10 0 18 -4 22 -15l50 -100c5 -12 -2 -21 -15 -21h-25c-10 0 -17 3 -23 13zM483 592h-305v-215h268
c13 0 20 -8 20 -21v-36c0 -13 -7 -21 -20 -21h-268v-221h305c13 0 20 -8 20 -20v-38c0 -12 -7 -20 -20 -20h-369c-12 0 -20 8 -20 20v630c0 12 8 20 20 20h369c13 0 20 -8 20 -20v-38c0 -12 -7 -20 -20 -20z" />
    <glyph glyph-name="Edieresis" unicode="&#xcb;" horiz-adv-x="566" 
d="M210 746c-29 0 -49 19 -49 49c0 29 20 49 49 49c30 0 49 -20 49 -49c0 -30 -19 -49 -49 -49zM389 746c-30 0 -50 19 -50 49c0 29 20 49 50 49c29 0 49 -20 49 -49c0 -30 -20 -49 -49 -49zM483 592h-305v-215h268c13 0 20 -8 20 -21v-36c0 -13 -7 -21 -20 -21h-268v-221
h305c13 0 20 -8 20 -20v-38c0 -12 -7 -20 -20 -20h-369c-12 0 -20 8 -20 20v630c0 12 8 20 20 20h369c13 0 20 -8 20 -20v-38c0 -12 -7 -20 -20 -20z" />
    <glyph glyph-name="Edotaccent" unicode="&#x116;" horiz-adv-x="566" 
d="M299 746c-31 0 -51 20 -51 51s20 51 51 51s52 -20 52 -51s-21 -51 -52 -51zM483 592h-305v-215h268c13 0 20 -8 20 -21v-36c0 -13 -7 -21 -20 -21h-268v-221h305c13 0 20 -8 20 -20v-38c0 -12 -7 -20 -20 -20h-369c-12 0 -20 8 -20 20v630c0 12 8 20 20 20h369
c13 0 20 -8 20 -20v-38c0 -12 -7 -20 -20 -20z" />
    <glyph glyph-name="uni1EB8" unicode="&#x1eb8;" horiz-adv-x="566" 
d="M483 592h-305v-215h268c13 0 20 -8 20 -21v-36c0 -13 -7 -21 -20 -21h-268v-221h305c13 0 20 -8 20 -20v-38c0 -12 -7 -20 -20 -20h-369c-12 0 -20 8 -20 20v630c0 12 8 20 20 20h369c13 0 20 -8 20 -20v-38c0 -12 -7 -20 -20 -20zM299 -76c31 0 52 -20 52 -51
s-21 -51 -52 -51s-51 20 -51 51s20 51 51 51z" />
    <glyph glyph-name="Egrave" unicode="&#xc8;" horiz-adv-x="566" 
d="M265 737l-82 102c-10 13 -5 24 11 24h49c9 0 17 -4 22 -14l60 -100c7 -13 2 -22 -13 -22h-24c-9 0 -17 2 -23 10zM483 592h-305v-215h268c13 0 20 -8 20 -21v-36c0 -13 -7 -21 -20 -21h-268v-221h305c13 0 20 -8 20 -20v-38c0 -12 -7 -20 -20 -20h-369
c-12 0 -20 8 -20 20v630c0 12 8 20 20 20h369c13 0 20 -8 20 -20v-38c0 -12 -7 -20 -20 -20z" />
    <glyph glyph-name="uni0206" unicode="&#x206;" horiz-adv-x="566" 
d="M184 727c-12 0 -21 7 -19 19c6 70 57 113 134 113c76 0 127 -42 132 -112c2 -13 -6 -20 -18 -20h-30c-9 0 -14 4 -15 13c-2 36 -29 60 -69 60c-41 0 -68 -23 -70 -60c-1 -9 -6 -13 -15 -13h-30zM483 592h-305v-215h268c13 0 20 -8 20 -21v-36c0 -13 -7 -21 -20 -21h-268
v-221h305c13 0 20 -8 20 -20v-38c0 -12 -7 -20 -20 -20h-369c-12 0 -20 8 -20 20v630c0 12 8 20 20 20h369c13 0 20 -8 20 -20v-38c0 -12 -7 -20 -20 -20z" />
    <glyph glyph-name="Emacron" unicode="&#x112;" horiz-adv-x="566" 
d="M183 757c-12 0 -19 7 -19 19v27c0 12 7 19 19 19h232c12 0 19 -7 19 -19v-27c0 -12 -7 -19 -19 -19h-232zM483 592h-305v-215h268c13 0 20 -8 20 -21v-36c0 -13 -7 -21 -20 -21h-268v-221h305c13 0 20 -8 20 -20v-38c0 -12 -7 -20 -20 -20h-369c-12 0 -20 8 -20 20v630
c0 12 8 20 20 20h369c13 0 20 -8 20 -20v-38c0 -12 -7 -20 -20 -20z" />
    <glyph glyph-name="Eogonek" unicode="&#x118;" horiz-adv-x="566" 
d="M498 -136c10 3 15 -1 15 -12v-25c0 -9 -2 -14 -9 -17c-11 -5 -31 -9 -51 -9c-59 0 -97 34 -97 86c0 47 31 91 78 113h-320c-12 0 -20 8 -20 20v630c0 12 8 20 20 20h369c13 0 20 -8 20 -20v-38c0 -12 -7 -20 -20 -20h-305v-215h268c13 0 20 -8 20 -21v-36
c0 -13 -7 -21 -20 -21h-268v-221h305c13 0 20 -8 20 -20v-28h1v-23c0 -4 -3 -7 -8 -9c-40 -21 -67 -58 -67 -94c0 -27 19 -45 46 -45c8 0 17 2 23 5z" />
    <glyph glyph-name="uni1EBC" unicode="&#x1ebc;" horiz-adv-x="566" 
d="M149 746c-9 0 -15 6 -15 16c4 63 35 98 88 98c59 0 92 -52 137 -52c23 0 39 13 42 36c3 8 7 12 18 12h30c9 0 15 -7 14 -21c-5 -60 -35 -94 -87 -94c-59 0 -95 53 -137 53c-23 0 -39 -13 -42 -36c-3 -8 -7 -12 -18 -12h-30zM483 592h-305v-215h268c13 0 20 -8 20 -21v-36
c0 -13 -7 -21 -20 -21h-268v-221h305c13 0 20 -8 20 -20v-38c0 -12 -7 -20 -20 -20h-369c-12 0 -20 8 -20 20v630c0 12 8 20 20 20h369c13 0 20 -8 20 -20v-38c0 -12 -7 -20 -20 -20z" />
    <glyph glyph-name="F" unicode="F" horiz-adv-x="547" 
d="M473 670c13 0 20 -8 20 -21v-36c0 -13 -7 -21 -20 -21h-295v-235h251c13 0 21 -8 21 -21v-36c0 -13 -8 -21 -21 -21h-251v-258c0 -13 -7 -21 -20 -21h-43c-13 0 -21 8 -21 21v628c0 13 8 21 21 21h358z" />
    <glyph glyph-name="G" unicode="G" horiz-adv-x="633" 
d="M544 340c14 0 21 -7 21 -20v-106c0 -137 -98 -226 -248 -226s-249 91 -249 230v234c0 139 99 230 249 230c147 0 239 -80 247 -220c2 -13 -6 -19 -18 -19h-46c-13 0 -18 6 -21 16c-6 94 -68 145 -162 145c-100 0 -165 -61 -165 -154v-234c0 -93 65 -153 165 -153
c99 0 164 59 164 150v59h-127c-13 0 -21 8 -21 21v27c0 13 8 20 21 20h190z" />
    <glyph glyph-name="uni01F4" unicode="&#x1f4;" horiz-adv-x="633" 
d="M302 727c-14 0 -19 9 -12 22l60 100c5 10 13 14 23 14h47c16 0 22 -11 12 -24l-82 -102c-7 -8 -14 -10 -23 -10h-25zM544 340c14 0 21 -7 21 -20v-106c0 -137 -98 -226 -248 -226s-249 91 -249 230v234c0 139 99 230 249 230c147 0 239 -80 247 -220
c2 -13 -6 -19 -18 -19h-46c-13 0 -18 6 -21 16c-6 94 -68 145 -162 145c-100 0 -165 -61 -165 -154v-234c0 -93 65 -153 165 -153c99 0 164 59 164 150v59h-127c-13 0 -21 8 -21 21v27c0 13 8 20 21 20h190z" />
    <glyph glyph-name="Gbreve" unicode="&#x11e;" horiz-adv-x="633" 
d="M317 721c-77 0 -128 42 -134 113c-1 12 7 19 19 19h30c9 0 14 -5 15 -13c2 -37 29 -60 70 -60c40 0 67 23 69 60c1 8 6 13 15 13h30c12 0 20 -7 18 -20c-5 -70 -56 -112 -132 -112zM544 340c14 0 21 -7 21 -20v-106c0 -137 -98 -226 -248 -226s-249 91 -249 230v234
c0 139 99 230 249 230c147 0 239 -80 247 -220c2 -13 -6 -19 -18 -19h-46c-13 0 -18 6 -21 16c-6 94 -68 145 -162 145c-100 0 -165 -61 -165 -154v-234c0 -93 65 -153 165 -153c99 0 164 59 164 150v59h-127c-13 0 -21 8 -21 21v27c0 13 8 20 21 20h190z" />
    <glyph glyph-name="Gcaron" unicode="&#x1e6;" horiz-adv-x="633" 
d="M262 738l-85 101c-9 13 -4 24 11 24h27c10 0 17 -3 24 -10l74 -75h6l75 75c6 7 14 10 23 10h26c16 0 22 -11 12 -24l-84 -101c-6 -8 -14 -11 -23 -11h-63c-10 0 -17 3 -23 11zM544 340c14 0 21 -7 21 -20v-106c0 -137 -98 -226 -248 -226s-249 91 -249 230v234
c0 139 99 230 249 230c147 0 239 -80 247 -220c2 -13 -6 -19 -18 -19h-46c-13 0 -18 6 -21 16c-6 94 -68 145 -162 145c-100 0 -165 -61 -165 -154v-234c0 -93 65 -153 165 -153c99 0 164 59 164 150v59h-127c-13 0 -21 8 -21 21v27c0 13 8 20 21 20h190z" />
    <glyph glyph-name="Gcircumflex" unicode="&#x11c;" horiz-adv-x="633" 
d="M188 727c-15 0 -20 11 -11 23l85 101c6 8 13 12 23 12h63c9 0 17 -4 22 -12l85 -101c10 -12 5 -23 -10 -23h-28c-9 0 -17 2 -23 10l-75 74h-6l-74 -74c-7 -8 -14 -10 -24 -10h-27zM544 340c14 0 21 -7 21 -20v-106c0 -137 -98 -226 -248 -226s-249 91 -249 230v234
c0 139 99 230 249 230c147 0 239 -80 247 -220c2 -13 -6 -19 -18 -19h-46c-13 0 -18 6 -21 16c-6 94 -68 145 -162 145c-100 0 -165 -61 -165 -154v-234c0 -93 65 -153 165 -153c99 0 164 59 164 150v59h-127c-13 0 -21 8 -21 21v27c0 13 8 20 21 20h190z" />
    <glyph glyph-name="uni0122" unicode="&#x122;" horiz-adv-x="633" 
d="M544 340c14 0 21 -7 21 -20v-106c0 -137 -98 -226 -248 -226s-249 91 -249 230v234c0 139 99 230 249 230c147 0 239 -80 247 -220c2 -13 -6 -19 -18 -19h-46c-13 0 -18 6 -21 16c-6 94 -68 145 -162 145c-100 0 -165 -61 -165 -154v-234c0 -93 65 -153 165 -153
c99 0 164 59 164 150v59h-127c-13 0 -21 8 -21 21v27c0 13 8 20 21 20h190zM346 -57c14 0 20 -9 14 -22l-52 -130c-4 -10 -12 -14 -22 -14h-23c-13 0 -19 8 -16 21l31 129c3 11 10 16 21 16h47z" />
    <glyph glyph-name="Gdotaccent" unicode="&#x120;" horiz-adv-x="633" 
d="M317 746c-31 0 -51 20 -51 51s20 51 51 51s52 -20 52 -51s-21 -51 -52 -51zM544 340c14 0 21 -7 21 -20v-106c0 -137 -98 -226 -248 -226s-249 91 -249 230v234c0 139 99 230 249 230c147 0 239 -80 247 -220c2 -13 -6 -19 -18 -19h-46c-13 0 -18 6 -21 16
c-6 94 -68 145 -162 145c-100 0 -165 -61 -165 -154v-234c0 -93 65 -153 165 -153c99 0 164 59 164 150v59h-127c-13 0 -21 8 -21 21v27c0 13 8 20 21 20h190z" />
    <glyph glyph-name="H" unicode="H" horiz-adv-x="658" 
d="M543 670c13 0 21 -8 21 -21v-628c0 -13 -8 -21 -21 -21h-43c-13 0 -21 8 -21 21v278h-301v-278c0 -13 -7 -21 -20 -21h-43c-13 0 -21 8 -21 21v628c0 13 8 21 21 21h43c13 0 20 -8 20 -21v-272h301v272c0 13 8 21 21 21h43z" />
    <glyph glyph-name="Hbar" unicode="&#x126;" horiz-adv-x="658" 
d="M595 552c12 0 19 -7 19 -19v-24c0 -12 -7 -19 -19 -19h-31v-469c0 -13 -8 -21 -21 -21h-43c-13 0 -21 8 -21 21v278h-301v-278c0 -13 -7 -21 -20 -21h-43c-13 0 -21 8 -21 21v469h-31c-12 0 -19 7 -19 19v24c0 12 7 19 19 19h31v97c0 13 8 21 21 21h43c13 0 20 -8 20 -21
v-97h301v97c0 13 8 21 21 21h43c13 0 21 -8 21 -21v-97h31zM479 377v113h-301v-113h301z" />
    <glyph glyph-name="Hcircumflex" unicode="&#x124;" horiz-adv-x="658" 
d="M200 727c-15 0 -20 11 -11 23l85 101c6 8 13 12 23 12h63c9 0 17 -4 22 -12l85 -101c10 -12 5 -23 -10 -23h-28c-9 0 -17 2 -23 10l-75 74h-6l-74 -74c-7 -8 -14 -10 -24 -10h-27zM543 670c13 0 21 -8 21 -21v-628c0 -13 -8 -21 -21 -21h-43c-13 0 -21 8 -21 21v278h-301
v-278c0 -13 -7 -21 -20 -21h-43c-13 0 -21 8 -21 21v628c0 13 8 21 21 21h43c13 0 20 -8 20 -21v-272h301v272c0 13 8 21 21 21h43z" />
    <glyph glyph-name="uni1E24" unicode="&#x1e24;" horiz-adv-x="658" 
d="M543 670c13 0 21 -8 21 -21v-628c0 -13 -8 -21 -21 -21h-43c-13 0 -21 8 -21 21v278h-301v-278c0 -13 -7 -21 -20 -21h-43c-13 0 -21 8 -21 21v628c0 13 8 21 21 21h43c13 0 20 -8 20 -21v-272h301v272c0 13 8 21 21 21h43zM329 -76c31 0 52 -20 52 -51s-21 -51 -52 -51
s-51 20 -51 51s20 51 51 51z" />
    <glyph glyph-name="I" unicode="I" horiz-adv-x="273" 
d="M115 0c-13 0 -21 8 -21 21v628c0 13 8 21 21 21h43c13 0 20 -8 20 -21v-628c0 -13 -7 -21 -20 -21h-43z" />
    <glyph glyph-name="IJ" unicode="&#x132;" horiz-adv-x="839" 
d="M115 0c-13 0 -21 8 -21 21v628c0 13 8 21 21 21h43c13 0 20 -8 20 -21v-628c0 -13 -7 -21 -20 -21h-43zM545 -12c-128 0 -213 77 -213 193v18c0 14 7 21 21 21h42c13 0 21 -7 21 -21v-15c0 -71 51 -118 129 -118c77 0 127 47 127 118v465c0 13 8 21 21 21h43
c13 0 21 -8 21 -21v-468c0 -116 -84 -193 -212 -193z" />
    <glyph glyph-name="Iacute" unicode="&#xcd;" horiz-adv-x="273" 
d="M122 727c-14 0 -19 9 -12 22l60 100c5 10 13 14 23 14h47c16 0 22 -11 12 -24l-82 -102c-7 -8 -14 -10 -23 -10h-25zM115 0c-13 0 -21 8 -21 21v628c0 13 8 21 21 21h43c13 0 20 -8 20 -21v-628c0 -13 -7 -21 -20 -21h-43z" />
    <glyph glyph-name="Ibreve" unicode="&#x12c;" horiz-adv-x="273" 
d="M137 721c-77 0 -128 42 -134 113c-1 12 7 19 19 19h30c9 0 14 -5 15 -13c2 -37 29 -60 70 -60c40 0 67 23 69 60c1 8 6 13 15 13h30c12 0 20 -7 18 -20c-5 -70 -56 -112 -132 -112zM115 0c-13 0 -21 8 -21 21v628c0 13 8 21 21 21h43c13 0 20 -8 20 -21v-628
c0 -13 -7 -21 -20 -21h-43z" />
    <glyph glyph-name="Icircumflex" unicode="&#xce;" horiz-adv-x="273" 
d="M8 727c-15 0 -20 11 -11 23l85 101c6 8 13 12 23 12h63c9 0 17 -4 22 -12l85 -101c10 -12 5 -23 -10 -23h-28c-9 0 -17 2 -23 10l-75 74h-6l-74 -74c-7 -8 -14 -10 -24 -10h-27zM115 0c-13 0 -21 8 -21 21v628c0 13 8 21 21 21h43c13 0 20 -8 20 -21v-628
c0 -13 -7 -21 -20 -21h-43z" />
    <glyph glyph-name="uni0208" unicode="&#x208;" horiz-adv-x="273" 
d="M56 727c-10 0 -18 3 -23 13l-62 100c-8 13 -2 23 12 23h40c10 0 18 -4 22 -15l50 -100c6 -12 -1 -21 -15 -21h-24zM220 727c-10 0 -17 3 -23 13l-62 100c-7 13 -2 23 13 23h40c10 0 18 -4 22 -15l50 -100c5 -12 -2 -21 -15 -21h-25zM115 0c-13 0 -21 8 -21 21v628
c0 13 8 21 21 21h43c13 0 20 -8 20 -21v-628c0 -13 -7 -21 -20 -21h-43z" />
    <glyph glyph-name="Idieresis" unicode="&#xcf;" horiz-adv-x="273" 
d="M47 746c-29 0 -49 19 -49 49c0 29 20 49 49 49c30 0 49 -20 49 -49c0 -30 -19 -49 -49 -49zM226 746c-30 0 -50 19 -50 49c0 29 20 49 50 49c29 0 49 -20 49 -49c0 -30 -20 -49 -49 -49zM115 0c-13 0 -21 8 -21 21v628c0 13 8 21 21 21h43c13 0 20 -8 20 -21v-628
c0 -13 -7 -21 -20 -21h-43z" />
    <glyph glyph-name="Idotaccent" unicode="&#x130;" horiz-adv-x="273" 
d="M136 746c-31 0 -51 20 -51 51s20 51 51 51s52 -20 52 -51s-21 -51 -52 -51zM115 0c-13 0 -21 8 -21 21v628c0 13 8 21 21 21h43c13 0 20 -8 20 -21v-628c0 -13 -7 -21 -20 -21h-43z" />
    <glyph glyph-name="uni1ECA" unicode="&#x1eca;" horiz-adv-x="273" 
d="M115 0c-13 0 -21 8 -21 21v628c0 13 8 21 21 21h43c13 0 20 -8 20 -21v-628c0 -13 -7 -21 -20 -21h-43zM136 -178c-31 0 -51 20 -51 51s20 51 51 51s52 -20 52 -51s-21 -51 -52 -51z" />
    <glyph glyph-name="Igrave" unicode="&#xcc;" horiz-adv-x="273" 
d="M126 727c-9 0 -17 2 -23 10l-82 102c-10 13 -5 24 11 24h49c9 0 17 -4 22 -14l60 -100c7 -13 2 -22 -13 -22h-24zM115 0c-13 0 -21 8 -21 21v628c0 13 8 21 21 21h43c13 0 20 -8 20 -21v-628c0 -13 -7 -21 -20 -21h-43z" />
    <glyph glyph-name="uni020A" unicode="&#x20a;" horiz-adv-x="273" 
d="M137 859c76 0 127 -42 132 -112c2 -13 -6 -20 -18 -20h-30c-9 0 -14 4 -15 13c-2 36 -29 60 -69 60c-41 0 -68 -23 -70 -60c-1 -9 -6 -13 -15 -13h-30c-12 0 -21 7 -19 19c6 70 57 113 134 113zM115 0c-13 0 -21 8 -21 21v628c0 13 8 21 21 21h43c13 0 20 -8 20 -21v-628
c0 -13 -7 -21 -20 -21h-43z" />
    <glyph glyph-name="Imacron" unicode="&#x12a;" horiz-adv-x="273" 
d="M21 757c-12 0 -19 7 -19 19v27c0 12 7 19 19 19h232c12 0 19 -7 19 -19v-27c0 -12 -7 -19 -19 -19h-232zM115 0c-13 0 -21 8 -21 21v628c0 13 8 21 21 21h43c13 0 20 -8 20 -21v-628c0 -13 -7 -21 -20 -21h-43z" />
    <glyph glyph-name="Iogonek" unicode="&#x12e;" horiz-adv-x="273" 
d="M173 -136c10 3 15 -1 15 -12v-25c0 -9 -2 -14 -9 -17c-11 -5 -31 -9 -51 -9c-59 0 -97 34 -97 86c0 47 31 91 78 113v1c-9 2 -15 9 -15 20v628c0 13 8 21 21 21h43c13 0 20 -8 20 -21v-619h1v-23c0 -4 -3 -7 -8 -9c-40 -21 -67 -58 -67 -94c0 -27 19 -45 46 -45
c8 0 17 2 23 5z" />
    <glyph glyph-name="Itilde" unicode="&#x128;" horiz-adv-x="273" 
d="M214 741c-59 0 -95 53 -137 53c-23 0 -39 -13 -42 -36c-3 -8 -7 -12 -18 -12h-30c-9 0 -15 6 -15 16c4 63 35 98 88 98c59 0 92 -52 137 -52c23 0 39 13 42 36c3 8 7 12 18 12h30c9 0 15 -7 14 -21c-5 -60 -35 -94 -87 -94zM115 0c-13 0 -21 8 -21 21v628
c0 13 8 21 21 21h43c13 0 20 -8 20 -21v-628c0 -13 -7 -21 -20 -21h-43z" />
    <glyph glyph-name="J" unicode="J" horiz-adv-x="567" 
d="M272 -12c-128 0 -213 77 -213 193v18c0 14 7 21 21 21h42c13 0 21 -7 21 -21v-15c0 -71 51 -118 129 -118c77 0 127 47 127 118v465c0 13 8 21 21 21h43c13 0 21 -8 21 -21v-468c0 -116 -84 -193 -212 -193z" />
    <glyph glyph-name="Jcircumflex" unicode="&#x134;" horiz-adv-x="567" 
d="M311 727c-15 0 -20 11 -11 23l85 101c6 8 13 12 23 12h63c9 0 17 -4 22 -12l85 -101c10 -12 5 -23 -10 -23h-28c-9 0 -17 2 -23 10l-75 74h-6l-74 -74c-7 -8 -14 -10 -24 -10h-27zM272 -12c-128 0 -213 77 -213 193v18c0 14 7 21 21 21h42c13 0 21 -7 21 -21v-15
c0 -71 51 -118 129 -118c77 0 127 47 127 118v465c0 13 8 21 21 21h43c13 0 21 -8 21 -21v-468c0 -116 -84 -193 -212 -193z" />
    <glyph glyph-name="K" unicode="K" horiz-adv-x="602" 
d="M561 25c7 -13 1 -25 -14 -25h-58c-11 0 -19 4 -24 15l-206 303l-81 -91v-206c0 -13 -7 -21 -20 -21h-43c-13 0 -21 8 -21 21v628c0 13 8 21 21 21h43c13 0 20 -8 20 -21v-303h7l276 311c6 8 14 13 25 13h54c16 0 21 -12 10 -26l-233 -261z" />
    <glyph glyph-name="uni0136" unicode="&#x136;" horiz-adv-x="602" 
d="M561 25c7 -13 1 -25 -14 -25h-58c-11 0 -19 4 -24 15l-206 303l-81 -91v-206c0 -13 -7 -21 -20 -21h-43c-13 0 -21 8 -21 21v628c0 13 8 21 21 21h43c13 0 20 -8 20 -21v-303h7l276 311c6 8 14 13 25 13h54c16 0 21 -12 10 -26l-233 -261zM354 -57c14 0 20 -9 14 -22
l-52 -130c-4 -10 -12 -14 -22 -14h-23c-13 0 -19 8 -16 21l31 129c3 11 10 16 21 16h47z" />
    <glyph glyph-name="L" unicode="L" horiz-adv-x="532" 
d="M463 78c13 0 20 -8 20 -21v-36c0 -13 -7 -21 -20 -21h-348c-13 0 -21 8 -21 21v628c0 13 8 21 21 21h43c13 0 20 -8 20 -21v-571h285z" />
    <glyph glyph-name="uni01C7" unicode="&#x1c7;" horiz-adv-x="1086" 
d="M463 78c13 0 20 -8 20 -21v-36c0 -13 -7 -21 -20 -21h-348c-13 0 -21 8 -21 21v628c0 13 8 21 21 21h43c13 0 20 -8 20 -21v-571h285zM982 670c13 0 21 -8 21 -21v-468c0 -116 -84 -193 -212 -193s-213 77 -213 193v18c0 14 7 21 21 21h42c13 0 21 -7 21 -21v-15
c0 -71 51 -118 129 -118c77 0 127 47 127 118v465c0 13 8 21 21 21h43z" />
    <glyph glyph-name="Lacute" unicode="&#x139;" horiz-adv-x="532" 
d="M122 727c-14 0 -19 9 -12 22l60 100c5 10 13 14 23 14h47c16 0 22 -11 12 -24l-82 -102c-7 -8 -14 -10 -23 -10h-25zM463 78c13 0 20 -8 20 -21v-36c0 -13 -7 -21 -20 -21h-348c-13 0 -21 8 -21 21v628c0 13 8 21 21 21h43c13 0 20 -8 20 -21v-571h285z" />
    <glyph glyph-name="Lcaron" unicode="&#x13d;" horiz-adv-x="532" 
d="M463 78c13 0 20 -8 20 -21v-36c0 -13 -7 -21 -20 -21h-348c-13 0 -21 8 -21 21v628c0 13 8 21 21 21h43c13 0 20 -8 20 -21v-571h285zM307 504c-12 0 -19 7 -19 19v128c0 12 7 19 19 19h36c13 0 20 -7 18 -20l-12 -129c-1 -12 -9 -17 -20 -17h-22z" />
    <glyph glyph-name="uni013B" unicode="&#x13b;" horiz-adv-x="532" 
d="M463 78c13 0 20 -8 20 -21v-36c0 -13 -7 -21 -20 -21h-348c-13 0 -21 8 -21 21v628c0 13 8 21 21 21h43c13 0 20 -8 20 -21v-571h285zM308 -57c14 0 20 -9 14 -22l-52 -130c-4 -10 -12 -14 -22 -14h-23c-13 0 -19 8 -16 21l31 129c3 11 10 16 21 16h47z" />
    <glyph glyph-name="Ldot" unicode="&#x13f;" horiz-adv-x="532" 
d="M463 78c13 0 20 -8 20 -21v-36c0 -13 -7 -21 -20 -21h-348c-13 0 -21 8 -21 21v628c0 13 8 21 21 21h43c13 0 20 -8 20 -21v-571h285zM330 300c-29 0 -48 19 -48 48c0 28 19 47 48 47c28 0 48 -19 48 -47c0 -29 -20 -48 -48 -48z" />
    <glyph glyph-name="uni01C8" unicode="&#x1c8;" horiz-adv-x="770" 
d="M654 596c-33 0 -53 21 -53 52s21 51 53 51s53 -20 53 -51s-21 -52 -53 -52zM463 78c13 0 20 -8 20 -21v-36c0 -13 -7 -21 -20 -21h-348c-13 0 -21 8 -21 21v628c0 13 8 21 21 21h43c13 0 20 -8 20 -21v-571h285zM676 500c12 0 19 -7 19 -19v-535
c0 -76 -54 -126 -135 -126h-47c-12 0 -19 7 -19 19v30c0 12 7 19 19 19h29c44 0 73 28 73 71v522c0 12 7 19 19 19h42z" />
    <glyph glyph-name="Lslash" unicode="&#x141;" horiz-adv-x="532" 
d="M463 78c13 0 20 -8 20 -21v-36c0 -13 -7 -21 -20 -21h-348c-13 0 -21 8 -21 21v262l-50 -25c-13 -5 -22 1 -22 15v37c0 10 5 18 14 23l58 29v287c0 13 8 21 21 21h43c13 0 20 -8 20 -21v-245l104 52c13 6 22 0 22 -14v-37c0 -10 -5 -18 -14 -23l-112 -56v-248h285z" />
    <glyph glyph-name="M" unicode="M" horiz-adv-x="813" 
d="M115 0c-13 0 -21 8 -21 21v628c0 13 8 21 21 21h74c12 0 20 -5 25 -17l191 -380h7l190 380c4 12 13 17 24 17h72c13 0 20 -8 20 -21v-628c0 -13 -7 -21 -20 -21h-43c-13 0 -21 8 -21 21v474l5 43h-8l-186 -359c-4 -12 -13 -17 -24 -17h-29c-11 0 -20 5 -24 17l-187 359
h-7l4 -43v-474c0 -13 -7 -21 -20 -21h-43z" />
    <glyph glyph-name="N" unicode="N" horiz-adv-x="679" 
d="M113 0c-12 0 -19 7 -19 19v632c0 12 7 19 19 19h68c10 0 18 -4 22 -14l294 -520h8l-5 43v472c0 12 7 19 19 19h46c12 0 19 -7 19 -19v-632c0 -12 -7 -19 -19 -19h-67c-10 0 -19 4 -23 14l-294 520h-7l4 -43v-472c0 -12 -7 -19 -19 -19h-46z" />
    <glyph glyph-name="uni01CA" unicode="&#x1ca;" horiz-adv-x="1245" 
d="M113 0c-12 0 -19 7 -19 19v632c0 12 7 19 19 19h68c10 0 18 -4 22 -14l294 -520h8l-5 43v472c0 12 7 19 19 19h46c12 0 19 -7 19 -19v-632c0 -12 -7 -19 -19 -19h-67c-10 0 -19 4 -23 14l-294 520h-7l4 -43v-472c0 -12 -7 -19 -19 -19h-46zM951 -12
c-128 0 -213 77 -213 193v18c0 14 7 21 21 21h42c13 0 21 -7 21 -21v-15c0 -71 51 -118 129 -118c77 0 127 47 127 118v465c0 13 8 21 21 21h43c13 0 21 -8 21 -21v-468c0 -116 -84 -193 -212 -193z" />
    <glyph glyph-name="Nacute" unicode="&#x143;" horiz-adv-x="679" 
d="M324 727c-14 0 -19 9 -12 22l60 100c5 10 13 14 23 14h47c16 0 22 -11 12 -24l-82 -102c-7 -8 -14 -10 -23 -10h-25zM113 0c-12 0 -19 7 -19 19v632c0 12 7 19 19 19h68c10 0 18 -4 22 -14l294 -520h8l-5 43v472c0 12 7 19 19 19h46c12 0 19 -7 19 -19v-632
c0 -12 -7 -19 -19 -19h-67c-10 0 -19 4 -23 14l-294 520h-7l4 -43v-472c0 -12 -7 -19 -19 -19h-46z" />
    <glyph glyph-name="Ncaron" unicode="&#x147;" horiz-adv-x="679" 
d="M308 727c-10 0 -17 3 -23 11l-85 101c-9 13 -4 24 11 24h27c10 0 17 -3 24 -10l74 -75h6l75 75c6 7 14 10 23 10h26c16 0 22 -11 12 -24l-84 -101c-6 -8 -14 -11 -23 -11h-63zM113 0c-12 0 -19 7 -19 19v632c0 12 7 19 19 19h68c10 0 18 -4 22 -14l294 -520h8l-5 43v472
c0 12 7 19 19 19h46c12 0 19 -7 19 -19v-632c0 -12 -7 -19 -19 -19h-67c-10 0 -19 4 -23 14l-294 520h-7l4 -43v-472c0 -12 -7 -19 -19 -19h-46z" />
    <glyph glyph-name="uni0145" unicode="&#x145;" horiz-adv-x="679" 
d="M113 0c-12 0 -19 7 -19 19v632c0 12 7 19 19 19h68c10 0 18 -4 22 -14l294 -520h8l-5 43v472c0 12 7 19 19 19h46c12 0 19 -7 19 -19v-632c0 -12 -7 -19 -19 -19h-67c-10 0 -19 4 -23 14l-294 520h-7l4 -43v-472c0 -12 -7 -19 -19 -19h-46zM289 -223c-13 0 -19 8 -16 21
l31 129c3 11 10 16 21 16h47c14 0 20 -9 14 -22l-52 -130c-4 -10 -12 -14 -22 -14h-23z" />
    <glyph glyph-name="uni1E44" unicode="&#x1e44;" horiz-adv-x="679" 
d="M339 746c-31 0 -51 20 -51 51s20 51 51 51s52 -20 52 -51s-21 -51 -52 -51zM113 0c-12 0 -19 7 -19 19v632c0 12 7 19 19 19h68c10 0 18 -4 22 -14l294 -520h8l-5 43v472c0 12 7 19 19 19h46c12 0 19 -7 19 -19v-632c0 -12 -7 -19 -19 -19h-67c-10 0 -19 4 -23 14
l-294 520h-7l4 -43v-472c0 -12 -7 -19 -19 -19h-46z" />
    <glyph glyph-name="Eng" unicode="&#x14a;" horiz-adv-x="679" 
d="M584 36h1v-107c0 -65 -47 -108 -119 -108h-55c-12 0 -19 7 -19 19v25c0 12 7 19 19 19h30c35 0 59 23 59 56v60h-2c-10 0 -19 4 -23 14l-294 520h-7l4 -43v-472c0 -12 -7 -19 -19 -19h-46c-12 0 -19 7 -19 19v632c0 12 7 19 19 19h68c10 0 18 -4 22 -14l294 -520h8l-5 43
v472c0 12 7 19 19 19h46c12 0 19 -7 19 -19v-615z" />
    <glyph glyph-name="uni01CB" unicode="&#x1cb;" horiz-adv-x="917" 
d="M801 596c-33 0 -53 21 -53 52s21 51 53 51s53 -20 53 -51s-21 -52 -53 -52zM113 0c-12 0 -19 7 -19 19v632c0 12 7 19 19 19h68c10 0 18 -4 22 -14l294 -520h8l-5 43v472c0 12 7 19 19 19h46c12 0 19 -7 19 -19v-632c0 -12 -7 -19 -19 -19h-67c-10 0 -19 4 -23 14
l-294 520h-7l4 -43v-472c0 -12 -7 -19 -19 -19h-46zM660 -180c-12 0 -19 7 -19 19v30c0 12 7 19 19 19h29c44 0 73 28 73 71v522c0 12 7 19 19 19h42c12 0 19 -7 19 -19v-535c0 -76 -54 -126 -135 -126h-47z" />
    <glyph glyph-name="Ntilde" unicode="&#xd1;" horiz-adv-x="679" 
d="M416 741c-59 0 -95 53 -137 53c-23 0 -39 -13 -42 -36c-3 -8 -7 -12 -18 -12h-30c-9 0 -15 6 -15 16c4 63 35 98 88 98c59 0 92 -52 137 -52c23 0 39 13 42 36c3 8 7 12 18 12h30c9 0 15 -7 14 -21c-5 -60 -35 -94 -87 -94zM113 0c-12 0 -19 7 -19 19v632
c0 12 7 19 19 19h68c10 0 18 -4 22 -14l294 -520h8l-5 43v472c0 12 7 19 19 19h46c12 0 19 -7 19 -19v-632c0 -12 -7 -19 -19 -19h-67c-10 0 -19 4 -23 14l-294 520h-7l4 -43v-472c0 -12 -7 -19 -19 -19h-46z" />
    <glyph glyph-name="O" unicode="O" horiz-adv-x="643" 
d="M322 -12c-153 0 -254 93 -254 235v224c0 142 101 235 254 235s253 -93 253 -235v-224c0 -142 -100 -235 -253 -235zM322 66c102 0 169 63 169 159v220c0 96 -67 159 -169 159c-103 0 -170 -63 -170 -159v-220c0 -96 67 -159 170 -159z" />
    <glyph glyph-name="Oacute" unicode="&#xd3;" horiz-adv-x="643" 
d="M307 727c-14 0 -19 9 -12 22l60 100c5 10 13 14 23 14h47c16 0 22 -11 12 -24l-82 -102c-7 -8 -14 -10 -23 -10h-25zM322 -12c-153 0 -254 93 -254 235v224c0 142 101 235 254 235s253 -93 253 -235v-224c0 -142 -100 -235 -253 -235zM322 66c102 0 169 63 169 159v220
c0 96 -67 159 -169 159c-103 0 -170 -63 -170 -159v-220c0 -96 67 -159 170 -159z" />
    <glyph glyph-name="Obreve" unicode="&#x14e;" horiz-adv-x="643" 
d="M322 721c-77 0 -128 42 -134 113c-1 12 7 19 19 19h30c9 0 14 -5 15 -13c2 -37 29 -60 70 -60c40 0 67 23 69 60c1 8 6 13 15 13h30c12 0 20 -7 18 -20c-5 -70 -56 -112 -132 -112zM322 -12c-153 0 -254 93 -254 235v224c0 142 101 235 254 235s253 -93 253 -235v-224
c0 -142 -100 -235 -253 -235zM322 66c102 0 169 63 169 159v220c0 96 -67 159 -169 159c-103 0 -170 -63 -170 -159v-220c0 -96 67 -159 170 -159z" />
    <glyph glyph-name="Ocircumflex" unicode="&#xd4;" horiz-adv-x="643" 
d="M193 727c-15 0 -20 11 -11 23l85 101c6 8 13 12 23 12h63c9 0 17 -4 22 -12l85 -101c10 -12 5 -23 -10 -23h-28c-9 0 -17 2 -23 10l-75 74h-6l-74 -74c-7 -8 -14 -10 -24 -10h-27zM322 -12c-153 0 -254 93 -254 235v224c0 142 101 235 254 235s253 -93 253 -235v-224
c0 -142 -100 -235 -253 -235zM322 66c102 0 169 63 169 159v220c0 96 -67 159 -169 159c-103 0 -170 -63 -170 -159v-220c0 -96 67 -159 170 -159z" />
    <glyph glyph-name="uni020C" unicode="&#x20c;" horiz-adv-x="643" 
d="M241 727c-10 0 -18 3 -23 13l-62 100c-8 13 -2 23 12 23h40c10 0 18 -4 22 -15l50 -100c6 -12 -1 -21 -15 -21h-24zM405 727c-10 0 -17 3 -23 13l-62 100c-7 13 -2 23 13 23h40c10 0 18 -4 22 -15l50 -100c5 -12 -2 -21 -15 -21h-25zM322 -12c-153 0 -254 93 -254 235
v224c0 142 101 235 254 235s253 -93 253 -235v-224c0 -142 -100 -235 -253 -235zM322 66c102 0 169 63 169 159v220c0 96 -67 159 -169 159c-103 0 -170 -63 -170 -159v-220c0 -96 67 -159 170 -159z" />
    <glyph glyph-name="Odieresis" unicode="&#xd6;" horiz-adv-x="643" 
d="M232 746c-29 0 -49 19 -49 49c0 29 20 49 49 49c30 0 49 -20 49 -49c0 -30 -19 -49 -49 -49zM411 746c-30 0 -50 19 -50 49c0 29 20 49 50 49c29 0 49 -20 49 -49c0 -30 -20 -49 -49 -49zM322 -12c-153 0 -254 93 -254 235v224c0 142 101 235 254 235s253 -93 253 -235
v-224c0 -142 -100 -235 -253 -235zM322 66c102 0 169 63 169 159v220c0 96 -67 159 -169 159c-103 0 -170 -63 -170 -159v-220c0 -96 67 -159 170 -159z" />
    <glyph glyph-name="uni1ECC" unicode="&#x1ecc;" horiz-adv-x="643" 
d="M322 -12c-153 0 -254 93 -254 235v224c0 142 101 235 254 235s253 -93 253 -235v-224c0 -142 -100 -235 -253 -235zM322 66c102 0 169 63 169 159v220c0 96 -67 159 -169 159c-103 0 -170 -63 -170 -159v-220c0 -96 67 -159 170 -159zM322 -178c-31 0 -51 20 -51 51
s20 51 51 51s52 -20 52 -51s-21 -51 -52 -51z" />
    <glyph glyph-name="Ograve" unicode="&#xd2;" horiz-adv-x="643" 
d="M311 727c-9 0 -17 2 -23 10l-82 102c-10 13 -5 24 11 24h49c9 0 17 -4 22 -14l60 -100c7 -13 2 -22 -13 -22h-24zM322 -12c-153 0 -254 93 -254 235v224c0 142 101 235 254 235s253 -93 253 -235v-224c0 -142 -100 -235 -253 -235zM322 66c102 0 169 63 169 159v220
c0 96 -67 159 -169 159c-103 0 -170 -63 -170 -159v-220c0 -96 67 -159 170 -159z" />
    <glyph glyph-name="Ohungarumlaut" unicode="&#x150;" horiz-adv-x="643" 
d="M212 727c-14 0 -19 9 -14 21l50 100c4 11 12 15 22 15h40c14 0 20 -10 13 -23l-63 -100c-5 -10 -12 -13 -22 -13h-26zM377 727c-14 0 -20 9 -15 21l50 100c4 11 12 15 22 15h40c15 0 21 -10 14 -23l-64 -100c-5 -10 -12 -13 -22 -13h-25zM322 -12
c-153 0 -254 93 -254 235v224c0 142 101 235 254 235s253 -93 253 -235v-224c0 -142 -100 -235 -253 -235zM322 66c102 0 169 63 169 159v220c0 96 -67 159 -169 159c-103 0 -170 -63 -170 -159v-220c0 -96 67 -159 170 -159z" />
    <glyph glyph-name="uni020E" unicode="&#x20e;" horiz-adv-x="643" 
d="M322 859c76 0 127 -42 132 -112c2 -13 -6 -20 -18 -20h-30c-9 0 -14 4 -15 13c-2 36 -29 60 -69 60c-41 0 -68 -23 -70 -60c-1 -9 -6 -13 -15 -13h-30c-12 0 -21 7 -19 19c6 70 57 113 134 113zM322 -12c-153 0 -254 93 -254 235v224c0 142 101 235 254 235
s253 -93 253 -235v-224c0 -142 -100 -235 -253 -235zM322 66c102 0 169 63 169 159v220c0 96 -67 159 -169 159c-103 0 -170 -63 -170 -159v-220c0 -96 67 -159 170 -159z" />
    <glyph glyph-name="Omacron" unicode="&#x14c;" horiz-adv-x="643" 
d="M206 757c-12 0 -19 7 -19 19v27c0 12 7 19 19 19h232c12 0 19 -7 19 -19v-27c0 -12 -7 -19 -19 -19h-232zM322 -12c-153 0 -254 93 -254 235v224c0 142 101 235 254 235s253 -93 253 -235v-224c0 -142 -100 -235 -253 -235zM322 66c102 0 169 63 169 159v220
c0 96 -67 159 -169 159c-103 0 -170 -63 -170 -159v-220c0 -96 67 -159 170 -159z" />
    <glyph glyph-name="uni01EA" unicode="&#x1ea;" horiz-adv-x="643" 
d="M322 682c153 0 253 -93 253 -235v-224c0 -116 -67 -199 -175 -226c-39 -21 -65 -58 -65 -93c0 -27 19 -45 46 -45c8 0 17 2 23 5c10 3 15 -1 15 -12v-25c0 -9 -2 -14 -9 -17c-11 -5 -31 -9 -51 -9c-59 0 -97 34 -97 86c0 40 22 77 57 101c-151 1 -251 94 -251 235v224
c0 142 101 235 254 235zM491 225v220c0 96 -67 159 -169 159c-103 0 -170 -63 -170 -159v-220c0 -96 67 -159 170 -159c102 0 169 63 169 159z" />
    <glyph glyph-name="Oslash" unicode="&#xd8;" horiz-adv-x="643" 
d="M517 606c37 -40 58 -94 58 -159v-224c0 -142 -100 -235 -253 -235c-58 0 -109 13 -149 38l-23 -39c-6 -12 -15 -17 -28 -17h-22c-15 0 -23 12 -13 29l39 65c-37 40 -58 95 -58 159v224c0 142 101 235 254 235c58 0 108 -13 148 -37l23 38c6 12 15 17 28 17h22
c15 0 23 -12 13 -29zM152 225c0 -31 7 -59 20 -82l256 431c-28 19 -64 30 -106 30c-103 0 -170 -63 -170 -159v-220zM491 225v220c0 31 -7 59 -20 82l-256 -431c28 -19 64 -30 107 -30c102 0 169 63 169 159z" />
    <glyph glyph-name="Oslashacute" unicode="&#x1fe;" horiz-adv-x="643" 
d="M305 727c-14 0 -19 9 -12 22l60 100c5 10 13 14 23 14h47c16 0 22 -11 12 -24l-82 -102c-7 -8 -14 -10 -23 -10h-25zM517 606c37 -40 58 -94 58 -159v-224c0 -142 -100 -235 -253 -235c-58 0 -109 13 -149 38l-23 -39c-6 -12 -15 -17 -28 -17h-22c-15 0 -23 12 -13 29
l39 65c-37 40 -58 95 -58 159v224c0 142 101 235 254 235c58 0 108 -13 148 -37l23 38c6 12 15 17 28 17h22c15 0 23 -12 13 -29zM152 225c0 -31 7 -59 20 -82l256 431c-28 19 -64 30 -106 30c-103 0 -170 -63 -170 -159v-220zM491 225v220c0 31 -7 59 -20 82l-256 -431
c28 -19 64 -30 107 -30c102 0 169 63 169 159z" />
    <glyph glyph-name="Otilde" unicode="&#xd5;" horiz-adv-x="643" 
d="M399 741c-59 0 -95 53 -137 53c-23 0 -39 -13 -42 -36c-3 -8 -7 -12 -18 -12h-30c-9 0 -15 6 -15 16c4 63 35 98 88 98c59 0 92 -52 137 -52c23 0 39 13 42 36c3 8 7 12 18 12h30c9 0 15 -7 14 -21c-5 -60 -35 -94 -87 -94zM322 -12c-153 0 -254 93 -254 235v224
c0 142 101 235 254 235s253 -93 253 -235v-224c0 -142 -100 -235 -253 -235zM322 66c102 0 169 63 169 159v220c0 96 -67 159 -169 159c-103 0 -170 -63 -170 -159v-220c0 -96 67 -159 170 -159z" />
    <glyph glyph-name="OE" unicode="&#x152;" horiz-adv-x="932" 
d="M843 592h-304v-217h267c13 0 21 -7 21 -21v-32c0 -14 -8 -21 -21 -21h-267v-223h304c13 0 21 -8 21 -21v-36c0 -13 -8 -21 -21 -21h-521c-153 0 -254 93 -254 235v200c0 142 101 235 254 235h521c13 0 21 -8 21 -21v-36c0 -13 -8 -21 -21 -21zM322 78h132v514h-132
c-103 0 -170 -63 -170 -159v-196c0 -96 67 -159 170 -159z" />
    <glyph glyph-name="P" unicode="P" horiz-adv-x="607" 
d="M346 670c131 0 217 -87 217 -221c0 -133 -86 -220 -217 -220h-168v-208c0 -13 -7 -21 -20 -21h-43c-13 0 -21 8 -21 21v628c0 13 8 21 21 21h231zM340 307c84 0 139 56 139 142c0 87 -55 143 -139 143h-162v-285h162z" />
    <glyph glyph-name="Thorn" unicode="&#xde;" horiz-adv-x="615" 
d="M367 546c124 0 206 -83 206 -210s-82 -212 -206 -212h-189v-103c0 -13 -7 -21 -20 -21h-43c-13 0 -21 8 -21 21v628c0 13 8 21 21 21h43c13 0 20 -8 20 -21v-103h189zM359 203c79 0 130 51 130 132s-51 132 -130 132h-181v-264h181z" />
    <glyph glyph-name="Q" unicode="Q" horiz-adv-x="643" 
d="M575 223c0 -85 -35 -152 -96 -192l50 -93c7 -13 0 -23 -15 -23h-38c-10 0 -18 5 -24 14l-39 72c-27 -9 -58 -13 -91 -13c-153 0 -254 93 -254 235v224c0 142 101 235 254 235s253 -93 253 -235v-224zM491 225v220c0 96 -67 159 -169 159c-103 0 -170 -63 -170 -159v-220
c0 -96 67 -159 170 -159c20 0 40 3 57 7l-44 80c-7 14 -1 24 14 24h35c10 0 19 -5 23 -15l32 -58c33 28 52 70 52 121z" />
    <glyph glyph-name="R" unicode="R" horiz-adv-x="626" 
d="M429 257l138 -233c8 -14 2 -24 -14 -24h-54c-11 0 -19 4 -25 16l-132 233h-164v-228c0 -13 -7 -21 -20 -21h-43c-13 0 -21 8 -21 21v628c0 13 8 21 21 21h252c124 0 206 -82 206 -209c0 -104 -55 -180 -144 -204zM178 592v-265h181c79 0 130 52 130 132
c0 81 -51 133 -130 133h-181z" />
    <glyph glyph-name="Racute" unicode="&#x154;" horiz-adv-x="626" 
d="M303 727c-14 0 -19 9 -12 22l60 100c5 10 13 14 23 14h47c16 0 22 -11 12 -24l-82 -102c-7 -8 -14 -10 -23 -10h-25zM429 257l138 -233c8 -14 2 -24 -14 -24h-54c-11 0 -19 4 -25 16l-132 233h-164v-228c0 -13 -7 -21 -20 -21h-43c-13 0 -21 8 -21 21v628
c0 13 8 21 21 21h252c124 0 206 -82 206 -209c0 -104 -55 -180 -144 -204zM178 592v-265h181c79 0 130 52 130 132c0 81 -51 133 -130 133h-181z" />
    <glyph glyph-name="Rcaron" unicode="&#x158;" horiz-adv-x="626" 
d="M263 738l-85 101c-9 13 -4 24 11 24h27c10 0 17 -3 24 -10l74 -75h6l75 75c6 7 14 10 23 10h26c16 0 22 -11 12 -24l-84 -101c-6 -8 -14 -11 -23 -11h-63c-10 0 -17 3 -23 11zM429 257l138 -233c8 -14 2 -24 -14 -24h-54c-11 0 -19 4 -25 16l-132 233h-164v-228
c0 -13 -7 -21 -20 -21h-43c-13 0 -21 8 -21 21v628c0 13 8 21 21 21h252c124 0 206 -82 206 -209c0 -104 -55 -180 -144 -204zM178 592v-265h181c79 0 130 52 130 132c0 81 -51 133 -130 133h-181z" />
    <glyph glyph-name="uni0156" unicode="&#x156;" horiz-adv-x="626" 
d="M429 257l138 -233c8 -14 2 -24 -14 -24h-54c-11 0 -19 4 -25 16l-132 233h-164v-228c0 -13 -7 -21 -20 -21h-43c-13 0 -21 8 -21 21v628c0 13 8 21 21 21h252c124 0 206 -82 206 -209c0 -104 -55 -180 -144 -204zM178 592v-265h181c79 0 130 52 130 132
c0 81 -51 133 -130 133h-181zM347 -57c14 0 20 -9 14 -22l-52 -130c-4 -10 -12 -14 -22 -14h-23c-13 0 -19 8 -16 21l31 129c3 11 10 16 21 16h47z" />
    <glyph glyph-name="uni0210" unicode="&#x210;" horiz-adv-x="626" 
d="M214 740l-62 100c-8 13 -2 23 12 23h40c10 0 18 -4 22 -15l50 -100c6 -12 -1 -21 -15 -21h-24c-10 0 -18 3 -23 13zM378 740l-62 100c-7 13 -2 23 13 23h40c10 0 18 -4 22 -15l50 -100c5 -12 -2 -21 -15 -21h-25c-10 0 -17 3 -23 13zM429 257l138 -233
c8 -14 2 -24 -14 -24h-54c-11 0 -19 4 -25 16l-132 233h-164v-228c0 -13 -7 -21 -20 -21h-43c-13 0 -21 8 -21 21v628c0 13 8 21 21 21h252c124 0 206 -82 206 -209c0 -104 -55 -180 -144 -204zM178 592v-265h181c79 0 130 52 130 132c0 81 -51 133 -130 133h-181z" />
    <glyph glyph-name="uni1E5A" unicode="&#x1e5a;" horiz-adv-x="626" 
d="M429 257l138 -233c8 -14 2 -24 -14 -24h-54c-11 0 -19 4 -25 16l-132 233h-164v-228c0 -13 -7 -21 -20 -21h-43c-13 0 -21 8 -21 21v628c0 13 8 21 21 21h252c124 0 206 -82 206 -209c0 -104 -55 -180 -144 -204zM178 592v-265h181c79 0 130 52 130 132
c0 81 -51 133 -130 133h-181zM318 -76c31 0 52 -20 52 -51s-21 -51 -52 -51s-51 20 -51 51s20 51 51 51z" />
    <glyph glyph-name="uni0212" unicode="&#x212;" horiz-adv-x="626" 
d="M203 727c-12 0 -21 7 -19 19c6 70 57 113 134 113c76 0 127 -42 132 -112c2 -13 -6 -20 -18 -20h-30c-9 0 -14 4 -15 13c-2 36 -29 60 -69 60c-41 0 -68 -23 -70 -60c-1 -9 -6 -13 -15 -13h-30zM429 257l138 -233c8 -14 2 -24 -14 -24h-54c-11 0 -19 4 -25 16l-132 233
h-164v-228c0 -13 -7 -21 -20 -21h-43c-13 0 -21 8 -21 21v628c0 13 8 21 21 21h252c124 0 206 -82 206 -209c0 -104 -55 -180 -144 -204zM178 592v-265h181c79 0 130 52 130 132c0 81 -51 133 -130 133h-181z" />
    <glyph glyph-name="S" unicode="S" horiz-adv-x="587" 
d="M294 -12c-141 0 -232 66 -240 186c-1 14 7 21 20 21h49c13 0 19 -6 21 -19c7 -77 65 -115 151 -115c85 0 149 43 149 112c0 171 -381 85 -381 325c0 113 93 184 228 184c133 0 218 -62 226 -173c1 -14 -7 -21 -20 -21h-47c-13 0 -19 7 -22 20c-7 67 -62 101 -139 101
c-78 0 -137 -39 -137 -104c0 -169 382 -78 382 -324c0 -116 -96 -193 -240 -193z" />
    <glyph glyph-name="Sacute" unicode="&#x15a;" horiz-adv-x="587" 
d="M278 727c-14 0 -19 9 -12 22l60 100c5 10 13 14 23 14h47c16 0 22 -11 12 -24l-82 -102c-7 -8 -14 -10 -23 -10h-25zM294 -12c-141 0 -232 66 -240 186c-1 14 7 21 20 21h49c13 0 19 -6 21 -19c7 -77 65 -115 151 -115c85 0 149 43 149 112c0 171 -381 85 -381 325
c0 113 93 184 228 184c133 0 218 -62 226 -173c1 -14 -7 -21 -20 -21h-47c-13 0 -19 7 -22 20c-7 67 -62 101 -139 101c-78 0 -137 -39 -137 -104c0 -169 382 -78 382 -324c0 -116 -96 -193 -240 -193z" />
    <glyph glyph-name="Scaron" unicode="&#x160;" horiz-adv-x="587" 
d="M262 727c-10 0 -17 3 -23 11l-85 101c-9 13 -4 24 11 24h27c10 0 17 -3 24 -10l74 -75h6l75 75c6 7 14 10 23 10h26c16 0 22 -11 12 -24l-84 -101c-6 -8 -14 -11 -23 -11h-63zM294 -12c-141 0 -232 66 -240 186c-1 14 7 21 20 21h49c13 0 19 -6 21 -19
c7 -77 65 -115 151 -115c85 0 149 43 149 112c0 171 -381 85 -381 325c0 113 93 184 228 184c133 0 218 -62 226 -173c1 -14 -7 -21 -20 -21h-47c-13 0 -19 7 -22 20c-7 67 -62 101 -139 101c-78 0 -137 -39 -137 -104c0 -169 382 -78 382 -324c0 -116 -96 -193 -240 -193z
" />
    <glyph glyph-name="Scedilla" unicode="&#x15e;" horiz-adv-x="587" 
d="M534 181c0 -112 -89 -187 -224 -193l-21 -41h27c50 0 82 -31 82 -77c0 -53 -46 -87 -113 -87c-22 0 -45 4 -62 10c-11 3 -16 11 -16 22v10c0 13 7 19 19 16c14 -7 33 -11 51 -11c38 0 64 16 64 42c0 22 -16 36 -41 36h-55c-9 0 -15 5 -15 15v5c0 5 2 10 4 15l25 46
c-121 11 -198 75 -205 185c-1 14 7 21 20 21h49c13 0 19 -6 21 -19c7 -77 65 -115 151 -115c85 0 149 43 149 112c0 171 -381 85 -381 325c0 113 93 184 228 184c133 0 218 -62 226 -173c1 -14 -7 -21 -20 -21h-47c-13 0 -19 7 -22 20c-7 67 -62 101 -139 101
c-78 0 -137 -39 -137 -104c0 -169 382 -78 382 -324z" />
    <glyph glyph-name="Scircumflex" unicode="&#x15c;" horiz-adv-x="587" 
d="M165 727c-15 0 -20 11 -11 23l85 101c6 8 13 12 23 12h63c9 0 17 -4 22 -12l85 -101c10 -12 5 -23 -10 -23h-28c-9 0 -17 2 -23 10l-75 74h-6l-74 -74c-7 -8 -14 -10 -24 -10h-27zM294 -12c-141 0 -232 66 -240 186c-1 14 7 21 20 21h49c13 0 19 -6 21 -19
c7 -77 65 -115 151 -115c85 0 149 43 149 112c0 171 -381 85 -381 325c0 113 93 184 228 184c133 0 218 -62 226 -173c1 -14 -7 -21 -20 -21h-47c-13 0 -19 7 -22 20c-7 67 -62 101 -139 101c-78 0 -137 -39 -137 -104c0 -169 382 -78 382 -324c0 -116 -96 -193 -240 -193z
" />
    <glyph glyph-name="uni0218" unicode="&#x218;" horiz-adv-x="587" 
d="M294 -12c-141 0 -232 66 -240 186c-1 14 7 21 20 21h49c13 0 19 -6 21 -19c7 -77 65 -115 151 -115c85 0 149 43 149 112c0 171 -381 85 -381 325c0 113 93 184 228 184c133 0 218 -62 226 -173c1 -14 -7 -21 -20 -21h-47c-13 0 -19 7 -22 20c-7 67 -62 101 -139 101
c-78 0 -137 -39 -137 -104c0 -169 382 -78 382 -324c0 -116 -96 -193 -240 -193zM240 -223c-13 0 -19 8 -16 21l31 129c3 11 10 16 21 16h47c14 0 20 -9 14 -22l-52 -130c-4 -10 -12 -14 -22 -14h-23z" />
    <glyph glyph-name="uni1E62" unicode="&#x1e62;" horiz-adv-x="587" 
d="M294 -12c-141 0 -232 66 -240 186c-1 14 7 21 20 21h49c13 0 19 -6 21 -19c7 -77 65 -115 151 -115c85 0 149 43 149 112c0 171 -381 85 -381 325c0 113 93 184 228 184c133 0 218 -62 226 -173c1 -14 -7 -21 -20 -21h-47c-13 0 -19 7 -22 20c-7 67 -62 101 -139 101
c-78 0 -137 -39 -137 -104c0 -169 382 -78 382 -324c0 -116 -96 -193 -240 -193zM293 -178c-31 0 -51 20 -51 51s20 51 51 51s52 -20 52 -51s-21 -51 -52 -51z" />
    <glyph glyph-name="uni1E9E" unicode="&#x1e9e;" horiz-adv-x="649" 
d="M429 409c106 -7 176 -87 176 -203c0 -124 -83 -206 -208 -206h-92c-13 0 -21 8 -21 21v34c0 13 8 21 21 21h80c82 0 135 53 135 132c0 82 -53 136 -135 136h-45c-13 0 -21 8 -21 21v23c0 9 3 18 8 26l129 175v5h-278v-573c0 -13 -7 -21 -20 -21h-43c-13 0 -21 8 -21 21
v628c0 13 8 21 21 21h415c13 0 21 -8 21 -21v-27c0 -10 -2 -18 -8 -26l-136 -179v-7z" />
    <glyph glyph-name="T" unicode="T" horiz-adv-x="553" 
d="M494 670c13 0 20 -8 20 -21v-36c0 -13 -7 -21 -20 -21h-175v-571c0 -13 -7 -21 -21 -21h-42c-13 0 -21 8 -21 21v571h-175c-13 0 -21 8 -21 21v36c0 13 8 21 21 21h434z" />
    <glyph glyph-name="Tbar" unicode="&#x166;" horiz-adv-x="553" 
d="M494 670c13 0 20 -8 20 -21v-36c0 -13 -7 -21 -20 -21h-175v-241h103c12 0 19 -7 19 -19v-31c0 -12 -7 -19 -19 -19h-103v-261c0 -13 -7 -21 -21 -21h-42c-13 0 -21 8 -21 21v261h-105c-12 0 -19 7 -19 19v31c0 12 7 19 19 19h105v241h-175c-13 0 -21 8 -21 21v36
c0 13 8 21 21 21h434z" />
    <glyph glyph-name="Tcaron" unicode="&#x164;" horiz-adv-x="553" 
d="M222 738l-85 101c-9 13 -4 24 11 24h27c10 0 17 -3 24 -10l74 -75h6l75 75c6 7 14 10 23 10h26c16 0 22 -11 12 -24l-84 -101c-6 -8 -14 -11 -23 -11h-63c-10 0 -17 3 -23 11zM494 670c13 0 20 -8 20 -21v-36c0 -13 -7 -21 -20 -21h-175v-571c0 -13 -7 -21 -21 -21h-42
c-13 0 -21 8 -21 21v571h-175c-13 0 -21 8 -21 21v36c0 13 8 21 21 21h434z" />
    <glyph glyph-name="uni0162" unicode="&#x162;" horiz-adv-x="553" 
d="M494 670c13 0 20 -8 20 -21v-36c0 -13 -7 -21 -20 -21h-175v-571c0 -13 -7 -21 -20 -21l-27 -53h27c50 0 82 -31 82 -77c0 -53 -46 -87 -113 -87c-22 0 -45 4 -62 10c-11 3 -16 11 -16 22v10c0 13 7 19 19 16c14 -7 33 -11 51 -11c38 0 64 16 64 42c0 22 -16 36 -41 36
h-55c-9 0 -15 5 -15 15v5c0 5 2 10 4 15l31 57l-1 1c-7 3 -12 10 -12 20v571h-175c-13 0 -21 8 -21 21v36c0 13 8 21 21 21h434z" />
    <glyph glyph-name="uni021A" unicode="&#x21a;" horiz-adv-x="553" 
d="M494 670c13 0 20 -8 20 -21v-36c0 -13 -7 -21 -20 -21h-175v-571c0 -13 -7 -21 -21 -21h-42c-13 0 -21 8 -21 21v571h-175c-13 0 -21 8 -21 21v36c0 13 8 21 21 21h434zM306 -57c14 0 20 -9 14 -22l-52 -130c-4 -10 -12 -14 -22 -14h-23c-13 0 -19 8 -16 21l31 129
c3 11 10 16 21 16h47z" />
    <glyph glyph-name="uni1E6C" unicode="&#x1e6c;" horiz-adv-x="553" 
d="M494 670c13 0 20 -8 20 -21v-36c0 -13 -7 -21 -20 -21h-175v-571c0 -13 -7 -21 -21 -21h-42c-13 0 -21 8 -21 21v571h-175c-13 0 -21 8 -21 21v36c0 13 8 21 21 21h434zM276 -76c31 0 52 -20 52 -51s-21 -51 -52 -51s-51 20 -51 51s20 51 51 51z" />
    <glyph glyph-name="U" unicode="U" horiz-adv-x="654" 
d="M327 -12c-147 0 -244 89 -244 225v436c0 13 8 21 21 21h42c14 0 21 -8 21 -21v-434c0 -90 64 -149 160 -149s159 59 159 149v434c0 13 8 21 21 21h43c13 0 21 -8 21 -21v-436c0 -136 -97 -225 -244 -225z" />
    <glyph glyph-name="Uacute" unicode="&#xda;" horiz-adv-x="654" 
d="M312 727c-14 0 -19 9 -12 22l60 100c5 10 13 14 23 14h47c16 0 22 -11 12 -24l-82 -102c-7 -8 -14 -10 -23 -10h-25zM327 -12c-147 0 -244 89 -244 225v436c0 13 8 21 21 21h42c14 0 21 -8 21 -21v-434c0 -90 64 -149 160 -149s159 59 159 149v434c0 13 8 21 21 21h43
c13 0 21 -8 21 -21v-436c0 -136 -97 -225 -244 -225z" />
    <glyph glyph-name="Ubreve" unicode="&#x16c;" horiz-adv-x="654" 
d="M327 721c-77 0 -128 42 -134 113c-1 12 7 19 19 19h30c9 0 14 -5 15 -13c2 -37 29 -60 70 -60c40 0 67 23 69 60c1 8 6 13 15 13h30c12 0 20 -7 18 -20c-5 -70 -56 -112 -132 -112zM327 -12c-147 0 -244 89 -244 225v436c0 13 8 21 21 21h42c14 0 21 -8 21 -21v-434
c0 -90 64 -149 160 -149s159 59 159 149v434c0 13 8 21 21 21h43c13 0 21 -8 21 -21v-436c0 -136 -97 -225 -244 -225z" />
    <glyph glyph-name="Ucircumflex" unicode="&#xdb;" horiz-adv-x="654" 
d="M199 727c-15 0 -20 11 -11 23l85 101c6 8 13 12 23 12h63c9 0 17 -4 22 -12l85 -101c10 -12 5 -23 -10 -23h-28c-9 0 -17 2 -23 10l-75 74h-6l-74 -74c-7 -8 -14 -10 -24 -10h-27zM327 -12c-147 0 -244 89 -244 225v436c0 13 8 21 21 21h42c14 0 21 -8 21 -21v-434
c0 -90 64 -149 160 -149s159 59 159 149v434c0 13 8 21 21 21h43c13 0 21 -8 21 -21v-436c0 -136 -97 -225 -244 -225z" />
    <glyph glyph-name="uni0214" unicode="&#x214;" horiz-adv-x="654" 
d="M246 727c-10 0 -18 3 -23 13l-62 100c-8 13 -2 23 12 23h40c10 0 18 -4 22 -15l50 -100c6 -12 -1 -21 -15 -21h-24zM410 727c-10 0 -17 3 -23 13l-62 100c-7 13 -2 23 13 23h40c10 0 18 -4 22 -15l50 -100c5 -12 -2 -21 -15 -21h-25zM327 -12c-147 0 -244 89 -244 225
v436c0 13 8 21 21 21h42c14 0 21 -8 21 -21v-434c0 -90 64 -149 160 -149s159 59 159 149v434c0 13 8 21 21 21h43c13 0 21 -8 21 -21v-436c0 -136 -97 -225 -244 -225z" />
    <glyph glyph-name="Udieresis" unicode="&#xdc;" horiz-adv-x="654" 
d="M238 746c-29 0 -49 19 -49 49c0 29 20 49 49 49c30 0 49 -20 49 -49c0 -30 -19 -49 -49 -49zM417 746c-30 0 -50 19 -50 49c0 29 20 49 50 49c29 0 49 -20 49 -49c0 -30 -20 -49 -49 -49zM327 -12c-147 0 -244 89 -244 225v436c0 13 8 21 21 21h42c14 0 21 -8 21 -21
v-434c0 -90 64 -149 160 -149s159 59 159 149v434c0 13 8 21 21 21h43c13 0 21 -8 21 -21v-436c0 -136 -97 -225 -244 -225z" />
    <glyph glyph-name="uni1EE4" unicode="&#x1ee4;" horiz-adv-x="654" 
d="M327 -12c-147 0 -244 89 -244 225v436c0 13 8 21 21 21h42c14 0 21 -8 21 -21v-434c0 -90 64 -149 160 -149s159 59 159 149v434c0 13 8 21 21 21h43c13 0 21 -8 21 -21v-436c0 -136 -97 -225 -244 -225zM327 -178c-31 0 -51 20 -51 51s20 51 51 51s52 -20 52 -51
s-21 -51 -52 -51z" />
    <glyph glyph-name="Ugrave" unicode="&#xd9;" horiz-adv-x="654" 
d="M317 727c-9 0 -17 2 -23 10l-82 102c-10 13 -5 24 11 24h49c9 0 17 -4 22 -14l60 -100c7 -13 2 -22 -13 -22h-24zM327 -12c-147 0 -244 89 -244 225v436c0 13 8 21 21 21h42c14 0 21 -8 21 -21v-434c0 -90 64 -149 160 -149s159 59 159 149v434c0 13 8 21 21 21h43
c13 0 21 -8 21 -21v-436c0 -136 -97 -225 -244 -225z" />
    <glyph glyph-name="Uhungarumlaut" unicode="&#x170;" horiz-adv-x="654" 
d="M218 727c-14 0 -19 9 -14 21l50 100c4 11 12 15 22 15h40c14 0 20 -10 13 -23l-63 -100c-5 -10 -12 -13 -22 -13h-26zM383 727c-14 0 -20 9 -15 21l50 100c4 11 12 15 22 15h40c15 0 21 -10 14 -23l-64 -100c-5 -10 -12 -13 -22 -13h-25zM327 -12
c-147 0 -244 89 -244 225v436c0 13 8 21 21 21h42c14 0 21 -8 21 -21v-434c0 -90 64 -149 160 -149s159 59 159 149v434c0 13 8 21 21 21h43c13 0 21 -8 21 -21v-436c0 -136 -97 -225 -244 -225z" />
    <glyph glyph-name="uni0216" unicode="&#x216;" horiz-adv-x="654" 
d="M327 859c76 0 127 -42 132 -112c2 -13 -6 -20 -18 -20h-30c-9 0 -14 4 -15 13c-2 36 -29 60 -69 60c-41 0 -68 -23 -70 -60c-1 -9 -6 -13 -15 -13h-30c-12 0 -21 7 -19 19c6 70 57 113 134 113zM327 -12c-147 0 -244 89 -244 225v436c0 13 8 21 21 21h42
c14 0 21 -8 21 -21v-434c0 -90 64 -149 160 -149s159 59 159 149v434c0 13 8 21 21 21h43c13 0 21 -8 21 -21v-436c0 -136 -97 -225 -244 -225z" />
    <glyph glyph-name="Umacron" unicode="&#x16a;" horiz-adv-x="654" 
d="M211 757c-12 0 -19 7 -19 19v27c0 12 7 19 19 19h232c12 0 19 -7 19 -19v-27c0 -12 -7 -19 -19 -19h-232zM327 -12c-147 0 -244 89 -244 225v436c0 13 8 21 21 21h42c14 0 21 -8 21 -21v-434c0 -90 64 -149 160 -149s159 59 159 149v434c0 13 8 21 21 21h43
c13 0 21 -8 21 -21v-436c0 -136 -97 -225 -244 -225z" />
    <glyph glyph-name="Uogonek" unicode="&#x172;" horiz-adv-x="654" 
d="M550 670c13 0 21 -8 21 -21v-436c0 -110 -64 -190 -166 -216c-40 -21 -66 -57 -66 -93c0 -27 19 -45 46 -45c8 0 17 2 23 5c10 3 15 -1 15 -12v-25c0 -9 -2 -14 -9 -17c-11 -5 -31 -9 -51 -9c-59 0 -97 34 -97 86c0 40 22 77 57 101c-145 2 -240 90 -240 225v436
c0 13 8 21 21 21h42c14 0 21 -8 21 -21v-434c0 -90 64 -149 160 -149s159 59 159 149v434c0 13 8 21 21 21h43z" />
    <glyph glyph-name="Uring" unicode="&#x16e;" horiz-adv-x="654" 
d="M328 721c-61 0 -101 38 -101 96s40 96 101 96c59 0 100 -38 100 -96s-41 -96 -100 -96zM328 762c32 0 55 22 55 55s-23 55 -55 55c-34 0 -56 -22 -56 -55s22 -55 56 -55zM327 -12c-147 0 -244 89 -244 225v436c0 13 8 21 21 21h42c14 0 21 -8 21 -21v-434
c0 -90 64 -149 160 -149s159 59 159 149v434c0 13 8 21 21 21h43c13 0 21 -8 21 -21v-436c0 -136 -97 -225 -244 -225z" />
    <glyph glyph-name="Utilde" unicode="&#x168;" horiz-adv-x="654" 
d="M404 741c-59 0 -95 53 -137 53c-23 0 -39 -13 -42 -36c-3 -8 -7 -12 -18 -12h-30c-9 0 -15 6 -15 16c4 63 35 98 88 98c59 0 92 -52 137 -52c23 0 39 13 42 36c3 8 7 12 18 12h30c9 0 15 -7 14 -21c-5 -60 -35 -94 -87 -94zM327 -12c-147 0 -244 89 -244 225v436
c0 13 8 21 21 21h42c14 0 21 -8 21 -21v-434c0 -90 64 -149 160 -149s159 59 159 149v434c0 13 8 21 21 21h43c13 0 21 -8 21 -21v-436c0 -136 -97 -225 -244 -225z" />
    <glyph glyph-name="V" unicode="V" horiz-adv-x="634" 
d="M281 0c-12 0 -20 6 -23 18l-214 629c-4 14 4 23 18 23h51c13 0 21 -6 23 -18l180 -558h6l180 558c2 12 10 18 22 18h48c15 0 22 -9 18 -23l-213 -629c-4 -12 -12 -18 -24 -18h-72z" />
    <glyph glyph-name="W" unicode="W" horiz-adv-x="988" 
d="M251 0c-13 0 -21 6 -23 18l-178 629c-2 14 4 23 18 23h52c13 0 20 -7 22 -19l144 -539h7l157 539c3 13 10 19 23 19h45c13 0 20 -6 23 -19l158 -539h7l143 539c2 13 9 19 22 19h49c14 0 20 -9 17 -23l-177 -629c-2 -12 -10 -18 -23 -18h-65c-13 0 -20 6 -23 19l-152 505
h-6l-152 -505c-3 -13 -11 -19 -23 -19h-65z" />
    <glyph glyph-name="Wacute" unicode="&#x1e82;" horiz-adv-x="988" 
d="M479 727c-14 0 -19 9 -12 22l60 100c5 10 13 14 23 14h47c16 0 22 -11 12 -24l-82 -102c-7 -8 -14 -10 -23 -10h-25zM251 0c-13 0 -21 6 -23 18l-178 629c-2 14 4 23 18 23h52c13 0 20 -7 22 -19l144 -539h7l157 539c3 13 10 19 23 19h45c13 0 20 -6 23 -19l158 -539h7
l143 539c2 13 9 19 22 19h49c14 0 20 -9 17 -23l-177 -629c-2 -12 -10 -18 -23 -18h-65c-13 0 -20 6 -23 19l-152 505h-6l-152 -505c-3 -13 -11 -19 -23 -19h-65z" />
    <glyph glyph-name="Wcircumflex" unicode="&#x174;" horiz-adv-x="988" 
d="M365 727c-15 0 -20 11 -11 23l85 101c6 8 13 12 23 12h63c9 0 17 -4 22 -12l85 -101c10 -12 5 -23 -10 -23h-28c-9 0 -17 2 -23 10l-75 74h-6l-74 -74c-7 -8 -14 -10 -24 -10h-27zM251 0c-13 0 -21 6 -23 18l-178 629c-2 14 4 23 18 23h52c13 0 20 -7 22 -19l144 -539h7
l157 539c3 13 10 19 23 19h45c13 0 20 -6 23 -19l158 -539h7l143 539c2 13 9 19 22 19h49c14 0 20 -9 17 -23l-177 -629c-2 -12 -10 -18 -23 -18h-65c-13 0 -20 6 -23 19l-152 505h-6l-152 -505c-3 -13 -11 -19 -23 -19h-65z" />
    <glyph glyph-name="Wdieresis" unicode="&#x1e84;" horiz-adv-x="988" 
d="M404 746c-29 0 -49 19 -49 49c0 29 20 49 49 49c30 0 49 -20 49 -49c0 -30 -19 -49 -49 -49zM583 746c-30 0 -50 19 -50 49c0 29 20 49 50 49c29 0 49 -20 49 -49c0 -30 -20 -49 -49 -49zM251 0c-13 0 -21 6 -23 18l-178 629c-2 14 4 23 18 23h52c13 0 20 -7 22 -19
l144 -539h7l157 539c3 13 10 19 23 19h45c13 0 20 -6 23 -19l158 -539h7l143 539c2 13 9 19 22 19h49c14 0 20 -9 17 -23l-177 -629c-2 -12 -10 -18 -23 -18h-65c-13 0 -20 6 -23 19l-152 505h-6l-152 -505c-3 -13 -11 -19 -23 -19h-65z" />
    <glyph glyph-name="Wgrave" unicode="&#x1e80;" horiz-adv-x="988" 
d="M483 727c-9 0 -17 2 -23 10l-82 102c-10 13 -5 24 11 24h49c9 0 17 -4 22 -14l60 -100c7 -13 2 -22 -13 -22h-24zM251 0c-13 0 -21 6 -23 18l-178 629c-2 14 4 23 18 23h52c13 0 20 -7 22 -19l144 -539h7l157 539c3 13 10 19 23 19h45c13 0 20 -6 23 -19l158 -539h7
l143 539c2 13 9 19 22 19h49c14 0 20 -9 17 -23l-177 -629c-2 -12 -10 -18 -23 -18h-65c-13 0 -20 6 -23 19l-152 505h-6l-152 -505c-3 -13 -11 -19 -23 -19h-65z" />
    <glyph glyph-name="X" unicode="X" horiz-adv-x="630" 
d="M70 0c-16 0 -22 11 -13 26l203 307l-205 311c-8 15 -2 26 14 26h59c11 0 19 -5 24 -15l161 -245h9l160 245c6 10 14 15 25 15h51c16 0 22 -11 13 -26l-200 -305l206 -313c9 -15 2 -26 -14 -26h-59c-11 0 -19 5 -24 15l-162 247h-9l-163 -247c-5 -10 -14 -15 -25 -15h-51z
" />
    <glyph glyph-name="Y" unicode="Y" horiz-adv-x="587" 
d="M273 0c-14 0 -21 8 -21 21v258l-209 367c-8 14 -1 24 15 24h52c11 0 20 -5 24 -16l159 -283h6l157 283c5 11 14 16 25 16h48c16 0 23 -10 16 -24l-209 -366v-259c0 -13 -8 -21 -21 -21h-42z" />
    <glyph glyph-name="Yacute" unicode="&#xdd;" horiz-adv-x="587" 
d="M279 727c-14 0 -19 9 -12 22l60 100c5 10 13 14 23 14h47c16 0 22 -11 12 -24l-82 -102c-7 -8 -14 -10 -23 -10h-25zM273 0c-14 0 -21 8 -21 21v258l-209 367c-8 14 -1 24 15 24h52c11 0 20 -5 24 -16l159 -283h6l157 283c5 11 14 16 25 16h48c16 0 23 -10 16 -24
l-209 -366v-259c0 -13 -8 -21 -21 -21h-42z" />
    <glyph glyph-name="Ycircumflex" unicode="&#x176;" horiz-adv-x="587" 
d="M166 727c-15 0 -20 11 -11 23l85 101c6 8 13 12 23 12h63c9 0 17 -4 22 -12l85 -101c10 -12 5 -23 -10 -23h-28c-9 0 -17 2 -23 10l-75 74h-6l-74 -74c-7 -8 -14 -10 -24 -10h-27zM273 0c-14 0 -21 8 -21 21v258l-209 367c-8 14 -1 24 15 24h52c11 0 20 -5 24 -16
l159 -283h6l157 283c5 11 14 16 25 16h48c16 0 23 -10 16 -24l-209 -366v-259c0 -13 -8 -21 -21 -21h-42z" />
    <glyph glyph-name="Ydieresis" unicode="&#x178;" horiz-adv-x="587" 
d="M205 746c-29 0 -49 19 -49 49c0 29 20 49 49 49c30 0 49 -20 49 -49c0 -30 -19 -49 -49 -49zM384 746c-30 0 -50 19 -50 49c0 29 20 49 50 49c29 0 49 -20 49 -49c0 -30 -20 -49 -49 -49zM273 0c-14 0 -21 8 -21 21v258l-209 367c-8 14 -1 24 15 24h52c11 0 20 -5 24 -16
l159 -283h6l157 283c5 11 14 16 25 16h48c16 0 23 -10 16 -24l-209 -366v-259c0 -13 -8 -21 -21 -21h-42z" />
    <glyph glyph-name="Ygrave" unicode="&#x1ef2;" horiz-adv-x="587" 
d="M283 727c-9 0 -17 2 -23 10l-82 102c-10 13 -5 24 11 24h49c9 0 17 -4 22 -14l60 -100c7 -13 2 -22 -13 -22h-24zM273 0c-14 0 -21 8 -21 21v258l-209 367c-8 14 -1 24 15 24h52c11 0 20 -5 24 -16l159 -283h6l157 283c5 11 14 16 25 16h48c16 0 23 -10 16 -24l-209 -366
v-259c0 -13 -8 -21 -21 -21h-42z" />
    <glyph glyph-name="uni0232" unicode="&#x232;" horiz-adv-x="587" 
d="M178 757c-12 0 -19 7 -19 19v27c0 12 7 19 19 19h232c12 0 19 -7 19 -19v-27c0 -12 -7 -19 -19 -19h-232zM273 0c-14 0 -21 8 -21 21v258l-209 367c-8 14 -1 24 15 24h52c11 0 20 -5 24 -16l159 -283h6l157 283c5 11 14 16 25 16h48c16 0 23 -10 16 -24l-209 -366v-259
c0 -13 -8 -21 -21 -21h-42z" />
    <glyph glyph-name="uni1EF8" unicode="&#x1ef8;" horiz-adv-x="587" 
d="M371 741c-59 0 -95 53 -137 53c-23 0 -39 -13 -42 -36c-3 -8 -7 -12 -18 -12h-30c-9 0 -15 6 -15 16c4 63 35 98 88 98c59 0 92 -52 137 -52c23 0 39 13 42 36c3 8 7 12 18 12h30c9 0 15 -7 14 -21c-5 -60 -35 -94 -87 -94zM273 0c-14 0 -21 8 -21 21v258l-209 367
c-8 14 -1 24 15 24h52c11 0 20 -5 24 -16l159 -283h6l157 283c5 11 14 16 25 16h48c16 0 23 -10 16 -24l-209 -366v-259c0 -13 -8 -21 -21 -21h-42z" />
    <glyph glyph-name="Z" unicode="Z" horiz-adv-x="572" 
d="M81 0c-13 0 -21 8 -21 21v30c0 10 3 18 8 26l328 509v6h-310c-13 0 -21 8 -21 21v36c0 13 8 21 21 21h400c13 0 21 -8 21 -21v-30c0 -10 -3 -18 -9 -26l-327 -509v-6h320c13 0 21 -8 21 -21v-36c0 -13 -8 -21 -21 -21h-410z" />
    <glyph glyph-name="Zacute" unicode="&#x179;" horiz-adv-x="572" 
d="M271 727c-14 0 -19 9 -12 22l60 100c5 10 13 14 23 14h47c16 0 22 -11 12 -24l-82 -102c-7 -8 -14 -10 -23 -10h-25zM81 0c-13 0 -21 8 -21 21v30c0 10 3 18 8 26l328 509v6h-310c-13 0 -21 8 -21 21v36c0 13 8 21 21 21h400c13 0 21 -8 21 -21v-30c0 -10 -3 -18 -9 -26
l-327 -509v-6h320c13 0 21 -8 21 -21v-36c0 -13 -8 -21 -21 -21h-410z" />
    <glyph glyph-name="Zcaron" unicode="&#x17d;" horiz-adv-x="572" 
d="M255 727c-10 0 -17 3 -23 11l-85 101c-9 13 -4 24 11 24h27c10 0 17 -3 24 -10l74 -75h6l75 75c6 7 14 10 23 10h26c16 0 22 -11 12 -24l-84 -101c-6 -8 -14 -11 -23 -11h-63zM81 0c-13 0 -21 8 -21 21v30c0 10 3 18 8 26l328 509v6h-310c-13 0 -21 8 -21 21v36
c0 13 8 21 21 21h400c13 0 21 -8 21 -21v-30c0 -10 -3 -18 -9 -26l-327 -509v-6h320c13 0 21 -8 21 -21v-36c0 -13 -8 -21 -21 -21h-410z" />
    <glyph glyph-name="Zdotaccent" unicode="&#x17b;" horiz-adv-x="572" 
d="M286 746c-31 0 -51 20 -51 51s20 51 51 51s52 -20 52 -51s-21 -51 -52 -51zM81 0c-13 0 -21 8 -21 21v30c0 10 3 18 8 26l328 509v6h-310c-13 0 -21 8 -21 21v36c0 13 8 21 21 21h400c13 0 21 -8 21 -21v-30c0 -10 -3 -18 -9 -26l-327 -509v-6h320c13 0 21 -8 21 -21v-36
c0 -13 -8 -21 -21 -21h-410z" />
    <glyph glyph-name="uni1E92" unicode="&#x1e92;" horiz-adv-x="572" 
d="M81 0c-13 0 -21 8 -21 21v30c0 10 3 18 8 26l328 509v6h-310c-13 0 -21 8 -21 21v36c0 13 8 21 21 21h400c13 0 21 -8 21 -21v-30c0 -10 -3 -18 -9 -26l-327 -509v-6h320c13 0 21 -8 21 -21v-36c0 -13 -8 -21 -21 -21h-410zM286 -178c-31 0 -51 20 -51 51s20 51 51 51
s52 -20 52 -51s-21 -51 -52 -51z" />
    <glyph glyph-name="K.ss02" horiz-adv-x="603" 
d="M562 25c7 -15 0 -25 -14 -25h-57c-12 0 -20 5 -24 15l-178 284h-111v-278c0 -13 -7 -21 -20 -21h-43c-13 0 -21 8 -21 21v628c0 13 8 21 21 21h43c13 0 20 -8 20 -21v-272h109l181 278c5 10 13 15 24 15h51c15 0 22 -11 14 -25l-201 -299z" />
    <glyph glyph-name="uni0136.ss02" horiz-adv-x="603" 
d="M562 25c7 -15 0 -25 -14 -25h-57c-12 0 -20 5 -24 15l-178 284h-111v-278c0 -13 -7 -21 -20 -21h-43c-13 0 -21 8 -21 21v628c0 13 8 21 21 21h43c13 0 20 -8 20 -21v-272h109l181 278c5 10 13 15 24 15h51c15 0 22 -11 14 -25l-201 -299zM364 -57c14 0 20 -9 14 -22
l-52 -130c-4 -10 -12 -14 -22 -14h-23c-13 0 -19 8 -16 21l31 129c3 11 10 16 21 16h47z" />
    <glyph glyph-name="I.ss03" horiz-adv-x="395" 
d="M319 592h-79v-514h79c13 0 21 -8 21 -21v-36c0 -13 -8 -21 -21 -21h-243c-13 0 -21 8 -21 21v36c0 13 8 21 21 21h80v514h-80c-13 0 -21 8 -21 21v36c0 13 8 21 21 21h243c13 0 21 -8 21 -21v-36c0 -13 -8 -21 -21 -21z" />
    <glyph glyph-name="Iacute.ss03" horiz-adv-x="395" 
d="M182 727c-14 0 -19 9 -12 22l60 100c5 10 13 14 23 14h47c16 0 22 -11 12 -24l-82 -102c-7 -8 -14 -10 -23 -10h-25zM319 592h-79v-514h79c13 0 21 -8 21 -21v-36c0 -13 -8 -21 -21 -21h-243c-13 0 -21 8 -21 21v36c0 13 8 21 21 21h80v514h-80c-13 0 -21 8 -21 21v36
c0 13 8 21 21 21h243c13 0 21 -8 21 -21v-36c0 -13 -8 -21 -21 -21z" />
    <glyph glyph-name="Ibreve.ss03" horiz-adv-x="395" 
d="M198 721c-77 0 -128 42 -134 113c-1 12 7 19 19 19h30c9 0 14 -5 15 -13c2 -37 29 -60 70 -60c40 0 67 23 69 60c1 8 6 13 15 13h30c12 0 20 -7 18 -20c-5 -70 -56 -112 -132 -112zM319 592h-79v-514h79c13 0 21 -8 21 -21v-36c0 -13 -8 -21 -21 -21h-243
c-13 0 -21 8 -21 21v36c0 13 8 21 21 21h80v514h-80c-13 0 -21 8 -21 21v36c0 13 8 21 21 21h243c13 0 21 -8 21 -21v-36c0 -13 -8 -21 -21 -21z" />
    <glyph glyph-name="Icircumflex.ss03" horiz-adv-x="395" 
d="M69 727c-15 0 -20 11 -11 23l85 101c6 8 13 12 23 12h63c9 0 17 -4 22 -12l85 -101c10 -12 5 -23 -10 -23h-28c-9 0 -17 2 -23 10l-75 74h-6l-74 -74c-7 -8 -14 -10 -24 -10h-27zM319 670c13 0 21 -8 21 -21v-36c0 -13 -8 -21 -21 -21h-79v-514h79c13 0 21 -8 21 -21v-36
c0 -13 -8 -21 -21 -21h-243c-13 0 -21 8 -21 21v36c0 13 8 21 21 21h80v514h-80c-13 0 -21 8 -21 21v36c0 13 8 21 21 21h243z" />
    <glyph glyph-name="uni0208.ss03" horiz-adv-x="395" 
d="M117 727c-10 0 -18 3 -23 13l-62 100c-8 13 -2 23 12 23h40c10 0 18 -4 22 -15l50 -100c6 -12 -1 -21 -15 -21h-24zM258 740l-62 100c-7 13 -2 23 13 23h40c10 0 18 -4 22 -15l50 -100c5 -12 -2 -21 -15 -21h-25c-10 0 -17 3 -23 13zM319 592h-79v-514h79
c13 0 21 -8 21 -21v-36c0 -13 -8 -21 -21 -21h-243c-13 0 -21 8 -21 21v36c0 13 8 21 21 21h80v514h-80c-13 0 -21 8 -21 21v36c0 13 8 21 21 21h243c13 0 21 -8 21 -21v-36c0 -13 -8 -21 -21 -21z" />
    <glyph glyph-name="Idieresis.ss03" horiz-adv-x="395" 
d="M108 746c-29 0 -49 19 -49 49c0 29 20 49 49 49c30 0 49 -20 49 -49c0 -30 -19 -49 -49 -49zM287 746c-30 0 -50 19 -50 49c0 29 20 49 50 49c29 0 49 -20 49 -49c0 -30 -20 -49 -49 -49zM319 592h-79v-514h79c13 0 21 -8 21 -21v-36c0 -13 -8 -21 -21 -21h-243
c-13 0 -21 8 -21 21v36c0 13 8 21 21 21h80v514h-80c-13 0 -21 8 -21 21v36c0 13 8 21 21 21h243c13 0 21 -8 21 -21v-36c0 -13 -8 -21 -21 -21z" />
    <glyph glyph-name="Idotaccent.ss03" horiz-adv-x="395" 
d="M197 746c-31 0 -51 20 -51 51s20 51 51 51s52 -20 52 -51s-21 -51 -52 -51zM319 592h-79v-514h79c13 0 21 -8 21 -21v-36c0 -13 -8 -21 -21 -21h-243c-13 0 -21 8 -21 21v36c0 13 8 21 21 21h80v514h-80c-13 0 -21 8 -21 21v36c0 13 8 21 21 21h243c13 0 21 -8 21 -21
v-36c0 -13 -8 -21 -21 -21z" />
    <glyph glyph-name="uni1ECA.ss03" horiz-adv-x="395" 
d="M319 592h-79v-514h79c13 0 21 -8 21 -21v-36c0 -13 -8 -21 -21 -21h-243c-13 0 -21 8 -21 21v36c0 13 8 21 21 21h80v514h-80c-13 0 -21 8 -21 21v36c0 13 8 21 21 21h243c13 0 21 -8 21 -21v-36c0 -13 -8 -21 -21 -21zM197 -76c31 0 52 -20 52 -51s-21 -51 -52 -51
s-51 20 -51 51s20 51 51 51z" />
    <glyph glyph-name="Igrave.ss03" horiz-adv-x="395" 
d="M164 737l-82 102c-10 13 -5 24 11 24h49c9 0 17 -4 22 -14l60 -100c7 -13 2 -22 -13 -22h-24c-9 0 -17 2 -23 10zM319 592h-79v-514h79c13 0 21 -8 21 -21v-36c0 -13 -8 -21 -21 -21h-243c-13 0 -21 8 -21 21v36c0 13 8 21 21 21h80v514h-80c-13 0 -21 8 -21 21v36
c0 13 8 21 21 21h243c13 0 21 -8 21 -21v-36c0 -13 -8 -21 -21 -21z" />
    <glyph glyph-name="uni020A.ss03" horiz-adv-x="395" 
d="M83 727c-12 0 -21 7 -19 19c6 70 57 113 134 113c76 0 127 -42 132 -112c2 -13 -6 -20 -18 -20h-30c-9 0 -14 4 -15 13c-2 36 -29 60 -69 60c-41 0 -68 -23 -70 -60c-1 -9 -6 -13 -15 -13h-30zM319 592h-79v-514h79c13 0 21 -8 21 -21v-36c0 -13 -8 -21 -21 -21h-243
c-13 0 -21 8 -21 21v36c0 13 8 21 21 21h80v514h-80c-13 0 -21 8 -21 21v36c0 13 8 21 21 21h243c13 0 21 -8 21 -21v-36c0 -13 -8 -21 -21 -21z" />
    <glyph glyph-name="Imacron.ss03" horiz-adv-x="395" 
d="M81 757c-12 0 -19 7 -19 19v27c0 12 7 19 19 19h232c12 0 19 -7 19 -19v-27c0 -12 -7 -19 -19 -19h-232zM319 592h-79v-514h79c13 0 21 -8 21 -21v-36c0 -13 -8 -21 -21 -21h-243c-13 0 -21 8 -21 21v36c0 13 8 21 21 21h80v514h-80c-13 0 -21 8 -21 21v36
c0 13 8 21 21 21h243c13 0 21 -8 21 -21v-36c0 -13 -8 -21 -21 -21z" />
    <glyph glyph-name="Iogonek.ss03" horiz-adv-x="395" 
d="M334 -136c10 3 15 -1 15 -12v-25c0 -9 -2 -14 -9 -17c-11 -5 -31 -9 -51 -9c-59 0 -97 34 -97 86c0 47 31 91 78 113h-194c-13 0 -21 8 -21 21v36c0 13 8 21 21 21h80v514h-80c-13 0 -21 8 -21 21v36c0 13 8 21 21 21h243c13 0 21 -8 21 -21v-36c0 -13 -8 -21 -21 -21
h-79v-514h79c13 0 21 -8 21 -21v-50c0 -4 -3 -7 -8 -9c-40 -21 -67 -58 -67 -94c0 -27 19 -45 46 -45c8 0 17 2 23 5z" />
    <glyph glyph-name="Itilde.ss03" horiz-adv-x="395" 
d="M347 856c9 0 15 -7 14 -21c-5 -60 -35 -94 -87 -94c-59 0 -95 53 -137 53c-23 0 -39 -13 -42 -36c-3 -8 -7 -12 -18 -12h-30c-9 0 -15 6 -15 16c4 63 35 98 88 98c59 0 92 -52 137 -52c23 0 39 13 42 36c3 8 7 12 18 12h30zM319 670c13 0 21 -8 21 -21v-36
c0 -13 -8 -21 -21 -21h-79v-514h79c13 0 21 -8 21 -21v-36c0 -13 -8 -21 -21 -21h-243c-13 0 -21 8 -21 21v36c0 13 8 21 21 21h80v514h-80c-13 0 -21 8 -21 21v36c0 13 8 21 21 21h243z" />
    <glyph glyph-name="J.ss04" horiz-adv-x="567" 
d="M463 670c13 0 21 -8 21 -21v-468c0 -116 -84 -193 -212 -193s-213 77 -213 193v18c0 14 7 21 21 21h42c13 0 21 -7 21 -21v-15c0 -71 51 -118 129 -118c77 0 127 47 127 118v408h-194c-14 0 -21 8 -21 21v36c0 13 7 21 21 21h258z" />
    <glyph glyph-name="Jcircumflex.ss04" horiz-adv-x="567" 
d="M208 727c-15 0 -20 11 -11 23l85 101c6 8 13 12 23 12h63c9 0 17 -4 22 -12l85 -101c10 -12 5 -23 -10 -23h-28c-9 0 -17 2 -23 10l-75 74h-6l-74 -74c-7 -8 -14 -10 -24 -10h-27zM463 670c13 0 21 -8 21 -21v-468c0 -116 -84 -193 -212 -193s-213 77 -213 193v18
c0 14 7 21 21 21h42c13 0 21 -7 21 -21v-15c0 -71 51 -118 129 -118c77 0 127 47 127 118v408h-194c-14 0 -21 8 -21 21v36c0 13 7 21 21 21h258z" />
    <glyph glyph-name="Q.ss05" horiz-adv-x="643" 
d="M322 682c153 0 253 -93 253 -235v-224c0 -130 -84 -219 -215 -233v-26c0 -37 25 -61 63 -61h33c14 0 21 -8 21 -21v-24c0 -13 -7 -21 -21 -21h-55c-71 0 -117 45 -117 111v42c-132 14 -216 103 -216 233v224c0 142 101 235 254 235zM491 225v220c0 96 -67 159 -169 159
c-103 0 -170 -63 -170 -159v-220c0 -96 67 -159 170 -159c102 0 169 63 169 159z" />
    <glyph glyph-name="a" unicode="a" horiz-adv-x="523" 
d="M258 512c120 0 196 -66 196 -166v-327c0 -12 -7 -19 -19 -19h-38c-12 0 -19 7 -19 19v58h-7c-21 -54 -78 -89 -156 -89c-103 0 -169 56 -169 146s65 147 168 147h160v56c0 64 -44 105 -118 105c-62 0 -104 -26 -110 -73c-3 -11 -9 -17 -20 -17h-41c-12 0 -19 7 -19 19
c0 87 81 141 192 141zM239 56c82 0 135 43 135 100v62h-151c-60 0 -96 -30 -96 -79c0 -52 43 -83 112 -83z" />
    <glyph glyph-name="aacute" unicode="&#xe1;" horiz-adv-x="523" 
d="M246 557c-14 0 -19 9 -12 22l60 100c5 10 13 14 23 14h47c16 0 22 -11 12 -24l-82 -102c-7 -8 -14 -10 -23 -10h-25zM258 512c120 0 196 -66 196 -166v-327c0 -12 -7 -19 -19 -19h-38c-12 0 -19 7 -19 19v58h-7c-21 -54 -78 -89 -156 -89c-103 0 -169 56 -169 146
s65 147 168 147h160v56c0 64 -44 105 -118 105c-62 0 -104 -26 -110 -73c-3 -11 -9 -17 -20 -17h-41c-12 0 -19 7 -19 19c0 87 81 141 192 141zM239 56c82 0 135 43 135 100v62h-151c-60 0 -96 -30 -96 -79c0 -52 43 -83 112 -83z" />
    <glyph glyph-name="abreve" unicode="&#x103;" horiz-adv-x="523" 
d="M261 551c-77 0 -128 42 -134 113c-1 12 7 19 19 19h30c9 0 14 -5 15 -13c2 -37 29 -60 70 -60c40 0 67 23 69 60c1 8 6 13 15 13h30c12 0 20 -7 18 -20c-5 -70 -56 -112 -132 -112zM258 512c120 0 196 -66 196 -166v-327c0 -12 -7 -19 -19 -19h-38c-12 0 -19 7 -19 19v58
h-7c-21 -54 -78 -89 -156 -89c-103 0 -169 56 -169 146s65 147 168 147h160v56c0 64 -44 105 -118 105c-62 0 -104 -26 -110 -73c-3 -11 -9 -17 -20 -17h-41c-12 0 -19 7 -19 19c0 87 81 141 192 141zM239 56c82 0 135 43 135 100v62h-151c-60 0 -96 -30 -96 -79
c0 -52 43 -83 112 -83z" />
    <glyph glyph-name="uni01CE" unicode="&#x1ce;" horiz-adv-x="523" 
d="M207 568l-85 101c-9 13 -4 24 11 24h27c10 0 17 -3 24 -10l74 -75h6l75 75c6 7 14 10 23 10h26c16 0 22 -11 12 -24l-84 -101c-6 -8 -14 -11 -23 -11h-63c-10 0 -17 3 -23 11zM258 512c120 0 196 -66 196 -166v-327c0 -12 -7 -19 -19 -19h-38c-12 0 -19 7 -19 19v58h-7
c-21 -54 -78 -89 -156 -89c-103 0 -169 56 -169 146s65 147 168 147h160v56c0 64 -44 105 -118 105c-62 0 -104 -26 -110 -73c-3 -11 -9 -17 -20 -17h-41c-12 0 -19 7 -19 19c0 87 81 141 192 141zM239 56c82 0 135 43 135 100v62h-151c-60 0 -96 -30 -96 -79
c0 -52 43 -83 112 -83z" />
    <glyph glyph-name="acircumflex" unicode="&#xe2;" horiz-adv-x="523" 
d="M133 557c-15 0 -20 11 -11 23l85 101c6 8 13 12 23 12h63c9 0 17 -4 22 -12l85 -101c10 -12 5 -23 -10 -23h-28c-9 0 -17 2 -23 10l-75 74h-6l-74 -74c-7 -8 -14 -10 -24 -10h-27zM258 512c120 0 196 -66 196 -166v-327c0 -12 -7 -19 -19 -19h-38c-12 0 -19 7 -19 19v58
h-7c-21 -54 -78 -89 -156 -89c-103 0 -169 56 -169 146s65 147 168 147h160v56c0 64 -44 105 -118 105c-62 0 -104 -26 -110 -73c-3 -11 -9 -17 -20 -17h-41c-12 0 -19 7 -19 19c0 87 81 141 192 141zM239 56c82 0 135 43 135 100v62h-151c-60 0 -96 -30 -96 -79
c0 -52 43 -83 112 -83z" />
    <glyph glyph-name="uni0201" unicode="&#x201;" horiz-adv-x="523" 
d="M157 570l-62 100c-8 13 -2 23 12 23h40c10 0 18 -4 22 -15l50 -100c6 -12 -1 -21 -15 -21h-24c-10 0 -18 3 -23 13zM321 570l-62 100c-7 13 -2 23 13 23h40c10 0 18 -4 22 -15l50 -100c5 -12 -2 -21 -15 -21h-25c-10 0 -17 3 -23 13zM258 512c120 0 196 -66 196 -166
v-327c0 -12 -7 -19 -19 -19h-38c-12 0 -19 7 -19 19v58h-7c-21 -54 -78 -89 -156 -89c-103 0 -169 56 -169 146s65 147 168 147h160v56c0 64 -44 105 -118 105c-62 0 -104 -26 -110 -73c-3 -11 -9 -17 -20 -17h-41c-12 0 -19 7 -19 19c0 87 81 141 192 141zM239 56
c82 0 135 43 135 100v62h-151c-60 0 -96 -30 -96 -79c0 -52 43 -83 112 -83z" />
    <glyph glyph-name="adieresis" unicode="&#xe4;" horiz-adv-x="523" 
d="M172 576c-29 0 -49 19 -49 49c0 29 20 49 49 49c30 0 49 -20 49 -49c0 -30 -19 -49 -49 -49zM351 576c-30 0 -50 19 -50 49c0 29 20 49 50 49c29 0 49 -20 49 -49c0 -30 -20 -49 -49 -49zM258 512c120 0 196 -66 196 -166v-327c0 -12 -7 -19 -19 -19h-38
c-12 0 -19 7 -19 19v58h-7c-21 -54 -78 -89 -156 -89c-103 0 -169 56 -169 146s65 147 168 147h160v56c0 64 -44 105 -118 105c-62 0 -104 -26 -110 -73c-3 -11 -9 -17 -20 -17h-41c-12 0 -19 7 -19 19c0 87 81 141 192 141zM239 56c82 0 135 43 135 100v62h-151
c-60 0 -96 -30 -96 -79c0 -52 43 -83 112 -83z" />
    <glyph glyph-name="uni1EA1" unicode="&#x1ea1;" horiz-adv-x="523" 
d="M258 512c120 0 196 -66 196 -166v-327c0 -12 -7 -19 -19 -19h-38c-12 0 -19 7 -19 19v58h-7c-21 -54 -78 -89 -156 -89c-103 0 -169 56 -169 146s65 147 168 147h160v56c0 64 -44 105 -118 105c-62 0 -104 -26 -110 -73c-3 -11 -9 -17 -20 -17h-41c-12 0 -19 7 -19 19
c0 87 81 141 192 141zM239 56c82 0 135 43 135 100v62h-151c-60 0 -96 -30 -96 -79c0 -52 43 -83 112 -83zM261 -76c31 0 52 -20 52 -51s-21 -51 -52 -51s-51 20 -51 51s20 51 51 51z" />
    <glyph glyph-name="agrave" unicode="&#xe0;" horiz-adv-x="523" 
d="M227 567l-82 102c-10 13 -5 24 11 24h49c9 0 17 -4 22 -14l60 -100c7 -13 2 -22 -13 -22h-24c-9 0 -17 2 -23 10zM258 512c120 0 196 -66 196 -166v-327c0 -12 -7 -19 -19 -19h-38c-12 0 -19 7 -19 19v58h-7c-21 -54 -78 -89 -156 -89c-103 0 -169 56 -169 146
s65 147 168 147h160v56c0 64 -44 105 -118 105c-62 0 -104 -26 -110 -73c-3 -11 -9 -17 -20 -17h-41c-12 0 -19 7 -19 19c0 87 81 141 192 141zM239 56c82 0 135 43 135 100v62h-151c-60 0 -96 -30 -96 -79c0 -52 43 -83 112 -83z" />
    <glyph glyph-name="uni0203" unicode="&#x203;" horiz-adv-x="523" 
d="M146 557c-12 0 -21 7 -19 19c6 70 57 113 134 113c76 0 127 -42 132 -112c2 -13 -6 -20 -18 -20h-30c-9 0 -14 4 -15 13c-2 36 -29 60 -69 60c-41 0 -68 -23 -70 -60c-1 -9 -6 -13 -15 -13h-30zM258 512c120 0 196 -66 196 -166v-327c0 -12 -7 -19 -19 -19h-38
c-12 0 -19 7 -19 19v58h-7c-21 -54 -78 -89 -156 -89c-103 0 -169 56 -169 146s65 147 168 147h160v56c0 64 -44 105 -118 105c-62 0 -104 -26 -110 -73c-3 -11 -9 -17 -20 -17h-41c-12 0 -19 7 -19 19c0 87 81 141 192 141zM239 56c82 0 135 43 135 100v62h-151
c-60 0 -96 -30 -96 -79c0 -52 43 -83 112 -83z" />
    <glyph glyph-name="amacron" unicode="&#x101;" horiz-adv-x="523" 
d="M145 587c-12 0 -19 7 -19 19v27c0 12 7 19 19 19h232c12 0 19 -7 19 -19v-27c0 -12 -7 -19 -19 -19h-232zM258 512c120 0 196 -66 196 -166v-327c0 -12 -7 -19 -19 -19h-38c-12 0 -19 7 -19 19v58h-7c-21 -54 -78 -89 -156 -89c-103 0 -169 56 -169 146s65 147 168 147
h160v56c0 64 -44 105 -118 105c-62 0 -104 -26 -110 -73c-3 -11 -9 -17 -20 -17h-41c-12 0 -19 7 -19 19c0 87 81 141 192 141zM239 56c82 0 135 43 135 100v62h-151c-60 0 -96 -30 -96 -79c0 -52 43 -83 112 -83z" />
    <glyph glyph-name="aogonek" unicode="&#x105;" horiz-adv-x="523" 
d="M448 -136c10 3 15 -1 15 -12v-25c0 -9 -2 -14 -9 -17c-11 -5 -31 -9 -51 -9c-59 0 -97 34 -97 86c0 47 31 91 78 113v4c-4 4 -6 9 -6 15v58h-7c-21 -54 -78 -89 -156 -89c-103 0 -169 56 -169 146s65 147 168 147h160v56c0 64 -44 105 -118 105c-62 0 -104 -26 -110 -73
c-3 -11 -9 -17 -20 -17h-41c-12 0 -19 7 -19 19c0 87 81 141 192 141c120 0 196 -66 196 -166v-339c0 -4 -3 -7 -8 -9c-40 -21 -67 -58 -67 -94c0 -27 19 -45 46 -45c8 0 17 2 23 5zM239 56c82 0 135 43 135 100v62h-151c-60 0 -96 -30 -96 -79c0 -52 43 -83 112 -83z" />
    <glyph glyph-name="aring" unicode="&#xe5;" horiz-adv-x="523" 
d="M261 551c-61 0 -101 38 -101 96s40 96 101 96c59 0 100 -38 100 -96s-41 -96 -100 -96zM261 702c-34 0 -56 -22 -56 -55s22 -55 56 -55c32 0 55 22 55 55s-23 55 -55 55zM258 512c120 0 196 -66 196 -166v-327c0 -12 -7 -19 -19 -19h-38c-12 0 -19 7 -19 19v58h-7
c-21 -54 -78 -89 -156 -89c-103 0 -169 56 -169 146s65 147 168 147h160v56c0 64 -44 105 -118 105c-62 0 -104 -26 -110 -73c-3 -11 -9 -17 -20 -17h-41c-12 0 -19 7 -19 19c0 87 81 141 192 141zM239 56c82 0 135 43 135 100v62h-151c-60 0 -96 -30 -96 -79
c0 -52 43 -83 112 -83z" />
    <glyph glyph-name="atilde" unicode="&#xe3;" horiz-adv-x="523" 
d="M111 576c-9 0 -15 6 -15 16c4 63 35 98 88 98c59 0 92 -52 137 -52c23 0 39 13 42 36c3 8 7 12 18 12h30c9 0 15 -7 14 -21c-5 -60 -35 -94 -87 -94c-59 0 -95 53 -137 53c-23 0 -39 -13 -42 -36c-3 -8 -7 -12 -18 -12h-30zM258 512c120 0 196 -66 196 -166v-327
c0 -12 -7 -19 -19 -19h-38c-12 0 -19 7 -19 19v58h-7c-21 -54 -78 -89 -156 -89c-103 0 -169 56 -169 146s65 147 168 147h160v56c0 64 -44 105 -118 105c-62 0 -104 -26 -110 -73c-3 -11 -9 -17 -20 -17h-41c-12 0 -19 7 -19 19c0 87 81 141 192 141zM239 56
c82 0 135 43 135 100v62h-151c-60 0 -96 -30 -96 -79c0 -52 43 -83 112 -83z" />
    <glyph glyph-name="ae" unicode="&#xe6;" horiz-adv-x="838" 
d="M763 218h-308v-46c0 -69 50 -114 129 -114c64 0 106 28 115 75c3 11 9 17 20 17h43c12 0 20 -7 18 -20c-8 -91 -83 -142 -189 -142c-85 0 -153 37 -174 94h-5c-23 -57 -97 -94 -185 -94c-109 0 -181 59 -181 148s66 147 166 147h163v51c0 65 -47 108 -120 108
c-66 0 -103 -26 -109 -73c-3 -11 -9 -17 -21 -17h-40c-12 0 -19 7 -19 19c1 94 76 141 179 141c85 0 146 -38 167 -93h5c21 56 86 93 168 93c116 0 197 -73 197 -184v-91c0 -12 -7 -19 -19 -19zM579 442c-75 0 -124 -45 -124 -113v-46h247v46c0 68 -49 113 -123 113zM241 56
c79 0 134 40 134 101v61h-154c-57 0 -94 -31 -94 -78c0 -51 45 -84 114 -84z" />
    <glyph glyph-name="aeacute" unicode="&#x1fd;" horiz-adv-x="838" 
d="M399 557c-14 0 -19 9 -12 22l60 100c5 10 13 14 23 14h47c16 0 22 -11 12 -24l-82 -102c-7 -8 -14 -10 -23 -10h-25zM763 218h-308v-46c0 -69 50 -114 129 -114c64 0 106 28 115 75c3 11 9 17 20 17h43c12 0 20 -7 18 -20c-8 -91 -83 -142 -189 -142
c-85 0 -153 37 -174 94h-5c-23 -57 -97 -94 -185 -94c-109 0 -181 59 -181 148s66 147 166 147h163v51c0 65 -47 108 -120 108c-66 0 -103 -26 -109 -73c-3 -11 -9 -17 -21 -17h-40c-12 0 -19 7 -19 19c1 94 76 141 179 141c85 0 146 -38 167 -93h5c21 56 86 93 168 93
c116 0 197 -73 197 -184v-91c0 -12 -7 -19 -19 -19zM579 442c-75 0 -124 -45 -124 -113v-46h247v46c0 68 -49 113 -123 113zM241 56c79 0 134 40 134 101v61h-154c-57 0 -94 -31 -94 -78c0 -51 45 -84 114 -84z" />
    <glyph glyph-name="b" unicode="b" horiz-adv-x="544" 
d="M315 512c101 0 170 -67 170 -166v-192c0 -99 -69 -166 -170 -166c-75 0 -132 38 -151 92h-6v-61c0 -12 -7 -19 -19 -19h-42c-12 0 -19 7 -19 19v662c0 12 7 19 19 19h42c12 0 19 -7 19 -19v-261h6c19 54 76 92 151 92zM405 176v148c0 68 -48 113 -121 113
c-76 0 -126 -53 -126 -112v-150c0 -59 50 -112 126 -112c73 0 121 45 121 113z" />
    <glyph glyph-name="c" unicode="c" horiz-adv-x="506" 
d="M256 -12c-121 0 -200 73 -200 184v156c0 111 79 184 200 184c117 0 200 -63 200 -175c0 -12 -7 -20 -19 -20h-42c-12 0 -18 6 -19 15c-2 68 -52 106 -120 106c-73 0 -120 -44 -120 -111v-154c0 -67 47 -111 120 -111c70 0 118 39 120 106c1 9 7 15 19 15h42
c12 0 19 -8 19 -21c0 -113 -85 -174 -200 -174z" />
    <glyph glyph-name="cacute" unicode="&#x107;" horiz-adv-x="506" 
d="M241 557c-14 0 -19 9 -12 22l60 100c5 10 13 14 23 14h47c16 0 22 -11 12 -24l-82 -102c-7 -8 -14 -10 -23 -10h-25zM256 -12c-121 0 -200 73 -200 184v156c0 111 79 184 200 184c117 0 200 -63 200 -175c0 -12 -7 -20 -19 -20h-42c-12 0 -18 6 -19 15
c-2 68 -52 106 -120 106c-73 0 -120 -44 -120 -111v-154c0 -67 47 -111 120 -111c70 0 118 39 120 106c1 9 7 15 19 15h42c12 0 19 -8 19 -21c0 -113 -85 -174 -200 -174z" />
    <glyph glyph-name="ccaron" unicode="&#x10d;" horiz-adv-x="506" 
d="M225 557c-10 0 -17 3 -23 11l-85 101c-9 13 -4 24 11 24h27c10 0 17 -3 24 -10l74 -75h6l75 75c6 7 14 10 23 10h26c16 0 22 -11 12 -24l-84 -101c-6 -8 -14 -11 -23 -11h-63zM256 -12c-121 0 -200 73 -200 184v156c0 111 79 184 200 184c117 0 200 -63 200 -175
c0 -12 -7 -20 -19 -20h-42c-12 0 -18 6 -19 15c-2 68 -52 106 -120 106c-73 0 -120 -44 -120 -111v-154c0 -67 47 -111 120 -111c70 0 118 39 120 106c1 9 7 15 19 15h42c12 0 19 -8 19 -21c0 -113 -85 -174 -200 -174z" />
    <glyph glyph-name="ccedilla" unicode="&#xe7;" horiz-adv-x="506" 
d="M437 183c12 0 19 -8 19 -21c0 -107 -77 -168 -183 -174l-21 -41h27c50 0 82 -31 82 -77c0 -53 -46 -87 -113 -87c-22 0 -45 4 -62 10c-11 3 -16 11 -16 22v10c0 13 7 19 19 16c14 -7 33 -11 51 -11c38 0 64 16 64 42c0 22 -16 36 -41 36h-55c-9 0 -15 5 -15 15v5
c0 5 2 10 4 15l26 47c-102 12 -167 82 -167 182v156c0 111 79 184 200 184c117 0 200 -63 200 -175c0 -12 -7 -20 -19 -20h-42c-12 0 -18 6 -19 15c-2 68 -52 106 -120 106c-73 0 -120 -44 -120 -111v-154c0 -67 47 -111 120 -111c70 0 118 39 120 106c1 9 7 15 19 15h42z
" />
    <glyph glyph-name="ccircumflex" unicode="&#x109;" horiz-adv-x="506" 
d="M128 557c-15 0 -20 11 -11 23l85 101c6 8 13 12 23 12h63c9 0 17 -4 22 -12l85 -101c10 -12 5 -23 -10 -23h-28c-9 0 -17 2 -23 10l-75 74h-6l-74 -74c-7 -8 -14 -10 -24 -10h-27zM256 -12c-121 0 -200 73 -200 184v156c0 111 79 184 200 184c117 0 200 -63 200 -175
c0 -12 -7 -20 -19 -20h-42c-12 0 -18 6 -19 15c-2 68 -52 106 -120 106c-73 0 -120 -44 -120 -111v-154c0 -67 47 -111 120 -111c70 0 118 39 120 106c1 9 7 15 19 15h42c12 0 19 -8 19 -21c0 -113 -85 -174 -200 -174z" />
    <glyph glyph-name="cdotaccent" unicode="&#x10b;" horiz-adv-x="506" 
d="M256 576c-31 0 -51 20 -51 51s20 51 51 51s52 -20 52 -51s-21 -51 -52 -51zM256 -12c-121 0 -200 73 -200 184v156c0 111 79 184 200 184c117 0 200 -63 200 -175c0 -12 -7 -20 -19 -20h-42c-12 0 -18 6 -19 15c-2 68 -52 106 -120 106c-73 0 -120 -44 -120 -111v-154
c0 -67 47 -111 120 -111c70 0 118 39 120 106c1 9 7 15 19 15h42c12 0 19 -8 19 -21c0 -113 -85 -174 -200 -174z" />
    <glyph glyph-name="d" unicode="d" horiz-adv-x="544" 
d="M447 700c12 0 19 -7 19 -19v-662c0 -12 -7 -19 -19 -19h-42c-12 0 -19 7 -19 19v61h-6c-20 -54 -77 -92 -151 -92c-102 0 -170 67 -170 166v192c0 99 68 166 170 166c74 0 131 -38 151 -92h6v261c0 12 7 19 19 19h42zM260 63c75 0 126 53 126 112v150
c0 59 -51 112 -126 112c-73 0 -121 -45 -121 -113v-148c0 -68 48 -113 121 -113z" />
    <glyph glyph-name="eth" unicode="&#xf0;" horiz-adv-x="523" 
d="M358 583c64 -85 102 -192 102 -293v-116c0 -112 -81 -186 -203 -186c-123 0 -204 74 -204 186v119c0 108 71 179 173 179c58 0 108 -22 132 -57h5c-11 49 -34 98 -65 144l-93 -39c-13 -3 -22 3 -22 16v11c0 11 6 19 16 22l70 29c-19 23 -40 44 -62 63c-13 12 -9 21 8 21
h35c9 0 16 -2 23 -9c19 -16 37 -33 54 -52l76 31c13 4 21 -2 21 -15v-12c0 -10 -5 -18 -16 -21zM380 175v110c0 68 -49 113 -123 113c-75 0 -124 -45 -124 -113v-110c0 -68 49 -113 124 -113c74 0 123 45 123 113z" />
    <glyph glyph-name="dcaron" unicode="&#x10f;" horiz-adv-x="623" 
d="M447 700c12 0 19 -7 19 -19v-662c0 -12 -7 -19 -19 -19h-42c-12 0 -19 7 -19 19v61h-6c-20 -54 -77 -92 -151 -92c-102 0 -170 67 -170 166v192c0 99 68 166 170 166c74 0 131 -38 151 -92h6v261c0 12 7 19 19 19h42zM590 700c12 0 20 -7 18 -20l-12 -129
c-2 -12 -9 -17 -20 -17h-22c-12 0 -19 7 -19 19v128c0 12 7 19 19 19h36zM260 63c75 0 126 53 126 112v150c0 59 -51 112 -126 112c-73 0 -121 -45 -121 -113v-148c0 -68 48 -113 121 -113z" />
    <glyph glyph-name="dcroat" unicode="&#x111;" horiz-adv-x="544" 
d="M510 622c12 0 19 -7 19 -19v-28c0 -12 -7 -19 -19 -19h-44v-537c0 -12 -7 -19 -19 -19h-42c-12 0 -19 7 -19 19v61h-6c-20 -54 -77 -92 -151 -92c-102 0 -170 67 -170 166v192c0 99 68 166 170 166c74 0 131 -38 151 -92h6v136h-96c-12 0 -19 7 -19 19v28
c0 12 7 19 19 19h96v59c0 12 7 19 19 19h42c12 0 19 -7 19 -19v-59h44zM260 63c75 0 126 53 126 112v150c0 59 -51 112 -126 112c-73 0 -121 -45 -121 -113v-148c0 -68 48 -113 121 -113z" />
    <glyph glyph-name="uni1E0D" unicode="&#x1e0d;" horiz-adv-x="544" 
d="M447 700c12 0 19 -7 19 -19v-662c0 -12 -7 -19 -19 -19h-42c-12 0 -19 7 -19 19v61h-6c-20 -54 -77 -92 -151 -92c-102 0 -170 67 -170 166v192c0 99 68 166 170 166c74 0 131 -38 151 -92h6v261c0 12 7 19 19 19h42zM260 63c75 0 126 53 126 112v150
c0 59 -51 112 -126 112c-73 0 -121 -45 -121 -113v-148c0 -68 48 -113 121 -113zM272 -76c31 0 52 -20 52 -51s-21 -51 -52 -51s-51 20 -51 51s20 51 51 51z" />
    <glyph glyph-name="uni01F3" unicode="&#x1f3;" horiz-adv-x="1020" 
d="M447 700c12 0 19 -7 19 -19v-662c0 -12 -7 -19 -19 -19h-42c-12 0 -19 7 -19 19v61h-6c-20 -54 -77 -92 -151 -92c-102 0 -170 67 -170 166v192c0 99 68 166 170 166c74 0 131 -38 151 -92h6v261c0 12 7 19 19 19h42zM953 73c12 0 19 -7 19 -19v-35c0 -12 -7 -19 -19 -19
h-342c-12 0 -19 7 -19 19v29c0 9 3 16 9 23l256 351v5h-241c-12 0 -19 7 -19 19v35c0 12 7 19 19 19h332c12 0 19 -7 19 -19v-29c0 -9 -2 -16 -8 -23l-257 -351v-5h251zM260 63c75 0 126 53 126 112v150c0 59 -51 112 -126 112c-73 0 -121 -45 -121 -113v-148
c0 -68 48 -113 121 -113z" />
    <glyph glyph-name="uni01C6" unicode="&#x1c6;" horiz-adv-x="1020" 
d="M447 700c12 0 19 -7 19 -19v-662c0 -12 -7 -19 -19 -19h-42c-12 0 -19 7 -19 19v61h-6c-20 -54 -77 -92 -151 -92c-102 0 -170 67 -170 166v192c0 99 68 166 170 166c74 0 131 -38 151 -92h6v261c0 12 7 19 19 19h42zM729 568l-86 101c-9 13 -4 24 11 24h28
c9 0 16 -3 23 -10l75 -75h5l75 75c6 7 14 10 23 10h27c15 0 21 -11 12 -24l-85 -101c-6 -8 -14 -11 -23 -11h-63c-9 0 -17 3 -22 11zM953 73c12 0 19 -7 19 -19v-35c0 -12 -7 -19 -19 -19h-342c-12 0 -19 7 -19 19v29c0 9 3 16 9 23l256 351v5h-241c-12 0 -19 7 -19 19v35
c0 12 7 19 19 19h332c12 0 19 -7 19 -19v-29c0 -9 -2 -16 -8 -23l-257 -351v-5h251zM260 63c75 0 126 53 126 112v150c0 59 -51 112 -126 112c-73 0 -121 -45 -121 -113v-148c0 -68 48 -113 121 -113z" />
    <glyph glyph-name="e" unicode="e" 
d="M443 220h-308v-48c0 -69 50 -114 127 -114c65 0 110 29 118 74c3 11 9 17 20 17h43c12 0 19 -6 19 -16c-8 -91 -88 -145 -200 -145c-125 0 -207 74 -207 186v152c0 112 81 186 204 186s203 -74 203 -186v-87c0 -12 -7 -19 -19 -19zM259 442c-74 0 -124 -45 -124 -113v-42
h247v42c0 68 -48 113 -123 113z" />
    <glyph glyph-name="eacute" unicode="&#xe9;" 
d="M244 557c-14 0 -19 9 -12 22l60 100c5 10 13 14 23 14h47c16 0 22 -11 12 -24l-82 -102c-7 -8 -14 -10 -23 -10h-25zM443 220h-308v-48c0 -69 50 -114 127 -114c65 0 110 29 118 74c3 11 9 17 20 17h43c12 0 19 -6 19 -16c-8 -91 -88 -145 -200 -145
c-125 0 -207 74 -207 186v152c0 112 81 186 204 186s203 -74 203 -186v-87c0 -12 -7 -19 -19 -19zM259 442c-74 0 -124 -45 -124 -113v-42h247v42c0 68 -48 113 -123 113z" />
    <glyph glyph-name="ebreve" unicode="&#x115;" 
d="M259 551c-77 0 -128 42 -134 113c-1 12 7 19 19 19h30c9 0 14 -5 15 -13c2 -37 29 -60 70 -60c40 0 67 23 69 60c1 8 6 13 15 13h30c12 0 20 -7 18 -20c-5 -70 -56 -112 -132 -112zM443 220h-308v-48c0 -69 50 -114 127 -114c65 0 110 29 118 74c3 11 9 17 20 17h43
c12 0 19 -6 19 -16c-8 -91 -88 -145 -200 -145c-125 0 -207 74 -207 186v152c0 112 81 186 204 186s203 -74 203 -186v-87c0 -12 -7 -19 -19 -19zM259 442c-74 0 -124 -45 -124 -113v-42h247v42c0 68 -48 113 -123 113z" />
    <glyph glyph-name="ecaron" unicode="&#x11b;" 
d="M205 568l-85 101c-9 13 -4 24 11 24h27c10 0 17 -3 24 -10l74 -75h6l75 75c6 7 14 10 23 10h26c16 0 22 -11 12 -24l-84 -101c-6 -8 -14 -11 -23 -11h-63c-10 0 -17 3 -23 11zM443 220h-308v-48c0 -69 50 -114 127 -114c65 0 110 29 118 74c3 11 9 17 20 17h43
c12 0 19 -6 19 -16c-8 -91 -88 -145 -200 -145c-125 0 -207 74 -207 186v152c0 112 81 186 204 186s203 -74 203 -186v-87c0 -12 -7 -19 -19 -19zM259 442c-74 0 -124 -45 -124 -113v-42h247v42c0 68 -48 113 -123 113z" />
    <glyph glyph-name="ecircumflex" unicode="&#xea;" 
d="M131 557c-15 0 -20 11 -11 23l85 101c6 8 13 12 23 12h63c9 0 17 -4 22 -12l85 -101c10 -12 5 -23 -10 -23h-28c-9 0 -17 2 -23 10l-75 74h-6l-74 -74c-7 -8 -14 -10 -24 -10h-27zM443 220h-308v-48c0 -69 50 -114 127 -114c65 0 110 29 118 74c3 11 9 17 20 17h43
c12 0 19 -6 19 -16c-8 -91 -88 -145 -200 -145c-125 0 -207 74 -207 186v152c0 112 81 186 204 186s203 -74 203 -186v-87c0 -12 -7 -19 -19 -19zM259 442c-74 0 -124 -45 -124 -113v-42h247v42c0 68 -48 113 -123 113z" />
    <glyph glyph-name="uni0205" unicode="&#x205;" 
d="M155 570l-62 100c-8 13 -2 23 12 23h40c10 0 18 -4 22 -15l50 -100c6 -12 -1 -21 -15 -21h-24c-10 0 -18 3 -23 13zM319 570l-62 100c-7 13 -2 23 13 23h40c10 0 18 -4 22 -15l50 -100c5 -12 -2 -21 -15 -21h-25c-10 0 -17 3 -23 13zM443 220h-308v-48
c0 -69 50 -114 127 -114c65 0 110 29 118 74c3 11 9 17 20 17h43c12 0 19 -6 19 -16c-8 -91 -88 -145 -200 -145c-125 0 -207 74 -207 186v152c0 112 81 186 204 186s203 -74 203 -186v-87c0 -12 -7 -19 -19 -19zM259 442c-74 0 -124 -45 -124 -113v-42h247v42
c0 68 -48 113 -123 113z" />
    <glyph glyph-name="edieresis" unicode="&#xeb;" 
d="M170 576c-29 0 -49 19 -49 49c0 29 20 49 49 49c30 0 49 -20 49 -49c0 -30 -19 -49 -49 -49zM349 576c-30 0 -50 19 -50 49c0 29 20 49 50 49c29 0 49 -20 49 -49c0 -30 -20 -49 -49 -49zM443 220h-308v-48c0 -69 50 -114 127 -114c65 0 110 29 118 74c3 11 9 17 20 17
h43c12 0 19 -6 19 -16c-8 -91 -88 -145 -200 -145c-125 0 -207 74 -207 186v152c0 112 81 186 204 186s203 -74 203 -186v-87c0 -12 -7 -19 -19 -19zM259 442c-74 0 -124 -45 -124 -113v-42h247v42c0 68 -48 113 -123 113z" />
    <glyph glyph-name="edotaccent" unicode="&#x117;" 
d="M259 576c-31 0 -51 20 -51 51s20 51 51 51s52 -20 52 -51s-21 -51 -52 -51zM443 220h-308v-48c0 -69 50 -114 127 -114c65 0 110 29 118 74c3 11 9 17 20 17h43c12 0 19 -6 19 -16c-8 -91 -88 -145 -200 -145c-125 0 -207 74 -207 186v152c0 112 81 186 204 186
s203 -74 203 -186v-87c0 -12 -7 -19 -19 -19zM259 442c-74 0 -124 -45 -124 -113v-42h247v42c0 68 -48 113 -123 113z" />
    <glyph glyph-name="uni1EB9" unicode="&#x1eb9;" 
d="M443 220h-308v-48c0 -69 50 -114 127 -114c65 0 110 29 118 74c3 11 9 17 20 17h43c12 0 19 -6 19 -16c-8 -91 -88 -145 -200 -145c-125 0 -207 74 -207 186v152c0 112 81 186 204 186s203 -74 203 -186v-87c0 -12 -7 -19 -19 -19zM259 442c-74 0 -124 -45 -124 -113v-42
h247v42c0 68 -48 113 -123 113zM259 -76c31 0 52 -20 52 -51s-21 -51 -52 -51s-51 20 -51 51s20 51 51 51z" />
    <glyph glyph-name="egrave" unicode="&#xe8;" 
d="M226 567l-82 102c-10 13 -5 24 11 24h49c9 0 17 -4 22 -14l60 -100c7 -13 2 -22 -13 -22h-24c-9 0 -17 2 -23 10zM443 220h-308v-48c0 -69 50 -114 127 -114c65 0 110 29 118 74c3 11 9 17 20 17h43c12 0 19 -6 19 -16c-8 -91 -88 -145 -200 -145
c-125 0 -207 74 -207 186v152c0 112 81 186 204 186s203 -74 203 -186v-87c0 -12 -7 -19 -19 -19zM259 442c-74 0 -124 -45 -124 -113v-42h247v42c0 68 -48 113 -123 113z" />
    <glyph glyph-name="uni0207" unicode="&#x207;" 
d="M144 557c-12 0 -21 7 -19 19c6 70 57 113 134 113c76 0 127 -42 132 -112c2 -13 -6 -20 -18 -20h-30c-9 0 -14 4 -15 13c-2 36 -29 60 -69 60c-41 0 -68 -23 -70 -60c-1 -9 -6 -13 -15 -13h-30zM443 220h-308v-48c0 -69 50 -114 127 -114c65 0 110 29 118 74
c3 11 9 17 20 17h43c12 0 19 -6 19 -16c-8 -91 -88 -145 -200 -145c-125 0 -207 74 -207 186v152c0 112 81 186 204 186s203 -74 203 -186v-87c0 -12 -7 -19 -19 -19zM259 442c-74 0 -124 -45 -124 -113v-42h247v42c0 68 -48 113 -123 113z" />
    <glyph glyph-name="emacron" unicode="&#x113;" 
d="M143 587c-12 0 -19 7 -19 19v27c0 12 7 19 19 19h232c12 0 19 -7 19 -19v-27c0 -12 -7 -19 -19 -19h-232zM443 220h-308v-48c0 -69 50 -114 127 -114c65 0 110 29 118 74c3 11 9 17 20 17h43c12 0 19 -6 19 -16c-8 -91 -88 -145 -200 -145c-125 0 -207 74 -207 186v152
c0 112 81 186 204 186s203 -74 203 -186v-87c0 -12 -7 -19 -19 -19zM259 442c-74 0 -124 -45 -124 -113v-42h247v42c0 68 -48 113 -123 113z" />
    <glyph glyph-name="eogonek" unicode="&#x119;" 
d="M443 220h-308v-48c0 -69 50 -114 127 -114c65 0 110 29 118 74c3 11 9 17 20 17h43c12 0 19 -6 19 -16c-6 -66 -50 -113 -117 -133c-33 -22 -54 -55 -54 -87c0 -27 19 -45 46 -45c8 0 17 2 23 5c10 3 15 -1 15 -12v-25c0 -9 -2 -14 -9 -17c-11 -5 -31 -9 -51 -9
c-59 0 -97 34 -97 86c0 35 17 68 45 92h-1c-125 0 -207 74 -207 186v152c0 112 81 186 204 186s203 -74 203 -186v-87c0 -12 -7 -19 -19 -19zM259 442c-74 0 -124 -45 -124 -113v-42h247v42c0 68 -48 113 -123 113z" />
    <glyph glyph-name="uni1EBD" unicode="&#x1ebd;" 
d="M109 576c-9 0 -15 6 -15 16c4 63 35 98 88 98c59 0 92 -52 137 -52c23 0 39 13 42 36c3 8 7 12 18 12h30c9 0 15 -7 14 -21c-5 -60 -35 -94 -87 -94c-59 0 -95 53 -137 53c-23 0 -39 -13 -42 -36c-3 -8 -7 -12 -18 -12h-30zM443 220h-308v-48c0 -69 50 -114 127 -114
c65 0 110 29 118 74c3 11 9 17 20 17h43c12 0 19 -6 19 -16c-8 -91 -88 -145 -200 -145c-125 0 -207 74 -207 186v152c0 112 81 186 204 186s203 -74 203 -186v-87c0 -12 -7 -19 -19 -19zM259 442c-74 0 -124 -45 -124 -113v-42h247v42c0 68 -48 113 -123 113z" />
    <glyph glyph-name="f" unicode="f" horiz-adv-x="373" 
d="M288 633c-44 0 -73 -28 -73 -72v-61h102c12 0 19 -7 19 -19v-34c0 -12 -7 -19 -19 -19h-102v-409c0 -12 -7 -19 -19 -19h-42c-12 0 -19 7 -19 19v409h-71c-12 0 -19 7 -19 19v34c0 12 7 19 19 19h71v74c0 76 54 126 135 126h47c12 0 19 -7 19 -19v-29
c0 -12 -7 -19 -19 -19h-29z" />
    <glyph glyph-name="g" unicode="g" horiz-adv-x="541" 
d="M447 500c12 0 19 -7 19 -19v-506c0 -100 -78 -167 -203 -167c-111 0 -186 49 -193 133c-2 13 6 19 16 19h43c10 0 15 -4 19 -12c4 -50 53 -77 115 -77c75 0 123 43 123 108v123h-6c-20 -54 -78 -90 -151 -90c-102 0 -170 66 -170 166v168c0 99 68 166 170 166
c74 0 131 -38 151 -92h6v61c0 12 7 19 19 19h42zM260 87c75 0 126 52 126 112v126c0 59 -51 112 -126 112c-73 0 -121 -45 -121 -113v-124c0 -68 48 -113 121 -113z" />
    <glyph glyph-name="uni01F5" unicode="&#x1f5;" horiz-adv-x="541" 
d="M257 557c-14 0 -19 9 -12 22l60 100c5 10 13 14 23 14h47c16 0 22 -11 12 -24l-82 -102c-7 -8 -14 -10 -23 -10h-25zM447 500c12 0 19 -7 19 -19v-506c0 -100 -78 -167 -203 -167c-111 0 -186 49 -193 133c-2 13 6 19 16 19h43c10 0 15 -4 19 -12c4 -50 53 -77 115 -77
c75 0 123 43 123 108v123h-6c-20 -54 -78 -90 -151 -90c-102 0 -170 66 -170 166v168c0 99 68 166 170 166c74 0 131 -38 151 -92h6v61c0 12 7 19 19 19h42zM260 87c75 0 126 52 126 112v126c0 59 -51 112 -126 112c-73 0 -121 -45 -121 -113v-124c0 -68 48 -113 121 -113z
" />
    <glyph glyph-name="gbreve" unicode="&#x11f;" horiz-adv-x="541" 
d="M273 551c-77 0 -128 42 -134 113c-1 12 7 19 19 19h30c9 0 14 -5 15 -13c2 -37 29 -60 70 -60c40 0 67 23 69 60c1 8 6 13 15 13h30c12 0 20 -7 18 -20c-5 -70 -56 -112 -132 -112zM447 500c12 0 19 -7 19 -19v-506c0 -100 -78 -167 -203 -167c-111 0 -186 49 -193 133
c-2 13 6 19 16 19h43c10 0 15 -4 19 -12c4 -50 53 -77 115 -77c75 0 123 43 123 108v123h-6c-20 -54 -78 -90 -151 -90c-102 0 -170 66 -170 166v168c0 99 68 166 170 166c74 0 131 -38 151 -92h6v61c0 12 7 19 19 19h42zM260 87c75 0 126 52 126 112v126
c0 59 -51 112 -126 112c-73 0 -121 -45 -121 -113v-124c0 -68 48 -113 121 -113z" />
    <glyph glyph-name="gcaron" unicode="&#x1e7;" horiz-adv-x="541" 
d="M218 568l-85 101c-9 13 -4 24 11 24h27c10 0 17 -3 24 -10l74 -75h6l75 75c6 7 14 10 23 10h26c16 0 22 -11 12 -24l-84 -101c-6 -8 -14 -11 -23 -11h-63c-10 0 -17 3 -23 11zM447 500c12 0 19 -7 19 -19v-506c0 -100 -78 -167 -203 -167c-111 0 -186 49 -193 133
c-2 13 6 19 16 19h43c10 0 15 -4 19 -12c4 -50 53 -77 115 -77c75 0 123 43 123 108v123h-6c-20 -54 -78 -90 -151 -90c-102 0 -170 66 -170 166v168c0 99 68 166 170 166c74 0 131 -38 151 -92h6v61c0 12 7 19 19 19h42zM260 87c75 0 126 52 126 112v126
c0 59 -51 112 -126 112c-73 0 -121 -45 -121 -113v-124c0 -68 48 -113 121 -113z" />
    <glyph glyph-name="gcircumflex" unicode="&#x11d;" horiz-adv-x="541" 
d="M144 557c-15 0 -20 11 -11 23l85 101c6 8 13 12 23 12h63c9 0 17 -4 22 -12l85 -101c10 -12 5 -23 -10 -23h-28c-9 0 -17 2 -23 10l-75 74h-6l-74 -74c-7 -8 -14 -10 -24 -10h-27zM447 500c12 0 19 -7 19 -19v-506c0 -100 -78 -167 -203 -167c-111 0 -186 49 -193 133
c-2 13 6 19 16 19h43c10 0 15 -4 19 -12c4 -50 53 -77 115 -77c75 0 123 43 123 108v123h-6c-20 -54 -78 -90 -151 -90c-102 0 -170 66 -170 166v168c0 99 68 166 170 166c74 0 131 -38 151 -92h6v61c0 12 7 19 19 19h42zM260 87c75 0 126 52 126 112v126
c0 59 -51 112 -126 112c-73 0 -121 -45 -121 -113v-124c0 -68 48 -113 121 -113z" />
    <glyph glyph-name="uni0123" unicode="&#x123;" horiz-adv-x="541" 
d="M243 557c-14 0 -20 10 -14 22l51 130c5 9 12 14 23 14h23c13 0 19 -9 16 -22l-32 -128c-2 -11 -9 -16 -21 -16h-46zM447 500c12 0 19 -7 19 -19v-506c0 -100 -78 -167 -203 -167c-111 0 -186 49 -193 133c-2 13 6 19 16 19h43c10 0 15 -4 19 -12c4 -50 53 -77 115 -77
c75 0 123 43 123 108v123h-6c-20 -54 -78 -90 -151 -90c-102 0 -170 66 -170 166v168c0 99 68 166 170 166c74 0 131 -38 151 -92h6v61c0 12 7 19 19 19h42zM260 87c75 0 126 52 126 112v126c0 59 -51 112 -126 112c-73 0 -121 -45 -121 -113v-124c0 -68 48 -113 121 -113z
" />
    <glyph glyph-name="gdotaccent" unicode="&#x121;" horiz-adv-x="541" 
d="M272 576c-31 0 -51 20 -51 51s20 51 51 51s52 -20 52 -51s-21 -51 -52 -51zM447 500c12 0 19 -7 19 -19v-506c0 -100 -78 -167 -203 -167c-111 0 -186 49 -193 133c-2 13 6 19 16 19h43c10 0 15 -4 19 -12c4 -50 53 -77 115 -77c75 0 123 43 123 108v123h-6
c-20 -54 -78 -90 -151 -90c-102 0 -170 66 -170 166v168c0 99 68 166 170 166c74 0 131 -38 151 -92h6v61c0 12 7 19 19 19h42zM260 87c75 0 126 52 126 112v126c0 59 -51 112 -126 112c-73 0 -121 -45 -121 -113v-124c0 -68 48 -113 121 -113z" />
    <glyph glyph-name="h" unicode="h" horiz-adv-x="550" 
d="M315 512c98 0 164 -63 164 -158v-335c0 -12 -7 -19 -19 -19h-42c-12 0 -19 7 -19 19v306c0 68 -46 112 -116 112c-75 0 -125 -52 -125 -111v-307c0 -12 -7 -19 -19 -19h-42c-12 0 -19 7 -19 19v662c0 12 7 19 19 19h42c12 0 19 -7 19 -19v-261h6c20 54 77 92 151 92z" />
    <glyph glyph-name="hbar" unicode="&#x127;" horiz-adv-x="550" 
d="M315 512c98 0 164 -63 164 -158v-335c0 -12 -7 -19 -19 -19h-42c-12 0 -19 7 -19 19v306c0 68 -46 112 -116 112c-75 0 -125 -52 -125 -111v-307c0 -12 -7 -19 -19 -19h-42c-12 0 -19 7 -19 19v537h-44c-12 0 -19 7 -19 19v28c0 12 7 19 19 19h44v59c0 12 7 19 19 19h42
c12 0 19 -7 19 -19v-59h96c12 0 19 -7 19 -19v-28c0 -12 -7 -19 -19 -19h-96v-136h6c20 54 77 92 151 92z" />
    <glyph glyph-name="hcircumflex" unicode="&#x125;" horiz-adv-x="550" 
d="M121 821h-6l-74 -74c-7 -8 -14 -10 -24 -10h-27c-15 0 -20 11 -11 23l85 101c6 8 13 12 23 12h63c9 0 17 -4 22 -12l85 -101c10 -12 5 -23 -10 -23h-28c-9 0 -17 2 -23 10zM315 512c98 0 164 -63 164 -158v-335c0 -12 -7 -19 -19 -19h-42c-12 0 -19 7 -19 19v306
c0 68 -46 112 -116 112c-75 0 -125 -52 -125 -111v-307c0 -12 -7 -19 -19 -19h-42c-12 0 -19 7 -19 19v662c0 12 7 19 19 19h42c12 0 19 -7 19 -19v-261h6c20 54 77 92 151 92z" />
    <glyph glyph-name="uni1E25" unicode="&#x1e25;" horiz-adv-x="550" 
d="M315 512c98 0 164 -63 164 -158v-335c0 -12 -7 -19 -19 -19h-42c-12 0 -19 7 -19 19v306c0 68 -46 112 -116 112c-75 0 -125 -52 -125 -111v-307c0 -12 -7 -19 -19 -19h-42c-12 0 -19 7 -19 19v662c0 12 7 19 19 19h42c12 0 19 -7 19 -19v-261h6c20 54 77 92 151 92z
M279 -76c31 0 52 -20 52 -51s-21 -51 -52 -51s-51 20 -51 51s20 51 51 51z" />
    <glyph glyph-name="i" unicode="i" horiz-adv-x="237" 
d="M119 596c-33 0 -54 21 -54 52s21 51 54 51c31 0 52 -20 52 -51s-21 -52 -52 -52zM98 0c-12 0 -19 7 -19 19v462c0 12 7 19 19 19h42c12 0 19 -7 19 -19v-462c0 -12 -7 -19 -19 -19h-42z" />
    <glyph glyph-name="dotlessi" unicode="&#x131;" horiz-adv-x="236" 
d="M97 0c-12 0 -19 7 -19 19v462c0 12 7 19 19 19h42c12 0 19 -7 19 -19v-462c0 -12 -7 -19 -19 -19h-42z" />
    <glyph glyph-name="iacute" unicode="&#xed;" horiz-adv-x="236" 
d="M103 557c-14 0 -19 9 -12 22l60 100c5 10 13 14 23 14h47c16 0 22 -11 12 -24l-82 -102c-7 -8 -14 -10 -23 -10h-25zM97 0c-12 0 -19 7 -19 19v462c0 12 7 19 19 19h42c12 0 19 -7 19 -19v-462c0 -12 -7 -19 -19 -19h-42z" />
    <glyph glyph-name="ibreve" unicode="&#x12d;" horiz-adv-x="236" 
d="M118 551c-77 0 -128 42 -134 113c-1 12 7 19 19 19h30c9 0 14 -5 15 -13c2 -37 29 -60 70 -60c40 0 67 23 69 60c1 8 6 13 15 13h30c12 0 20 -7 18 -20c-5 -70 -56 -112 -132 -112zM97 0c-12 0 -19 7 -19 19v462c0 12 7 19 19 19h42c12 0 19 -7 19 -19v-462
c0 -12 -7 -19 -19 -19h-42z" />
    <glyph glyph-name="icircumflex" unicode="&#xee;" horiz-adv-x="236" 
d="M-10 557c-15 0 -20 11 -11 23l85 101c6 8 13 12 23 12h63c9 0 17 -4 22 -12l85 -101c10 -12 5 -23 -10 -23h-28c-9 0 -17 2 -23 10l-75 74h-6l-74 -74c-7 -8 -14 -10 -24 -10h-27zM97 0c-12 0 -19 7 -19 19v462c0 12 7 19 19 19h42c12 0 19 -7 19 -19v-462
c0 -12 -7 -19 -19 -19h-42z" />
    <glyph glyph-name="uni0209" unicode="&#x209;" horiz-adv-x="236" 
d="M37 557c-10 0 -18 3 -23 13l-62 100c-8 13 -2 23 12 23h40c10 0 18 -4 22 -15l50 -100c6 -12 -1 -21 -15 -21h-24zM201 557c-10 0 -17 3 -23 13l-62 100c-7 13 -2 23 13 23h40c10 0 18 -4 22 -15l50 -100c5 -12 -2 -21 -15 -21h-25zM97 0c-12 0 -19 7 -19 19v462
c0 12 7 19 19 19h42c12 0 19 -7 19 -19v-462c0 -12 -7 -19 -19 -19h-42z" />
    <glyph glyph-name="idieresis" unicode="&#xef;" horiz-adv-x="236" 
d="M29 576c-29 0 -49 19 -49 49c0 29 20 49 49 49c30 0 49 -20 49 -49c0 -30 -19 -49 -49 -49zM208 576c-30 0 -50 19 -50 49c0 29 20 49 50 49c29 0 49 -20 49 -49c0 -30 -20 -49 -49 -49zM97 0c-12 0 -19 7 -19 19v462c0 12 7 19 19 19h42c12 0 19 -7 19 -19v-462
c0 -12 -7 -19 -19 -19h-42z" />
    <glyph glyph-name="i.loclTRK" horiz-adv-x="236" 
d="M118 576c-31 0 -51 20 -51 51s20 51 51 51s52 -20 52 -51s-21 -51 -52 -51zM97 0c-12 0 -19 7 -19 19v462c0 12 7 19 19 19h42c12 0 19 -7 19 -19v-462c0 -12 -7 -19 -19 -19h-42z" />
    <glyph glyph-name="uni1ECB" unicode="&#x1ecb;" horiz-adv-x="237" 
d="M119 596c-33 0 -54 21 -54 52s21 51 54 51c31 0 52 -20 52 -51s-21 -52 -52 -52zM98 0c-12 0 -19 7 -19 19v462c0 12 7 19 19 19h42c12 0 19 -7 19 -19v-462c0 -12 -7 -19 -19 -19h-42zM118 -178c-31 0 -51 20 -51 51s20 51 51 51s52 -20 52 -51s-21 -51 -52 -51z" />
    <glyph glyph-name="igrave" unicode="&#xec;" horiz-adv-x="236" 
d="M108 557c-9 0 -17 2 -23 10l-82 102c-10 13 -5 24 11 24h49c9 0 17 -4 22 -14l60 -100c7 -13 2 -22 -13 -22h-24zM97 0c-12 0 -19 7 -19 19v462c0 12 7 19 19 19h42c12 0 19 -7 19 -19v-462c0 -12 -7 -19 -19 -19h-42z" />
    <glyph glyph-name="uni020B" unicode="&#x20b;" horiz-adv-x="236" 
d="M118 689c76 0 127 -42 132 -112c2 -13 -6 -20 -18 -20h-30c-9 0 -14 4 -15 13c-2 36 -29 60 -69 60c-41 0 -68 -23 -70 -60c-1 -9 -6 -13 -15 -13h-30c-12 0 -21 7 -19 19c6 70 57 113 134 113zM97 0c-12 0 -19 7 -19 19v462c0 12 7 19 19 19h42c12 0 19 -7 19 -19v-462
c0 -12 -7 -19 -19 -19h-42z" />
    <glyph glyph-name="ij" unicode="&#x133;" horiz-adv-x="475" 
d="M119 596c-33 0 -54 21 -54 52s21 51 54 51c31 0 52 -20 52 -51s-21 -52 -52 -52zM359 596c-33 0 -53 21 -53 52s21 51 53 51s53 -20 53 -51s-21 -52 -53 -52zM98 0c-12 0 -19 7 -19 19v462c0 12 7 19 19 19h42c12 0 19 -7 19 -19v-462c0 -12 -7 -19 -19 -19h-42z
M218 -180c-12 0 -19 7 -19 19v30c0 12 7 19 19 19h29c44 0 73 28 73 71v522c0 12 7 19 19 19h42c12 0 19 -7 19 -19v-535c0 -76 -54 -126 -135 -126h-47z" />
    <glyph glyph-name="imacron" unicode="&#x12b;" horiz-adv-x="236" 
d="M2 587c-12 0 -19 7 -19 19v27c0 12 7 19 19 19h232c12 0 19 -7 19 -19v-27c0 -12 -7 -19 -19 -19h-232zM97 0c-12 0 -19 7 -19 19v462c0 12 7 19 19 19h42c12 0 19 -7 19 -19v-462c0 -12 -7 -19 -19 -19h-42z" />
    <glyph glyph-name="iogonek" unicode="&#x12f;" horiz-adv-x="236" 
d="M118 576c-31 0 -51 20 -51 51s20 51 51 51s52 -20 52 -51s-21 -51 -52 -51zM152 -136c10 3 15 -1 15 -12v-25c0 -9 -2 -14 -9 -17c-11 -5 -31 -9 -51 -9c-59 0 -97 34 -97 86c0 47 31 91 78 113v2c-6 2 -10 8 -10 17v462c0 12 7 19 19 19h42c12 0 19 -7 19 -19v-474
c0 -4 -3 -7 -8 -9c-40 -21 -67 -58 -67 -94c0 -27 19 -45 46 -45c8 0 17 2 23 5z" />
    <glyph glyph-name="itilde" unicode="&#x129;" horiz-adv-x="236" 
d="M195 571c-59 0 -95 53 -137 53c-23 0 -39 -13 -42 -36c-3 -8 -7 -12 -18 -12h-30c-9 0 -15 6 -15 16c4 63 35 98 88 98c59 0 92 -52 137 -52c23 0 39 13 42 36c3 8 7 12 18 12h30c9 0 15 -7 14 -21c-5 -60 -35 -94 -87 -94zM97 0c-12 0 -19 7 -19 19v462c0 12 7 19 19 19
h42c12 0 19 -7 19 -19v-462c0 -12 -7 -19 -19 -19h-42z" />
    <glyph glyph-name="j" unicode="j" horiz-adv-x="238" 
d="M122 596c-33 0 -53 21 -53 52s21 51 53 51s53 -20 53 -51s-21 -52 -53 -52zM-19 -180c-12 0 -19 7 -19 19v30c0 12 7 19 19 19h29c44 0 73 28 73 71v522c0 12 7 19 19 19h42c12 0 19 -7 19 -19v-535c0 -76 -54 -126 -135 -126h-47z" />
    <glyph glyph-name="uni0237" unicode="&#x237;" horiz-adv-x="238" 
d="M-19 -180c-12 0 -19 7 -19 19v30c0 12 7 19 19 19h29c44 0 73 28 73 71v522c0 12 7 19 19 19h42c12 0 19 -7 19 -19v-535c0 -76 -54 -126 -135 -126h-47z" />
    <glyph glyph-name="jcircumflex" unicode="&#x135;" horiz-adv-x="238" 
d="M-6 557c-15 0 -20 11 -11 23l85 101c6 8 13 12 23 12h63c9 0 17 -4 22 -12l85 -101c10 -12 5 -23 -10 -23h-28c-9 0 -17 2 -23 10l-75 74h-6l-74 -74c-7 -8 -14 -10 -24 -10h-27zM-19 -180c-12 0 -19 7 -19 19v30c0 12 7 19 19 19h29c44 0 73 28 73 71v522
c0 12 7 19 19 19h42c12 0 19 -7 19 -19v-535c0 -76 -54 -126 -135 -126h-47z" />
    <glyph glyph-name="k" unicode="k" horiz-adv-x="502" 
d="M474 23c7 -13 1 -23 -13 -23h-55c-10 0 -17 4 -22 13l-149 231l-77 -78v-147c0 -12 -7 -19 -19 -19h-42c-12 0 -19 7 -19 19v662c0 12 7 19 19 19h42c12 0 19 -7 19 -19v-410h6l215 217c6 9 13 12 23 12h54c13 0 18 -11 8 -24l-175 -177z" />
    <glyph glyph-name="uni0137" unicode="&#x137;" horiz-adv-x="502" 
d="M474 23c7 -13 1 -23 -13 -23h-55c-10 0 -17 4 -22 13l-149 231l-77 -78v-147c0 -12 -7 -19 -19 -19h-42c-12 0 -19 7 -19 19v662c0 12 7 19 19 19h42c12 0 19 -7 19 -19v-410h6l215 217c6 9 13 12 23 12h54c13 0 18 -11 8 -24l-175 -177zM309 -57c14 0 20 -9 14 -22
l-52 -130c-4 -10 -12 -14 -22 -14h-23c-13 0 -19 8 -16 21l31 129c3 11 10 16 21 16h47z" />
    <glyph glyph-name="l" unicode="l" horiz-adv-x="284" 
d="M202 0c-78 0 -129 48 -129 121v560c0 12 7 19 19 19h42c12 0 19 -7 19 -19v-541c0 -40 27 -66 68 -66h12c8 0 13 -5 13 -13v-42c0 -12 -7 -19 -19 -19h-25z" />
    <glyph glyph-name="lacute" unicode="&#x13a;" horiz-adv-x="284" 
d="M98 737c-14 0 -19 9 -12 22l60 100c5 10 13 14 23 14h47c16 0 22 -11 12 -24l-82 -102c-7 -8 -14 -10 -23 -10h-25zM202 0c-78 0 -129 48 -129 121v560c0 12 7 19 19 19h42c12 0 19 -7 19 -19v-541c0 -40 27 -66 68 -66h12c8 0 13 -5 13 -13v-42c0 -12 -7 -19 -19 -19
h-25z" />
    <glyph glyph-name="lcaron" unicode="&#x13e;" horiz-adv-x="321" 
d="M202 0c-78 0 -129 48 -129 121v560c0 12 7 19 19 19h42c12 0 19 -7 19 -19v-541c0 -40 27 -66 68 -66h12c8 0 13 -5 13 -13v-42c0 -12 -7 -19 -19 -19h-25zM253 534c-12 0 -19 7 -19 19v128c0 12 7 19 19 19h36c12 0 19 -7 17 -20l-11 -129c-2 -12 -9 -17 -20 -17h-22z
" />
    <glyph glyph-name="uni013C" unicode="&#x13c;" horiz-adv-x="284" 
d="M202 0c-78 0 -129 48 -129 121v560c0 12 7 19 19 19h42c12 0 19 -7 19 -19v-541c0 -40 27 -66 68 -66h12c8 0 13 -5 13 -13v-42c0 -12 -7 -19 -19 -19h-25zM102 -223c-13 0 -19 8 -16 21l31 129c3 11 10 16 21 16h47c14 0 20 -9 14 -22l-52 -130c-4 -10 -12 -14 -22 -14
h-23z" />
    <glyph glyph-name="ldot" unicode="&#x140;" horiz-adv-x="332" 
d="M202 0c-78 0 -129 48 -129 121v560c0 12 7 19 19 19h42c12 0 19 -7 19 -19v-541c0 -40 27 -66 68 -66h12c8 0 13 -5 13 -13v-42c0 -12 -7 -19 -19 -19h-25zM255 300c-29 0 -48 19 -48 47c0 29 19 48 48 48c28 0 47 -19 47 -48c0 -28 -19 -47 -47 -47z" />
    <glyph glyph-name="uni01C9" unicode="&#x1c9;" horiz-adv-x="523" 
d="M202 0c-78 0 -129 48 -129 121v560c0 12 7 19 19 19h42c12 0 19 -7 19 -19v-541c0 -40 27 -66 68 -66h12c8 0 13 -5 13 -13v-42c0 -12 -7 -19 -19 -19h-25zM406 596c-33 0 -53 21 -53 52s21 51 53 51s53 -20 53 -51s-21 -52 -53 -52zM265 -180c-12 0 -19 7 -19 19v30
c0 12 7 19 19 19h29c44 0 73 28 73 71v522c0 12 7 19 19 19h42c12 0 19 -7 19 -19v-535c0 -76 -54 -126 -135 -126h-47z" />
    <glyph glyph-name="lslash" unicode="&#x142;" horiz-adv-x="319" 
d="M268 74c8 0 13 -5 13 -13v-42c0 -12 -7 -19 -19 -19h-25c-78 0 -129 48 -129 121v187l-36 -17c-12 -5 -22 1 -22 15v37c0 10 4 18 15 22l43 21v295c0 12 7 19 19 19h42c12 0 19 -7 19 -19v-257l54 26c12 5 21 -1 21 -15v-37c0 -10 -4 -18 -14 -22l-61 -29v-207
c0 -40 27 -66 68 -66h12z" />
    <glyph glyph-name="m" unicode="m" horiz-adv-x="847" 
d="M618 512c94 0 158 -62 158 -158v-335c0 -12 -7 -19 -19 -19h-42c-12 0 -19 7 -19 19v309c0 65 -44 109 -110 109c-71 0 -119 -50 -119 -108v-310c0 -12 -7 -19 -19 -19h-42c-12 0 -19 7 -19 19v309c0 65 -44 109 -110 109c-71 0 -119 -50 -119 -108v-310
c0 -12 -7 -19 -19 -19h-42c-12 0 -19 7 -19 19v462c0 12 7 19 19 19h42c12 0 19 -7 19 -19v-59h6c19 53 73 90 145 90c73 0 128 -37 149 -99h4c21 57 77 99 156 99z" />
    <glyph glyph-name="n" unicode="n" horiz-adv-x="550" 
d="M315 512c98 0 164 -63 164 -158v-335c0 -12 -7 -19 -19 -19h-42c-12 0 -19 7 -19 19v306c0 68 -46 112 -116 112c-75 0 -125 -52 -125 -111v-307c0 -12 -7 -19 -19 -19h-42c-12 0 -19 7 -19 19v462c0 12 7 19 19 19h42c12 0 19 -7 19 -19v-61h6c20 54 77 92 151 92z" />
    <glyph glyph-name="nacute" unicode="&#x144;" horiz-adv-x="550" 
d="M264 557c-14 0 -19 9 -12 22l60 100c5 10 13 14 23 14h47c16 0 22 -11 12 -24l-82 -102c-7 -8 -14 -10 -23 -10h-25zM315 512c98 0 164 -63 164 -158v-335c0 -12 -7 -19 -19 -19h-42c-12 0 -19 7 -19 19v306c0 68 -46 112 -116 112c-75 0 -125 -52 -125 -111v-307
c0 -12 -7 -19 -19 -19h-42c-12 0 -19 7 -19 19v462c0 12 7 19 19 19h42c12 0 19 -7 19 -19v-61h6c20 54 77 92 151 92z" />
    <glyph glyph-name="ncaron" unicode="&#x148;" horiz-adv-x="550" 
d="M225 568l-85 101c-9 13 -4 24 11 24h27c10 0 17 -3 24 -10l74 -75h6l75 75c6 7 14 10 23 10h26c16 0 22 -11 12 -24l-84 -101c-6 -8 -14 -11 -23 -11h-63c-10 0 -17 3 -23 11zM315 512c98 0 164 -63 164 -158v-335c0 -12 -7 -19 -19 -19h-42c-12 0 -19 7 -19 19v306
c0 68 -46 112 -116 112c-75 0 -125 -52 -125 -111v-307c0 -12 -7 -19 -19 -19h-42c-12 0 -19 7 -19 19v462c0 12 7 19 19 19h42c12 0 19 -7 19 -19v-61h6c20 54 77 92 151 92z" />
    <glyph glyph-name="uni0146" unicode="&#x146;" horiz-adv-x="550" 
d="M315 512c98 0 164 -63 164 -158v-335c0 -12 -7 -19 -19 -19h-42c-12 0 -19 7 -19 19v306c0 68 -46 112 -116 112c-75 0 -125 -52 -125 -111v-307c0 -12 -7 -19 -19 -19h-42c-12 0 -19 7 -19 19v462c0 12 7 19 19 19h42c12 0 19 -7 19 -19v-61h6c20 54 77 92 151 92z
M308 -57c14 0 20 -9 14 -22l-52 -130c-4 -10 -12 -14 -22 -14h-23c-13 0 -19 8 -16 21l31 129c3 11 10 16 21 16h47z" />
    <glyph glyph-name="uni1E45" unicode="&#x1e45;" horiz-adv-x="550" 
d="M279 576c-31 0 -51 20 -51 51s20 51 51 51s52 -20 52 -51s-21 -51 -52 -51zM315 512c98 0 164 -63 164 -158v-335c0 -12 -7 -19 -19 -19h-42c-12 0 -19 7 -19 19v306c0 68 -46 112 -116 112c-75 0 -125 -52 -125 -111v-307c0 -12 -7 -19 -19 -19h-42c-12 0 -19 7 -19 19
v462c0 12 7 19 19 19h42c12 0 19 -7 19 -19v-61h6c20 54 77 92 151 92z" />
    <glyph glyph-name="eng" unicode="&#x14b;" horiz-adv-x="550" 
d="M315 512c98 0 164 -63 164 -158v-415c0 -65 -47 -108 -119 -108h-37c-12 0 -19 7 -19 19v28c0 10 6 16 15 16h23c34 0 57 20 57 53v378c0 68 -46 112 -116 112c-75 0 -125 -52 -125 -111v-307c0 -12 -7 -19 -19 -19h-42c-12 0 -19 7 -19 19v462c0 12 7 19 19 19h42
c12 0 19 -7 19 -19v-61h6c20 54 77 92 151 92z" />
    <glyph glyph-name="uni01CC" unicode="&#x1cc;" horiz-adv-x="788" 
d="M672 596c-33 0 -53 21 -53 52s21 51 53 51s53 -20 53 -51s-21 -52 -53 -52zM315 512c98 0 164 -63 164 -158v-335c0 -12 -7 -19 -19 -19h-42c-12 0 -19 7 -19 19v306c0 68 -46 112 -116 112c-75 0 -125 -52 -125 -111v-307c0 -12 -7 -19 -19 -19h-42c-12 0 -19 7 -19 19
v462c0 12 7 19 19 19h42c12 0 19 -7 19 -19v-61h6c20 54 77 92 151 92zM694 500c12 0 19 -7 19 -19v-535c0 -76 -54 -126 -135 -126h-47c-12 0 -19 7 -19 19v30c0 12 7 19 19 19h29c44 0 73 28 73 71v522c0 12 7 19 19 19h42z" />
    <glyph glyph-name="ntilde" unicode="&#xf1;" horiz-adv-x="550" 
d="M129 576c-9 0 -15 6 -15 16c4 63 35 98 88 98c59 0 92 -52 137 -52c23 0 39 13 42 36c3 8 7 12 18 12h30c9 0 15 -7 14 -21c-5 -60 -35 -94 -87 -94c-59 0 -95 53 -137 53c-23 0 -39 -13 -42 -36c-3 -8 -7 -12 -18 -12h-30zM315 512c98 0 164 -63 164 -158v-335
c0 -12 -7 -19 -19 -19h-42c-12 0 -19 7 -19 19v306c0 68 -46 112 -116 112c-75 0 -125 -52 -125 -111v-307c0 -12 -7 -19 -19 -19h-42c-12 0 -19 7 -19 19v462c0 12 7 19 19 19h42c12 0 19 -7 19 -19v-61h6c20 54 77 92 151 92z" />
    <glyph glyph-name="o" unicode="o" 
d="M260 -12c-123 0 -204 74 -204 186v152c0 112 81 186 204 186c122 0 203 -74 203 -186v-152c0 -112 -81 -186 -203 -186zM260 62c74 0 123 45 123 113v150c0 68 -49 113 -123 113c-75 0 -124 -45 -124 -113v-150c0 -68 49 -113 124 -113z" />
    <glyph glyph-name="oacute" unicode="&#xf3;" 
d="M244 557c-14 0 -19 9 -12 22l60 100c5 10 13 14 23 14h47c16 0 22 -11 12 -24l-82 -102c-7 -8 -14 -10 -23 -10h-25zM260 -12c-123 0 -204 74 -204 186v152c0 112 81 186 204 186c122 0 203 -74 203 -186v-152c0 -112 -81 -186 -203 -186zM260 62c74 0 123 45 123 113
v150c0 68 -49 113 -123 113c-75 0 -124 -45 -124 -113v-150c0 -68 49 -113 124 -113z" />
    <glyph glyph-name="obreve" unicode="&#x14f;" 
d="M260 551c-77 0 -128 42 -134 113c-1 12 7 19 19 19h30c9 0 14 -5 15 -13c2 -37 29 -60 70 -60c40 0 67 23 69 60c1 8 6 13 15 13h30c12 0 20 -7 18 -20c-5 -70 -56 -112 -132 -112zM260 -12c-123 0 -204 74 -204 186v152c0 112 81 186 204 186c122 0 203 -74 203 -186
v-152c0 -112 -81 -186 -203 -186zM260 62c74 0 123 45 123 113v150c0 68 -49 113 -123 113c-75 0 -124 -45 -124 -113v-150c0 -68 49 -113 124 -113z" />
    <glyph glyph-name="ocircumflex" unicode="&#xf4;" 
d="M131 557c-15 0 -20 11 -11 23l85 101c6 8 13 12 23 12h63c9 0 17 -4 22 -12l85 -101c10 -12 5 -23 -10 -23h-28c-9 0 -17 2 -23 10l-75 74h-6l-74 -74c-7 -8 -14 -10 -24 -10h-27zM260 -12c-123 0 -204 74 -204 186v152c0 112 81 186 204 186c122 0 203 -74 203 -186
v-152c0 -112 -81 -186 -203 -186zM260 62c74 0 123 45 123 113v150c0 68 -49 113 -123 113c-75 0 -124 -45 -124 -113v-150c0 -68 49 -113 124 -113z" />
    <glyph glyph-name="uni020D" unicode="&#x20d;" 
d="M179 557c-10 0 -18 3 -23 13l-62 100c-8 13 -2 23 12 23h40c10 0 18 -4 22 -15l50 -100c6 -12 -1 -21 -15 -21h-24zM343 557c-10 0 -17 3 -23 13l-62 100c-7 13 -2 23 13 23h40c10 0 18 -4 22 -15l50 -100c5 -12 -2 -21 -15 -21h-25zM260 -12c-123 0 -204 74 -204 186
v152c0 112 81 186 204 186c122 0 203 -74 203 -186v-152c0 -112 -81 -186 -203 -186zM260 62c74 0 123 45 123 113v150c0 68 -49 113 -123 113c-75 0 -124 -45 -124 -113v-150c0 -68 49 -113 124 -113z" />
    <glyph glyph-name="odieresis" unicode="&#xf6;" 
d="M170 576c-29 0 -49 19 -49 49c0 29 20 49 49 49c30 0 49 -20 49 -49c0 -30 -19 -49 -49 -49zM349 576c-30 0 -50 19 -50 49c0 29 20 49 50 49c29 0 49 -20 49 -49c0 -30 -20 -49 -49 -49zM260 -12c-123 0 -204 74 -204 186v152c0 112 81 186 204 186
c122 0 203 -74 203 -186v-152c0 -112 -81 -186 -203 -186zM260 62c74 0 123 45 123 113v150c0 68 -49 113 -123 113c-75 0 -124 -45 -124 -113v-150c0 -68 49 -113 124 -113z" />
    <glyph glyph-name="uni1ECD" unicode="&#x1ecd;" 
d="M260 -12c-123 0 -204 74 -204 186v152c0 112 81 186 204 186c122 0 203 -74 203 -186v-152c0 -112 -81 -186 -203 -186zM260 62c74 0 123 45 123 113v150c0 68 -49 113 -123 113c-75 0 -124 -45 -124 -113v-150c0 -68 49 -113 124 -113zM259 -178c-31 0 -51 20 -51 51
s20 51 51 51s52 -20 52 -51s-21 -51 -52 -51z" />
    <glyph glyph-name="ograve" unicode="&#xf2;" 
d="M249 557c-9 0 -17 2 -23 10l-82 102c-10 13 -5 24 11 24h49c9 0 17 -4 22 -14l60 -100c7 -13 2 -22 -13 -22h-24zM260 -12c-123 0 -204 74 -204 186v152c0 112 81 186 204 186c122 0 203 -74 203 -186v-152c0 -112 -81 -186 -203 -186zM260 62c74 0 123 45 123 113v150
c0 68 -49 113 -123 113c-75 0 -124 -45 -124 -113v-150c0 -68 49 -113 124 -113z" />
    <glyph glyph-name="ohungarumlaut" unicode="&#x151;" 
d="M150 557c-14 0 -19 9 -14 21l50 100c4 11 12 15 22 15h40c14 0 20 -10 13 -23l-63 -100c-5 -10 -12 -13 -22 -13h-26zM315 557c-14 0 -20 9 -15 21l50 100c4 11 12 15 22 15h40c15 0 21 -10 14 -23l-64 -100c-5 -10 -12 -13 -22 -13h-25zM260 -12
c-123 0 -204 74 -204 186v152c0 112 81 186 204 186c122 0 203 -74 203 -186v-152c0 -112 -81 -186 -203 -186zM260 62c74 0 123 45 123 113v150c0 68 -49 113 -123 113c-75 0 -124 -45 -124 -113v-150c0 -68 49 -113 124 -113z" />
    <glyph glyph-name="uni020F" unicode="&#x20f;" 
d="M260 689c76 0 127 -42 132 -112c2 -13 -6 -20 -18 -20h-30c-9 0 -14 4 -15 13c-2 36 -29 60 -69 60c-41 0 -68 -23 -70 -60c-1 -9 -6 -13 -15 -13h-30c-12 0 -21 7 -19 19c6 70 57 113 134 113zM260 -12c-123 0 -204 74 -204 186v152c0 112 81 186 204 186
c122 0 203 -74 203 -186v-152c0 -112 -81 -186 -203 -186zM260 62c74 0 123 45 123 113v150c0 68 -49 113 -123 113c-75 0 -124 -45 -124 -113v-150c0 -68 49 -113 124 -113z" />
    <glyph glyph-name="omacron" unicode="&#x14d;" 
d="M143 587c-12 0 -19 7 -19 19v27c0 12 7 19 19 19h232c12 0 19 -7 19 -19v-27c0 -12 -7 -19 -19 -19h-232zM260 -12c-123 0 -204 74 -204 186v152c0 112 81 186 204 186c122 0 203 -74 203 -186v-152c0 -112 -81 -186 -203 -186zM260 62c74 0 123 45 123 113v150
c0 68 -49 113 -123 113c-75 0 -124 -45 -124 -113v-150c0 -68 49 -113 124 -113z" />
    <glyph glyph-name="uni01EB" unicode="&#x1eb;" 
d="M260 512c122 0 203 -74 203 -186v-152c0 -88 -50 -152 -130 -176c-35 -21 -58 -56 -58 -89c0 -27 19 -45 46 -45c8 0 17 2 23 5c10 3 15 -1 15 -12v-25c0 -9 -2 -14 -9 -17c-11 -5 -31 -9 -51 -9c-59 0 -97 34 -97 86c0 37 19 72 50 96c-118 3 -196 76 -196 186v152
c0 112 81 186 204 186zM383 175v150c0 68 -49 113 -123 113c-75 0 -124 -45 -124 -113v-150c0 -68 49 -113 124 -113c74 0 123 45 123 113z" />
    <glyph glyph-name="oslash" unicode="&#xf8;" 
d="M416 453c30 -32 47 -76 47 -127v-152c0 -112 -81 -186 -203 -186c-42 0 -79 9 -109 24l-17 -26c-8 -11 -17 -16 -29 -16h-19c-16 0 -23 13 -12 29l30 47c-31 32 -48 76 -48 128v152c0 112 81 186 204 186c42 0 79 -9 110 -25l17 27c7 12 16 16 29 16h18
c16 0 23 -13 13 -29l-30 -46zM136 325v-150c0 -21 5 -40 13 -56l180 302c-19 11 -42 17 -69 17c-75 0 -124 -45 -124 -113zM383 175v150c0 20 -4 38 -12 54l-177 -295l-3 -6c19 -10 42 -16 69 -16c74 0 123 45 123 113z" />
    <glyph glyph-name="oslashacute" unicode="&#x1ff;" 
d="M254 557c-14 0 -19 9 -12 22l60 100c5 10 13 14 23 14h47c16 0 22 -11 12 -24l-82 -102c-7 -8 -14 -10 -23 -10h-25zM416 453c30 -32 47 -76 47 -127v-152c0 -112 -81 -186 -203 -186c-42 0 -79 9 -109 24l-17 -26c-8 -11 -17 -16 -29 -16h-19c-16 0 -23 13 -12 29l30 47
c-31 32 -48 76 -48 128v152c0 112 81 186 204 186c42 0 79 -9 110 -25l17 27c7 12 16 16 29 16h18c16 0 23 -13 13 -29l-30 -46zM136 325v-150c0 -21 5 -40 13 -56l180 302c-19 11 -42 17 -69 17c-75 0 -124 -45 -124 -113zM383 175v150c0 20 -4 38 -12 54l-177 -295l-3 -6
c19 -10 42 -16 69 -16c74 0 123 45 123 113z" />
    <glyph glyph-name="otilde" unicode="&#xf5;" 
d="M336 571c-59 0 -95 53 -137 53c-23 0 -39 -13 -42 -36c-3 -8 -7 -12 -18 -12h-30c-9 0 -15 6 -15 16c4 63 35 98 88 98c59 0 92 -52 137 -52c23 0 39 13 42 36c3 8 7 12 18 12h30c9 0 15 -7 14 -21c-5 -60 -35 -94 -87 -94zM260 -12c-123 0 -204 74 -204 186v152
c0 112 81 186 204 186c122 0 203 -74 203 -186v-152c0 -112 -81 -186 -203 -186zM260 62c74 0 123 45 123 113v150c0 68 -49 113 -123 113c-75 0 -124 -45 -124 -113v-150c0 -68 49 -113 124 -113z" />
    <glyph glyph-name="oe" unicode="&#x153;" horiz-adv-x="846" 
d="M771 220h-308v-48c0 -69 50 -114 129 -114c64 0 107 28 115 75c4 11 9 17 21 17h42c12 0 21 -7 19 -20c-10 -91 -84 -142 -190 -142c-87 0 -152 37 -174 94h-5c-21 -57 -86 -94 -168 -94c-117 0 -197 73 -197 183v158c0 110 80 183 197 183c80 0 144 -35 168 -93h5
c24 57 87 93 168 93c117 0 197 -73 197 -184v-89c0 -12 -7 -19 -19 -19zM587 442c-74 0 -124 -45 -124 -113v-42h247v42c0 68 -49 113 -123 113zM382 175v150c0 68 -48 113 -123 113c-74 0 -124 -45 -124 -113v-150c0 -68 50 -113 124 -113c75 0 123 45 123 113z" />
    <glyph glyph-name="p" unicode="p" horiz-adv-x="544" 
d="M315 512c101 0 170 -67 170 -166v-192c0 -99 -69 -166 -170 -166c-75 0 -132 38 -151 92h-6v-241c0 -12 -7 -19 -19 -19h-42c-12 0 -19 7 -19 19v642c0 12 7 19 19 19h42c12 0 19 -7 19 -19v-61h6c19 54 76 92 151 92zM405 176v148c0 68 -48 113 -121 113
c-76 0 -126 -53 -126 -112v-150c0 -59 50 -112 126 -112c73 0 121 45 121 113z" />
    <glyph glyph-name="thorn" unicode="&#xfe;" horiz-adv-x="544" 
d="M315 512c101 0 170 -67 170 -166v-192c0 -99 -69 -166 -170 -166c-75 0 -132 38 -151 92h-6v-241c0 -12 -7 -19 -19 -19h-42c-12 0 -19 7 -19 19v842c0 12 7 19 19 19h42c12 0 19 -7 19 -19v-261h6c19 54 76 92 151 92zM405 176v148c0 68 -48 113 -121 113
c-76 0 -126 -53 -126 -112v-150c0 -59 50 -112 126 -112c73 0 121 45 121 113z" />
    <glyph glyph-name="q" unicode="q" horiz-adv-x="544" 
d="M447 500c12 0 19 -7 19 -19v-642c0 -12 -7 -19 -19 -19h-42c-12 0 -19 7 -19 19v241h-6c-20 -54 -77 -92 -151 -92c-102 0 -170 67 -170 166v192c0 99 68 166 170 166c74 0 131 -38 151 -92h6v61c0 12 7 19 19 19h42zM260 63c75 0 126 53 126 112v150
c0 59 -51 112 -126 112c-73 0 -121 -45 -121 -113v-148c0 -68 48 -113 121 -113z" />
    <glyph glyph-name="r" unicode="r" horiz-adv-x="367" 
d="M314 511c12 1 20 -6 20 -19v-43c0 -11 -7 -19 -19 -19c-103 0 -157 -59 -157 -139v-272c0 -12 -7 -19 -19 -19h-42c-12 0 -19 7 -19 19v462c0 12 7 19 19 19h42c12 0 19 -7 19 -19v-74h6c22 69 71 102 150 104z" />
    <glyph glyph-name="racute" unicode="&#x155;" horiz-adv-x="367" 
d="M189 557c-14 0 -19 9 -12 22l60 100c5 10 13 14 23 14h47c16 0 22 -11 12 -24l-82 -102c-7 -8 -14 -10 -23 -10h-25zM314 511c12 1 20 -6 20 -19v-43c0 -11 -7 -19 -19 -19c-103 0 -157 -59 -157 -139v-272c0 -12 -7 -19 -19 -19h-42c-12 0 -19 7 -19 19v462
c0 12 7 19 19 19h42c12 0 19 -7 19 -19v-74h6c22 69 71 102 150 104z" />
    <glyph glyph-name="rcaron" unicode="&#x159;" horiz-adv-x="367" 
d="M331 693c16 0 22 -11 12 -24l-84 -101c-6 -8 -14 -11 -23 -11h-63c-10 0 -17 3 -23 11l-85 101c-9 13 -4 24 11 24h27c10 0 17 -3 24 -10l74 -75h6l75 75c6 7 14 10 23 10h26zM314 511c12 1 20 -6 20 -19v-43c0 -11 -7 -19 -19 -19c-103 0 -157 -59 -157 -139v-272
c0 -12 -7 -19 -19 -19h-42c-12 0 -19 7 -19 19v462c0 12 7 19 19 19h42c12 0 19 -7 19 -19v-74h6c22 69 71 102 150 104z" />
    <glyph glyph-name="uni0157" unicode="&#x157;" horiz-adv-x="367" 
d="M314 511c12 1 20 -6 20 -19v-43c0 -11 -7 -19 -19 -19c-103 0 -157 -59 -157 -139v-272c0 -12 -7 -19 -19 -19h-42c-12 0 -19 7 -19 19v462c0 12 7 19 19 19h42c12 0 19 -7 19 -19v-74h6c22 69 71 102 150 104zM147 -57c14 0 20 -9 14 -22l-52 -130
c-4 -10 -12 -14 -22 -14h-23c-13 0 -19 8 -16 21l31 129c3 11 10 16 21 16h47z" />
    <glyph glyph-name="uni0211" unicode="&#x211;" horiz-adv-x="367" 
d="M123 557c-10 0 -18 3 -23 13l-62 100c-8 13 -2 23 12 23h40c10 0 18 -4 22 -15l50 -100c6 -12 -1 -21 -15 -21h-24zM264 570l-62 100c-7 13 -2 23 13 23h40c10 0 18 -4 22 -15l50 -100c5 -12 -2 -21 -15 -21h-25c-10 0 -17 3 -23 13zM314 511c12 1 20 -6 20 -19v-43
c0 -11 -7 -19 -19 -19c-103 0 -157 -59 -157 -139v-272c0 -12 -7 -19 -19 -19h-42c-12 0 -19 7 -19 19v462c0 12 7 19 19 19h42c12 0 19 -7 19 -19v-74h6c22 69 71 102 150 104z" />
    <glyph glyph-name="uni1E5B" unicode="&#x1e5b;" horiz-adv-x="367" 
d="M314 511c12 1 20 -6 20 -19v-43c0 -11 -7 -19 -19 -19c-103 0 -157 -59 -157 -139v-272c0 -12 -7 -19 -19 -19h-42c-12 0 -19 7 -19 19v462c0 12 7 19 19 19h42c12 0 19 -7 19 -19v-74h6c22 69 71 102 150 104zM118 -76c31 0 52 -20 52 -51s-21 -51 -52 -51
s-51 20 -51 51s20 51 51 51z" />
    <glyph glyph-name="uni0213" unicode="&#x213;" horiz-adv-x="367" 
d="M119 557h-30c-12 0 -21 7 -19 19c6 70 57 113 134 113c76 0 127 -42 132 -112c2 -13 -6 -20 -18 -20h-30c-9 0 -14 4 -15 13c-2 36 -29 60 -69 60c-41 0 -68 -23 -70 -60c-1 -9 -6 -13 -15 -13zM314 511c12 1 20 -6 20 -19v-43c0 -11 -7 -19 -19 -19
c-103 0 -157 -59 -157 -139v-272c0 -12 -7 -19 -19 -19h-42c-12 0 -19 7 -19 19v462c0 12 7 19 19 19h42c12 0 19 -7 19 -19v-74h6c22 69 71 102 150 104z" />
    <glyph glyph-name="s" unicode="s" horiz-adv-x="470" 
d="M237 -12c-112 0 -185 51 -194 142c-2 12 6 19 18 19h46c11 0 15 -5 19 -17c9 -51 51 -74 111 -74c66 0 108 30 108 76c0 118 -296 44 -296 231c0 93 73 147 181 147c106 0 176 -47 185 -131c2 -13 -7 -20 -19 -20h-41c-14 0 -18 8 -24 18c-13 42 -47 63 -99 63
c-61 0 -100 -28 -100 -71c0 -116 296 -39 296 -229c0 -96 -75 -154 -191 -154z" />
    <glyph glyph-name="sacute" unicode="&#x15b;" horiz-adv-x="470" 
d="M219 557c-14 0 -19 9 -12 22l60 100c5 10 13 14 23 14h47c16 0 22 -11 12 -24l-82 -102c-7 -8 -14 -10 -23 -10h-25zM237 -12c-112 0 -185 51 -194 142c-2 12 6 19 18 19h46c11 0 15 -5 19 -17c9 -51 51 -74 111 -74c66 0 108 30 108 76c0 118 -296 44 -296 231
c0 93 73 147 181 147c106 0 176 -47 185 -131c2 -13 -7 -20 -19 -20h-41c-14 0 -18 8 -24 18c-13 42 -47 63 -99 63c-61 0 -100 -28 -100 -71c0 -116 296 -39 296 -229c0 -96 -75 -154 -191 -154z" />
    <glyph glyph-name="scaron" unicode="&#x161;" horiz-adv-x="470" 
d="M203 557c-10 0 -17 3 -23 11l-85 101c-9 13 -4 24 11 24h27c10 0 17 -3 24 -10l74 -75h6l75 75c6 7 14 10 23 10h26c16 0 22 -11 12 -24l-84 -101c-6 -8 -14 -11 -23 -11h-63zM237 -12c-112 0 -185 51 -194 142c-2 12 6 19 18 19h46c11 0 15 -5 19 -17
c9 -51 51 -74 111 -74c66 0 108 30 108 76c0 118 -296 44 -296 231c0 93 73 147 181 147c106 0 176 -47 185 -131c2 -13 -7 -20 -19 -20h-41c-14 0 -18 8 -24 18c-13 42 -47 63 -99 63c-61 0 -100 -28 -100 -71c0 -116 296 -39 296 -229c0 -96 -75 -154 -191 -154z" />
    <glyph glyph-name="scedilla" unicode="&#x15f;" horiz-adv-x="470" 
d="M428 142c0 -92 -69 -150 -178 -154l-21 -41h27c50 0 82 -31 82 -77c0 -53 -46 -87 -113 -87c-22 0 -45 4 -62 10c-11 3 -16 11 -16 22v10c0 13 7 19 19 16c14 -7 33 -11 51 -11c38 0 64 16 64 42c0 22 -16 36 -41 36h-55c-9 0 -15 5 -15 15v5c0 5 2 10 4 15l26 47
c-91 10 -149 60 -157 140c-2 12 6 19 18 19h46c11 0 15 -5 19 -17c9 -51 51 -74 111 -74c66 0 108 30 108 76c0 118 -296 44 -296 231c0 93 73 147 181 147c106 0 176 -47 185 -131c2 -13 -7 -20 -19 -20h-41c-14 0 -18 8 -24 18c-13 42 -47 63 -99 63
c-61 0 -100 -28 -100 -71c0 -116 296 -39 296 -229z" />
    <glyph glyph-name="scircumflex" unicode="&#x15d;" horiz-adv-x="470" 
d="M106 557c-15 0 -20 11 -11 23l85 101c6 8 13 12 23 12h63c9 0 17 -4 22 -12l85 -101c10 -12 5 -23 -10 -23h-28c-9 0 -17 2 -23 10l-75 74h-6l-74 -74c-7 -8 -14 -10 -24 -10h-27zM237 -12c-112 0 -185 51 -194 142c-2 12 6 19 18 19h46c11 0 15 -5 19 -17
c9 -51 51 -74 111 -74c66 0 108 30 108 76c0 118 -296 44 -296 231c0 93 73 147 181 147c106 0 176 -47 185 -131c2 -13 -7 -20 -19 -20h-41c-14 0 -18 8 -24 18c-13 42 -47 63 -99 63c-61 0 -100 -28 -100 -71c0 -116 296 -39 296 -229c0 -96 -75 -154 -191 -154z" />
    <glyph glyph-name="uni0219" unicode="&#x219;" horiz-adv-x="470" 
d="M237 -12c-112 0 -185 51 -194 142c-2 12 6 19 18 19h46c11 0 15 -5 19 -17c9 -51 51 -74 111 -74c66 0 108 30 108 76c0 118 -296 44 -296 231c0 93 73 147 181 147c106 0 176 -47 185 -131c2 -13 -7 -20 -19 -20h-41c-14 0 -18 8 -24 18c-13 42 -47 63 -99 63
c-61 0 -100 -28 -100 -71c0 -116 296 -39 296 -229c0 -96 -75 -154 -191 -154zM180 -223c-13 0 -19 8 -16 21l31 129c3 11 10 16 21 16h47c14 0 20 -9 14 -22l-52 -130c-4 -10 -12 -14 -22 -14h-23z" />
    <glyph glyph-name="uni1E63" unicode="&#x1e63;" horiz-adv-x="470" 
d="M237 -12c-112 0 -185 51 -194 142c-2 12 6 19 18 19h46c11 0 15 -5 19 -17c9 -51 51 -74 111 -74c66 0 108 30 108 76c0 118 -296 44 -296 231c0 93 73 147 181 147c106 0 176 -47 185 -131c2 -13 -7 -20 -19 -20h-41c-14 0 -18 8 -24 18c-13 42 -47 63 -99 63
c-61 0 -100 -28 -100 -71c0 -116 296 -39 296 -229c0 -96 -75 -154 -191 -154zM234 -178c-31 0 -51 20 -51 51s20 51 51 51s52 -20 52 -51s-21 -51 -52 -51z" />
    <glyph glyph-name="germandbls" unicode="&#xdf;" horiz-adv-x="537" 
d="M92 0c-12 0 -19 7 -19 19v483c0 109 79 180 201 180c119 0 198 -71 198 -179c0 -73 -39 -131 -99 -149v-6c74 -14 123 -83 123 -169c0 -108 -74 -179 -187 -179h-49c-12 0 -19 7 -19 19v36c0 10 6 16 15 16h41c72 0 119 48 119 121s-47 122 -119 122h-34
c-8 0 -14 5 -14 14v42c0 7 5 11 12 11h19c67 0 112 46 112 114c0 70 -47 116 -119 116c-73 0 -120 -47 -120 -117v-475c0 -12 -7 -19 -19 -19h-42z" />
    <glyph glyph-name="t" unicode="t" horiz-adv-x="368" 
d="M307 500c12 0 19 -7 19 -19v-34c0 -12 -7 -19 -19 -19h-108v-283c0 -43 29 -71 73 -71h29c12 0 19 -7 19 -19v-36c0 -12 -7 -19 -19 -19h-47c-81 0 -135 50 -135 126v302h-71c-12 0 -19 7 -19 19v35c0 11 7 18 18 18h47c20 0 31 11 31 31v80c0 12 7 19 19 19h36
c12 0 19 -7 19 -19v-111h108z" />
    <glyph glyph-name="tbar" unicode="&#x167;" horiz-adv-x="368" 
d="M307 500c12 0 19 -7 19 -19v-34c0 -12 -7 -19 -19 -19h-108v-137h89c12 0 19 -7 19 -19v-28c0 -12 -7 -19 -19 -19h-89v-80c0 -43 29 -71 73 -71h29c12 0 19 -7 19 -19v-36c0 -12 -7 -19 -19 -19h-47c-81 0 -135 50 -135 126v99h-51c-12 0 -19 7 -19 19v28
c0 12 7 19 19 19h51v137h-71c-12 0 -19 7 -19 19v35c0 11 7 18 18 18h47c20 0 31 11 31 31v80c0 12 7 19 19 19h36c12 0 19 -7 19 -19v-111h108z" />
    <glyph glyph-name="tcaron" unicode="&#x165;" horiz-adv-x="368" 
d="M319 727c13 0 20 -7 18 -20l-12 -129c-1 -12 -9 -17 -20 -17h-22c-12 0 -19 7 -19 19v128c0 12 7 19 19 19h36zM307 500c12 0 19 -7 19 -19v-34c0 -12 -7 -19 -19 -19h-108v-283c0 -43 29 -71 73 -71h29c12 0 19 -7 19 -19v-36c0 -12 -7 -19 -19 -19h-47
c-81 0 -135 50 -135 126v302h-71c-12 0 -19 7 -19 19v35c0 11 7 18 18 18h47c20 0 31 11 31 31v80c0 12 7 19 19 19h36c12 0 19 -7 19 -19v-111h108z" />
    <glyph glyph-name="uni0163" unicode="&#x163;" horiz-adv-x="368" 
d="M307 500c12 0 19 -7 19 -19v-34c0 -12 -7 -19 -19 -19h-108v-283c0 -43 29 -71 73 -71h29c12 0 19 -7 19 -19v-36c0 -12 -7 -19 -19 -19h-47c-11 0 -21 1 -30 3l-28 -56h27c50 0 82 -31 82 -77c0 -53 -46 -87 -113 -87c-22 0 -45 4 -62 10c-11 3 -16 11 -16 22v10
c0 13 7 19 19 16c14 -7 33 -11 51 -11c38 0 64 16 64 42c0 22 -16 36 -41 36h-54c-10 0 -15 5 -15 15v6c0 5 1 9 3 14l40 74c-39 21 -62 59 -62 109v302h-71c-12 0 -19 7 -19 19v35c0 11 7 18 18 18h47c20 0 31 11 31 31v80c0 12 7 19 19 19h36c12 0 19 -7 19 -19v-111h108z
" />
    <glyph glyph-name="uni021B" unicode="&#x21b;" horiz-adv-x="368" 
d="M307 500c12 0 19 -7 19 -19v-34c0 -12 -7 -19 -19 -19h-108v-283c0 -43 29 -71 73 -71h29c12 0 19 -7 19 -19v-36c0 -12 -7 -19 -19 -19h-47c-81 0 -135 50 -135 126v302h-71c-12 0 -19 7 -19 19v35c0 11 7 18 18 18h47c20 0 31 11 31 31v80c0 12 7 19 19 19h36
c12 0 19 -7 19 -19v-111h108zM231 -57c14 0 20 -9 14 -22l-52 -130c-4 -10 -12 -14 -22 -14h-23c-13 0 -19 8 -16 21l31 129c3 11 10 16 21 16h47z" />
    <glyph glyph-name="uni1E6D" unicode="&#x1e6d;" horiz-adv-x="368" 
d="M307 500c12 0 19 -7 19 -19v-34c0 -12 -7 -19 -19 -19h-108v-283c0 -43 29 -71 73 -71h29c12 0 19 -7 19 -19v-36c0 -12 -7 -19 -19 -19h-47c-81 0 -135 50 -135 126v302h-71c-12 0 -19 7 -19 19v35c0 11 7 18 18 18h47c20 0 31 11 31 31v80c0 12 7 19 19 19h36
c12 0 19 -7 19 -19v-111h108zM201 -76c31 0 52 -20 52 -51s-21 -51 -52 -51s-51 20 -51 51s20 51 51 51z" />
    <glyph glyph-name="u" unicode="u" horiz-adv-x="538" 
d="M441 500c12 0 19 -7 19 -19v-462c0 -12 -7 -19 -19 -19h-42c-12 0 -19 7 -19 19v59h-5c-20 -53 -73 -90 -146 -90c-94 0 -158 62 -158 156v337c0 12 7 19 19 19h42c12 0 19 -7 19 -19v-309c0 -65 44 -109 110 -109c72 0 119 50 119 108v310c0 12 7 19 19 19h42z" />
    <glyph glyph-name="uacute" unicode="&#xfa;" horiz-adv-x="538" 
d="M251 557c-14 0 -19 9 -12 22l60 100c5 10 13 14 23 14h47c16 0 22 -11 12 -24l-82 -102c-7 -8 -14 -10 -23 -10h-25zM441 500c12 0 19 -7 19 -19v-462c0 -12 -7 -19 -19 -19h-42c-12 0 -19 7 -19 19v59h-5c-20 -53 -73 -90 -146 -90c-94 0 -158 62 -158 156v337
c0 12 7 19 19 19h42c12 0 19 -7 19 -19v-309c0 -65 44 -109 110 -109c72 0 119 50 119 108v310c0 12 7 19 19 19h42z" />
    <glyph glyph-name="ubreve" unicode="&#x16d;" horiz-adv-x="538" 
d="M266 551c-77 0 -128 42 -134 113c-1 12 7 19 19 19h30c9 0 14 -5 15 -13c2 -37 29 -60 70 -60c40 0 67 23 69 60c1 8 6 13 15 13h30c12 0 20 -7 18 -20c-5 -70 -56 -112 -132 -112zM441 500c12 0 19 -7 19 -19v-462c0 -12 -7 -19 -19 -19h-42c-12 0 -19 7 -19 19v59h-5
c-20 -53 -73 -90 -146 -90c-94 0 -158 62 -158 156v337c0 12 7 19 19 19h42c12 0 19 -7 19 -19v-309c0 -65 44 -109 110 -109c72 0 119 50 119 108v310c0 12 7 19 19 19h42z" />
    <glyph glyph-name="ucircumflex" unicode="&#xfb;" horiz-adv-x="538" 
d="M137 557c-15 0 -20 11 -11 23l85 101c6 8 13 12 23 12h63c9 0 17 -4 22 -12l85 -101c10 -12 5 -23 -10 -23h-28c-9 0 -17 2 -23 10l-75 74h-6l-74 -74c-7 -8 -14 -10 -24 -10h-27zM441 500c12 0 19 -7 19 -19v-462c0 -12 -7 -19 -19 -19h-42c-12 0 -19 7 -19 19v59h-5
c-20 -53 -73 -90 -146 -90c-94 0 -158 62 -158 156v337c0 12 7 19 19 19h42c12 0 19 -7 19 -19v-309c0 -65 44 -109 110 -109c72 0 119 50 119 108v310c0 12 7 19 19 19h42z" />
    <glyph glyph-name="uni0215" unicode="&#x215;" horiz-adv-x="538" 
d="M162 570l-62 100c-8 13 -2 23 12 23h40c10 0 18 -4 22 -15l50 -100c6 -12 -1 -21 -15 -21h-24c-10 0 -18 3 -23 13zM326 570l-62 100c-7 13 -2 23 13 23h40c10 0 18 -4 22 -15l50 -100c5 -12 -2 -21 -15 -21h-25c-10 0 -17 3 -23 13zM441 500c12 0 19 -7 19 -19v-462
c0 -12 -7 -19 -19 -19h-42c-12 0 -19 7 -19 19v59h-5c-20 -53 -73 -90 -146 -90c-94 0 -158 62 -158 156v337c0 12 7 19 19 19h42c12 0 19 -7 19 -19v-309c0 -65 44 -109 110 -109c72 0 119 50 119 108v310c0 12 7 19 19 19h42z" />
    <glyph glyph-name="udieresis" unicode="&#xfc;" horiz-adv-x="538" 
d="M176 576c-29 0 -49 19 -49 49c0 29 20 49 49 49c30 0 49 -20 49 -49c0 -30 -19 -49 -49 -49zM355 576c-30 0 -50 19 -50 49c0 29 20 49 50 49c29 0 49 -20 49 -49c0 -30 -20 -49 -49 -49zM441 500c12 0 19 -7 19 -19v-462c0 -12 -7 -19 -19 -19h-42c-12 0 -19 7 -19 19
v59h-5c-20 -53 -73 -90 -146 -90c-94 0 -158 62 -158 156v337c0 12 7 19 19 19h42c12 0 19 -7 19 -19v-309c0 -65 44 -109 110 -109c72 0 119 50 119 108v310c0 12 7 19 19 19h42z" />
    <glyph glyph-name="uni1EE5" unicode="&#x1ee5;" horiz-adv-x="538" 
d="M441 500c12 0 19 -7 19 -19v-462c0 -12 -7 -19 -19 -19h-42c-12 0 -19 7 -19 19v59h-5c-20 -53 -73 -90 -146 -90c-94 0 -158 62 -158 156v337c0 12 7 19 19 19h42c12 0 19 -7 19 -19v-309c0 -65 44 -109 110 -109c72 0 119 50 119 108v310c0 12 7 19 19 19h42zM266 -76
c31 0 52 -20 52 -51s-21 -51 -52 -51s-51 20 -51 51s20 51 51 51z" />
    <glyph glyph-name="ugrave" unicode="&#xf9;" horiz-adv-x="538" 
d="M232 567l-82 102c-10 13 -5 24 11 24h49c9 0 17 -4 22 -14l60 -100c7 -13 2 -22 -13 -22h-24c-9 0 -17 2 -23 10zM441 500c12 0 19 -7 19 -19v-462c0 -12 -7 -19 -19 -19h-42c-12 0 -19 7 -19 19v59h-5c-20 -53 -73 -90 -146 -90c-94 0 -158 62 -158 156v337
c0 12 7 19 19 19h42c12 0 19 -7 19 -19v-309c0 -65 44 -109 110 -109c72 0 119 50 119 108v310c0 12 7 19 19 19h42z" />
    <glyph glyph-name="uhungarumlaut" unicode="&#x171;" horiz-adv-x="538" 
d="M156 557c-14 0 -19 9 -14 21l50 100c4 11 12 15 22 15h40c14 0 20 -10 13 -23l-63 -100c-5 -10 -12 -13 -22 -13h-26zM321 557c-14 0 -20 9 -15 21l50 100c4 11 12 15 22 15h40c15 0 21 -10 14 -23l-64 -100c-5 -10 -12 -13 -22 -13h-25zM441 500c12 0 19 -7 19 -19v-462
c0 -12 -7 -19 -19 -19h-42c-12 0 -19 7 -19 19v59h-5c-20 -53 -73 -90 -146 -90c-94 0 -158 62 -158 156v337c0 12 7 19 19 19h42c12 0 19 -7 19 -19v-309c0 -65 44 -109 110 -109c72 0 119 50 119 108v310c0 12 7 19 19 19h42z" />
    <glyph glyph-name="uni0217" unicode="&#x217;" horiz-adv-x="538" 
d="M151 557c-12 0 -21 7 -19 19c6 70 57 113 134 113c76 0 127 -42 132 -112c2 -13 -6 -20 -18 -20h-30c-9 0 -14 4 -15 13c-2 36 -29 60 -69 60c-41 0 -68 -23 -70 -60c-1 -9 -6 -13 -15 -13h-30zM441 500c12 0 19 -7 19 -19v-462c0 -12 -7 -19 -19 -19h-42
c-12 0 -19 7 -19 19v59h-5c-20 -53 -73 -90 -146 -90c-94 0 -158 62 -158 156v337c0 12 7 19 19 19h42c12 0 19 -7 19 -19v-309c0 -65 44 -109 110 -109c72 0 119 50 119 108v310c0 12 7 19 19 19h42z" />
    <glyph glyph-name="umacron" unicode="&#x16b;" horiz-adv-x="538" 
d="M150 587c-12 0 -19 7 -19 19v27c0 12 7 19 19 19h232c12 0 19 -7 19 -19v-27c0 -12 -7 -19 -19 -19h-232zM441 500c12 0 19 -7 19 -19v-462c0 -12 -7 -19 -19 -19h-42c-12 0 -19 7 -19 19v59h-5c-20 -53 -73 -90 -146 -90c-94 0 -158 62 -158 156v337c0 12 7 19 19 19h42
c12 0 19 -7 19 -19v-309c0 -65 44 -109 110 -109c72 0 119 50 119 108v310c0 12 7 19 19 19h42z" />
    <glyph glyph-name="uogonek" unicode="&#x173;" horiz-adv-x="538" 
d="M454 -136c10 3 15 -1 15 -12v-25c0 -9 -2 -14 -9 -17c-11 -5 -31 -9 -51 -9c-59 0 -97 34 -97 86c0 47 31 91 78 113v2c-6 2 -10 8 -10 17v59h-5c-20 -53 -73 -90 -146 -90c-94 0 -158 62 -158 156v337c0 12 7 19 19 19h42c12 0 19 -7 19 -19v-309
c0 -65 44 -109 110 -109c72 0 119 50 119 108v310c0 12 7 19 19 19h42c12 0 19 -7 19 -19v-474c0 -4 -3 -7 -8 -9c-40 -21 -67 -58 -67 -94c0 -27 19 -45 46 -45c8 0 17 2 23 5z" />
    <glyph glyph-name="uring" unicode="&#x16f;" horiz-adv-x="538" 
d="M266 551c-61 0 -101 38 -101 96s40 96 101 96c59 0 100 -38 100 -96s-41 -96 -100 -96zM266 702c-34 0 -56 -22 -56 -55s22 -55 56 -55c32 0 55 22 55 55s-23 55 -55 55zM441 500c12 0 19 -7 19 -19v-462c0 -12 -7 -19 -19 -19h-42c-12 0 -19 7 -19 19v59h-5
c-20 -53 -73 -90 -146 -90c-94 0 -158 62 -158 156v337c0 12 7 19 19 19h42c12 0 19 -7 19 -19v-309c0 -65 44 -109 110 -109c72 0 119 50 119 108v310c0 12 7 19 19 19h42z" />
    <glyph glyph-name="utilde" unicode="&#x169;" horiz-adv-x="538" 
d="M116 576c-9 0 -15 6 -15 16c4 63 35 98 88 98c59 0 92 -52 137 -52c23 0 39 13 42 36c3 8 7 12 18 12h30c9 0 15 -7 14 -21c-5 -60 -35 -94 -87 -94c-59 0 -95 53 -137 53c-23 0 -39 -13 -42 -36c-3 -8 -7 -12 -18 -12h-30zM441 500c12 0 19 -7 19 -19v-462
c0 -12 -7 -19 -19 -19h-42c-12 0 -19 7 -19 19v59h-5c-20 -53 -73 -90 -146 -90c-94 0 -158 62 -158 156v337c0 12 7 19 19 19h42c12 0 19 -7 19 -19v-309c0 -65 44 -109 110 -109c72 0 119 50 119 108v310c0 12 7 19 19 19h42z" />
    <glyph glyph-name="v" unicode="v" horiz-adv-x="510" 
d="M223 0c-11 0 -19 5 -21 16l-166 463c-4 13 3 21 14 21h51c12 0 19 -5 21 -17l132 -394h6l131 394c2 12 9 17 21 17h48c11 0 18 -8 14 -21l-166 -463c-3 -11 -10 -16 -21 -16h-64z" />
    <glyph glyph-name="w" unicode="w" horiz-adv-x="808" 
d="M207 0c-11 0 -19 6 -22 17l-146 462c-4 12 3 21 15 21h51c11 0 19 -7 20 -17l114 -386h6l118 386c2 11 9 17 20 17h45c11 0 18 -6 21 -17l117 -386h6l114 386c2 10 9 17 20 17h49c11 0 18 -9 14 -21l-146 -462c-3 -11 -11 -17 -22 -17h-57c-12 0 -19 6 -21 17l-116 362
h-6l-116 -362c-2 -11 -9 -17 -21 -17h-57z" />
    <glyph glyph-name="wacute" unicode="&#x1e83;" horiz-adv-x="808" 
d="M389 557c-14 0 -19 9 -12 22l60 100c5 10 13 14 23 14h47c16 0 22 -11 12 -24l-82 -102c-7 -8 -14 -10 -23 -10h-25zM207 0c-11 0 -19 6 -22 17l-146 462c-4 12 3 21 15 21h51c11 0 19 -7 20 -17l114 -386h6l118 386c2 11 9 17 20 17h45c11 0 18 -6 21 -17l117 -386h6
l114 386c2 10 9 17 20 17h49c11 0 18 -9 14 -21l-146 -462c-3 -11 -11 -17 -22 -17h-57c-12 0 -19 6 -21 17l-116 362h-6l-116 -362c-2 -11 -9 -17 -21 -17h-57z" />
    <glyph glyph-name="wcircumflex" unicode="&#x175;" horiz-adv-x="808" 
d="M276 557c-15 0 -20 11 -11 23l85 101c6 8 13 12 23 12h63c9 0 17 -4 22 -12l85 -101c10 -12 5 -23 -10 -23h-28c-9 0 -17 2 -23 10l-75 74h-6l-74 -74c-7 -8 -14 -10 -24 -10h-27zM207 0c-11 0 -19 6 -22 17l-146 462c-4 12 3 21 15 21h51c11 0 19 -7 20 -17l114 -386h6
l118 386c2 11 9 17 20 17h45c11 0 18 -6 21 -17l117 -386h6l114 386c2 10 9 17 20 17h49c11 0 18 -9 14 -21l-146 -462c-3 -11 -11 -17 -22 -17h-57c-12 0 -19 6 -21 17l-116 362h-6l-116 -362c-2 -11 -9 -17 -21 -17h-57z" />
    <glyph glyph-name="wdieresis" unicode="&#x1e85;" horiz-adv-x="808" 
d="M315 576c-29 0 -49 19 -49 49c0 29 20 49 49 49c30 0 49 -20 49 -49c0 -30 -19 -49 -49 -49zM494 576c-30 0 -50 19 -50 49c0 29 20 49 50 49c29 0 49 -20 49 -49c0 -30 -20 -49 -49 -49zM207 0c-11 0 -19 6 -22 17l-146 462c-4 12 3 21 15 21h51c11 0 19 -7 20 -17
l114 -386h6l118 386c2 11 9 17 20 17h45c11 0 18 -6 21 -17l117 -386h6l114 386c2 10 9 17 20 17h49c11 0 18 -9 14 -21l-146 -462c-3 -11 -11 -17 -22 -17h-57c-12 0 -19 6 -21 17l-116 362h-6l-116 -362c-2 -11 -9 -17 -21 -17h-57z" />
    <glyph glyph-name="wgrave" unicode="&#x1e81;" horiz-adv-x="808" 
d="M394 557c-9 0 -17 2 -23 10l-82 102c-10 13 -5 24 11 24h49c9 0 17 -4 22 -14l60 -100c7 -13 2 -22 -13 -22h-24zM207 0c-11 0 -19 6 -22 17l-146 462c-4 12 3 21 15 21h51c11 0 19 -7 20 -17l114 -386h6l118 386c2 11 9 17 20 17h45c11 0 18 -6 21 -17l117 -386h6
l114 386c2 10 9 17 20 17h49c11 0 18 -9 14 -21l-146 -462c-3 -11 -11 -17 -22 -17h-57c-12 0 -19 6 -21 17l-116 362h-6l-116 -362c-2 -11 -9 -17 -21 -17h-57z" />
    <glyph glyph-name="x" unicode="x" horiz-adv-x="494" 
d="M55 0c-14 0 -19 10 -11 23l152 225l-154 229c-8 13 -3 23 11 23h55c10 0 18 -4 23 -13l114 -176h8l114 176c4 9 12 13 22 13h48c13 0 19 -10 11 -23l-150 -223l155 -231c8 -13 3 -23 -11 -23h-55c-10 0 -18 4 -23 13l-116 178h-7l-116 -178c-4 -9 -12 -13 -22 -13h-48z
" />
    <glyph glyph-name="y" unicode="y" 
d="M104 -180c-12 0 -19 7 -19 19v29c0 12 7 19 19 19h32c34 0 54 14 66 45l31 75h-15c-9 0 -15 4 -18 13l-164 459c-4 13 3 21 15 21h50c12 0 19 -5 21 -17l132 -395h14l131 395c2 12 10 17 21 17h47c12 0 19 -8 15 -21l-205 -573c-20 -59 -59 -86 -123 -86h-50z" />
    <glyph glyph-name="yacute" unicode="&#xfd;" 
d="M244 557c-14 0 -19 9 -12 22l60 100c5 10 13 14 23 14h47c16 0 22 -11 12 -24l-82 -102c-7 -8 -14 -10 -23 -10h-25zM104 -180c-12 0 -19 7 -19 19v29c0 12 7 19 19 19h32c34 0 54 14 66 45l31 75h-15c-9 0 -15 4 -18 13l-164 459c-4 13 3 21 15 21h50c12 0 19 -5 21 -17
l132 -395h14l131 395c2 12 10 17 21 17h47c12 0 19 -8 15 -21l-205 -573c-20 -59 -59 -86 -123 -86h-50z" />
    <glyph glyph-name="ycircumflex" unicode="&#x177;" 
d="M131 557c-15 0 -20 11 -11 23l85 101c6 8 13 12 23 12h63c9 0 17 -4 22 -12l85 -101c10 -12 5 -23 -10 -23h-28c-9 0 -17 2 -23 10l-75 74h-6l-74 -74c-7 -8 -14 -10 -24 -10h-27zM104 -180c-12 0 -19 7 -19 19v29c0 12 7 19 19 19h32c34 0 54 14 66 45l31 75h-15
c-9 0 -15 4 -18 13l-164 459c-4 13 3 21 15 21h50c12 0 19 -5 21 -17l132 -395h14l131 395c2 12 10 17 21 17h47c12 0 19 -8 15 -21l-205 -573c-20 -59 -59 -86 -123 -86h-50z" />
    <glyph glyph-name="ydieresis" unicode="&#xff;" 
d="M170 576c-29 0 -49 19 -49 49c0 29 20 49 49 49c30 0 49 -20 49 -49c0 -30 -19 -49 -49 -49zM349 576c-30 0 -50 19 -50 49c0 29 20 49 50 49c29 0 49 -20 49 -49c0 -30 -20 -49 -49 -49zM104 -180c-12 0 -19 7 -19 19v29c0 12 7 19 19 19h32c34 0 54 14 66 45l31 75h-15
c-9 0 -15 4 -18 13l-164 459c-4 13 3 21 15 21h50c12 0 19 -5 21 -17l132 -395h14l131 395c2 12 10 17 21 17h47c12 0 19 -8 15 -21l-205 -573c-20 -59 -59 -86 -123 -86h-50z" />
    <glyph glyph-name="ygrave" unicode="&#x1ef3;" 
d="M248 557c-9 0 -17 2 -23 10l-82 102c-10 13 -5 24 11 24h49c9 0 17 -4 22 -14l60 -100c7 -13 2 -22 -13 -22h-24zM104 -180c-12 0 -19 7 -19 19v29c0 12 7 19 19 19h32c34 0 54 14 66 45l31 75h-15c-9 0 -15 4 -18 13l-164 459c-4 13 3 21 15 21h50c12 0 19 -5 21 -17
l132 -395h14l131 395c2 12 10 17 21 17h47c12 0 19 -8 15 -21l-205 -573c-20 -59 -59 -86 -123 -86h-50z" />
    <glyph glyph-name="uni0233" unicode="&#x233;" 
d="M143 587c-12 0 -19 7 -19 19v27c0 12 7 19 19 19h232c12 0 19 -7 19 -19v-27c0 -12 -7 -19 -19 -19h-232zM104 -180c-12 0 -19 7 -19 19v29c0 12 7 19 19 19h32c34 0 54 14 66 45l31 75h-15c-9 0 -15 4 -18 13l-164 459c-4 13 3 21 15 21h50c12 0 19 -5 21 -17l132 -395
h14l131 395c2 12 10 17 21 17h47c12 0 19 -8 15 -21l-205 -573c-20 -59 -59 -86 -123 -86h-50z" />
    <glyph glyph-name="uni1EF9" unicode="&#x1ef9;" 
d="M336 571c-59 0 -95 53 -137 53c-23 0 -39 -13 -42 -36c-3 -8 -7 -12 -18 -12h-30c-9 0 -15 6 -15 16c4 63 35 98 88 98c59 0 92 -52 137 -52c23 0 39 13 42 36c3 8 7 12 18 12h30c9 0 15 -7 14 -21c-5 -60 -35 -94 -87 -94zM104 -180c-12 0 -19 7 -19 19v29
c0 12 7 19 19 19h32c34 0 54 14 66 45l31 75h-15c-9 0 -15 4 -18 13l-164 459c-4 13 3 21 15 21h50c12 0 19 -5 21 -17l132 -395h14l131 395c2 12 10 17 21 17h47c12 0 19 -8 15 -21l-205 -573c-20 -59 -59 -86 -123 -86h-50z" />
    <glyph glyph-name="z" unicode="z" horiz-adv-x="476" 
d="M67 0c-12 0 -19 7 -19 19v29c0 9 3 16 9 23l256 351v5h-241c-12 0 -19 7 -19 19v35c0 12 7 19 19 19h332c12 0 19 -7 19 -19v-29c0 -9 -2 -16 -8 -23l-257 -351v-5h251c12 0 19 -7 19 -19v-35c0 -12 -7 -19 -19 -19h-342z" />
    <glyph glyph-name="zacute" unicode="&#x17a;" horiz-adv-x="476" 
d="M223 557c-14 0 -19 9 -12 22l60 100c5 10 13 14 23 14h47c16 0 22 -11 12 -24l-82 -102c-7 -8 -14 -10 -23 -10h-25zM67 0c-12 0 -19 7 -19 19v29c0 9 3 16 9 23l256 351v5h-241c-12 0 -19 7 -19 19v35c0 12 7 19 19 19h332c12 0 19 -7 19 -19v-29c0 -9 -2 -16 -8 -23
l-257 -351v-5h251c12 0 19 -7 19 -19v-35c0 -12 -7 -19 -19 -19h-342z" />
    <glyph glyph-name="zcaron" unicode="&#x17e;" horiz-adv-x="476" 
d="M207 557c-10 0 -17 3 -23 11l-85 101c-9 13 -4 24 11 24h27c10 0 17 -3 24 -10l74 -75h6l75 75c6 7 14 10 23 10h26c16 0 22 -11 12 -24l-84 -101c-6 -8 -14 -11 -23 -11h-63zM67 0c-12 0 -19 7 -19 19v29c0 9 3 16 9 23l256 351v5h-241c-12 0 -19 7 -19 19v35
c0 12 7 19 19 19h332c12 0 19 -7 19 -19v-29c0 -9 -2 -16 -8 -23l-257 -351v-5h251c12 0 19 -7 19 -19v-35c0 -12 -7 -19 -19 -19h-342z" />
    <glyph glyph-name="zdotaccent" unicode="&#x17c;" horiz-adv-x="476" 
d="M238 576c-31 0 -51 20 -51 51s20 51 51 51s52 -20 52 -51s-21 -51 -52 -51zM67 0c-12 0 -19 7 -19 19v29c0 9 3 16 9 23l256 351v5h-241c-12 0 -19 7 -19 19v35c0 12 7 19 19 19h332c12 0 19 -7 19 -19v-29c0 -9 -2 -16 -8 -23l-257 -351v-5h251c12 0 19 -7 19 -19v-35
c0 -12 -7 -19 -19 -19h-342z" />
    <glyph glyph-name="uni1E93" unicode="&#x1e93;" horiz-adv-x="476" 
d="M67 0c-12 0 -19 7 -19 19v29c0 9 3 16 9 23l256 351v5h-241c-12 0 -19 7 -19 19v35c0 12 7 19 19 19h332c12 0 19 -7 19 -19v-29c0 -9 -2 -16 -8 -23l-257 -351v-5h251c12 0 19 -7 19 -19v-35c0 -12 -7 -19 -19 -19h-342zM238 -178c-31 0 -51 20 -51 51s20 51 51 51
s52 -20 52 -51s-21 -51 -52 -51z" />
    <glyph glyph-name="a.ss01" horiz-adv-x="544" 
d="M447 500c12 0 19 -7 19 -19v-462c0 -12 -7 -19 -19 -19h-42c-12 0 -19 7 -19 19v61h-6c-20 -54 -77 -92 -151 -92c-102 0 -170 67 -170 166v192c0 99 68 166 170 166c74 0 131 -38 151 -92h6v61c0 12 7 19 19 19h42zM260 63c75 0 126 53 126 112v150
c0 59 -51 112 -126 112c-73 0 -121 -45 -121 -113v-148c0 -68 48 -113 121 -113z" />
    <glyph glyph-name="aacute.ss01" horiz-adv-x="544" 
d="M255 557c-14 0 -19 9 -12 22l60 100c5 10 13 14 23 14h47c16 0 22 -11 12 -24l-82 -102c-7 -8 -14 -10 -23 -10h-25zM447 500c12 0 19 -7 19 -19v-462c0 -12 -7 -19 -19 -19h-42c-12 0 -19 7 -19 19v61h-6c-20 -54 -77 -92 -151 -92c-102 0 -170 67 -170 166v192
c0 99 68 166 170 166c74 0 131 -38 151 -92h6v61c0 12 7 19 19 19h42zM260 63c75 0 126 53 126 112v150c0 59 -51 112 -126 112c-73 0 -121 -45 -121 -113v-148c0 -68 48 -113 121 -113z" />
    <glyph glyph-name="abreve.ss01" horiz-adv-x="544" 
d="M271 551c-77 0 -128 42 -134 113c-1 12 7 19 19 19h30c9 0 14 -5 15 -13c2 -37 29 -60 70 -60c40 0 67 23 69 60c1 8 6 13 15 13h30c12 0 20 -7 18 -20c-5 -70 -56 -112 -132 -112zM447 500c12 0 19 -7 19 -19v-462c0 -12 -7 -19 -19 -19h-42c-12 0 -19 7 -19 19v61h-6
c-20 -54 -77 -92 -151 -92c-102 0 -170 67 -170 166v192c0 99 68 166 170 166c74 0 131 -38 151 -92h6v61c0 12 7 19 19 19h42zM260 63c75 0 126 53 126 112v150c0 59 -51 112 -126 112c-73 0 -121 -45 -121 -113v-148c0 -68 48 -113 121 -113z" />
    <glyph glyph-name="uni01CE.ss01" horiz-adv-x="544" 
d="M216 568l-85 101c-9 13 -4 24 11 24h27c10 0 17 -3 24 -10l74 -75h6l75 75c6 7 14 10 23 10h26c16 0 22 -11 12 -24l-84 -101c-6 -8 -14 -11 -23 -11h-63c-10 0 -17 3 -23 11zM447 500c12 0 19 -7 19 -19v-462c0 -12 -7 -19 -19 -19h-42c-12 0 -19 7 -19 19v61h-6
c-20 -54 -77 -92 -151 -92c-102 0 -170 67 -170 166v192c0 99 68 166 170 166c74 0 131 -38 151 -92h6v61c0 12 7 19 19 19h42zM260 63c75 0 126 53 126 112v150c0 59 -51 112 -126 112c-73 0 -121 -45 -121 -113v-148c0 -68 48 -113 121 -113z" />
    <glyph glyph-name="acircumflex.ss01" horiz-adv-x="544" 
d="M142 557c-15 0 -20 11 -11 23l85 101c6 8 13 12 23 12h63c9 0 17 -4 22 -12l85 -101c10 -12 5 -23 -10 -23h-28c-9 0 -17 2 -23 10l-75 74h-6l-74 -74c-7 -8 -14 -10 -24 -10h-27zM447 500c12 0 19 -7 19 -19v-462c0 -12 -7 -19 -19 -19h-42c-12 0 -19 7 -19 19v61h-6
c-20 -54 -77 -92 -151 -92c-102 0 -170 67 -170 166v192c0 99 68 166 170 166c74 0 131 -38 151 -92h6v61c0 12 7 19 19 19h42zM260 63c75 0 126 53 126 112v150c0 59 -51 112 -126 112c-73 0 -121 -45 -121 -113v-148c0 -68 48 -113 121 -113z" />
    <glyph glyph-name="uni0201.ss01" horiz-adv-x="544" 
d="M167 570l-62 100c-8 13 -2 23 12 23h40c10 0 18 -4 22 -15l50 -100c6 -12 -1 -21 -15 -21h-24c-10 0 -18 3 -23 13zM331 570l-62 100c-7 13 -2 23 13 23h40c10 0 18 -4 22 -15l50 -100c5 -12 -2 -21 -15 -21h-25c-10 0 -17 3 -23 13zM447 500c12 0 19 -7 19 -19v-462
c0 -12 -7 -19 -19 -19h-42c-12 0 -19 7 -19 19v61h-6c-20 -54 -77 -92 -151 -92c-102 0 -170 67 -170 166v192c0 99 68 166 170 166c74 0 131 -38 151 -92h6v61c0 12 7 19 19 19h42zM260 63c75 0 126 53 126 112v150c0 59 -51 112 -126 112c-73 0 -121 -45 -121 -113v-148
c0 -68 48 -113 121 -113z" />
    <glyph glyph-name="adieresis.ss01" horiz-adv-x="544" 
d="M181 576c-29 0 -49 19 -49 49c0 29 20 49 49 49c30 0 49 -20 49 -49c0 -30 -19 -49 -49 -49zM360 576c-30 0 -50 19 -50 49c0 29 20 49 50 49c29 0 49 -20 49 -49c0 -30 -20 -49 -49 -49zM447 500c12 0 19 -7 19 -19v-462c0 -12 -7 -19 -19 -19h-42c-12 0 -19 7 -19 19
v61h-6c-20 -54 -77 -92 -151 -92c-102 0 -170 67 -170 166v192c0 99 68 166 170 166c74 0 131 -38 151 -92h6v61c0 12 7 19 19 19h42zM260 63c75 0 126 53 126 112v150c0 59 -51 112 -126 112c-73 0 -121 -45 -121 -113v-148c0 -68 48 -113 121 -113z" />
    <glyph glyph-name="uni1EA1.ss01" horiz-adv-x="544" 
d="M447 500c12 0 19 -7 19 -19v-462c0 -12 -7 -19 -19 -19h-42c-12 0 -19 7 -19 19v61h-6c-20 -54 -77 -92 -151 -92c-102 0 -170 67 -170 166v192c0 99 68 166 170 166c74 0 131 -38 151 -92h6v61c0 12 7 19 19 19h42zM260 63c75 0 126 53 126 112v150
c0 59 -51 112 -126 112c-73 0 -121 -45 -121 -113v-148c0 -68 48 -113 121 -113zM270 -76c31 0 52 -20 52 -51s-21 -51 -52 -51s-51 20 -51 51s20 51 51 51z" />
    <glyph glyph-name="agrave.ss01" horiz-adv-x="544" 
d="M237 567l-82 102c-10 13 -5 24 11 24h49c9 0 17 -4 22 -14l60 -100c7 -13 2 -22 -13 -22h-24c-9 0 -17 2 -23 10zM447 500c12 0 19 -7 19 -19v-462c0 -12 -7 -19 -19 -19h-42c-12 0 -19 7 -19 19v61h-6c-20 -54 -77 -92 -151 -92c-102 0 -170 67 -170 166v192
c0 99 68 166 170 166c74 0 131 -38 151 -92h6v61c0 12 7 19 19 19h42zM260 63c75 0 126 53 126 112v150c0 59 -51 112 -126 112c-73 0 -121 -45 -121 -113v-148c0 -68 48 -113 121 -113z" />
    <glyph glyph-name="uni0203.ss01" horiz-adv-x="544" 
d="M156 557c-12 0 -21 7 -19 19c6 70 57 113 134 113c76 0 127 -42 132 -112c2 -13 -6 -20 -18 -20h-30c-9 0 -14 4 -15 13c-2 36 -29 60 -69 60c-41 0 -68 -23 -70 -60c-1 -9 -6 -13 -15 -13h-30zM447 500c12 0 19 -7 19 -19v-462c0 -12 -7 -19 -19 -19h-42
c-12 0 -19 7 -19 19v61h-6c-20 -54 -77 -92 -151 -92c-102 0 -170 67 -170 166v192c0 99 68 166 170 166c74 0 131 -38 151 -92h6v61c0 12 7 19 19 19h42zM260 63c75 0 126 53 126 112v150c0 59 -51 112 -126 112c-73 0 -121 -45 -121 -113v-148c0 -68 48 -113 121 -113z
" />
    <glyph glyph-name="amacron.ss01" horiz-adv-x="544" 
d="M154 587c-12 0 -19 7 -19 19v27c0 12 7 19 19 19h232c12 0 19 -7 19 -19v-27c0 -12 -7 -19 -19 -19h-232zM447 500c12 0 19 -7 19 -19v-462c0 -12 -7 -19 -19 -19h-42c-12 0 -19 7 -19 19v61h-6c-20 -54 -77 -92 -151 -92c-102 0 -170 67 -170 166v192
c0 99 68 166 170 166c74 0 131 -38 151 -92h6v61c0 12 7 19 19 19h42zM260 63c75 0 126 53 126 112v150c0 59 -51 112 -126 112c-73 0 -121 -45 -121 -113v-148c0 -68 48 -113 121 -113z" />
    <glyph glyph-name="aogonek.ss01" horiz-adv-x="544" 
d="M460 -136c10 3 15 -1 15 -12v-25c0 -9 -2 -14 -9 -17c-11 -5 -31 -9 -51 -9c-59 0 -97 34 -97 86c0 47 31 91 78 113v2c-6 2 -10 8 -10 17v61h-6c-20 -54 -77 -92 -151 -92c-102 0 -170 67 -170 166v192c0 99 68 166 170 166c74 0 131 -38 151 -92h6v61c0 12 7 19 19 19
h42c12 0 19 -7 19 -19v-474c0 -4 -3 -7 -8 -9c-40 -21 -67 -58 -67 -94c0 -27 19 -45 46 -45c8 0 17 2 23 5zM260 63c75 0 126 53 126 112v150c0 59 -51 112 -126 112c-73 0 -121 -45 -121 -113v-148c0 -68 48 -113 121 -113z" />
    <glyph glyph-name="aring.ss01" horiz-adv-x="544" 
d="M271 551c-61 0 -101 38 -101 96s40 96 101 96c59 0 100 -38 100 -96s-41 -96 -100 -96zM271 702c-34 0 -56 -22 -56 -55s22 -55 56 -55c32 0 55 22 55 55s-23 55 -55 55zM447 500c12 0 19 -7 19 -19v-462c0 -12 -7 -19 -19 -19h-42c-12 0 -19 7 -19 19v61h-6
c-20 -54 -77 -92 -151 -92c-102 0 -170 67 -170 166v192c0 99 68 166 170 166c74 0 131 -38 151 -92h6v61c0 12 7 19 19 19h42zM260 63c75 0 126 53 126 112v150c0 59 -51 112 -126 112c-73 0 -121 -45 -121 -113v-148c0 -68 48 -113 121 -113z" />
    <glyph glyph-name="atilde.ss01" horiz-adv-x="544" 
d="M120 576c-9 0 -15 6 -15 16c4 63 35 98 88 98c59 0 92 -52 137 -52c23 0 39 13 42 36c3 8 7 12 18 12h30c9 0 15 -7 14 -21c-5 -60 -35 -94 -87 -94c-59 0 -95 53 -137 53c-23 0 -39 -13 -42 -36c-3 -8 -7 -12 -18 -12h-30zM447 500c12 0 19 -7 19 -19v-462
c0 -12 -7 -19 -19 -19h-42c-12 0 -19 7 -19 19v61h-6c-20 -54 -77 -92 -151 -92c-102 0 -170 67 -170 166v192c0 99 68 166 170 166c74 0 131 -38 151 -92h6v61c0 12 7 19 19 19h42zM260 63c75 0 126 53 126 112v150c0 59 -51 112 -126 112c-73 0 -121 -45 -121 -113v-148
c0 -68 48 -113 121 -113z" />
    <glyph glyph-name="k.ss02" horiz-adv-x="503" 
d="M474 23c7 -13 2 -23 -13 -23h-51c-11 0 -18 4 -22 14l-139 205h-91v-200c0 -12 -7 -19 -19 -19h-42c-12 0 -19 7 -19 19v662c0 12 7 19 19 19h42c12 0 19 -7 19 -19v-387h89l139 193c5 9 13 13 22 13h50c14 0 20 -11 11 -23l-159 -216z" />
    <glyph glyph-name="uni0137.ss02" horiz-adv-x="503" 
d="M474 23c7 -13 2 -23 -13 -23h-51c-11 0 -18 4 -22 14l-139 205h-91v-200c0 -12 -7 -19 -19 -19h-42c-12 0 -19 7 -19 19v662c0 12 7 19 19 19h42c12 0 19 -7 19 -19v-387h89l139 193c5 9 13 13 22 13h50c14 0 20 -11 11 -23l-159 -216zM304 -57c14 0 20 -9 14 -22
l-52 -130c-4 -10 -12 -14 -22 -14h-23c-13 0 -19 8 -16 21l31 129c3 11 10 16 21 16h47z" />
    <glyph glyph-name="f_t.dlig" horiz-adv-x="701" 
d="M640 500c12 0 19 -7 19 -19v-34c0 -12 -7 -19 -19 -19h-107v-283c0 -43 28 -71 72 -71h29c12 0 19 -7 19 -19v-36c0 -12 -7 -19 -19 -19h-47c-81 0 -134 50 -134 126v302h-238v-409c0 -12 -7 -19 -19 -19h-42c-12 0 -19 7 -19 19v409h-71c-12 0 -19 7 -19 19v34
c0 12 7 19 19 19h71v74c0 76 54 126 135 126h47c12 0 19 -7 19 -19v-29c0 -12 -7 -19 -19 -19h-29c-44 0 -73 -28 -73 -72v-61h212c20 0 31 11 31 31v80c0 12 7 19 19 19h37c12 0 19 -7 19 -19v-111h107z" />
    <glyph glyph-name="t_t.dlig" horiz-adv-x="695" 
d="M634 500c12 0 19 -7 19 -19v-34c0 -12 -7 -19 -19 -19h-108v-283c0 -43 29 -71 73 -71h29c12 0 19 -7 19 -19v-36c0 -12 -7 -19 -19 -19h-47c-81 0 -135 50 -135 126v302h-247v-283c0 -43 29 -71 73 -71h29c12 0 19 -7 19 -19v-36c0 -12 -7 -19 -19 -19h-47
c-81 0 -135 50 -135 126v302h-71c-12 0 -19 7 -19 19v35c0 11 7 18 18 18h47c20 0 31 11 31 31v80c0 12 7 19 19 19h36c12 0 19 -7 19 -19v-111h222c20 0 31 11 31 31v80c0 12 7 19 19 19h36c12 0 19 -7 19 -19v-111h108z" />
    <glyph glyph-name="ordfeminine" unicode="&#xaa;" horiz-adv-x="433" 
d="M223 682c84 0 139 -46 139 -114v-226c0 -12 -7 -18 -18 -18h-27c-11 0 -18 6 -18 18v28h-5c-16 -35 -59 -54 -108 -54c-71 0 -115 39 -115 100c0 64 44 105 117 105h108v43c0 40 -30 67 -74 67c-39 0 -66 -15 -73 -48c-2 -9 -7 -16 -17 -16h-30c-12 0 -18 7 -18 18v2
c0 53 57 95 139 95zM204 367c55 0 92 29 92 70v38h-92c-42 0 -66 -20 -66 -54c0 -33 26 -54 66 -54z" />
    <glyph glyph-name="ordmasculine" unicode="&#xba;" horiz-adv-x="432" 
d="M217 316c-87 0 -146 54 -146 133v100c0 79 59 133 146 133c86 0 144 -54 144 -133v-100c0 -79 -58 -133 -144 -133zM217 376c44 0 78 29 78 74v98c0 45 -34 74 -78 74c-48 0 -79 -31 -79 -74v-98c0 -43 31 -74 79 -74z" />
    <glyph glyph-name="pi" unicode="&#x3c0;" horiz-adv-x="713" 
d="M616 422h-80v-281c0 -40 26 -66 68 -66h11c11 0 18 -7 18 -18v-38c0 -12 -7 -19 -19 -19h-30c-80 0 -132 48 -132 121v301h-190v-403c0 -12 -7 -19 -19 -19h-47c-12 0 -19 7 -19 19v403h-80c-12 0 -19 7 -19 19v40c0 12 7 19 19 19h519c12 0 19 -7 19 -19v-40
c0 -12 -7 -19 -19 -19z" />
    <glyph glyph-name="zero" unicode="0" horiz-adv-x="626" 
d="M313 -12c-141 0 -234 85 -234 215v264c0 130 93 215 234 215s234 -85 234 -215v-264c0 -130 -93 -215 -234 -215zM313 66c90 0 150 55 150 139v260c0 84 -60 139 -150 139s-150 -55 -150 -139v-260c0 -84 60 -139 150 -139z" />
    <glyph glyph-name="one" unicode="1" horiz-adv-x="378" 
d="M209 0c-12 0 -19 7 -19 19v562h-7l-107 -47c-13 -6 -22 0 -22 14v38c0 11 5 18 15 22l129 57c9 4 16 5 24 5h33c12 0 19 -7 19 -19v-632c0 -12 -7 -19 -19 -19h-46z" />
    <glyph glyph-name="two" unicode="2" horiz-adv-x="559" 
d="M81 0c-12 0 -19 7 -19 19v38c0 9 3 16 10 23l249 261c57 58 90 111 90 159c0 59 -49 105 -129 105c-79 0 -133 -45 -133 -114v-13c0 -11 -7 -16 -18 -16h-49c-11 0 -19 5 -19 17v20c0 110 88 183 221 183c131 0 214 -75 214 -174c0 -65 -31 -131 -100 -201l-212 -223v-6
h289c12 0 19 -7 19 -19v-40c0 -12 -7 -19 -19 -19h-394z" />
    <glyph glyph-name="three" unicode="3" horiz-adv-x="577" 
d="M288 -12c-139 0 -230 75 -230 179v14c0 12 7 19 19 19h48c14 0 18 -9 21 -16c2 -75 55 -121 142 -121c86 0 143 51 143 128c0 70 -44 116 -110 116h-103c-12 0 -19 7 -19 19v30c0 12 7 19 19 19h86c69 0 114 46 114 115c0 71 -51 117 -130 117s-128 -41 -130 -115
c-1 -8 -6 -16 -18 -16h-50c-12 0 -19 7 -19 19v12c0 103 86 175 218 175c130 0 217 -73 217 -181c0 -71 -39 -132 -98 -152v-6c67 -19 111 -84 111 -163c0 -115 -92 -192 -231 -192z" />
    <glyph glyph-name="four" unicode="4" horiz-adv-x="587" 
d="M522 230c12 0 19 -7 19 -19v-36c0 -12 -7 -19 -19 -19h-65v-137c0 -12 -7 -19 -19 -19h-46c-12 0 -19 7 -19 19v137h-309c-12 0 -19 7 -19 19v30c0 9 2 17 7 24l285 429c6 8 13 12 23 12h78c12 0 19 -7 19 -19v-421h65zM137 230h236v308l5 44h-8l-233 -346v-6z" />
    <glyph glyph-name="five" unicode="5" horiz-adv-x="566" 
d="M284 -12c-131 0 -222 70 -222 172v10c0 11 7 18 18 18h49c13 0 17 -5 19 -17c4 -68 58 -108 138 -108c92 0 150 58 150 146c0 90 -59 147 -146 147c-53 0 -102 -22 -124 -53c-4 -5 -8 -6 -13 -6h-58c-12 0 -20 6 -18 20l45 335c2 12 10 18 21 18h310c12 0 19 -7 19 -19
v-37c0 -12 -7 -19 -19 -19h-256l-31 -219h5c27 31 80 51 139 51c128 0 213 -87 213 -216c0 -135 -93 -223 -239 -223z" />
    <glyph glyph-name="six" unicode="6" horiz-adv-x="576" 
d="M287 -12c-144 0 -232 93 -232 223c0 70 27 137 66 195l172 252c6 9 13 12 23 12h53c14 0 19 -10 10 -23l-179 -257h5c21 22 64 37 113 37c124 0 208 -86 208 -213c0 -137 -97 -226 -239 -226zM287 63c89 0 152 57 152 147c0 88 -59 146 -150 146
c-89 0 -148 -57 -148 -147c0 -88 57 -146 146 -146z" />
    <glyph glyph-name="seven" unicode="7" horiz-adv-x="530" 
d="M145 0c-14 0 -20 9 -13 24l253 562v6h-311c-12 0 -19 7 -19 19v40c0 12 7 19 19 19h391c12 0 19 -7 19 -19v-33c0 -8 -2 -15 -5 -24l-259 -580c-3 -9 -11 -14 -22 -14h-53z" />
    <glyph glyph-name="eight" unicode="8" horiz-adv-x="591" 
d="M296 -12c-143 0 -238 77 -238 189c0 82 51 146 132 168v6c-70 22 -115 79 -115 154c0 103 88 177 221 177c132 0 220 -73 220 -177c0 -73 -44 -132 -115 -154v-6c82 -23 132 -86 132 -168c0 -112 -94 -189 -237 -189zM296 379c82 0 138 45 138 115c0 69 -56 115 -138 115
s-138 -46 -138 -115c0 -70 56 -115 138 -115zM296 62c92 0 152 49 152 125s-60 126 -152 126c-93 0 -153 -50 -153 -126s60 -125 153 -125z" />
    <glyph glyph-name="nine" unicode="9" horiz-adv-x="576" 
d="M214 0c-15 0 -20 11 -11 23l172 252h-6c-20 -21 -63 -36 -112 -36c-123 0 -207 88 -207 216c0 138 97 227 239 227c143 0 232 -93 232 -223c0 -70 -29 -136 -64 -190l-168 -256c-6 -10 -13 -13 -23 -13h-52zM286 314c90 0 148 57 148 147c0 88 -57 146 -146 146
c-88 0 -152 -57 -152 -147c0 -88 60 -146 150 -146z" />
    <glyph glyph-name="uni24FF" unicode="&#x24ff;" horiz-adv-x="850" 
d="M425 -12c-192 0 -347 155 -347 347s155 347 347 347s347 -155 347 -347s-155 -347 -347 -347zM426 127c85 0 141 51 141 130v156c0 79 -56 130 -141 130s-142 -51 -142 -130v-156c0 -79 57 -130 142 -130zM426 180c-52 0 -86 31 -86 79v152c0 48 34 79 86 79
c51 0 85 -31 85 -79v-152c0 -48 -34 -79 -85 -79z" />
    <glyph glyph-name="uni2776" unicode="&#x2776;" horiz-adv-x="850" 
d="M425 -12c-192 0 -347 155 -347 347s155 347 347 347s347 -155 347 -347s-155 -347 -347 -347zM328 158c0 -9 5 -14 14 -14h191c9 0 15 5 15 14v24c0 9 -6 14 -15 14h-63v336c0 9 -6 14 -14 14h-21c-6 0 -11 -1 -17 -4l-74 -32c-7 -3 -11 -9 -11 -17v-23
c0 -10 7 -15 16 -11l60 27h4v-290h-71c-9 0 -14 -5 -14 -14v-24z" />
    <glyph glyph-name="uni2777" unicode="&#x2777;" horiz-adv-x="850" 
d="M425 -12c-192 0 -347 155 -347 347s155 347 347 347s347 -155 347 -347s-155 -347 -347 -347zM294 155c0 -9 6 -14 14 -14h235c9 0 14 5 14 14v25c0 9 -5 14 -14 14h-165v3l121 127c35 36 60 76 60 120c0 62 -52 106 -132 106c-79 0 -132 -44 -132 -108v-12
c0 -8 5 -14 14 -14h33c7 0 11 4 11 11v8c0 38 29 63 74 63s73 -26 73 -60c0 -28 -22 -61 -53 -94l-146 -151c-4 -5 -7 -11 -7 -18v-20z" />
    <glyph glyph-name="uni2778" unicode="&#x2778;" horiz-adv-x="850" 
d="M425 -12c-192 0 -347 155 -347 347s155 347 347 347s347 -155 347 -347s-155 -347 -347 -347zM425 127c84 0 140 47 140 115c0 49 -27 86 -67 98v3c36 13 59 49 59 91c0 66 -53 109 -132 109s-132 -44 -132 -106v-6c0 -7 4 -11 11 -11h35c8 0 11 4 13 11
c2 40 31 62 73 62c44 0 73 -26 73 -67c0 -38 -26 -65 -65 -65h-49c-9 0 -14 -5 -14 -14v-18c0 -8 5 -14 14 -14h58c38 0 64 -26 64 -65c0 -44 -33 -73 -82 -73c-46 0 -77 24 -79 65c-2 7 -6 12 -14 12h-35c-7 0 -11 -4 -11 -11v-8c0 -63 55 -108 140 -108z" />
    <glyph glyph-name="uni2779" unicode="&#x2779;" horiz-adv-x="850" 
d="M425 -12c-179 0 -347 150 -347 347c0 192 155 347 347 347s347 -155 347 -347s-155 -347 -347 -347zM470 134h29c8 0 14 5 14 14v77h35c8 0 14 5 14 14v22c0 9 -6 14 -14 14h-35v247c0 9 -6 14 -14 14h-51c-7 0 -13 -3 -17 -10l-165 -251c-4 -6 -5 -11 -5 -17v-19
c0 -9 5 -14 14 -14h181v-77c0 -9 5 -14 14 -14zM322 275v4l132 197h5l-3 -26v-175h-134z" />
    <glyph glyph-name="uni277A" unicode="&#x277a;" horiz-adv-x="850" 
d="M425 -12c-192 0 -347 155 -347 347s155 347 347 347s347 -155 347 -347s-155 -347 -347 -347zM427 128c88 0 145 54 145 135c0 77 -50 130 -125 130c-36 0 -67 -12 -83 -30h-4l18 124h148c9 0 14 5 14 14v22c0 9 -5 14 -14 14h-183c-9 0 -15 -4 -16 -13l-26 -198
c-1 -10 4 -14 13 -14h39c3 0 6 1 8 3c14 18 41 31 70 31c48 0 82 -33 82 -85c0 -50 -33 -83 -85 -83c-43 0 -74 22 -76 60c-3 7 -6 11 -13 11h-33c-9 0 -14 -5 -14 -14v-6c0 -57 55 -101 135 -101z" />
    <glyph glyph-name="uni277B" unicode="&#x277b;" horiz-adv-x="850" 
d="M425 -12c-192 0 -347 155 -347 347s155 347 347 347s347 -155 347 -347s-155 -347 -347 -347zM424 131c86 0 145 54 145 137c0 76 -51 128 -124 128c-29 0 -55 -10 -66 -22h-3l104 149c6 9 3 17 -9 17h-32c-7 0 -13 -3 -17 -9l-100 -147c-23 -34 -40 -75 -40 -119
c0 -78 55 -134 142 -134zM424 181c-51 0 -83 33 -83 83c0 51 33 84 84 84s85 -34 85 -83c0 -51 -36 -84 -86 -84z" />
    <glyph glyph-name="uni277C" unicode="&#x277c;" horiz-adv-x="850" 
d="M425 -12c-192 0 -347 155 -347 347s155 347 347 347s347 -155 347 -347s-155 -347 -347 -347zM357 141c-5 -10 0 -17 10 -17h33c8 0 13 4 17 11l152 339c2 6 3 11 3 17v21c0 9 -5 14 -14 14h-232c-9 0 -14 -5 -14 -14v-25c0 -9 5 -14 14 -14h179v-3z" />
    <glyph glyph-name="uni277D" unicode="&#x277d;" horiz-adv-x="850" 
d="M425 -12c-192 0 -347 155 -347 347s155 347 347 347s347 -155 347 -347s-155 -347 -347 -347zM426 127c86 0 144 46 144 114c0 49 -31 87 -78 100v4c42 14 67 49 67 91c0 63 -53 107 -133 107c-81 0 -134 -45 -134 -107c0 -43 25 -77 67 -91v-4c-48 -13 -78 -52 -78 -100
c0 -68 58 -114 145 -114zM426 363c-47 0 -79 26 -79 66c0 39 32 65 79 65c45 0 78 -26 78 -65c0 -40 -32 -66 -78 -66zM426 176c-53 0 -88 29 -88 72s35 72 88 72c52 0 86 -29 86 -72s-34 -72 -86 -72z" />
    <glyph glyph-name="uni277E" unicode="&#x277e;" horiz-adv-x="850" 
d="M425 -12c-192 0 -347 155 -347 347s155 347 347 347s347 -155 347 -347s-155 -347 -347 -347zM375 148c-6 -10 -3 -17 9 -17h31c8 0 13 3 17 9l98 149c16 25 39 69 39 117c0 78 -55 134 -142 134c-85 0 -145 -54 -145 -138c0 -76 51 -129 124 -129c29 0 53 9 65 21h3z
M426 323c-51 0 -85 34 -85 83c0 51 36 84 86 84s83 -33 83 -83c0 -51 -33 -84 -84 -84z" />
    <glyph glyph-name="uni277F" unicode="&#x277f;" horiz-adv-x="850" 
d="M425 -12c-192 0 -347 155 -347 347s155 347 347 347s347 -155 347 -347s-155 -347 -347 -347zM526 179c65 0 107 40 107 99v117c0 59 -42 99 -107 99c-64 0 -107 -40 -107 -99v-117c0 -59 43 -99 107 -99zM234 194c0 -6 4 -10 10 -10h125c7 0 10 4 10 10v27
c0 7 -3 11 -10 11h-34v247c0 6 -4 10 -10 10h-24c-5 0 -9 0 -13 -2l-44 -21c-4 -3 -8 -7 -8 -12v-29c0 -6 6 -11 12 -7l32 16h4v-202h-40c-6 0 -10 -4 -10 -11v-27zM526 227c-33 0 -55 21 -55 52v115c0 31 22 52 55 52c34 0 55 -21 55 -52v-115c0 -31 -21 -52 -55 -52z" />
    <glyph glyph-name="uni24EA" unicode="&#x24ea;" horiz-adv-x="850" 
d="M425 -12c-192 0 -347 155 -347 347s155 347 347 347c191 0 347 -155 347 -347s-155 -347 -347 -347zM425 28c170 0 307 137 307 307s-138 307 -307 307c-170 0 -307 -137 -307 -307s137 -307 307 -307zM426 127c-85 0 -142 51 -142 130v156c0 79 57 130 142 130
s141 -51 141 -130v-156c0 -79 -56 -130 -141 -130zM426 180c51 0 85 31 85 79v152c0 48 -34 79 -85 79c-52 0 -86 -31 -86 -79v-152c0 -48 34 -79 86 -79z" />
    <glyph glyph-name="uni2460" unicode="&#x2460;" horiz-adv-x="850" 
d="M425 -12c-192 0 -347 155 -347 347s155 347 347 347c191 0 347 -155 347 -347s-155 -347 -347 -347zM425 28c170 0 307 137 307 307s-138 307 -307 307c-170 0 -307 -137 -307 -307s137 -307 307 -307zM328 158c0 -9 5 -14 14 -14h191c9 0 15 5 15 14v24
c0 9 -6 14 -15 14h-63v336c0 9 -6 14 -14 14h-21c-6 0 -11 -1 -17 -4l-74 -32c-7 -3 -11 -9 -11 -17v-23c0 -10 7 -15 16 -11l60 27h4v-290h-71c-9 0 -14 -5 -14 -14v-24z" />
    <glyph glyph-name="uni2461" unicode="&#x2461;" horiz-adv-x="850" 
d="M425 -12c-192 0 -347 155 -347 347s155 347 347 347c191 0 347 -155 347 -347s-155 -347 -347 -347zM425 28c170 0 307 137 307 307s-138 307 -307 307c-170 0 -307 -137 -307 -307s137 -307 307 -307zM294 155c0 -9 6 -14 14 -14h235c9 0 14 5 14 14v25
c0 9 -5 14 -14 14h-165v3l121 127c35 36 60 76 60 120c0 62 -52 106 -132 106c-79 0 -132 -44 -132 -108v-12c0 -8 5 -14 14 -14h33c7 0 11 4 11 11v8c0 38 29 63 74 63s73 -26 73 -60c0 -28 -22 -61 -53 -94l-146 -151c-4 -5 -7 -11 -7 -18v-20z" />
    <glyph glyph-name="uni2462" unicode="&#x2462;" horiz-adv-x="850" 
d="M425 -12c-192 0 -347 155 -347 347s155 347 347 347c191 0 347 -155 347 -347s-155 -347 -347 -347zM425 28c170 0 307 137 307 307s-138 307 -307 307c-170 0 -307 -137 -307 -307s137 -307 307 -307zM425 127c84 0 140 47 140 115c0 49 -27 86 -67 98v3
c36 13 59 49 59 91c0 66 -53 109 -132 109s-132 -44 -132 -106v-6c0 -7 4 -11 11 -11h35c8 0 11 4 13 11c2 40 31 62 73 62c44 0 73 -26 73 -67c0 -38 -26 -65 -65 -65h-49c-9 0 -14 -5 -14 -14v-18c0 -8 5 -14 14 -14h58c38 0 64 -26 64 -65c0 -44 -33 -73 -82 -73
c-46 0 -77 24 -79 65c-2 7 -6 12 -14 12h-35c-7 0 -11 -4 -11 -11v-8c0 -63 55 -108 140 -108z" />
    <glyph glyph-name="uni2463" unicode="&#x2463;" horiz-adv-x="850" 
d="M425 -12c-192 0 -347 155 -347 347s155 347 347 347c191 0 347 -155 347 -347s-155 -347 -347 -347zM425 28c170 0 307 137 307 307s-138 307 -307 307c-170 0 -307 -137 -307 -307s137 -307 307 -307zM470 134h29c8 0 14 5 14 14v77h35c8 0 14 5 14 14v22
c0 9 -6 14 -14 14h-35v247c0 9 -6 14 -14 14h-51c-7 0 -13 -3 -17 -10l-165 -251c-4 -6 -5 -11 -5 -17v-19c0 -9 5 -14 14 -14h181v-77c0 -9 5 -14 14 -14zM322 275v4l132 197h5l-3 -26v-175h-134z" />
    <glyph glyph-name="uni2464" unicode="&#x2464;" horiz-adv-x="850" 
d="M425 -12c-192 0 -347 155 -347 347s155 347 347 347c191 0 347 -155 347 -347s-155 -347 -347 -347zM425 28c170 0 307 137 307 307s-138 307 -307 307c-170 0 -307 -137 -307 -307s137 -307 307 -307zM427 128c88 0 145 54 145 135c0 77 -50 130 -125 130
c-36 0 -67 -12 -83 -30h-4l18 124h148c9 0 14 5 14 14v22c0 9 -5 14 -14 14h-183c-9 0 -15 -4 -16 -13l-26 -198c-1 -10 4 -14 13 -14h39c3 0 6 1 8 3c14 18 41 31 70 31c48 0 82 -33 82 -85c0 -50 -33 -83 -85 -83c-43 0 -74 22 -76 60c-3 7 -6 11 -13 11h-33
c-9 0 -14 -5 -14 -14v-6c0 -57 55 -101 135 -101z" />
    <glyph glyph-name="uni2465" unicode="&#x2465;" horiz-adv-x="850" 
d="M425 -12c-192 0 -347 155 -347 347s155 347 347 347c191 0 347 -155 347 -347s-155 -347 -347 -347zM425 28c170 0 307 137 307 307s-138 307 -307 307c-170 0 -307 -137 -307 -307s137 -307 307 -307zM424 131c86 0 145 54 145 137c0 76 -51 128 -124 128
c-29 0 -55 -10 -66 -22h-3l104 149c6 9 3 17 -9 17h-32c-7 0 -13 -3 -17 -9l-100 -147c-23 -34 -40 -75 -40 -119c0 -78 55 -134 142 -134zM424 181c-51 0 -83 33 -83 83c0 51 33 84 84 84s85 -34 85 -83c0 -51 -36 -84 -86 -84z" />
    <glyph glyph-name="uni2466" unicode="&#x2466;" horiz-adv-x="850" 
d="M425 -12c-192 0 -347 155 -347 347s155 347 347 347c191 0 347 -155 347 -347s-155 -347 -347 -347zM425 28c170 0 307 137 307 307s-138 307 -307 307c-170 0 -307 -137 -307 -307s137 -307 307 -307zM357 141c-5 -10 0 -17 10 -17h33c8 0 13 4 17 11l152 339
c2 6 3 11 3 17v21c0 9 -5 14 -14 14h-232c-9 0 -14 -5 -14 -14v-25c0 -9 5 -14 14 -14h179v-3z" />
    <glyph glyph-name="uni2467" unicode="&#x2467;" horiz-adv-x="850" 
d="M425 -12c-192 0 -347 155 -347 347s155 347 347 347c191 0 347 -155 347 -347s-155 -347 -347 -347zM425 28c170 0 307 137 307 307s-138 307 -307 307c-170 0 -307 -137 -307 -307s137 -307 307 -307zM426 127c86 0 144 46 144 114c0 49 -31 87 -78 100v4
c42 14 67 49 67 91c0 63 -53 107 -133 107c-81 0 -134 -45 -134 -107c0 -43 25 -77 67 -91v-4c-48 -13 -78 -52 -78 -100c0 -68 58 -114 145 -114zM426 363c-47 0 -79 26 -79 66c0 39 32 65 79 65c45 0 78 -26 78 -65c0 -40 -32 -66 -78 -66zM426 176c-53 0 -88 29 -88 72
s35 72 88 72c52 0 86 -29 86 -72s-34 -72 -86 -72z" />
    <glyph glyph-name="uni2468" unicode="&#x2468;" horiz-adv-x="850" 
d="M425 -12c-192 0 -347 155 -347 347s155 347 347 347c191 0 347 -155 347 -347s-155 -347 -347 -347zM425 28c170 0 307 137 307 307s-138 307 -307 307c-170 0 -307 -137 -307 -307s137 -307 307 -307zM375 148c-6 -10 -3 -17 9 -17h31c8 0 13 3 17 9l98 149
c16 25 39 69 39 117c0 78 -55 134 -142 134c-85 0 -145 -54 -145 -138c0 -76 51 -129 124 -129c29 0 53 9 65 21h3zM426 323c-51 0 -85 34 -85 83c0 51 36 84 86 84s83 -33 83 -83c0 -51 -33 -84 -84 -84z" />
    <glyph glyph-name="uni2469" unicode="&#x2469;" horiz-adv-x="850" 
d="M425 -12c-192 0 -347 155 -347 347s155 347 347 347c191 0 347 -155 347 -347s-155 -347 -347 -347zM425 28c170 0 307 137 307 307s-138 307 -307 307c-170 0 -307 -137 -307 -307s137 -307 307 -307zM523 182c64 0 104 38 104 96v117c0 58 -40 96 -104 96
c-63 0 -104 -38 -104 -96v-117c0 -58 41 -96 104 -96zM239 197c0 -7 3 -10 10 -10h122c6 0 10 3 10 10v26c0 6 -4 10 -10 10h-34v243c0 7 -4 10 -10 10h-23c-4 0 -9 0 -13 -2l-42 -20c-5 -3 -8 -7 -8 -12v-27c0 -7 6 -12 12 -8l31 16h4v-200h-39c-7 0 -10 -4 -10 -10v-26z
M523 228c-32 0 -55 21 -55 52v113c0 32 23 52 55 52c34 0 55 -20 55 -52v-113c0 -31 -21 -52 -55 -52z" />
    <glyph glyph-name="zero.tf" horiz-adv-x="628" 
d="M315 -12c-142 0 -235 85 -235 215v264c0 130 93 215 235 215c140 0 233 -85 233 -215v-264c0 -130 -93 -215 -233 -215zM315 66c89 0 149 55 149 139v260c0 84 -60 139 -149 139c-91 0 -150 -55 -150 -139v-260c0 -84 59 -139 150 -139z" />
    <glyph glyph-name="one.tf" horiz-adv-x="628" 
d="M517 78c12 0 19 -7 19 -19v-40c0 -12 -7 -19 -19 -19h-362c-12 0 -19 7 -19 19v40c0 12 7 19 19 19h143v503h-7l-127 -49c-13 -5 -22 2 -22 16v38c0 11 5 18 16 22l148 57c8 4 14 5 23 5h34c12 0 19 -7 19 -19v-573h135z" />
    <glyph glyph-name="two.tf" horiz-adv-x="628" 
d="M116 0c-12 0 -19 7 -19 19v38c0 9 3 16 10 23l248 261c58 58 90 111 90 159c0 59 -48 105 -128 105c-79 0 -133 -45 -133 -114v-13c0 -11 -8 -16 -18 -16h-49c-12 0 -19 5 -19 17v20c0 110 88 183 220 183s215 -75 215 -174c0 -65 -32 -131 -100 -201l-212 -223v-6h289
c12 0 19 -7 19 -19v-40c0 -12 -7 -19 -19 -19h-394z" />
    <glyph glyph-name="three.tf" horiz-adv-x="628" 
d="M314 -12c-139 0 -230 75 -230 179v14c0 12 7 19 19 19h48c14 0 18 -9 21 -16c2 -75 55 -121 142 -121c86 0 143 51 143 128c0 70 -44 116 -110 116h-103c-12 0 -19 7 -19 19v30c0 12 7 19 19 19h86c69 0 114 46 114 115c0 71 -51 117 -130 117s-128 -41 -130 -115
c-1 -8 -6 -16 -18 -16h-50c-12 0 -19 7 -19 19v12c0 103 86 175 218 175c130 0 217 -73 217 -181c0 -71 -39 -132 -99 -152v-6c68 -19 112 -84 112 -163c0 -115 -92 -192 -231 -192z" />
    <glyph glyph-name="four.tf" horiz-adv-x="628" 
d="M543 230c12 0 19 -7 19 -19v-36c0 -12 -7 -19 -19 -19h-65v-137c0 -12 -7 -19 -19 -19h-46c-12 0 -19 7 -19 19v137h-309c-12 0 -19 7 -19 19v30c0 9 2 17 7 24l285 429c6 8 13 12 23 12h78c12 0 19 -7 19 -19v-421h65zM158 230h236v308l5 44h-8l-233 -346v-6z" />
    <glyph glyph-name="five.tf" horiz-adv-x="628" 
d="M311 -12c-130 0 -222 70 -222 172v10c0 11 7 18 19 18h49c12 0 16 -5 19 -17c4 -68 57 -108 137 -108c92 0 150 58 150 146c0 90 -59 147 -145 147c-54 0 -102 -22 -125 -53c-4 -5 -7 -6 -12 -6h-58c-13 0 -20 6 -18 20l45 335c2 12 9 18 20 18h310c12 0 19 -7 19 -19
v-37c0 -12 -7 -19 -19 -19h-255l-32 -219h6c26 31 79 51 139 51c128 0 212 -87 212 -216c0 -135 -92 -223 -239 -223z" />
    <glyph glyph-name="six.tf" horiz-adv-x="628" 
d="M311 -12c-144 0 -232 93 -232 223c0 70 27 137 66 195l172 252c6 9 13 12 23 12h53c14 0 19 -10 10 -23l-179 -257h5c21 22 64 37 113 37c124 0 208 -86 208 -213c0 -137 -97 -226 -239 -226zM311 63c89 0 152 57 152 147c0 88 -59 146 -150 146
c-89 0 -148 -57 -148 -147c0 -88 57 -146 146 -146z" />
    <glyph glyph-name="seven.tf" horiz-adv-x="628" 
d="M206 0c-14 0 -20 9 -13 24l253 562v6h-311c-12 0 -19 7 -19 19v40c0 12 7 19 19 19h391c12 0 19 -7 19 -19v-33c0 -8 -1 -15 -5 -24l-258 -580c-4 -9 -12 -14 -23 -14h-53z" />
    <glyph glyph-name="eight.tf" horiz-adv-x="628" 
d="M314 -12c-143 0 -238 77 -238 189c0 82 51 146 133 168v6c-71 22 -115 79 -115 154c0 103 87 177 220 177c132 0 220 -73 220 -177c0 -73 -44 -132 -115 -154v-6c82 -23 133 -86 133 -168c0 -112 -95 -189 -238 -189zM314 379c82 0 138 45 138 115c0 69 -56 115 -138 115
s-138 -46 -138 -115c0 -70 56 -115 138 -115zM314 62c92 0 153 49 153 125s-61 126 -153 126s-153 -50 -153 -126s61 -125 153 -125z" />
    <glyph glyph-name="nine.tf" horiz-adv-x="628" 
d="M243 0c-15 0 -20 11 -11 23l172 252h-6c-20 -21 -63 -36 -112 -36c-123 0 -207 88 -207 216c0 138 97 227 239 227c143 0 232 -93 232 -223c0 -70 -29 -136 -64 -190l-168 -256c-6 -10 -13 -13 -23 -13h-52zM315 314c90 0 148 57 148 147c0 88 -57 146 -146 146
c-88 0 -152 -57 -152 -147c0 -88 60 -146 150 -146z" />
    <glyph glyph-name="zero.tf.zero" horiz-adv-x="628" 
d="M315 682c140 0 233 -85 233 -215v-264c0 -130 -93 -215 -233 -215c-142 0 -235 85 -235 215v264c0 130 93 215 235 215zM315 604c-91 0 -150 -55 -150 -139v-248l289 303c-21 52 -71 84 -139 84zM315 66c89 0 149 55 149 139v249l-290 -303c20 -53 71 -85 141 -85z" />
    <glyph glyph-name="zero.zero" horiz-adv-x="626" 
d="M313 682c141 0 234 -85 234 -215v-264c0 -130 -93 -215 -234 -215s-234 85 -234 215v264c0 130 93 215 234 215zM313 604c-90 0 -150 -55 -150 -139v-249l290 304c-21 52 -72 84 -140 84zM313 66c90 0 150 55 150 139v249l-290 -304c20 -52 71 -84 140 -84z" />
    <glyph glyph-name="zero.subs" horiz-adv-x="377" 
d="M189 -107c-87 0 -144 52 -144 131v154c0 79 57 131 144 131c86 0 143 -52 143 -131v-154c0 -79 -57 -131 -143 -131zM189 -47c47 0 79 29 79 73v150c0 44 -32 73 -79 73c-48 0 -80 -29 -80 -73v-150c0 -44 32 -73 80 -73z" />
    <glyph glyph-name="one.subs" horiz-adv-x="319" 
d="M257 -40c11 0 18 -6 18 -18v-24c0 -12 -7 -18 -18 -18h-184c-12 0 -18 6 -18 18v24c0 12 6 18 18 18h62v274h-4l-54 -24c-12 -5 -21 0 -21 14v22c0 10 4 17 14 21l70 31c7 3 13 4 22 4h20c12 0 18 -6 18 -18v-324h57z" />
    <glyph glyph-name="two.subs" horiz-adv-x="359" 
d="M63 -100c-12 0 -18 6 -18 18v19c0 9 3 15 9 23l140 143c36 36 53 68 53 92c0 32 -26 54 -67 54s-68 -24 -68 -58v-4c0 -12 -6 -18 -17 -18h-31c-12 0 -18 7 -18 18v9c0 68 54 113 134 113c81 0 135 -44 135 -107c0 -40 -19 -78 -61 -121l-113 -118v-3h154
c11 0 18 -6 18 -18v-24c0 -12 -7 -18 -18 -18h-232z" />
    <glyph glyph-name="three.subs" horiz-adv-x="374" 
d="M186 -107c-85 0 -141 49 -141 110v2c0 12 6 18 17 18h32c11 0 17 -7 19 -18c6 -40 33 -56 73 -56c45 0 76 28 76 68c0 37 -25 61 -61 61h-53c-12 0 -18 6 -18 18v16c0 11 6 18 18 18h44c37 0 62 25 62 61c0 38 -27 62 -68 62c-36 0 -60 -16 -66 -51
c-2 -11 -7 -17 -18 -17h-32c-11 0 -18 6 -18 17v3c0 57 54 104 135 104c80 0 135 -44 135 -109c0 -42 -24 -78 -60 -91v-3c41 -13 67 -51 67 -98c0 -68 -58 -115 -143 -115z" />
    <glyph glyph-name="four.subs" horiz-adv-x="385" 
d="M323 46c11 0 18 -7 18 -19v-21c0 -12 -7 -18 -18 -18h-30v-70c0 -12 -7 -18 -18 -18h-29c-11 0 -18 6 -18 18v70h-175c-12 0 -18 6 -18 18v18c0 9 2 15 6 23l158 243c6 8 12 12 22 12h54c11 0 18 -6 18 -18v-238h30zM103 46h125v162l3 26h-5l-123 -185v-3z" />
    <glyph glyph-name="five.subs" horiz-adv-x="374" 
d="M182 -107c-81 0 -137 49 -137 101v2c0 12 6 18 18 18h32c10 0 15 -6 18 -16c7 -34 35 -49 71 -49c47 0 79 31 79 78s-32 79 -77 79c-23 0 -45 -9 -59 -22c-6 -7 -12 -9 -20 -9h-37c-11 0 -19 6 -17 19l27 191c2 11 9 17 20 17h179c12 0 19 -6 19 -18v-21
c0 -11 -7 -18 -19 -18h-142l-16 -114h4c16 17 46 28 79 28c76 0 125 -54 125 -130c0 -82 -57 -136 -147 -136z" />
    <glyph glyph-name="six.subs" horiz-adv-x="380" 
d="M188 -107c-88 0 -143 57 -143 136c0 41 16 86 40 122l95 139c6 8 12 12 22 12h32c15 0 19 -11 11 -22l-99 -141h3c11 11 35 20 63 20c73 0 124 -52 124 -127c0 -85 -61 -139 -148 -139zM189 -51c45 0 80 32 80 79c0 45 -32 78 -80 78c-46 0 -78 -32 -78 -78
c0 -47 31 -79 78 -79z" />
    <glyph glyph-name="seven.subs" horiz-adv-x="337" 
d="M102 -100c-13 0 -19 9 -13 21l144 318v3h-170c-12 0 -18 6 -18 18v24c0 12 6 18 18 18h228c12 0 18 -6 18 -18v-21c0 -8 -1 -15 -4 -22l-148 -327c-4 -9 -11 -14 -21 -14h-34z" />
    <glyph glyph-name="eight.subs" horiz-adv-x="382" 
d="M191 -107c-88 0 -146 47 -146 115c0 46 27 85 75 99v4c-40 14 -64 48 -64 91c0 61 53 107 135 107s136 -45 136 -107c0 -43 -26 -78 -65 -91v-4c46 -13 75 -52 75 -99c0 -68 -58 -115 -146 -115zM191 132c42 0 73 25 73 61c0 37 -31 60 -73 60c-43 0 -73 -23 -73 -60
c0 -36 30 -61 73 -61zM191 -51c49 0 81 26 81 66s-32 68 -81 68c-48 0 -81 -27 -81 -68c0 -39 32 -66 81 -66z" />
    <glyph glyph-name="nine.subs" horiz-adv-x="380" 
d="M150 -100c-15 0 -20 11 -12 22l95 137h-3c-12 -11 -36 -18 -63 -18c-72 0 -122 53 -122 129c0 85 60 139 146 139c89 0 145 -57 145 -137c0 -41 -18 -83 -41 -118l-92 -142c-6 -8 -12 -12 -22 -12h-31zM190 96c48 0 79 32 79 78c0 47 -31 79 -78 79
c-46 0 -80 -32 -80 -79c0 -45 33 -78 79 -78z" />
    <glyph glyph-name="zero.dnom" horiz-adv-x="377" 
d="M189 -7c-87 0 -144 52 -144 131v154c0 79 57 131 144 131c86 0 143 -52 143 -131v-154c0 -79 -57 -131 -143 -131zM189 53c47 0 79 29 79 73v150c0 44 -32 73 -79 73c-48 0 -80 -29 -80 -73v-150c0 -44 32 -73 80 -73z" />
    <glyph glyph-name="one.dnom" horiz-adv-x="319" 
d="M257 60c11 0 18 -6 18 -18v-24c0 -12 -7 -18 -18 -18h-184c-12 0 -18 6 -18 18v24c0 12 6 18 18 18h62v274h-4l-54 -24c-12 -5 -21 0 -21 14v22c0 10 4 17 14 21l70 31c7 3 13 4 22 4h20c12 0 18 -6 18 -18v-324h57z" />
    <glyph glyph-name="two.dnom" horiz-adv-x="359" 
d="M63 0c-12 0 -18 6 -18 18v19c0 9 3 15 9 23l140 143c36 36 53 68 53 92c0 32 -26 54 -67 54s-68 -24 -68 -58v-4c0 -12 -6 -18 -17 -18h-31c-12 0 -18 7 -18 18v9c0 68 54 113 134 113c81 0 135 -44 135 -107c0 -40 -19 -78 -61 -121l-113 -118v-3h154c11 0 18 -6 18 -18
v-24c0 -12 -7 -18 -18 -18h-232z" />
    <glyph glyph-name="three.dnom" horiz-adv-x="374" 
d="M186 -7c-85 0 -141 49 -141 110v2c0 12 6 18 17 18h32c11 0 17 -7 19 -18c6 -40 33 -56 73 -56c45 0 76 28 76 68c0 37 -25 61 -61 61h-53c-12 0 -18 6 -18 18v16c0 11 6 18 18 18h44c37 0 62 25 62 61c0 38 -27 62 -68 62c-36 0 -60 -16 -66 -51c-2 -11 -7 -17 -18 -17
h-32c-11 0 -18 6 -18 17v3c0 57 54 104 135 104c80 0 135 -44 135 -109c0 -42 -24 -78 -60 -91v-3c41 -13 67 -51 67 -98c0 -68 -58 -115 -143 -115z" />
    <glyph glyph-name="four.dnom" horiz-adv-x="385" 
d="M323 146c11 0 18 -7 18 -19v-21c0 -12 -7 -18 -18 -18h-30v-70c0 -12 -7 -18 -18 -18h-29c-11 0 -18 6 -18 18v70h-175c-12 0 -18 6 -18 18v18c0 9 2 15 6 23l158 243c6 8 12 12 22 12h54c11 0 18 -6 18 -18v-238h30zM103 146h125v162l3 26h-5l-123 -185v-3z" />
    <glyph glyph-name="five.dnom" horiz-adv-x="374" 
d="M182 -7c-81 0 -137 49 -137 101v2c0 12 6 18 18 18h32c10 0 15 -6 18 -16c7 -34 35 -49 71 -49c47 0 79 31 79 78s-32 79 -77 79c-23 0 -45 -9 -59 -22c-6 -7 -12 -9 -20 -9h-37c-11 0 -19 6 -17 19l27 191c2 11 9 17 20 17h179c12 0 19 -6 19 -18v-21
c0 -11 -7 -18 -19 -18h-142l-16 -114h4c16 17 46 28 79 28c76 0 125 -54 125 -130c0 -82 -57 -136 -147 -136z" />
    <glyph glyph-name="six.dnom" horiz-adv-x="380" 
d="M188 -7c-88 0 -143 57 -143 136c0 41 16 86 40 122l95 139c6 8 12 12 22 12h32c15 0 19 -11 11 -22l-99 -141h3c11 11 35 20 63 20c73 0 124 -52 124 -127c0 -85 -61 -139 -148 -139zM189 49c45 0 80 32 80 79c0 45 -32 78 -80 78c-46 0 -78 -32 -78 -78
c0 -47 31 -79 78 -79z" />
    <glyph glyph-name="seven.dnom" horiz-adv-x="337" 
d="M102 0c-13 0 -19 9 -13 21l144 318v3h-170c-12 0 -18 6 -18 18v24c0 12 6 18 18 18h228c12 0 18 -6 18 -18v-21c0 -8 -1 -15 -4 -22l-148 -327c-4 -9 -11 -14 -21 -14h-34z" />
    <glyph glyph-name="eight.dnom" horiz-adv-x="382" 
d="M191 -7c-88 0 -146 47 -146 115c0 46 27 85 75 99v4c-40 14 -64 48 -64 91c0 61 53 107 135 107s136 -45 136 -107c0 -43 -26 -78 -65 -91v-4c46 -13 75 -52 75 -99c0 -68 -58 -115 -146 -115zM191 232c42 0 73 25 73 61c0 37 -31 60 -73 60c-43 0 -73 -23 -73 -60
c0 -36 30 -61 73 -61zM191 49c49 0 81 26 81 66s-32 68 -81 68c-48 0 -81 -27 -81 -68c0 -39 32 -66 81 -66z" />
    <glyph glyph-name="nine.dnom" horiz-adv-x="380" 
d="M150 0c-15 0 -20 11 -12 22l95 137h-3c-12 -11 -36 -18 -63 -18c-72 0 -122 53 -122 129c0 85 60 139 146 139c89 0 145 -57 145 -137c0 -41 -18 -83 -41 -118l-92 -142c-6 -8 -12 -12 -22 -12h-31zM190 196c48 0 79 32 79 78c0 47 -31 79 -78 79c-46 0 -80 -32 -80 -79
c0 -45 33 -78 79 -78z" />
    <glyph glyph-name="zero.numr" horiz-adv-x="377" 
d="M189 261c-87 0 -144 52 -144 131v154c0 79 57 131 144 131c86 0 143 -52 143 -131v-154c0 -79 -57 -131 -143 -131zM189 321c47 0 79 29 79 73v150c0 44 -32 73 -79 73c-48 0 -80 -29 -80 -73v-150c0 -44 32 -73 80 -73z" />
    <glyph glyph-name="one.numr" horiz-adv-x="319" 
d="M257 328c11 0 18 -6 18 -18v-24c0 -12 -7 -18 -18 -18h-184c-12 0 -18 6 -18 18v24c0 12 6 18 18 18h62v274h-4l-54 -24c-12 -5 -21 0 -21 14v22c0 10 4 17 14 21l70 31c7 3 13 4 22 4h20c12 0 18 -6 18 -18v-324h57z" />
    <glyph glyph-name="two.numr" horiz-adv-x="359" 
d="M63 268c-12 0 -18 6 -18 18v19c0 9 3 15 9 23l140 143c36 36 53 68 53 92c0 32 -26 54 -67 54s-68 -24 -68 -58v-4c0 -12 -6 -18 -17 -18h-31c-12 0 -18 7 -18 18v9c0 68 54 113 134 113c81 0 135 -44 135 -107c0 -40 -19 -78 -61 -121l-113 -118v-3h154
c11 0 18 -6 18 -18v-24c0 -12 -7 -18 -18 -18h-232z" />
    <glyph glyph-name="three.numr" horiz-adv-x="374" 
d="M186 261c-85 0 -141 49 -141 110v2c0 12 6 18 17 18h32c11 0 17 -7 19 -18c6 -40 33 -56 73 -56c45 0 76 28 76 68c0 37 -25 61 -61 61h-53c-12 0 -18 6 -18 18v16c0 11 6 18 18 18h44c37 0 62 25 62 61c0 38 -27 62 -68 62c-36 0 -60 -16 -66 -51c-2 -11 -7 -17 -18 -17
h-32c-11 0 -18 6 -18 17v3c0 57 54 104 135 104c80 0 135 -44 135 -109c0 -42 -24 -78 -60 -91v-3c41 -13 67 -51 67 -98c0 -68 -58 -115 -143 -115z" />
    <glyph glyph-name="four.numr" horiz-adv-x="385" 
d="M323 414c11 0 18 -7 18 -19v-21c0 -12 -7 -18 -18 -18h-30v-70c0 -12 -7 -18 -18 -18h-29c-11 0 -18 6 -18 18v70h-175c-12 0 -18 6 -18 18v18c0 9 2 15 6 23l158 243c6 8 12 12 22 12h54c11 0 18 -6 18 -18v-238h30zM103 414h125v162l3 26h-5l-123 -185v-3z" />
    <glyph glyph-name="five.numr" horiz-adv-x="374" 
d="M182 261c-81 0 -137 49 -137 101v2c0 12 6 18 18 18h32c10 0 15 -6 18 -16c7 -34 35 -49 71 -49c47 0 79 31 79 78s-32 79 -77 79c-23 0 -45 -9 -59 -22c-6 -7 -12 -9 -20 -9h-37c-11 0 -19 6 -17 19l27 191c2 11 9 17 20 17h179c12 0 19 -6 19 -18v-21
c0 -11 -7 -18 -19 -18h-142l-16 -114h4c16 17 46 28 79 28c76 0 125 -54 125 -130c0 -82 -57 -136 -147 -136z" />
    <glyph glyph-name="six.numr" horiz-adv-x="380" 
d="M188 261c-88 0 -143 57 -143 136c0 41 16 86 40 122l95 139c6 8 12 12 22 12h32c15 0 19 -11 11 -22l-99 -141h3c11 11 35 20 63 20c73 0 124 -52 124 -127c0 -85 -61 -139 -148 -139zM189 317c45 0 80 32 80 79c0 45 -32 78 -80 78c-46 0 -78 -32 -78 -78
c0 -47 31 -79 78 -79z" />
    <glyph glyph-name="seven.numr" horiz-adv-x="337" 
d="M102 268c-13 0 -19 9 -13 21l144 318v3h-170c-12 0 -18 6 -18 18v24c0 12 6 18 18 18h228c12 0 18 -6 18 -18v-21c0 -8 -1 -15 -4 -22l-148 -327c-4 -9 -11 -14 -21 -14h-34z" />
    <glyph glyph-name="eight.numr" horiz-adv-x="382" 
d="M191 261c-88 0 -146 47 -146 115c0 46 27 85 75 99v4c-40 14 -64 48 -64 91c0 61 53 107 135 107s136 -45 136 -107c0 -43 -26 -78 -65 -91v-4c46 -13 75 -52 75 -99c0 -68 -58 -115 -146 -115zM191 500c42 0 73 25 73 61c0 37 -31 60 -73 60c-43 0 -73 -23 -73 -60
c0 -36 30 -61 73 -61zM191 317c49 0 81 26 81 66s-32 68 -81 68c-48 0 -81 -27 -81 -68c0 -39 32 -66 81 -66z" />
    <glyph glyph-name="nine.numr" horiz-adv-x="380" 
d="M150 268c-15 0 -20 11 -12 22l95 137h-3c-12 -11 -36 -18 -63 -18c-72 0 -122 53 -122 129c0 85 60 139 146 139c89 0 145 -57 145 -137c0 -41 -18 -83 -41 -118l-92 -142c-6 -8 -12 -12 -22 -12h-31zM190 464c48 0 79 32 79 78c0 47 -31 79 -78 79
c-46 0 -80 -32 -80 -79c0 -45 33 -78 79 -78z" />
    <glyph glyph-name="uni2070" unicode="&#x2070;" horiz-adv-x="377" 
d="M189 361c-87 0 -144 52 -144 131v154c0 79 57 131 144 131c86 0 143 -52 143 -131v-154c0 -79 -57 -131 -143 -131zM189 421c47 0 79 29 79 73v150c0 44 -32 73 -79 73c-48 0 -80 -29 -80 -73v-150c0 -44 32 -73 80 -73z" />
    <glyph glyph-name="uni00B9" unicode="&#xb9;" horiz-adv-x="319" 
d="M257 428c11 0 18 -6 18 -18v-24c0 -12 -7 -18 -18 -18h-184c-12 0 -18 6 -18 18v24c0 12 6 18 18 18h62v274h-4l-54 -24c-12 -5 -21 0 -21 14v22c0 10 4 17 14 21l70 31c7 3 13 4 22 4h20c12 0 18 -6 18 -18v-324h57z" />
    <glyph glyph-name="uni00B2" unicode="&#xb2;" horiz-adv-x="359" 
d="M63 368c-12 0 -18 6 -18 18v19c0 9 3 15 9 23l140 143c36 36 53 68 53 92c0 32 -26 54 -67 54s-68 -24 -68 -58v-4c0 -12 -6 -18 -17 -18h-31c-12 0 -18 7 -18 18v9c0 68 54 113 134 113c81 0 135 -44 135 -107c0 -40 -19 -78 -61 -121l-113 -118v-3h154
c11 0 18 -6 18 -18v-24c0 -12 -7 -18 -18 -18h-232z" />
    <glyph glyph-name="uni00B3" unicode="&#xb3;" horiz-adv-x="374" 
d="M186 361c-85 0 -141 49 -141 110v2c0 12 6 18 17 18h32c11 0 17 -7 19 -18c6 -40 33 -56 73 -56c45 0 76 28 76 68c0 37 -25 61 -61 61h-53c-12 0 -18 6 -18 18v16c0 11 6 18 18 18h44c37 0 62 25 62 61c0 38 -27 62 -68 62c-36 0 -60 -16 -66 -51c-2 -11 -7 -17 -18 -17
h-32c-11 0 -18 6 -18 17v3c0 57 54 104 135 104c80 0 135 -44 135 -109c0 -42 -24 -78 -60 -91v-3c41 -13 67 -51 67 -98c0 -68 -58 -115 -143 -115z" />
    <glyph glyph-name="uni2074" unicode="&#x2074;" horiz-adv-x="385" 
d="M323 514c11 0 18 -7 18 -19v-21c0 -12 -7 -18 -18 -18h-30v-70c0 -12 -7 -18 -18 -18h-29c-11 0 -18 6 -18 18v70h-175c-12 0 -18 6 -18 18v18c0 9 2 15 6 23l158 243c6 8 12 12 22 12h54c11 0 18 -6 18 -18v-238h30zM103 514h125v162l3 26h-5l-123 -185v-3z" />
    <glyph glyph-name="uni2075" unicode="&#x2075;" horiz-adv-x="374" 
d="M182 361c-81 0 -137 49 -137 101v2c0 12 6 18 18 18h32c10 0 15 -6 18 -16c7 -34 35 -49 71 -49c47 0 79 31 79 78s-32 79 -77 79c-23 0 -45 -9 -59 -22c-6 -7 -12 -9 -20 -9h-37c-11 0 -19 6 -17 19l27 191c2 11 9 17 20 17h179c12 0 19 -6 19 -18v-21
c0 -11 -7 -18 -19 -18h-142l-16 -114h4c16 17 46 28 79 28c76 0 125 -54 125 -130c0 -82 -57 -136 -147 -136z" />
    <glyph glyph-name="uni2076" unicode="&#x2076;" horiz-adv-x="380" 
d="M188 361c-88 0 -143 57 -143 136c0 41 16 86 40 122l95 139c6 8 12 12 22 12h32c15 0 19 -11 11 -22l-99 -141h3c11 11 35 20 63 20c73 0 124 -52 124 -127c0 -85 -61 -139 -148 -139zM189 417c45 0 80 32 80 79c0 45 -32 78 -80 78c-46 0 -78 -32 -78 -78
c0 -47 31 -79 78 -79z" />
    <glyph glyph-name="uni2077" unicode="&#x2077;" horiz-adv-x="337" 
d="M102 368c-13 0 -19 9 -13 21l144 318v3h-170c-12 0 -18 6 -18 18v24c0 12 6 18 18 18h228c12 0 18 -6 18 -18v-21c0 -8 -1 -15 -4 -22l-148 -327c-4 -9 -11 -14 -21 -14h-34z" />
    <glyph glyph-name="uni2078" unicode="&#x2078;" horiz-adv-x="382" 
d="M191 361c-88 0 -146 47 -146 115c0 46 27 85 75 99v4c-40 14 -64 48 -64 91c0 61 53 107 135 107s136 -45 136 -107c0 -43 -26 -78 -65 -91v-4c46 -13 75 -52 75 -99c0 -68 -58 -115 -146 -115zM191 600c42 0 73 25 73 61c0 37 -31 60 -73 60c-43 0 -73 -23 -73 -60
c0 -36 30 -61 73 -61zM191 417c49 0 81 26 81 66s-32 68 -81 68c-48 0 -81 -27 -81 -68c0 -39 32 -66 81 -66z" />
    <glyph glyph-name="uni2079" unicode="&#x2079;" horiz-adv-x="380" 
d="M150 368c-15 0 -20 11 -12 22l95 137h-3c-12 -11 -36 -18 -63 -18c-72 0 -122 53 -122 129c0 85 60 139 146 139c89 0 145 -57 145 -137c0 -41 -18 -83 -41 -118l-92 -142c-6 -8 -12 -12 -22 -12h-31zM190 564c48 0 79 32 79 78c0 47 -31 79 -78 79
c-46 0 -80 -32 -80 -79c0 -45 33 -78 79 -78z" />
    <glyph glyph-name="fraction" unicode="&#x2044;" horiz-adv-x="205" 
d="M-99 0c-11 0 -15 7 -10 17l357 643c4 7 10 10 17 10h39c10 0 15 -7 10 -17l-357 -643c-4 -7 -10 -10 -17 -10h-39z" />
    <glyph glyph-name="onehalf" unicode="&#xbd;" horiz-adv-x="910" 
d="M275 286c0 -12 -7 -18 -18 -18h-184c-12 0 -18 6 -18 18v24c0 12 6 18 18 18h62v274h-4l-54 -24c-12 -5 -21 0 -21 14v22c0 10 4 17 14 21l70 31c7 3 13 4 22 4h20c12 0 18 -6 18 -18v-324h57c11 0 18 -6 18 -18v-24zM650 670c10 0 15 -7 10 -17l-357 -643
c-4 -7 -10 -10 -17 -10h-39c-11 0 -15 7 -10 17l357 643c4 7 10 10 17 10h39zM846 60c11 0 18 -6 18 -18v-24c0 -12 -7 -18 -18 -18h-232c-12 0 -18 6 -18 18v19c0 9 3 15 9 23l140 143c36 36 53 68 53 92c0 32 -26 54 -67 54s-68 -24 -68 -58v-4c0 -12 -6 -18 -17 -18h-31
c-12 0 -18 7 -18 18v9c0 68 54 113 134 113c81 0 135 -44 135 -107c0 -40 -19 -78 -61 -121l-113 -118v-3h154z" />
    <glyph glyph-name="uni2153" unicode="&#x2153;" horiz-adv-x="925" 
d="M275 286c0 -12 -7 -18 -18 -18h-184c-12 0 -18 6 -18 18v24c0 12 6 18 18 18h62v274h-4l-54 -24c-12 -5 -21 0 -21 14v22c0 10 4 17 14 21l70 31c7 3 13 4 22 4h20c12 0 18 -6 18 -18v-324h57c11 0 18 -6 18 -18v-24zM650 670c10 0 15 -7 10 -17l-357 -643
c-4 -7 -10 -10 -17 -10h-39c-11 0 -15 7 -10 17l357 643c4 7 10 10 17 10h39zM813 206c41 -13 67 -51 67 -98c0 -68 -58 -115 -143 -115s-141 49 -141 110v2c0 12 6 18 17 18h32c11 0 17 -7 19 -18c6 -40 33 -56 73 -56c45 0 76 28 76 68c0 37 -25 61 -61 61h-53
c-12 0 -18 6 -18 18v16c0 11 6 18 18 18h44c37 0 62 25 62 61c0 38 -27 62 -68 62c-36 0 -60 -16 -66 -51c-2 -11 -7 -17 -18 -17h-32c-11 0 -18 6 -18 17v3c0 57 54 104 135 104c80 0 135 -44 135 -109c0 -42 -24 -78 -60 -91v-3z" />
    <glyph glyph-name="uni2154" unicode="&#x2154;" horiz-adv-x="965" 
d="M63 268c-12 0 -18 6 -18 18v19c0 9 3 15 9 23l140 143c36 36 53 68 53 92c0 32 -26 54 -67 54s-68 -24 -68 -58v-4c0 -12 -6 -18 -17 -18h-31c-12 0 -18 7 -18 18v9c0 68 54 113 134 113c81 0 135 -44 135 -107c0 -40 -19 -78 -61 -121l-113 -118v-3h154
c11 0 18 -6 18 -18v-24c0 -12 -7 -18 -18 -18h-232zM287 0c-11 0 -15 7 -10 17l357 643c4 7 10 10 17 10h39c10 0 15 -7 10 -17l-357 -643c-4 -7 -10 -10 -17 -10h-39zM777 -7c-85 0 -141 49 -141 110v2c0 12 6 18 17 18h32c11 0 17 -7 19 -18c6 -40 33 -56 73 -56
c45 0 76 28 76 68c0 37 -25 61 -61 61h-53c-12 0 -18 6 -18 18v16c0 11 6 18 18 18h44c37 0 62 25 62 61c0 38 -27 62 -68 62c-36 0 -60 -16 -66 -51c-2 -11 -7 -17 -18 -17h-32c-11 0 -18 6 -18 17v3c0 57 54 104 135 104c80 0 135 -44 135 -109c0 -42 -24 -78 -60 -91v-3
c41 -13 67 -51 67 -98c0 -68 -58 -115 -143 -115z" />
    <glyph glyph-name="onequarter" unicode="&#xbc;" horiz-adv-x="883" 
d="M275 286c0 -12 -7 -18 -18 -18h-184c-12 0 -18 6 -18 18v24c0 12 6 18 18 18h62v274h-4l-54 -24c-12 -5 -21 0 -21 14v22c0 10 4 17 14 21l70 31c7 3 13 4 22 4h20c12 0 18 -6 18 -18v-324h57c11 0 18 -6 18 -18v-24zM650 670c10 0 15 -7 10 -17l-357 -643
c-4 -7 -10 -10 -17 -10h-39c-11 0 -15 7 -10 17l357 643c4 7 10 10 17 10h39zM821 146c11 0 18 -7 18 -19v-21c0 -12 -7 -18 -18 -18h-30v-70c0 -12 -7 -18 -18 -18h-29c-11 0 -18 6 -18 18v70h-175c-12 0 -18 6 -18 18v18c0 9 2 15 6 23l158 243c6 8 12 12 22 12h54
c11 0 18 -6 18 -18v-238h30zM601 146h125v162l3 26h-5l-123 -185v-3z" />
    <glyph glyph-name="threequarters" unicode="&#xbe;" horiz-adv-x="911" 
d="M329 376c0 -68 -58 -115 -143 -115s-141 49 -141 110v2c0 12 6 18 17 18h32c11 0 17 -7 19 -18c6 -40 33 -56 73 -56c45 0 76 28 76 68c0 37 -25 61 -61 61h-53c-12 0 -18 6 -18 18v16c0 11 6 18 18 18h44c37 0 62 25 62 61c0 38 -27 62 -68 62c-36 0 -60 -16 -66 -51
c-2 -11 -7 -17 -18 -17h-32c-11 0 -18 6 -18 17v3c0 57 54 104 135 104c80 0 135 -44 135 -109c0 -42 -24 -78 -60 -91v-3c41 -13 67 -51 67 -98zM678 670c10 0 15 -7 10 -17l-357 -643c-4 -7 -10 -10 -17 -10h-39c-11 0 -15 7 -10 17l357 643c4 7 10 10 17 10h39zM849 146
c11 0 18 -7 18 -19v-21c0 -12 -7 -18 -18 -18h-30v-70c0 -12 -7 -18 -18 -18h-29c-11 0 -18 6 -18 18v70h-175c-12 0 -18 6 -18 18v18c0 9 2 15 6 23l158 243c6 8 12 12 22 12h54c11 0 18 -6 18 -18v-238h30zM629 146h125v162l3 26h-5l-123 -185v-3z" />
    <glyph glyph-name="uni2157" unicode="&#x2157;" horiz-adv-x="953" 
d="M186 261c-85 0 -141 49 -141 110v2c0 12 6 18 17 18h32c11 0 17 -7 19 -18c6 -40 33 -56 73 -56c45 0 76 28 76 68c0 37 -25 61 -61 61h-53c-12 0 -18 6 -18 18v16c0 11 6 18 18 18h44c37 0 62 25 62 61c0 38 -27 62 -68 62c-36 0 -60 -16 -66 -51c-2 -11 -7 -17 -18 -17
h-32c-11 0 -18 6 -18 17v3c0 57 54 104 135 104c80 0 135 -44 135 -109c0 -42 -24 -78 -60 -91v-3c41 -13 67 -51 67 -98c0 -68 -58 -115 -143 -115zM275 0c-11 0 -15 7 -10 17l357 643c4 7 10 10 17 10h39c10 0 15 -7 10 -17l-357 -643c-4 -7 -10 -10 -17 -10h-39zM761 -7
c-81 0 -137 49 -137 101v2c0 12 6 18 18 18h32c10 0 15 -6 18 -16c7 -34 35 -49 71 -49c47 0 79 31 79 78s-32 79 -77 79c-23 0 -45 -9 -59 -22c-6 -7 -12 -9 -20 -9h-37c-11 0 -19 6 -17 19l27 191c2 11 9 17 20 17h179c12 0 19 -6 19 -18v-21c0 -11 -7 -18 -19 -18h-142
l-16 -114h4c16 17 46 28 79 28c76 0 125 -54 125 -130c0 -82 -57 -136 -147 -136z" />
    </font>
</defs>
</svg>
