<svg xmlns="http://www.w3.org/2000/svg" width="247.19" height="127.79" viewBox="0 0 247.19 127.79"><defs><style>.cls-1{fill:#fff;}</style></defs><title>Artboard 10</title><g id="Capa_3" data-name="Capa 3"><path class="cls-1" d="M41.2,54.37c0-1.15-.63-2.34-2.67-2.81a11.16,11.16,0,0,0-3.8-.06v7a9.22,9.22,0,0,0,4.75-1.35A3.52,3.52,0,0,0,41.2,54.37Z"/><path class="cls-1" d="M39.26,60.06a9,9,0,0,0-4.53.11V68a11,11,0,0,0,2,.18,6.12,6.12,0,0,0,3.36-.77,4.31,4.31,0,0,0,2-4.18A3.65,3.65,0,0,0,39.26,60.06Z"/><path class="cls-1" d="M78.74,49.38a75.89,75.89,0,0,0-8.44-9.57,76,76,0,0,0-9.58-8.44,17.65,17.65,0,0,0-9.86-3.58A17.65,17.65,0,0,0,41,31.37a76,76,0,0,0-9.58,8.44A76,76,0,0,0,23,49.39a17.65,17.65,0,0,0-3.58,9.85A17.65,17.65,0,0,0,23,69.1a76,76,0,0,0,8.44,9.58A76.78,76.78,0,0,0,41,87.12a17.65,17.65,0,0,0,9.85,3.58,17.65,17.65,0,0,0,9.86-3.58,77.5,77.5,0,0,0,9.58-8.44,76,76,0,0,0,8.44-9.58,17.65,17.65,0,0,0,3.58-9.86A17.7,17.7,0,0,0,78.74,49.38ZM22.43,65.1l-.28-.91c-.46-.46-3.25-8.51,5.73-17.95S42,32.31,45.52,30.61s9.75-2.17,13.77,1.86c0,0-9.15-4.28-16.71,3.25.45-.44-13.27,12.62-15.81,16.1C24.89,54.41,21.49,60.28,22.43,65.1Zm24.85-.6a6.75,6.75,0,0,1-4,5.26,13.44,13.44,0,0,1-4.81,1.17,34.92,34.92,0,0,1-8.52-.5v-21a43.53,43.53,0,0,1,7.16-.71,12.8,12.8,0,0,1,5.8,1,4.24,4.24,0,0,1,2.68,3.79c0,1.3-.76,3.34-3.6,4.59a8.77,8.77,0,0,1,2.45.88A5.2,5.2,0,0,1,47.28,64.5Zm23.09,2.72A7.71,7.71,0,0,1,64,71a10.57,10.57,0,0,1-2.89-.24l-1-5.94c-.66,2.8-2.72,5.42-5.41,6a8.06,8.06,0,0,1-3.65-.07L47.5,49.15h4.91L55.05,67a4,4,0,0,0,1,0c2.1-.35,3.11-3.75,3.47-6.11L57.56,49.15h4.91L65.1,67a2.09,2.09,0,0,0,.66.07c2.67,0,4.12-6,4.25-9.74.12-3.2-.38-5.45-1.73-5.68a1.63,1.63,0,0,0-.79.06l-.14,0,0-.14a2.89,2.89,0,0,1,2.75-2.87c2.54,0,3.56,2.53,3.56,5.9C73.61,58.73,72.65,63.74,70.37,67.22Z"/><path class="cls-1" d="M174.28,67h.24l.07.16a2.91,2.91,0,0,1,0,.51c0,2.91-2.81,3.51-5.13,3.51-5.44,0-9.51-3.57-9.51-9.17,0-5.12,3.19-8.72,8.34-8.72,4.08,0,6.93,2.55,6.93,6.63a8.13,8.13,0,0,1-.1,1.3l-10.68,1.49A5.67,5.67,0,0,0,170.54,68a6.51,6.51,0,0,0,3.74-1m-6.37-11c-2.49,0-3.31,1.83-3.51,4.11l6.39-1A2.83,2.83,0,0,0,167.91,56ZM153.85,40.87h.24l.08.15a3,3,0,0,1,0,.52c0,2.91-2.82,3.51-5.13,3.51-5.44,0-9.51-3.57-9.51-9.17,0-5.12,3.18-8.73,8.34-8.73,4.08,0,6.93,2.56,6.93,6.64a9.48,9.48,0,0,1-.1,1.3L144,36.56a5.68,5.68,0,0,0,6.07,5.29,6.49,6.49,0,0,0,3.74-1m-6.36-11c-2.5,0-3.32,1.83-3.51,4.11l6.39-1A2.83,2.83,0,0,0,147.49,29.83Zm12.78,37.75-.09-.14-.2,0a3.54,3.54,0,0,1-2.1.62A2.59,2.59,0,0,1,155,65.28V56.93h4.58V53.79H155V50.48h-4.68v3.31h-2v3.14h2v8.5c0,3.64,2.21,5.76,5.78,5.76,1.81,0,4.21-.76,4.21-3a3.14,3.14,0,0,0,0-.64m20.39-26-.09-.14-.2,0a3.51,3.51,0,0,1-2.09.62,2.58,2.58,0,0,1-2.84-2.81V30.91H180V27.78H175.4V24.46h-4.67v3.32h-2v3.13h2v8.5c0,3.64,2.21,5.75,5.78,5.75,1.8,0,4.2-.76,4.2-3a3,3,0,0,0-.05-.63m-5,14.5.06.14.17,0a1.44,1.44,0,0,1,.65-.15c.82,0,1,.79,1,1.49V70.68h4.68V60.31c1.24-1.23,2.56-2.59,4.24-2.59a4.44,4.44,0,0,1,1.45.22l.25-4.55a3.43,3.43,0,0,0-.82-.09c-2.52,0-3.88,2-5.28,4H182v-.62a2.92,2.92,0,0,0-3.16-3.1,3,3,0,0,0-3.19,2.52m30.57,12.18a1.29,1.29,0,0,1-.64.15c-.77,0-1-.66-1-1.48V58.1c0-1.42-.13-2.91-1.3-3.89a4,4,0,0,0-2.59-.91C198,53.3,196,55,194.07,57H194V53.8h-4.62V70.68h4.72V60.16c1-1,2.46-2.66,4.13-2.66a1.61,1.61,0,0,1,1.68,1.8v7.87c0,2.34,1.2,3.76,3.39,3.76a2.91,2.91,0,0,0,3.18-2.53l0-.14h-.16m-70.48-1.07-.2,0-.12.16a4.52,4.52,0,0,0,0,.52c0,2.21,1.74,3.35,4.77,3.35,5.25,0,7-3.23,7-5.53,0-2.88-2-4.09-4.14-5.13-1.59-.79-2.81-1.41-2.81-2.46s.92-1.65,2.62-1.65a10.52,10.52,0,0,1,3.12.48l.54-3.23a22.74,22.74,0,0,0-3.7-.31c-5,0-7.11,2.78-7.11,5.34,0,2.87,1.84,4,4,5.16,1.61.78,2.72,1.32,2.72,2.46,0,1.32-1.23,1.86-2.78,1.86a7.63,7.63,0,0,1-3.93-1M156.17,41H156l-.11.16a3,3,0,0,0,0,.51c0,2.22,1.75,3.36,4.78,3.36,5.25,0,7-3.23,7-5.53,0-2.88-2-4.08-4.14-5.13-1.59-.79-2.82-1.42-2.82-2.46s.92-1.65,2.62-1.65a10.71,10.71,0,0,1,3.14.48l.54-3.23a21.85,21.85,0,0,0-3.7-.31c-5,0-7.12,2.78-7.12,5.34,0,2.88,1.83,4.05,4,5.15,1.61.79,2.72,1.33,2.72,2.47,0,1.33-1.24,1.87-2.79,1.87a7.61,7.61,0,0,1-3.92-1M133.46,67h.24l.07.16a2.91,2.91,0,0,1,0,.51c0,2.91-2.82,3.51-5.13,3.51-5.43,0-9.51-3.57-9.51-9.17,0-5.12,3.19-8.72,8.34-8.72,4.08,0,6.93,2.55,6.93,6.63a8.13,8.13,0,0,1-.1,1.3l-10.69,1.49A5.68,5.68,0,0,0,129.72,68a6.53,6.53,0,0,0,3.74-1m-6.37-11c-2.49,0-3.32,1.83-3.51,4.11l6.39-1C130,57.44,129.06,56,127.09,56Zm-.23-11.13a35.83,35.83,0,0,1-6.45-.59l-.13,0V22.67h.13a45.85,45.85,0,0,1,7.27-.71h0a13.18,13.18,0,0,1,6,1.05,5,5,0,0,1,2.16,1.83,4.15,4.15,0,0,1,.64,2.15,4.27,4.27,0,0,1-.77,2.44,6.54,6.54,0,0,1-2.58,2.19,8.46,8.46,0,0,1,2.1.79,5.69,5.69,0,0,1,2.43,2.43,5.87,5.87,0,0,1,.49,3.28A7,7,0,0,1,134,43.57a13.43,13.43,0,0,1-4.93,1.2c-.72.06-1.46.08-2.23.08m-1.45-3.29a11,11,0,0,0,1.92.17,6.06,6.06,0,0,0,3.33-.77,4,4,0,0,0,1.57-1.7,4.57,4.57,0,0,0,.42-2.39,3.57,3.57,0,0,0-2.84-3.14,6.86,6.86,0,0,0-1.88-.24,10,10,0,0,0-2.52.33Zm0-16.53v6.76A8.94,8.94,0,0,0,130,30.46a3.41,3.41,0,0,0,1.68-2.66,2.24,2.24,0,0,0-.52-1.58,3.69,3.69,0,0,0-2.07-1.12,8.9,8.9,0,0,0-1.92-.19A15,15,0,0,0,125.41,25Zm-13.9,26.48a1.48,1.48,0,0,1,.87-.13c1.15.18,1.75,2.2,1.63,5.63a22.49,22.49,0,0,1-1.18,6.29,8.32,8.32,0,0,1-1.31,2.47,2.22,2.22,0,0,1-1.67,1h-.09a2.17,2.17,0,0,1-.44,0l-2.69-18.2h-5.29l2,12.06a14.94,14.94,0,0,1-1.08,3.79c-.64,1.34-1.41,2.1-2.31,2.25a4.18,4.18,0,0,1-.59,0H99.1L96.43,48.51h-5.3l3.69,22.21.1,0A8.47,8.47,0,0,0,97,71a8.18,8.18,0,0,0,1.69-.18,6.72,6.72,0,0,0,3.6-2.26,9.76,9.76,0,0,0,1.84-3.31l.9,5.47.1,0a9.44,9.44,0,0,0,2.34.26h.62a7.17,7.17,0,0,0,3.75-1.1,9,9,0,0,0,2.81-2.8,19.59,19.59,0,0,0,2.54-6.21,29.11,29.11,0,0,0,.78-6.67,9.19,9.19,0,0,0-.87-4.34,3.13,3.13,0,0,0-2.91-1.79,2.83,2.83,0,0,0-1.93.8,3.38,3.38,0,0,0-1,2.45l.07.16.2,0M172.12,96.4a8.81,8.81,0,0,0,4.44,1.1c2.42,0,4.16-1.1,4.16-3,0-1.6-1.32-2.36-3.69-3.59-3.06-1.58-5-3.19-5-6.44,0-3.6,3-6.85,8.67-6.85a24.86,24.86,0,0,1,4.23.35l-.54,3.6a12.24,12.24,0,0,0-3.72-.7c-2.75,0-3.73,1.3-3.73,2.56,0,1.77,1.81,2.68,3.82,3.73,3,1.51,5.12,3.15,5.12,6.49,0,3-2.05,7-8.52,7-2.47,0-5.56-.53-5.56-3.63a4.35,4.35,0,0,1,0-.53l.09-.15h.25m-2.2,1.09-.17,0a1.49,1.49,0,0,1-.7.19c-.91,0-1.13-1-1.13-1.71v-18h-5.11V95.35a6.26,6.26,0,0,1-4.2,1.52c-3.32,0-5.05-1.86-5.05-5.4V77.94h-5.11V91.47c0,6.09,3,9.25,8.3,9.25a10.7,10.7,0,0,0,6.59-2.37h0a3.35,3.35,0,0,0,3.18,2.11,3.11,3.11,0,0,0,3.4-2.82Zm-22.49-.86,0-.17-.19,0a49.72,49.72,0,0,1-5.28.24h-3.35V77.94h-5.08v22.27h10.86C146.23,100.21,147.36,99,147.43,96.63Zm-27.67-7.07c0,1.93,1.12,2.73,3,2.73a7.92,7.92,0,0,0,7.86-7.76c0-5.17-4.14-6.68-8.58-6.68-2.65,0-5.3.09-7.92.21v22.15h5.08V80.84a10.73,10.73,0,0,1,1.79-.16c2.68,0,4.48,1.49,4.48,4.23a4.2,4.2,0,0,1-4.38,4.51,7.53,7.53,0,0,1-1.06,0l-.18,0Zm64.68,16.63a.26.26,0,0,0,.26-.26.27.27,0,0,0-.26-.27c-14.57-.58-25.71-.86-35.06-.86s-20.48.28-35,.86a.27.27,0,0,0-.25.27.26.26,0,0,0,.25.26c14.57.6,25.71.87,35.05.87S169.87,106.79,184.44,106.19Zm4.79-5.47a2.24,2.24,0,0,1,0-4.47,2.17,2.17,0,0,1,2.16,2.23A2.15,2.15,0,0,1,189.23,100.72Zm0-4.17A1.95,1.95,0,1,0,191,98.48,1.85,1.85,0,0,0,189.23,96.55Zm-.12,2.06h-.33V99.9h-.47V97l.76,0c.5,0,1.08.14,1.08.76a.84.84,0,0,1-.61.78c.34.63.61,1.06.84,1.06l.09,0,0,0v0a.29.29,0,0,1-.31.27C189.68,99.91,189.39,99.28,189.11,98.61ZM189,97.3h-.23v1H189c.33,0,.65-.15.65-.51S189.37,97.3,189,97.3Z"/></g></svg>