<svg xmlns="http://www.w3.org/2000/svg" width="289.79" height="96.62" viewBox="0 0 289.79 96.62"><defs><style>.cls-1{fill:#fff;}</style></defs><title>Artboard 7</title><g id="Capa_3" data-name="Capa 3"><path class="cls-1" d="M28.71,49.87A2.77,2.77,0,0,0,26,47H12.82a2.85,2.85,0,0,0,0,5.69H26a2.78,2.78,0,0,0,2.7-2.85M29.85,31.1a2.61,2.61,0,0,0,1.9.83,2.65,2.65,0,0,0,1.91-.83,3,3,0,0,0,0-4l-9.32-9.83a2.61,2.61,0,0,0-3.82,0,3,3,0,0,0,0,4Zm.45,37.35L21,78.28a3,3,0,0,0,0,4,2.65,2.65,0,0,0,1.91.83,2.61,2.61,0,0,0,1.9-.83l9.33-9.83a3,3,0,0,0,0-4,2.6,2.6,0,0,0-3.81,0m63.49-4.87L89.55,34.63a2.73,2.73,0,0,0-2.63-2.4h0a2.74,2.74,0,0,0-2.66,2.34L82.45,45.14,81.19,34.71a2.76,2.76,0,0,0-2.51-2.48,2.72,2.72,0,0,0-2.78,2.13c0,.15-3.62,14.91-5.39,22.9C67.57,70.5,57.27,71.53,54.18,71.53c-9.64,0-17.8-9.92-17.8-21.66s8.16-21.65,17.8-21.65c3.16,0,8.86.77,11.56,6a2.63,2.63,0,0,0,3.66,1.14,2.93,2.93,0,0,0,1.08-3.86c-3-5.69-8.89-8.95-16.3-8.95-6,0-12,3-16.38,8.13A29.69,29.69,0,0,0,31,49.87,29.71,29.71,0,0,0,37.8,69.09c4.37,5.16,10.34,8.12,16.38,8.12,8.43,0,18.52-4.9,21.58-18.65.52-2.33,1.19-5.25,1.89-8.2l1.7,14A2.75,2.75,0,0,0,82,66.86H82a2.75,2.75,0,0,0,2.66-2.35l2-12.06,1.76,12a2.72,2.72,0,0,0,3.08,2.37,2.82,2.82,0,0,0,2.25-3.24"/><path class="cls-1" d="M99.73,58.31V41.08a7.89,7.89,0,0,1,1.3-4.47,7.27,7.27,0,0,1,3.31-2.85,6.71,6.71,0,0,1,3-.65,7.15,7.15,0,0,1,4.23,1.35A7.53,7.53,0,0,1,114.3,38a8.34,8.34,0,0,1,.59,3.12,2.21,2.21,0,0,1-.63,1.57,2,2,0,0,1-1.49.66,2,2,0,0,1-1.53-.66,2.24,2.24,0,0,1-.62-1.57,3.59,3.59,0,0,0-.56-2,3.31,3.31,0,0,0-1.47-1.26,3.16,3.16,0,0,0-1.28-.27,3.36,3.36,0,0,0-1.85.58,3.1,3.1,0,0,0-1.22,1.59,3,3,0,0,0-.29,1.35V58.31a3.6,3.6,0,0,0,2,3.21,3.19,3.19,0,0,0,1.31.26,3.13,3.13,0,0,0,1.84-.57,3.24,3.24,0,0,0,1.2-1.55,4.16,4.16,0,0,0,.27-1.35,2.22,2.22,0,0,1,.62-1.57,2,2,0,0,1,1.53-.67,2,2,0,0,1,1.49.67,2.19,2.19,0,0,1,.63,1.57,8.16,8.16,0,0,1-.34,2.3,9,9,0,0,1-1,2.12,7.2,7.2,0,0,1-3.37,2.9,7,7,0,0,1-2.92.64,7.43,7.43,0,0,1-7-4.89,8.07,8.07,0,0,1-.6-3.07"/><path class="cls-1" d="M116.43,58.58V44.8a8.09,8.09,0,0,1,.32-2.24,7.48,7.48,0,0,1,.93-2,6.79,6.79,0,0,1,3.2-2.77,7,7,0,0,1,2.84-.61,6.82,6.82,0,0,1,4.06,1.3,7.17,7.17,0,0,1,2.59,3.34,7.83,7.83,0,0,1,.61,3V58.58a7.88,7.88,0,0,1-1.25,4.28,8.15,8.15,0,0,1-1.41,1.63,6.34,6.34,0,0,1-1.79,1.14,6.94,6.94,0,0,1-6.88-.71,8,8,0,0,1-1.54-1.49A7.12,7.12,0,0,1,117,61.54a7.84,7.84,0,0,1-.57-3m3.74,0a3.71,3.71,0,0,0,.6,2.09A3.52,3.52,0,0,0,122.32,62a3.57,3.57,0,0,0,1.4.27,3.21,3.21,0,0,0,2-.64A3.55,3.55,0,0,0,127,60a4.06,4.06,0,0,0,.26-1.45V44.8a3.81,3.81,0,0,0-2.15-3.41,3.43,3.43,0,0,0-1.38-.31,3.78,3.78,0,0,0-2,.62,3.46,3.46,0,0,0-1.27,1.67,2.42,2.42,0,0,0-.21.69,4.91,4.91,0,0,0-.06.74Z"/><path class="cls-1" d="M133.42,64.33V44.2a6.92,6.92,0,0,1,1.14-3.91,6.39,6.39,0,0,1,2.92-2.5,4.61,4.61,0,0,1,1.26-.44,7.12,7.12,0,0,1,1.32-.13,6.34,6.34,0,0,1,3.73,1.19,4.2,4.2,0,0,1,1.05.91,6,6,0,0,1,2.23-1.53,4.49,4.49,0,0,1,1.24-.44,7,7,0,0,1,1.31-.13,6.37,6.37,0,0,1,3.73,1.19,6.62,6.62,0,0,1,2.36,3.06,7.08,7.08,0,0,1,.52,2.73V64.33a1.93,1.93,0,0,1-.54,1.37,1.75,1.75,0,0,1-1.33.57,1.72,1.72,0,0,1-1.29-.57,1.93,1.93,0,0,1-.54-1.37l0-7.79V44.2a3,3,0,0,0-.54-1.74,2.81,2.81,0,0,0-2.41-1.34,3,3,0,0,0-1.61.5,2.65,2.65,0,0,0-1,1.4,3.36,3.36,0,0,0-.24,1.18V64.33a1.93,1.93,0,0,1-.54,1.37,1.79,1.79,0,0,1-1.34.57,1.74,1.74,0,0,1-1.3-.57,1.9,1.9,0,0,1-.56-1.37V44.2a3.16,3.16,0,0,0-.51-1.74,2.88,2.88,0,0,0-1.29-1.11,2.84,2.84,0,0,0-1.12-.23,3,3,0,0,0-1.62.5,2.8,2.8,0,0,0-1.07,1.4,3.34,3.34,0,0,0-.22,1.18V64.33a1.93,1.93,0,0,1-.54,1.37,1.81,1.81,0,0,1-2.64,0,1.89,1.89,0,0,1-.55-1.37"/><path class="cls-1" d="M158.8,44.2a7,7,0,0,1,.3-2.05,7.8,7.8,0,0,1,.84-1.86,6.93,6.93,0,0,1,2.92-2.5,5.75,5.75,0,0,1,2.58-.57,6.18,6.18,0,0,1,3.71,1.19,7.13,7.13,0,0,1,2.41,3.06,7.48,7.48,0,0,1,.5,2.73,1.93,1.93,0,0,1-.55,1.38,1.73,1.73,0,0,1-1.29.58,1.78,1.78,0,0,1-1.31-.58,1.93,1.93,0,0,1-.55-1.38,3.41,3.41,0,0,0-.48-1.74,3.12,3.12,0,0,0-1.32-1.11,2.88,2.88,0,0,0-1.12-.23,2.8,2.8,0,0,0-1.64.54A3,3,0,0,0,162.75,43a3.13,3.13,0,0,0-.22,1.18,3.34,3.34,0,0,0,.26,1.32,5.35,5.35,0,0,0,.79,1.47,10.27,10.27,0,0,0,1.21,1.44c.5.51,1.13,1.12,1.88,1.82l1.07,1a12.63,12.63,0,0,1,1.15,1.16,13,13,0,0,1,1,1.21c.29.38.56.76.8,1.13a7.3,7.3,0,0,1,.87,1.79,8,8,0,0,1,.53,2.79A6.92,6.92,0,0,1,171,63.17a7,7,0,0,1-2.9,2.54,6.27,6.27,0,0,1-2.56.56,6.17,6.17,0,0,1-3.73-1.22A6.78,6.78,0,0,1,159.37,62a7.18,7.18,0,0,1-.5-2.69,2,2,0,0,1,.55-1.42,1.73,1.73,0,0,1,1.31-.58,1.69,1.69,0,0,1,1.29.58,2,2,0,0,1,.55,1.42,3.27,3.27,0,0,0,.49,1.7,3.33,3.33,0,0,0,1.27,1.11,3.18,3.18,0,0,0,1.18.23,2.74,2.74,0,0,0,1.62-.51,3.27,3.27,0,0,0,1.05-1.35,3.7,3.7,0,0,0,.22-1.22,3.34,3.34,0,0,0-.26-1.32,5.65,5.65,0,0,0-.75-1.43A17.43,17.43,0,0,0,166.16,55a24.89,24.89,0,0,0-1.9-1.82l-1.45-1.37a12.09,12.09,0,0,1-1.38-1.48,10.58,10.58,0,0,1-2.1-3.37,7.91,7.91,0,0,1-.53-2.79"/><path class="cls-1" d="M175.94,64V35.33a2.16,2.16,0,0,1,1.68-2.17,1.41,1.41,0,0,1,.44,0A2,2,0,0,1,180,34.42l5.5,13c0,.18.15.27.38.27a.48.48,0,0,0,.44-.27l5.46-13a1.91,1.91,0,0,1,.79-1,2,2,0,0,1,1.14-.34,1.56,1.56,0,0,1,.44,0,2.28,2.28,0,0,1,1.23.76,2.11,2.11,0,0,1,.49,1.41V64a2.16,2.16,0,0,1-.65,1.6,2.08,2.08,0,0,1-1.51.65,2,2,0,0,1-1.48-.65,2.26,2.26,0,0,1-.62-1.6V48.16a.46.46,0,0,0-.36-.47h-.12a.41.41,0,0,0-.38.29l-2.92,6.92a2.09,2.09,0,0,1-.78,1,2,2,0,0,1-1.17.36,2,2,0,0,1-1.14-.36,2.17,2.17,0,0,1-.79-1L181.06,48a.42.42,0,0,0-.52-.29.43.43,0,0,0-.34.47V64a2.19,2.19,0,0,1-.64,1.6,2.06,2.06,0,0,1-1.5.65,2,2,0,0,1-1.49-.65,2.23,2.23,0,0,1-.63-1.6"/><path class="cls-1" d="M198.76,64.33V44.84a7.74,7.74,0,0,1,.33-2.24,7.16,7.16,0,0,1,.92-2,6.87,6.87,0,0,1,3.2-2.78,7,7,0,0,1,2.84-.6,6.8,6.8,0,0,1,4.06,1.3,7.2,7.2,0,0,1,2.6,3.34,8,8,0,0,1,.6,3V64.33a1.89,1.89,0,0,1-.55,1.37,1.79,1.79,0,0,1-1.34.57,1.74,1.74,0,0,1-1.3-.57,1.93,1.93,0,0,1-.54-1.37v-8a.7.7,0,0,0-.19-.51.61.61,0,0,0-.49-.21h-5.72a.64.64,0,0,0-.49.21.7.7,0,0,0-.19.51v8A1.89,1.89,0,0,1,202,65.7a1.75,1.75,0,0,1-1.33.57,1.74,1.74,0,0,1-1.3-.57,1.9,1.9,0,0,1-.56-1.37M202.5,51a.63.63,0,0,0,.19.49.73.73,0,0,0,.49.17h5.72a.75.75,0,0,0,.49-.17.66.66,0,0,0,.19-.49V44.84a3.45,3.45,0,0,0-.61-2.05,3.5,3.5,0,0,0-1.54-1.36,3.43,3.43,0,0,0-1.38-.31,3.78,3.78,0,0,0-2,.62,3.69,3.69,0,0,0-1.29,1.67,2.66,2.66,0,0,0-.2.69,6.57,6.57,0,0,0-.05.74Z"/><path class="cls-1" d="M215.86,64.3V39.16a1.94,1.94,0,0,1,.55-1.37,1.75,1.75,0,0,1,1.33-.57h5.13a7.31,7.31,0,0,1,4.36,1.4,8.23,8.23,0,0,1,2.87,3.6,10.53,10.53,0,0,1,.45,1.59,8.75,8.75,0,0,1,.16,1.63A8,8,0,0,1,229.35,50a7.08,7.08,0,0,1-.58.85,5.6,5.6,0,0,1-.67.7.82.82,0,0,0-.22.48.58.58,0,0,0,.11.47,7.4,7.4,0,0,1,1.26,3.22l.24,1.77c.09.67.18,1.37.28,2.1s.2,1.44.29,2.11.16,1.22.22,1.66l.13,1a2.46,2.46,0,0,1,0,.26,1.47,1.47,0,0,1-.37,1,1.87,1.87,0,0,1-1.24.65.56.56,0,0,1-.26,0,1.79,1.79,0,0,1-1.21-.47,2.06,2.06,0,0,1-.65-1.23s0-.36-.13-1-.19-1.42-.31-2.31l-.36-2.7c-.11-.9-.21-1.65-.29-2.24a3.12,3.12,0,0,0-1-1.86,2.73,2.73,0,0,0-1.89-.75h-2.48a.65.65,0,0,0-.48.19.69.69,0,0,0-.19.52V64.3a2,2,0,0,1-.55,1.4,1.74,1.74,0,0,1-1.3.57,1.78,1.78,0,0,1-1.34-.57,1.93,1.93,0,0,1-.55-1.4m3.74-15.22a.68.68,0,0,0,.19.48.66.66,0,0,0,.48.2h2.61a3.8,3.8,0,0,0,2.28-.72,4,4,0,0,0,1.5-1.89,5.57,5.57,0,0,0,.31-1.71,4.69,4.69,0,0,0-.68-2.42,4.13,4.13,0,0,0-1.8-1.55,3.8,3.8,0,0,0-1.61-.35h-2.61a.65.65,0,0,0-.48.19.69.69,0,0,0-.19.51Z"/><path class="cls-1" d="M232.79,64.33V39.16a1.87,1.87,0,0,1,.61-1.43,1.8,1.8,0,0,1,1.29-.51,1.73,1.73,0,0,1,1.3.58,1.9,1.9,0,0,1,.54,1.36v9.57a1.35,1.35,0,0,0,.17.63,1.14,1.14,0,0,0,1.33.54,1.1,1.1,0,0,0,.61-.49,10.09,10.09,0,0,0,.44-.91q.36-.8.84-2L241,44.09c.38-.87.74-1.7,1.08-2.5l.86-2.06.47-1.12v0a1.75,1.75,0,0,1,.69-.86,1.9,1.9,0,0,1,1-.29,1.88,1.88,0,0,1,.79.16,1.84,1.84,0,0,1,1,1.1,3.08,3.08,0,0,1,.13.66,1.87,1.87,0,0,1-.21.85l-.31.76c-.21.5-.48,1.13-.81,1.87s-.68,1.56-1.06,2.46-.73,1.75-1.09,2.54-.66,1.5-.91,2.1-.41,1-.49,1.15a3,3,0,0,1-.2.45,4.38,4.38,0,0,1-.28.42,4.38,4.38,0,0,1,.28.42,2.57,2.57,0,0,1,.2.45c.08.16.24.54.49,1.15s.55,1.32.91,2.12.72,1.64,1.09,2.53l1,2.47c.33.74.6,1.36.82,1.87l.31.75a2.42,2.42,0,0,1,.21.83,2.12,2.12,0,0,1-1.11,1.79,1.89,1.89,0,0,1-.79.15,1.83,1.83,0,0,1-1-.3,1.79,1.79,0,0,1-.69-.84v0c-.07-.15-.23-.53-.47-1.11l-.86-2.08L241,59.4c-.38-.87-.73-1.69-1.06-2.46s-.6-1.42-.84-1.95-.39-.83-.44-.91a1.19,1.19,0,0,0-.61-.49,1,1,0,0,0-.82.07,1.11,1.11,0,0,0-.51.47,1.39,1.39,0,0,0-.17.63v9.57A1.93,1.93,0,0,1,236,65.7a1.75,1.75,0,0,1-1.3.57,1.85,1.85,0,0,1-1.29-.52,1.82,1.82,0,0,1-.61-1.42"/><path class="cls-1" d="M249.41,64.26V39.12a1.91,1.91,0,0,1,.55-1.36,1.73,1.73,0,0,1,1.29-.58h9.35a1.76,1.76,0,0,1,1.3.58,1.9,1.9,0,0,1,.54,1.36,1.93,1.93,0,0,1-.55,1.38,1.7,1.7,0,0,1-1.3.58h-6.83a.66.66,0,0,0-.49.19.69.69,0,0,0-.19.51V49a.65.65,0,0,0,.19.5.69.69,0,0,0,.49.18h4.94a1.77,1.77,0,0,1,1.31.57,2,2,0,0,1,.55,1.41,1.93,1.93,0,0,1-.55,1.38,1.78,1.78,0,0,1-1.31.58h-4.94a.66.66,0,0,0-.49.19.69.69,0,0,0-.19.52v7.25a.68.68,0,0,0,.19.48.66.66,0,0,0,.49.2h6.83a1.7,1.7,0,0,1,1.3.58,1.93,1.93,0,0,1,.55,1.38,2,2,0,0,1-.54,1.4,1.75,1.75,0,0,1-1.3.57h-9.35a1.72,1.72,0,0,1-1.29-.57,2,2,0,0,1-.55-1.4"/><path class="cls-1" d="M263.28,39.09a1.93,1.93,0,0,1,.54-1.37,1.72,1.72,0,0,1,1.29-.57h12a1.72,1.72,0,0,1,1.29.57,1.89,1.89,0,0,1,.55,1.37,1.92,1.92,0,0,1-.55,1.38,1.72,1.72,0,0,1-1.29.57h-3.46a.57.57,0,0,0-.47.21.72.72,0,0,0-.18.51V64.3a1.9,1.9,0,0,1-.56,1.38,1.76,1.76,0,0,1-1.32.59,1.67,1.67,0,0,1-1.3-.59,1.93,1.93,0,0,1-.55-1.38V41.76a.69.69,0,0,0-.19-.51.64.64,0,0,0-.49-.21h-3.5a1.72,1.72,0,0,1-1.29-.57,2,2,0,0,1-.54-1.38"/></g></svg>