<svg xmlns="http://www.w3.org/2000/svg" width="382.63" height="92.47" viewBox="0 0 382.63 92.47"><defs><style>.cls-1{fill:#fff;}</style></defs><title>Artboard 6</title><g id="Capa_3" data-name="Capa 3"><path class="cls-1" d="M367.48,71.18c0-.77-.63-1-1.28-1h-1.55v3.64h.51V72.19h.58l1.09,1.67h.61l-1.09-1.67C367,72.16,367.48,71.91,367.48,71.18Zm-1.74.48h-.58v-.93h.93c.4,0,.89.07.89.45C367,71.76,366.19,71.66,365.74,71.66Z"/><path class="cls-1" d="M365.86,68.8a3.25,3.25,0,0,0-3.3,3.26,3.31,3.31,0,1,0,6.62,0A3.26,3.26,0,0,0,365.86,68.8Zm0,6.07a2.81,2.81,0,1,1,2.82-2.81A2.82,2.82,0,0,1,365.86,74.87Z"/><path class="cls-1" d="M337.85,69.18A25.74,25.74,0,0,0,326.13,69a44.52,44.52,0,0,0-13.64,5.19c-.67.39-1.33.79-2,1.21h35c-.11-.26-.23-.52-.36-.77A11.49,11.49,0,0,0,337.85,69.18Z"/><path class="cls-1" d="M346.83,66.14a13.85,13.85,0,0,0-8.77-6.57A30.87,30.87,0,0,0,324,59.35a53.59,53.59,0,0,0-16.39,6.25,57.07,57.07,0,0,0-10.83,8V75.4H308.5a52.09,52.09,0,0,1,4.36-3.07,45.15,45.15,0,0,1,17.25-6.55c5.54-.76,10.32,0,13.45,2.24a9.59,9.59,0,0,1,4.08,7.38h.41l.15-1.49A13.36,13.36,0,0,0,346.83,66.14Z"/><path class="cls-1" d="M298,49.36c-.43.25-.86.49-1.28.75v5a67.83,67.83,0,0,1,36-12.64C323.67,39.83,310.56,42.14,298,49.36Z"/><path class="cls-1" d="M338.13,43.6a17,17,0,0,1,1.25,1.16,19.34,19.34,0,0,1,3.82,5.8l-.92-1.46a14.89,14.89,0,0,0-6.13-5.36c-11.7,1-26.58,4.62-39.42,15.22v.8a64.54,64.54,0,0,1,11-7.1A55.64,55.64,0,0,1,320.25,48a36.55,36.55,0,0,1,11.55-1c6.75.61,11.6,3.57,14,8.56a21.94,21.94,0,0,1,2,7.56L347.31,61a13,13,0,0,0-1.21-3.18c-1.84-3.46-5.19-6-9.7-7.28a34.28,34.28,0,0,0-15.61-.24,59,59,0,0,0-18.14,6.92A61.84,61.84,0,0,0,296.73,61V72.72a55.52,55.52,0,0,1,6.94-6.08,59.65,59.65,0,0,1,12.11-7c8.59-3.7,17-4.86,23.06-3.18a12.52,12.52,0,0,1,9.69,11.2,30.72,30.72,0,0,1-.36,7.73H356v-31A82.43,82.43,0,0,0,338.13,43.6Z"/><path class="cls-1" d="M308.25,32.43A49,49,0,0,0,296.73,36v1.48a62.07,62.07,0,0,1,15.2-5.5C310.73,32.06,309.5,32.21,308.25,32.43Z"/><path class="cls-1" d="M296.73,16.18V32a32.46,32.46,0,0,1,13.74-1.23l-2.82.11a35.49,35.49,0,0,0-10.92,2.32v1.75a39.48,39.48,0,0,1,18.55-3.6,70.26,70.26,0,0,1,26.64.55,75.34,75.34,0,0,0-22.56,0,15.78,15.78,0,0,1,4.44,1.74l-1.38-.5a22,22,0,0,0-4.4-1,63.48,63.48,0,0,0-21.29,7.56v.87c10.77-5.88,22.35-8.08,30.76-5.06a75.86,75.86,0,0,1,23.35,1.77,83.48,83.48,0,0,0-20.65-.55,14.73,14.73,0,0,1,4.17,3.3l-.62-.5a16.9,16.9,0,0,0-4.86-2.67A71.75,71.75,0,0,0,296.73,48v.81c.93-.6,1.86-1.18,2.82-1.73,7.68-4.5,15.79-7.24,22.84-7.73,5.53-.39,10.28.62,13.94,2.93A73.91,73.91,0,0,1,356,44.37V16.18Z"/><path class="cls-1" d="M296.73,41.62v3.23a69,69,0,0,1,27.86-9.11C316.7,34.5,306.57,36.53,296.73,41.62Z"/><path class="cls-1" d="M140.14,29.77h7.45c1.3,2.79,12,25.9,12,25.9h-6.79l-2.82-6H137.65l-2.73,6h-6.83Zm7.72,15.13-4-8.87-4,8.87Z"/><path class="cls-1" d="M228.13,35.56a8.93,8.93,0,0,0-6.41,2.27L221.36,36h-5.81a11.46,11.46,0,0,1,.62,3.16V55.68h5.74V44.23c0-3.12,1.9-4.71,6.22-4.71,2.37,0,3.81.79,3.81,4.71V55.68h5.75V44.23C237.69,38.33,235.79,35.56,228.13,35.56Z"/><path class="cls-1" d="M254,35.62c-9.78,0-12,4.6-12,10.21s2.13,10.26,12.43,10.26a42.28,42.28,0,0,0,8.1-.87c.15-1,.48-3.18.59-3.93a62.66,62.66,0,0,1-8.69.88c-4.77,0-6.07-1.82-6.45-4.35h16.54v-2C264.52,38.75,260.75,35.62,254,35.62Zm-6,8.23c.33-2.45,1.44-4.31,6-4.31a4.34,4.34,0,0,1,4.73,4.31Z"/><path class="cls-1" d="M59.88,35.61c-7.18,0-12,3.16-12,10.25s4.78,10.25,12,10.25,12-3.12,12-10.25S67.06,35.61,59.88,35.61Zm0,16.59c-4.8,0-6.22-2.38-6.22-6.34s1.42-6.29,6.22-6.29S66.1,42,66.1,45.86,64.67,52.2,59.88,52.2Z"/><path class="cls-1" d="M123.79,41.9c0-4-4.26-6.34-10.53-6.34a30.36,30.36,0,0,0-8.57,1.72c-.13.84-.54,3.45-.62,4,1.25-.27,6.15-1.75,9.19-1.75S118,40.59,118,42.14v1.69s-3.86-.39-5.25-.39c-6.27,0-10.06,2.25-10.06,6.33,0,5.16,5.71,6.3,8.61,6.3,3.94,0,6-1.06,6.94-1.94l.33,1.55h5.77a11.63,11.63,0,0,1-.59-3.53ZM118,48.19c0,3.64-3.48,4-6.7,4-1.1,0-2.85-.23-2.85-2.38,0-1.42,1.94-2.37,4.3-2.37H118Z"/><path class="cls-1" d="M31.9,29c6.73,0,10.93,2.12,13.25,5.49h0l-6,2.31c-1.31-1.82-3.5-3-7.15-3.07h-.16c-3.6,0-5.76,1.17-7.07,2.92h0A9.51,9.51,0,0,0,23,42.43h0v.37h0a9.73,9.73,0,0,0,1.79,5.72h0c1.31,1.75,3.47,2.89,7.07,2.91H32c3.59,0,5.77-1.18,7.08-3h0l6.09,2.32c-2.33,3.31-6.57,5.33-13.22,5.33h0c-5.92,0-9.9-1.56-12.33-4.25h0a13.36,13.36,0,0,1-3.34-9.19h0v-.24a13.32,13.32,0,0,1,3.34-9.12h0C22,30.63,26,29,31.9,29Z"/><path class="cls-1" d="M198.93,52.55V29.78h-5.75V52.55a10.19,10.19,0,0,0,.6,3.13h5.75A10.56,10.56,0,0,1,198.93,52.55Z"/><path class="cls-1" d="M179.72,44.18c0-3,2.26-4.66,6.22-4.66.66,0,3.26.34,4.37.47-.06-.5-.46-3-.62-4a25.89,25.89,0,0,0-3.75-.47,9,9,0,0,0-6.31,2.17L179.14,36h-5.77a11.16,11.16,0,0,1,.61,3.12V55.67h5.74Z"/><path class="cls-1" d="M88.12,35.58a11.68,11.68,0,0,0-6.37,2.1s-.3-1.16-.43-1.7H75.54a12.76,12.76,0,0,1,.61,3.57V62H81.9V54.16a10.62,10.62,0,0,0,6.22,1.93c9.62,0,11-4.59,11-10.25S97.74,35.58,88.12,35.58Zm0,16.59c-4.89,0-6.22-2.77-6.22-6.33.09-3.8,1.33-6.29,6.22-6.29,4.41,0,5.27,2.77,5.27,6.29S92.53,52.17,88.12,52.17Z"/><path class="cls-1" d="M285.24,36.61v4.47a15.76,15.76,0,0,0-3.52-1.37,14.82,14.82,0,0,0-3.67-.46,7.5,7.5,0,0,0-3.09.5,1.59,1.59,0,0,0-1,1.47c0,.93,1.5,1.69,4.48,2.27l.23.06,1.75.35a9.77,9.77,0,0,1,4.9,2.14,5.21,5.21,0,0,1,1.55,4,5,5,0,0,1-2.37,4.54c-1.58,1-4,1.51-7.13,1.51a30.62,30.62,0,0,1-4.32-.31,35,35,0,0,1-4.49-.91V50.37a20.71,20.71,0,0,0,4.12,1.47,17.16,17.16,0,0,0,4.06.51,7.71,7.71,0,0,0,3.26-.53,1.64,1.64,0,0,0,1.11-1.52,1.71,1.71,0,0,0-.78-1.5,12.89,12.89,0,0,0-3.73-1.12l-1.69-.31a10.9,10.9,0,0,1-5.13-2.07,4.86,4.86,0,0,1-1.6-3.8,5,5,0,0,1,2.45-4.4,12.61,12.61,0,0,1,6.87-1.57,29.28,29.28,0,0,1,4,.27A26.84,26.84,0,0,1,285.24,36.61Z"/><path class="cls-1" d="M210.42,52.55V36h-5.75v16.6a9.61,9.61,0,0,0,.63,3.13H211A10.94,10.94,0,0,1,210.42,52.55Zm-2.89-18.11a4.59,4.59,0,0,0,2.56-.51,2.17,2.17,0,0,0,.68-1.86,2.14,2.14,0,0,0-.66-1.79,4.56,4.56,0,0,0-2.54-.5,4.48,4.48,0,0,0-2.57.52,2.21,2.21,0,0,0-.67,1.86,2.12,2.12,0,0,0,.65,1.78A4.56,4.56,0,0,0,207.53,34.44Z"/><path class="cls-1" d="M168.22,52.55V36h-5.74v16.6a9.61,9.61,0,0,0,.63,3.13h5.72A10.84,10.84,0,0,1,168.22,52.55Zm-2.88-18.11a4.55,4.55,0,0,0,2.55-.51,2.18,2.18,0,0,0,.69-1.86,2.14,2.14,0,0,0-.66-1.79,4.59,4.59,0,0,0-2.54-.5,4.46,4.46,0,0,0-2.57.52,2.22,2.22,0,0,0-.68,1.86,2.12,2.12,0,0,0,.65,1.78A4.62,4.62,0,0,0,165.34,34.44Z"/></g></svg>