<svg xmlns="http://www.w3.org/2000/svg" width="312.89" height="119.48" viewBox="0 0 312.89 119.48"><defs><style>.cls-1{fill:#fff;}</style></defs><title>Artboard 11</title><g id="Capa_3" data-name="Capa 3"><path class="cls-1" d="M35.52,52.51l.4-.73c3.48-6.33,6.36-13,12-17.7,2.42-2,8.31-3.27,7.15,2.84-1.86,6.85-10.65,14.26-18.58,15.45Zm15,9.32c2.78.13,10.86-2.86,10.76-7-.42-2.2-3-1.87-4.54-1.44-3.87,1.17-7.24,5.48-8.94,8.23a9.82,9.82,0,0,1-5.15,4.21,20.17,20.17,0,0,1-10.32.85c-2.1-.36-2.81-.56-6.48-1.45,4-3.24,6.52-7.88,9.37-12,4.88-.63,14.47-3.18,19.84-13,1.78-3.24,2.38-7.86-2-8.62-2.53-.45-4.74.64-7.18,2.34-6.93,4.81-10.56,11.92-14.11,19a15.63,15.63,0,0,1-4.54-.13,16.76,16.76,0,0,1-6.36-2.61C17.67,48.1,14.77,43,16.36,36.81l-.86.34c-1,2.86-.4,6.78,1.29,9.77,1.57,2.78,3.52,4.29,6.93,5.63,1,.4,2.47,1,6.8,1.14l1,0-.53,1a70.07,70.07,0,0,1-3.66,6.43c-.16.23-.41.64-.6.9-.82,1.08-1.48,1.84-2.4,2.87-4.48-1.24-10-2-13.21-.74,0,0-2.25.65-2.33,2.52-.11,2.42,3.82,3,3.82,3,4,.67,7.78-.78,11.78-3.39,3.84,1.33,8.49,4.33,13.22,3.71A9.75,9.75,0,0,0,40.88,69,13.84,13.84,0,0,0,43.3,67.6a19.5,19.5,0,0,0,4.08-4.52,6.36,6.36,0,0,0-.18,4,3.49,3.49,0,0,0,2.58,2.37c4.95,1.12,8.79-2.67,11.62-6.54l-.52,0c-1.71,2.32-5.89,7-10.31,5.9-2.76-1.35-1.13-4.86-.07-7Zm.35-.66c1.26-2.21,3.66-6,6.92-7.46a1.65,1.65,0,0,1,2.32.71c.26.69.37,1.48-1.06,3a14.8,14.8,0,0,1-8.18,3.76ZM22,66.6c-1.44.85-5.56,2.88-8.8,2.41,0,0-3.63-.4-3.84-2-.25-1.9,1.87-2.5,3.24-2.76,2.8-.57,8.42.47,10.74,1.49l-.17.11L22,66.6Z"/><polygon class="cls-1" points="259.23 69.13 259.23 45.33 283.83 69.95 283.94 33.45 278.76 33.52 278.76 57.49 254.13 32.86 254.25 69.17 259.23 69.13"/><rect class="cls-1" x="169.69" y="33.45" width="5.61" height="35.68"/><rect class="cls-1" x="215.91" y="33.45" width="5.62" height="35.68"/><polygon class="cls-1" points="135.67 33.1 115.58 33.1 115.58 69.13 136.63 69.13 136.63 64.38 121.23 64.38 121.23 53.29 134.83 53.29 134.83 48.6 121.23 48.6 121.23 37.89 135.67 37.89 135.67 33.1"/><polygon class="cls-1" points="248.58 33.1 228.51 33.1 228.51 69.13 249.54 69.13 249.54 64.38 234.13 64.38 234.13 53.29 247.73 53.29 247.73 48.6 234.13 48.6 234.13 37.89 248.58 37.89 248.58 33.1"/><polygon class="cls-1" points="76.12 69.09 78.43 47.67 90.8 69.16 103.11 47.79 105.39 69.13 110.76 69.09 105.87 32.64 90.85 59.13 75.89 32.66 70.91 69.09 76.12 69.09"/><path class="cls-1" d="M155.32,53.67a9,9,0,0,0,4-3.15,10.8,10.8,0,0,0,2.4-6.71,10.16,10.16,0,0,0-3.66-7.9c-2.1-1.75-5.6-2.56-10.3-2.56H141.5V69h5.35V54.89h2.87L159.53,69h6.36Zm-6.67-3h-1.71V37.81h1.91c4.91,0,7.38,2.25,7.38,6.52S153.7,50.71,148.65,50.71Z"/><path class="cls-1" d="M203.79,38.07a15.28,15.28,0,0,0-6.06-3.55,27.18,27.18,0,0,0-8.48-1.07h-7.44V69.13h7.35a27.79,27.79,0,0,0,8.37-1,16.52,16.52,0,0,0,6.21-3.4,17.35,17.35,0,0,0,5.94-13.45A17.33,17.33,0,0,0,203.79,38.07ZM200,60.75a12.47,12.47,0,0,1-4.35,2.56,20.6,20.6,0,0,1-6.05.76h-2.41V38.52h2.41c4.6,0,8.07,1.1,10.44,3.26a12.53,12.53,0,0,1,4.15,9.51A12.33,12.33,0,0,1,200,60.75Z"/><path class="cls-1" d="M200.23,87v5.83h-2.16V78.51h2.45a11.41,11.41,0,0,1,2.72.25,3.73,3.73,0,0,1,1.64.95,4.07,4.07,0,0,1,1.24,3.05,3.94,3.94,0,0,1-1.32,3.13A5.22,5.22,0,0,1,201.24,87Zm0-2h.82c2,0,3-.76,3-2.3s-1-2.21-3.08-2.21h-.72Z"/><path class="cls-1" d="M216,89.39h-6.14l-1.61,3.48h-2.33L213,77.61l6.86,15.26h-2.37Zm-.89-2L213,82.47l-2.23,4.88Z"/><path class="cls-1" d="M221.94,92.87V77.54L232.4,88.49v-10h2.17V93.75L224.1,82.82V92.87Z"/><path class="cls-1" d="M246.83,89.39h-6.15l-1.6,3.48h-2.34l7.11-15.26,6.85,15.26h-2.37Zm-.89-2-2.13-4.88-2.23,4.88Z"/><path class="cls-1" d="M252.26,92.87l3-15.44,4.93,11.16,5.11-11.16L268,92.87h-2.22l-1.39-8.66-4.25,9.32L256,84.19l-1.54,8.68Z"/><path class="cls-1" d="M279.77,89.39h-6.15L272,92.87h-2.34l7.11-15.26,6.85,15.26h-2.37Zm-.88-2-2.13-4.88-2.23,4.88Z"/></g></svg>