<svg xmlns="http://www.w3.org/2000/svg" width="776.55" height="212.77" viewBox="0 0 776.55 212.77"><defs><style>.cls-1{fill:#fff;}.cls-2{fill:none;stroke:#fff;stroke-miterlimit:10;stroke-width:1.74px;}</style></defs><title>Artboard 5</title><g id="Capa_3" data-name="Capa 3"><path class="cls-1" d="M98.86,146.23h4.91a11,11,0,0,1,2.34.23,5,5,0,0,1,1.79.77,3.61,3.61,0,0,1,1.15,1.36,4.52,4.52,0,0,1,.4,2,4.36,4.36,0,0,1-.47,2.11,3.85,3.85,0,0,1-1.26,1.37,5.42,5.42,0,0,1-1.86.75,10.3,10.3,0,0,1-2.26.24h-2.06v6.23H98.86Zm4.55,6.57a8.26,8.26,0,0,0,1.25-.09,3.73,3.73,0,0,0,1.07-.34,2,2,0,0,0,.74-.67,2,2,0,0,0,.28-1.11,1.8,1.8,0,0,0-1-1.72,3.08,3.08,0,0,0-1-.31,9.44,9.44,0,0,0-1.2-.07h-2v4.31Z"/><path class="cls-1" d="M140.08,146.23h2.32l6.49,15.06h-3.07l-1.4-3.45h-6.53l-1.36,3.45h-3Zm3.4,9.32-2.31-6.13-2.37,6.13Z"/><path class="cls-1" d="M175.18,146.23h3.55l7,11.27h0V146.23h2.68v15.06h-3.4l-7.15-11.64h0v11.64h-2.68Z"/><path class="cls-1" d="M221.29,146.23h2.32l6.49,15.06H227l-1.4-3.45H219.1l-1.36,3.45h-3Zm3.41,9.32-2.32-6.13L220,155.55Z"/><path class="cls-1" d="M256.39,146.23h4.19l3.92,10.7h.06l3.87-10.7h4.21v15.06H270v-12.1h0l-4.57,12.1H263.5L259,149.19h-.05v12.1h-2.55Z"/><path class="cls-1" d="M305.49,146.23h2.31l6.49,15.06h-3.06l-1.4-3.45H303.3l-1.37,3.45h-3Zm3.4,9.32-2.32-6.13-2.36,6.13ZM307.61,142h2.9l-3,3.06h-2Z"/><path class="cls-1" d="M162.49,51.8l-16.49,0-16.16,25.8L113.68,51.79l-16.52,0,24.41,39.07L96,131.75l16.51,0,17.34-27.7,17.29,27.66h16.6L138.11,90.82Zm126.39,0h-7.1L250.61,131l-.31.79h16.62l4.2-12.43h28.46l4.29,12.43h16.51Zm-13.4,54.6,9.85-29.09,9.85,29.09ZM42.09,131.75H93.6V118.16H57.24V95.69H81.35v-13H57.24V65.34H93.6V51.75H42.09ZM222.67,51.8,206.9,103,191.08,51.74H182l-16.11,80h14.69l8.18-40.49,14.14,40.49h7.86L224.9,91.34,233,131.29l.09.46h14.73l-16.32-80Z"/><path class="cls-1" d="M320.31,131.73h24.9v-4.4H329.67l12.68-15.48a12.28,12.28,0,0,0,2.86-7.93,10.76,10.76,0,0,0-3.58-8.25,12.22,12.22,0,0,0-8.59-3.3,11.65,11.65,0,0,0-8.41,3.12,13,13,0,0,0-3.8,8.33h4.8a7.5,7.5,0,0,1,2.35-5A7.09,7.09,0,0,1,333,96.76a7.41,7.41,0,0,1,5.29,2.18,6.93,6.93,0,0,1,2.28,5.19c0,1.8-1.15,4.1-3.43,6.9Z"/><path class="cls-1" d="M357.61,92.29c-8.12,0-13.45,8.84-13.45,19.73s5.33,19.74,13.45,19.74,13.45-8.84,13.45-19.74S365.82,92.29,357.61,92.29Zm0,35.28c-5.34,0-8.84-7-8.84-15.61s3.5-15.62,8.84-15.62,8.84,7,8.84,15.62S363,127.57,357.61,127.57Z"/><path class="cls-1" d="M304.83,92.63h25.84V88.07H314.54L327.7,72a12.71,12.71,0,0,0,3-8.22A11.16,11.16,0,0,0,327,55.2,12.67,12.67,0,0,0,318,51.78,12.08,12.08,0,0,0,309.32,55a13.58,13.58,0,0,0-4,8.65h5a7.69,7.69,0,0,1,2.44-5.17A7.34,7.34,0,0,1,318,56.34a7.67,7.67,0,0,1,5.49,2.26A7.15,7.15,0,0,1,325.89,64c0,1.88-1.18,4.26-3.55,7.16Z"/><path class="cls-1" d="M343.54,51.7c-8.43,0-14,9.17-14,20.48s5.53,20.48,14,20.48,14-9.17,14-20.48S352.06,51.7,343.54,51.7Zm0,36.61c-5.54,0-9.17-7.25-9.17-16.2S338,55.9,343.54,55.9s9.18,7.26,9.18,16.21S349.1,88.31,343.54,88.31Z"/><path class="cls-1" d="M526.79,119.1v-66h-.53L514,58.84c-1.17.56-1.92,0-1.92-1.24v-3a1.74,1.74,0,0,1,1.28-1.9L527.54,46a4.21,4.21,0,0,1,2-.44h2.35a1.5,1.5,0,0,1,1.6,1.68V119.1a1.5,1.5,0,0,1-1.6,1.68h-3.52A1.55,1.55,0,0,1,526.79,119.1Z"/><path class="cls-1" d="M552.16,98.56V67.81c0-14.25,9.7-23.56,24.41-23.56s24.31,9.31,24.31,23.56V98.56c0,14.25-9.6,23.57-24.31,23.57S552.16,112.81,552.16,98.56Zm42-.22V68c0-10.44-7-17.17-17.59-17.17S558.88,57.6,558.88,68v30.3c0,10.43,7,17.16,17.69,17.16S594.16,108.77,594.16,98.34Z"/><path class="cls-1" d="M616.55,91.15v-3a1.55,1.55,0,0,1,1.59-1.68H643a1.55,1.55,0,0,1,1.6,1.68v3a1.56,1.56,0,0,1-1.6,1.69H618.14A1.56,1.56,0,0,1,616.55,91.15Z"/><path class="cls-1" d="M667.82,119.1v-66h-.53L655,58.84c-1.18.56-1.92,0-1.92-1.24v-3a1.73,1.73,0,0,1,1.28-1.9L668.56,46a4.22,4.22,0,0,1,2-.44h2.34a1.5,1.5,0,0,1,1.6,1.68V119.1a1.5,1.5,0,0,1-1.6,1.68h-3.51A1.55,1.55,0,0,1,667.82,119.1Z"/><path class="cls-1" d="M705,119.1v-66h-.53l-12.26,5.73c-1.18.56-1.92,0-1.92-1.24v-3a1.74,1.74,0,0,1,1.28-1.9L705.77,46a4.18,4.18,0,0,1,2-.44h2.35a1.49,1.49,0,0,1,1.59,1.68V119.1a1.49,1.49,0,0,1-1.59,1.68h-3.52A1.55,1.55,0,0,1,705,119.1Z"/><path class="cls-1" d="M529.69,169.44v-.83a.53.53,0,0,1,.56-.6h1.16a2.85,2.85,0,0,0,3-3.11V143.78a.55.55,0,0,1,.56-.6h1.13a.53.53,0,0,1,.56.6v21.47a4.49,4.49,0,0,1-4.8,4.78h-1.61A.54.54,0,0,1,529.69,169.44Zm4.23-32.14a1.62,1.62,0,1,1,3.23,0,1.62,1.62,0,1,1-3.23,0Z"/><path class="cls-1" d="M557.43,143.78v18.55a.54.54,0,0,1-.56.59h-1.13a.55.55,0,0,1-.56-.59v-2.61H555a5.61,5.61,0,0,1-5.63,3.68c-3.64,0-6.07-2.49-6.07-6.32v-13.3a.55.55,0,0,1,.56-.6H545a.55.55,0,0,1,.57.6v12.55c0,2.92,1.83,4.85,4.65,4.85a4.8,4.8,0,0,0,5-4.81V143.78a.55.55,0,0,1,.56-.6h1.13A.55.55,0,0,1,557.43,143.78Z"/><path class="cls-1" d="M579.07,149.11v13.22a.55.55,0,0,1-.57.59h-1.12a.53.53,0,0,1-.56-.59V149.9a4.66,4.66,0,0,0-4.91-5,5,5,0,0,0-5.25,4.94v12.47a.53.53,0,0,1-.56.59H565a.54.54,0,0,1-.56-.59V143.78a.55.55,0,0,1,.56-.6h1.13a.53.53,0,0,1,.56.6v2.68h.19a5.92,5.92,0,0,1,5.88-3.75A6,6,0,0,1,579.07,149.11Z"/><path class="cls-1" d="M585.3,137.3a1.61,1.61,0,1,1,3.22,0,1.61,1.61,0,1,1-3.22,0Zm.48,25V143.78a.55.55,0,0,1,.56-.6h1.13a.55.55,0,0,1,.56.6v18.55a.54.54,0,0,1-.56.59h-1.13A.55.55,0,0,1,585.78,162.33Z"/><path class="cls-1" d="M594.14,156.25v-6.39c0-4.31,3-7.15,7.43-7.15s7.42,2.84,7.42,7.15v6.39c0,4.3-2.92,7.15-7.42,7.15S594.14,160.55,594.14,156.25Zm12.6,0V149.9c0-3-2-5-5.17-5s-5.18,2-5.18,5v6.31c0,3,2.06,5,5.18,5S606.74,159.21,606.74,156.21Z"/><path class="cls-1" d="M623.5,161.86v-2.18a1.63,1.63,0,0,1,.53-1.3l8.43-9c2.25-2.37,3.34-4.06,3.34-5.6,0-1.82-1.39-3.16-3.67-3.16s-3.79,1.3-3.79,3.39v.36a.86.86,0,0,1-.94.95h-2.92a.92.92,0,0,1-1-1v-.75c0-4.5,3.45-7.54,8.7-7.54s8.55,3,8.55,7.22c0,2.53-1,5-3.79,7.9L630.55,158v.27h9a.94.94,0,0,1,1,1.07v2.49a.93.93,0,0,1-1,1.06H624.51A.93.93,0,0,1,623.5,161.86Z"/><path class="cls-1" d="M646.08,154.55v-9.71c0-5.33,3.63-8.84,9.18-8.84s9.19,3.51,9.19,8.84v9.71c0,5.33-3.64,8.85-9.19,8.85S646.08,159.88,646.08,154.55Zm13.61-.12V145a4.43,4.43,0,0,0-8.85,0v9.47a4.43,4.43,0,0,0,8.85,0Z"/><path class="cls-1" d="M669.85,161.86v-2.18a1.66,1.66,0,0,1,.52-1.3l8.44-9c2.25-2.37,3.34-4.06,3.34-5.6,0-1.82-1.39-3.16-3.68-3.16s-3.79,1.3-3.79,3.39v.36a.86.86,0,0,1-.93.95h-2.93a.91.91,0,0,1-1-1v-.75c0-4.5,3.45-7.54,8.7-7.54s8.55,3,8.55,7.22c0,2.53-1,5-3.79,7.9L676.9,158v.27h9a.94.94,0,0,1,1,1.07v2.49a.93.93,0,0,1-1,1.06H670.86A.93.93,0,0,1,669.85,161.86Z"/><path class="cls-1" d="M692.42,154.55v-9.71c0-5.33,3.64-8.84,9.19-8.84s9.18,3.51,9.18,8.84v9.71c0,5.33-3.63,8.85-9.18,8.85S692.42,159.88,692.42,154.55Zm13.61-.12V145a4.43,4.43,0,0,0-8.85,0v9.47a4.43,4.43,0,0,0,8.85,0Z"/><line class="cls-2" x1="432.72" y1="28.63" x2="432.72" y2="183.09"/></g></svg>