<?xml version="1.0" encoding="utf-8"?>
<!-- Generator: Adobe Illustrator 16.0.3, SVG Export Plug-In . SVG Version: 6.00 Build 0)  -->
<!DOCTYPE svg PUBLIC "-//W3C//DTD SVG 1.1//EN" "http://www.w3.org/Graphics/SVG/1.1/DTD/svg11.dtd">
<svg version="1.1" id="Capa_1" xmlns="http://www.w3.org/2000/svg" xmlns:xlink="http://www.w3.org/1999/xlink" x="0px" y="0px"
	 width="154px" height="66px" viewBox="0 0 154 66" enable-background="new 0 0 154 66" xml:space="preserve">
<path fill="#FFFFFF" d="M8.107,10.982v10.216h13.347v6.582H8.107v13.076h20.124v6.882H0.36V4.101h27.871v6.881H8.107z M66.79,47.737
	L52.811,25.406L66.105,4.13l-8.377-0.02l-9.119,14.556L39.487,4.126L31.1,4.106l13.306,21.3L30.448,47.737l8.388,0.019l9.773-15.605
	l9.748,15.586H66.79z M153.596,47.638l-17.18-43.632L132.921,4l-17.174,43.638h8.501l2.322-6.883h16.213l2.374,6.883H153.596z
	 M140.563,34.221H128.77l5.895-17.413L140.563,34.221z M104.628,4.101l-4.405,0.027l-8.965,29.087L82.265,4.101h-4.51l-8.787,43.641
	h7.478l4.706-23.288l8.135,23.292h3.898l8.114-23.252l4.73,23.248h7.504L104.628,4.101z"/>
<path fill="#FFFFFF" d="M31.098,55.671h1.959c0.28,0,0.55,0.027,0.811,0.082c0.26,0.056,0.49,0.147,0.688,0.276
	c0.197,0.129,0.354,0.302,0.473,0.519c0.118,0.217,0.177,0.486,0.177,0.811c0,0.367-0.063,0.665-0.189,0.889
	c-0.126,0.226-0.296,0.4-0.51,0.523c-0.214,0.124-0.463,0.207-0.745,0.25c-0.283,0.045-0.578,0.068-0.885,0.068h-0.74v2.41h-1.038
	V55.671z M32.761,58.197c0.148,0,0.302-0.005,0.46-0.016c0.159-0.011,0.307-0.043,0.44-0.099c0.135-0.054,0.245-0.138,0.33-0.246
	c0.085-0.111,0.128-0.265,0.128-0.462c0-0.182-0.038-0.325-0.116-0.432c-0.076-0.106-0.175-0.188-0.295-0.248
	c-0.121-0.057-0.256-0.094-0.404-0.111c-0.147-0.017-0.291-0.024-0.428-0.024h-0.74v1.638H32.761z"/>
<path fill="#FFFFFF" d="M40.697,55.671h0.897l2.511,5.828H42.92l-0.544-1.332H39.85l-0.527,1.332h-1.161L40.697,55.671z
	 M42.015,59.277l-0.897-2.372l-0.915,2.372H42.015z"/>
<polygon fill="#FFFFFF" points="48.048,55.671 49.423,55.671 52.247,60 52.264,60 52.264,55.671 53.3,55.671 53.3,61.499 
	51.983,61.499 49.103,57.028 49.086,57.028 49.086,61.499 48.048,61.499 "/>
<path fill="#FFFFFF" d="M59.78,55.671h0.896l2.511,5.828h-1.186l-0.543-1.332h-2.527l-0.526,1.332h-1.16L59.78,55.671z
	 M61.097,59.277l-0.898-2.372l-0.913,2.372H61.097z"/>
<polygon fill="#FFFFFF" points="67.155,55.671 68.736,55.671 70.292,59.754 71.864,55.671 73.427,55.671 73.427,61.499 
	72.44,61.499 72.44,56.658 72.424,56.658 70.654,61.499 69.929,61.499 68.16,56.658 68.143,56.658 68.143,61.499 67.155,61.499 "/>
<path fill="#FFFFFF" d="M79.932,55.67h0.898l2.51,5.829h-1.185l-0.545-1.332h-2.526l-0.528,1.332h-1.161L79.932,55.67z
	 M81.248,59.277l-0.896-2.372l-0.915,2.372H81.248z M80.796,54.092h1.12l-1.161,1.185h-0.772L80.796,54.092z"/>
<path fill="#FFFFFF" d="M92.847,60.454l2.267-2.19c0.063-0.066,0.133-0.136,0.203-0.208c0.071-0.074,0.137-0.154,0.195-0.236
	c0.056-0.082,0.105-0.169,0.145-0.26c0.037-0.091,0.057-0.185,0.057-0.283c0-0.12-0.022-0.228-0.071-0.321
	c-0.046-0.093-0.107-0.172-0.184-0.237c-0.077-0.066-0.166-0.117-0.268-0.153c-0.102-0.034-0.21-0.054-0.325-0.054
	c-0.247,0-0.451,0.071-0.608,0.214c-0.16,0.143-0.255,0.334-0.289,0.577l-1.037-0.082c0.021-0.271,0.085-0.508,0.194-0.713
	c0.105-0.207,0.245-0.377,0.414-0.515c0.171-0.137,0.369-0.241,0.594-0.313c0.225-0.07,0.47-0.106,0.732-0.106
	c0.264,0,0.509,0.034,0.735,0.102c0.229,0.07,0.429,0.173,0.597,0.305c0.171,0.136,0.305,0.307,0.404,0.517
	c0.099,0.208,0.149,0.451,0.149,0.731c0,0.368-0.085,0.686-0.252,0.951c-0.168,0.267-0.383,0.52-0.646,0.762l-1.805,1.671h2.702
	v0.889h-3.904V60.454z"/>
<path fill="#FFFFFF" d="M100.858,58.586c0-0.462,0.037-0.855,0.11-1.183c0.074-0.325,0.171-0.601,0.293-0.823
	c0.119-0.222,0.256-0.4,0.406-0.535c0.151-0.133,0.305-0.235,0.462-0.304c0.155-0.068,0.307-0.113,0.451-0.136
	c0.146-0.021,0.274-0.033,0.385-0.033s0.237,0.012,0.382,0.033c0.145,0.022,0.297,0.067,0.454,0.136
	c0.155,0.068,0.309,0.171,0.46,0.304c0.15,0.135,0.287,0.313,0.407,0.535c0.121,0.223,0.219,0.498,0.293,0.823
	c0.073,0.327,0.109,0.721,0.109,1.183c0,0.46-0.036,0.854-0.109,1.182c-0.074,0.326-0.172,0.6-0.293,0.822
	c-0.12,0.223-0.257,0.4-0.407,0.535c-0.151,0.135-0.305,0.236-0.46,0.304c-0.157,0.068-0.31,0.114-0.454,0.137
	c-0.145,0.021-0.271,0.033-0.382,0.033s-0.238-0.012-0.385-0.033c-0.145-0.022-0.296-0.068-0.451-0.137
	c-0.157-0.067-0.311-0.169-0.462-0.304c-0.15-0.135-0.287-0.313-0.406-0.535c-0.122-0.223-0.219-0.496-0.293-0.822
	C100.896,59.44,100.858,59.046,100.858,58.586 M101.846,58.586c0,0.18,0.012,0.391,0.038,0.628c0.025,0.24,0.075,0.466,0.15,0.68
	c0.077,0.214,0.19,0.396,0.337,0.544c0.149,0.147,0.348,0.222,0.595,0.222c0.246,0,0.444-0.074,0.592-0.222
	c0.148-0.148,0.26-0.33,0.339-0.544c0.074-0.214,0.127-0.439,0.151-0.68c0.025-0.237,0.037-0.448,0.037-0.628
	c0-0.183-0.012-0.393-0.037-0.63c-0.024-0.239-0.077-0.466-0.151-0.68c-0.079-0.214-0.19-0.396-0.339-0.543
	c-0.147-0.149-0.346-0.223-0.592-0.223c-0.247,0-0.445,0.073-0.595,0.223c-0.146,0.146-0.26,0.329-0.337,0.543
	c-0.075,0.214-0.125,0.44-0.15,0.68C101.857,58.193,101.846,58.403,101.846,58.586"/>
<path fill="#FFFFFF" d="M109.181,60.454l2.264-2.19c0.066-0.066,0.135-0.136,0.205-0.208c0.071-0.074,0.137-0.154,0.194-0.236
	s0.106-0.169,0.146-0.26c0.036-0.091,0.056-0.185,0.056-0.283c0-0.12-0.023-0.228-0.069-0.321c-0.047-0.093-0.108-0.172-0.187-0.237
	c-0.077-0.066-0.165-0.117-0.267-0.153c-0.102-0.034-0.209-0.054-0.325-0.054c-0.246,0-0.449,0.071-0.609,0.214
	c-0.158,0.143-0.256,0.334-0.287,0.577l-1.038-0.082c0.021-0.271,0.087-0.508,0.193-0.713c0.108-0.207,0.247-0.377,0.417-0.515
	c0.169-0.137,0.367-0.241,0.592-0.313c0.225-0.07,0.469-0.106,0.732-0.106c0.263,0,0.51,0.034,0.737,0.102
	c0.229,0.07,0.426,0.173,0.597,0.305c0.169,0.136,0.305,0.307,0.403,0.517c0.1,0.208,0.147,0.451,0.147,0.731
	c0,0.368-0.083,0.686-0.251,0.951c-0.167,0.267-0.383,0.52-0.646,0.762l-1.802,1.671h2.698v0.889h-3.901V60.454z"/>
<path fill="#FFFFFF" d="M117.348,60.454l2.264-2.19c0.065-0.066,0.134-0.136,0.206-0.208c0.071-0.074,0.135-0.154,0.192-0.236
	s0.106-0.169,0.146-0.26c0.037-0.091,0.058-0.185,0.058-0.283c0-0.12-0.024-0.228-0.07-0.321c-0.048-0.093-0.11-0.172-0.187-0.237
	c-0.075-0.066-0.166-0.117-0.267-0.153c-0.101-0.034-0.21-0.054-0.325-0.054c-0.248,0-0.45,0.071-0.609,0.214
	c-0.16,0.143-0.256,0.334-0.289,0.577l-1.037-0.082c0.023-0.271,0.087-0.508,0.194-0.713c0.106-0.207,0.244-0.377,0.415-0.515
	c0.17-0.137,0.368-0.241,0.594-0.313c0.226-0.07,0.469-0.106,0.732-0.106c0.263,0,0.509,0.034,0.737,0.102
	c0.227,0.07,0.427,0.173,0.596,0.305c0.169,0.136,0.306,0.307,0.403,0.517c0.099,0.208,0.147,0.451,0.147,0.731
	c0,0.368-0.084,0.686-0.25,0.951c-0.166,0.267-0.384,0.52-0.646,0.762l-1.804,1.671h2.699v0.889h-3.9V60.454z"/>
</svg>
