<svg xmlns="http://www.w3.org/2000/svg" viewBox="0 0 757.28 249.39"><defs><style>.cls-1{fill:#fff;}</style></defs><g id="Capa_2" data-name="Capa 2"><g id="EXMA_FIG_WEB" data-name="EXMA FIG WEB"><g id="PORTADA"><path class="cls-1" d="M430.6,219.88,451,199.06v2.47l-18,18.35ZM373.72,96.39l-10.66,10.86v2.47l13.08-13.33Zm25.42,0L371,125.08h2.42l28.14-28.69Zm25.43,0-28.13,28.69h2.42L427,96.39Zm-8.88,89.31,35.33-36v-2.47l-35.33,36ZM504,121.56v-2.47l-5.87,6h2.42Zm-88.34,90.07,35.33-36v-2.47l-35.33,36Zm0-38.89,35.33-36v-2.47l-35.33,36Zm30.05,47.14,5.28-5.39V212l-7.71,7.86ZM386.43,96.39l-23.37,23.83v2.47l25.79-26.3Zm25.43,0-28.14,28.69h2.43l28.13-28.69Zm-48.8,0v.37l.37-.37Zm52.63,102.28,35.33-36v-2.47l-35.33,36ZM504,108.6v-2.47l-18.59,19h2.43ZM420.31,219.88,451,188.57v-2.48l-33.13,33.79Zm-4.62-27.7,35.33-36v-2.47l-35.33,36Zm0,25.93,35.33-36v-2.48l-35.33,36Zm23.69,1.77L451,208v-2.47L437,219.88ZM405.5,96.39l-28.14,28.69h2.43l28.14-28.69Zm-25.43,0-17,17.34v2.48L382.5,96.39Zm35.62,69.87,35.33-36v-2.47l-35.33,36ZM504,112.61,491.8,125.08h2.42l9.81-10Zm-88.34,92.54,35.33-36v-2.47l-35.33,36Zm11,14.73L451,195.05v-2.47l-26.78,27.3Zm24.35,0V218.5l-1.35,1.38ZM367.36,96.39l-4.3,4.38v2.47l6.72-6.85Zm50.86,0-28.14,28.69h2.42l28.14-28.69Zm-25.43,0-28.14,28.69h2.42l28.14-28.69Zm22.9,82.83,35.33-36v-2.48l-35.33,36ZM566.6,135.55l24.22-24.7-.79-1.67-24.2,24.68Zm8.1,17.66,24.37-24.84-.79-1.67-24.35,24.83Zm48.32,26L598.16,204.6l.77,1.69,24.88-25.36Zm11,40.62h2.42L640.3,216l-.78-1.67Zm-51.24-49,24.51-25-.78-1.67-24.5,25Zm48.47,25.89-22.66,23.11H611l21-21.44Zm-60.62-52.39,24.29-24.77-.78-1.67L569.88,142.7Zm8.1,17.67,24.44-24.92-.78-1.67L578,160.36Zm48.4,26-25,25.45.77,1.69,25-25.47Zm8.24,17.52-14.07,14.35h2.43l12.43-12.68Zm-2.06-4.38L615,219.88h2.42l16.73-17.06Zm-56.6-43.52,24.4-24.88-.79-1.67L576,156Zm48.35,26L600.17,209l.77,1.69,24.93-25.42ZM568.63,140l24.25-24.73-.78-1.67-24.25,24.72Zm71.76,79.92h1.76l-.57-1.21Zm-2.94-10-9.77,10h2.42l8.14-8.3Zm-56.67-43.45,24.47-25-.78-1.67L580,164.78Zm48.43,25.93-25,25.5.77,1.69,25-25.52ZM572.68,148.8,597,124l-.79-1.67L571.9,147.11ZM621,174.88l-24.81,25.3.76,1.68,24.84-25.31Zm57.91-78.49L650.51,125.3v2.48L681.3,96.39Zm7,18.82-35.34,36v2.47l35.34-36ZM653.44,96.39l-2.93,3v2.47l5.36-5.46Zm32.41,44.74-35.34,36v2.47l35.34-36Zm0-38.89-35.34,36v2.47l35.34-36Zm0,25.93-35.34,36v2.48l35.34-36ZM666.16,96.39l-15.65,16v2.47l18.07-18.42Zm19.69,57.7-35.34,36v2.47l35.34-36Zm0-6.48-35.34,36v2.47l35.34-36ZM659.8,96.39l-9.29,9.47v2.47l11.71-11.94Zm26.05,25.3-35.34,36v2.47l35.34-36Zm0-25.3h-.62l-34.72,35.4v2.47l35.34-36Zm-13.34,0-22,22.43v2.48l24.43-24.91Zm13.34,38.26-35.34,36v2.48l35.34-36Zm0-25.93-35.34,36v2.47l35.34-36Zm-521.7-6.08-35.53,36.22v2.47l35.53-36.22Zm0,6.48-35.53,36.22v2.48l35.53-36.22Zm-6.59-12.73L128.62,125.9v2.47l31.37-32Zm6.59,0h-.23l-35.3,36v2.47l35.53-36.22Zm0,25.7-35.53,36.22v2.47l35.53-36.22Zm0,6.48-35.53,36.22v2.47L164.15,131Zm0,6.48-35.53,36.22v2.47l35.53-36.22Zm0-19.44-35.53,36.22v2.47l35.53-36.22ZM151.21,96.39l-22.59,23v2.47l25-25.5Zm12.94,77.55-.57.58h-3.93l4.5-4.59v-2.47l-6.93,7.06h-3.93l10.86-11.07V161l-13.29,13.54h-3.93L164.15,157v-2.48l-19.64,20h-3.94l23.58-24V148l-26,26.51h-3.93L164.15,144v-2.47l-32.36,33h-3.15v3.21l0,0v2.47l0,0v4l0,0v2.47l0,0v4l0,0v2.48l0,0v4l0,0v2.47l0,0v4l0,0v2.47l0,0v4l0,0v2.47l0,0v4l0,0v2.47l0,0v.78h35.53V174.52h0Zm-32-77.55L128.62,100v2.47l5.94-6Zm12.72,0-16.23,16.55v2.47l18.65-19Zm-6.36,0-9.87,10.06v2.48l12.3-12.54Zm216.4,6.25-35.52,36.22v2.47l35.52-36.22Zm-19.3-6.25-16.22,16.55v2.47l18.65-19Zm19.3,32.18-35.52,36.22v2.47L354.89,131Zm0-13-35.52,36.22v2.47l35.52-36.22Zm-6.58-19.22L319.37,125.9v2.47l31.36-32Zm-25.43,0L319.37,100v2.47l5.93-6Zm32,38.66-35.52,36.22v2.47l35.52-36.22ZM342,96.39l-22.58,23v2.47l25-25.5Zm12.94,12.73-35.52,36.22v2.48l35.52-36.22ZM329.24,96.39l-9.87,10.06v2.48l12.29-12.54Zm25.65,0h-.22l-35.3,36v2.47l35.52-36.22Zm0,25.7-35.52,36.22v2.47l35.52-36.22Zm0,51.85-.57.58h-3.93l4.5-4.59v-2.47L348,174.52H344l10.86-11.07V161l-13.28,13.54h-3.93L354.89,157v-2.48l-19.64,20h-3.93l23.57-24V148l-26,26.51H325L354.89,144v-2.47l-32.35,33h-3.16v5.7h0v4h0v2.47h0v4h0v28.4h0v.77h35.53V174.52h0Zm130.39-52.71L504,102.12V99.65l-18.75,19.11v-4l18-18.36h-2.43l-15.58,15.89v-4l11.65-11.88h-2.42l-9.23,9.41v-4l5.29-5.4h-2.42l-2.87,2.93V96.39H430.93l-28.14,28.69h2.43l26.84-27.37v4l-22.91,23.36h2.43l20.48-20.89v4l-16.55,16.88h.18v2.29l16.37-16.7v4l-16.37,16.7v2.47l16.37-16.7v4l-16.37,16.7v2.47l16.37-16.7v1.45h2.52l-18.89,19.26v2.47L437,125.08h3.93l-25.25,25.74v2.47l27.68-28.21h3.93L415.69,157.3v2.48l34-34.7h35.56Zm109.63,76.2,24.78-25.26-.79-1.67-24.76,25.24L592.89,193l24.73-25.21-.78-1.67-24.72,25.2-1.25-2.74,24.69-25.17-.78-1.67-24.67,25.15-1.25-2.74L613.5,159l-.79-1.67-24.62,25.1-1.25-2.74,24.6-25.07-.79-1.67L586.07,178l-1.24-2.74,24.55-25-.79-1.67-24.53,25,0-.09H543.94l20.22-43.29.41.9,24.19-24.66L588,104.8,565.2,128l3.58-7.65,17.92-18.28-.79-1.67L571,115.64l3.58-7.66,10.08-10.27L584,96.39h-.5l-6.74,6.87L580,96.39h-36l-1.32,2.8,0,0L540.36,104h0l-3.63,7.71h0l-2.24,4.76,0,0-3.63,7.71v0l-2.24,4.75v0L525,136.58v0l-2.24,4.75h0l-3.63,7.71h0l-2.24,4.76,0,0-3.63,7.71,0,0L511,166.28h0l-3.63,7.7v0l-2.24,4.75h0l-3.63,7.71h0l-2.24,4.76,0,0-3.63,7.71,0,0-2.24,4.75h0l-3.63,7.71h0l-2.23,4.75h0l-1.77,3.75h37.05l8.6-18.55,2.3-2.34h61.86Zm90.94-7.19V160.41l-35.34,36v.17h0v2.47h0v4h0v2.47h0v4h0V212h0v4h0v2.47h0v1.36H757.28V190.24ZM241.27,95.31l-64.91,66.17c0,.8.06,1.59.11,2.36L243.89,95.1Zm-7.15.81L176.36,155c0,.84,0,1.68-.05,2.53l60.58-61.77C236,95.87,235,96,234.12,96.12Zm-26.27,7.34-26.67,27.19q-.8,1.93-1.47,4l32.33-33C210.6,102.22,209.2,102.82,207.85,103.46Zm5.5,54.67c0-.67,0-1.34,0-2L182.11,188c.26.56.53,1.11.8,1.65l30.45-31C213.36,158.47,213.35,158.3,213.35,158.13Zm.2,4.32-29.23,29.81c.3.52.6,1,.92,1.53l28.58-29.14C213.71,163.93,213.62,163.2,213.55,162.45Zm.93,5.55-27.64,28.17c.34.47.69.94,1,1.4L215,169.92C214.82,169.29,214.64,168.65,214.48,168Zm1.61,4.83-26.4,26.92c.37.44.76.87,1.16,1.29l26-26.54C216.6,174,216.34,173.4,216.09,172.83Zm-1.65-24.24-34.2,34.86c.22.6.44,1.2.68,1.79l32.91-33.56C214,150.62,214.19,149.59,214.44,148.59Zm33.62-53.72-71.29,72.68c.07.75.16,1.48.26,2.21l73.55-75Zm-20,35.83L252,106.33v4l-17.09,17.42c1.07-.35,2.19-.65,3.34-.93l13.75-14v4l-8.88,9.05c.9-.13,1.83-.25,2.77-.35l6.11-6.23v4l-1.85,1.89c.82,0,1.66-.07,2.51-.09h0l1.79,0h2.16l2.4,0h0l3.87.06h0l2.37,0h0l3.83.1h0l2.35.07h0l3.8.13h0l2.34.09h0l3.77.16h0l2.32.11h0l3.74.2h0l2.29.13h0c1.29.08,2.52.16,3.7.25l2.25.17h0c1.3.1,2.52.21,3.61.33h0l.18,0h0V96.58c-1.62-.18-3.54-.34-5.63-.5h0l-.37,0-1.78-.12h-.12l-3.7-.24h-.05l-1.91-.1-.34,0h0l-5.62-.28-.45,0h0l-5.61-.21-.52,0h0l-5.74-.18h-.43c-3.84-.1-7.34-.15-10.14-.16h-2.44c-.88,0-1.76,0-2.62,0v2.65l-74.4,75.84c.12.7.26,1.39.4,2.07l74-75.44v4l-73.24,74.66q.25,1,.54,1.92l37.55-38.28A27.18,27.18,0,0,1,228.06,130.7Zm41.54,25.53h0v3.42h0v31.17c-5.51.38-11.58.38-15.75.38-17.41,0-28.42-5.14-34.47-12.74q-.54-.7-1-1.44l-25.52,26c.42.39.84.78,1.28,1.17h0c.7.61,1.5,1.14,2.23,1.73l-.08.08c.45.36.92.71,1.39,1.06l.07-.08c.76.57,1.5,1.14,2.3,1.67l0,0,1.49.95.08-.08c.82.5,1.63,1,2.49,1.47l-.06.07q.78.43,1.59.84l0,0c.86.44,1.82.81,2.72,1.23l-.08.08,1.7.75.07-.08c.92.4,1.83.8,2.79,1.16l0,0c.58.22,1.18.44,1.79.65l.07-.08c1,.34,2,.68,3,1l0,.06,1.88.55h0c1,.29,2.14.5,3.19.76l-.08.07c.65.16,1.31.32,2,.46l.07-.07c1.07.24,2.11.51,3.22.73l0,0,2.06.37.07-.07c1.11.19,2.25.37,3.41.53l-.07.07,2.15.28,0,0c1.16.15,2.39.24,3.59.36l-.07.06,2.23.2.07-.07c1.21.1,2.38.24,3.63.31l0,0,.64,0h.1l1.56.08,0,0c1.25.06,2.55.08,3.83.11l-.07.07,2.38,0,.06,0c.79,0,1.52.06,2.33.06h1.54l2.44,0h0l4-.06h0l2.47,0h0l4-.09h0l2.49-.06h0l4.05-.12h0l2.5-.08h0l4.08-.14h0l2.52-.1h0c1.39-.06,2.76-.11,4.11-.18h0l2.54-.12h0l4.16-.23h0l2.59-.16h0c1.56-.11,3-.22,4.26-.33h0l1.63-.16h0V156.23ZM218,99.59l-39.82,40.6c-.24,1-.45,2.06-.64,3.12l43.82-44.68Q219.65,99.08,218,99.59ZM185.75,122l13.09-13.34A49.54,49.54,0,0,0,185.75,122Zm40.72-24.53L176.86,148c-.1.91-.19,1.82-.27,2.75l52.87-53.9C228.45,97,227.45,97.24,226.47,97.44ZM5,96.39l-5,5.08v2.47l7.41-7.55Zm30.35,79.24,1.13-1.16H35.34Zm59.38-28.14-25.3,25.8v-4l21.37-21.79H88.37l-19,19.32v-4l15-15.31H82L69.42,160.33v-4l8.65-8.83H75.65l-6.23,6.36v-4l2.3-2.35H33.58l1.76-1.79v-2.48l-4.19,4.27H27.22l8.12-8.28v-2.47L24.79,147.49h-3v3.06L0,172.77v2.47L21.8,153c0,1.23,0,2.58,0,4L0,179.25v2.47l21.81-22.24c0,1.34,0,2.68,0,4L0,185.73v2.47L21.82,166v4L0,192.21v2.48l21.81-22.25c0,1.27,0,2.07,0,2h2L0,198.7v2.47l26.19-26.7h3.93L0,205.18v2.47l32.54-33.18H70.69l26.46-27ZM0,96.39v1.07l1.05-1.07ZM0,214.13l35.34-36v-2.47L0,211.66Zm0,5.75H.72l34.62-35.29v-2.48L0,218.14Zm7.08,0,28.26-28.81v-2.48L4.65,219.88Zm82.68-45.41,13.4-13.66v-2.47L87.33,174.47Zm-15.14,0H77l26.12-26.62v-.36h-2.08Zm21.49,0,7-7.18v-2.47l-9.47,9.65Zm17-78.08H55.55v.3L0,153.32v2.48L55.55,99.16v4L0,159.81v2.47l35.34-36v-1.17h1.15l19.06-19.44v4L40.42,125.08h2.43l12.7-13v4l-8.77,9H49.2l6.35-6.48v4l-2.41,2.47h62.2V96.39h-2.28ZM83.4,174.47l19.76-20.14v-2.47L81,174.47Zm-70,45.41,21.91-22.33v-2.47L11,219.88Zm89-45.41.69-.7V171.3l-3.11,3.17ZM24.06,96.39,0,120.92v2.47l26.48-27Zm12.71,0L0,133.88v2.47l39.2-40Zm-6.36,0L0,127.4v2.47L32.84,96.39Zm-19.07,0L0,108v2.48l13.77-14Zm6.36,0L0,114.44v2.47L20.12,96.39Zm2.09,123.49L35.34,204v-2.47l-18,18.32Zm6.36,0,9.19-9.37V208L23.73,219.88Zm17-123.49L0,140.36v2.47L45.55,96.39ZM32.51,219.88,35.34,217v-2.47l-5.26,5.36Zm2.83-89.62L0,166.29v2.47l35.34-36ZM49.49,96.39,0,146.84v2.47L51.91,96.39Z"/><path class="cls-1" d="M138.47,228.85c1.81,0,5.58.12,7.24.31v5.21c-1.72-.19-5.73-.31-7.54-.31-3,0-4.42.34-4.42,1.2,0,2.54,12.82,0,12.82,8,0,4.17-3.5,6.16-10.83,6.16-1.83,0-6.59-.12-8.43-.31v-5.21c2,.19,6.53.31,8.89.31s3.62-.12,3.62-1c0-2.79-12.81.24-12.81-8C127,230.78,130.53,228.85,138.47,228.85ZM176.29,240V229.16h6.44v11.19c0,2.39,1.35,3.52,4.11,3.52s4.1-1.13,4.1-3.52V229.16h6.44V240c0,6.44-3.28,9.35-10.54,9.35S176.29,246.48,176.29,240Zm51.58,9V229.16h9.26l4,9.68,4-9.68h9.26v19.92h-6.44v-12.6l-3.68,9H238l-3.68-9v12.6Zm57.1,0V229.16h9.26l4,9.68,4-9.68h9.26v19.92H305v-12.6l-3.68,9h-6.23l-3.67-9v12.6Zm57.09,0V229.16h6.44v19.92Zm43.93,0V234.37h-8.22v-5.21h22.9v5.21h-8.25v14.71Zm79.49,0V229.16h12.73c6,0,8.49,2.11,8.49,7.45,0,4.69-2.85,7-8.8,7h-6v5.51Zm12.24-14.41h-5.8V239h5.8a2.15,2.15,0,1,0,0-4.3Zm35.63,14.41,9.39-19.92H530l9.38,19.92h-6.74L531.26,246h-9.75l-1.41,3.09Zm15.82-7.69-2.79-6.1-2.79,6.1Zm39.5,7.69V229.16h8l7.76,12.5v-12.5h6.44v19.92h-8l-7.76-12.51v12.51Zm51.43,0,9.38-19.92h7.3l9.38,19.92h-6.74L638,246h-9.75l-1.42,3.09Zm15.82-7.69-2.79-6.1-2.79,6.1Zm39.5,7.69V229.16h9.26l4,9.68,4-9.68h9.26v19.92h-6.44v-12.6l-3.68,9h-6.22l-3.68-9v12.6Zm55.72,0,9.38-19.92h7.3l9.38,19.92h-6.75L749,246h-9.75l-1.41,3.09Zm9.1-22.13V223.3l7.88-2.88v3.8ZM747,241.39l-2.78-6.1-2.79,6.1Z"/><path class="cls-1" d="M268,49.54H253.75l-6.3-16V15.29h8V42.9H268Zm14.61,0h8V15.29h-8Zm68.49,0h23.72V43H359.1V35.16h14V29h-14V21.82h15.75V15.29H351.13ZM324,31.11c-1.09,4-2,7.42-3.08,11.81h-.13c-1.07-4.39-1.95-7.85-3.06-11.81l-4.4-15.82h-8.27l10.07,34.25h11.45l10.07-34.25H328.4ZM11.89,9.92V24.64H31.13v9.48H11.89V53h29v9.91H.73V0H40.89V9.92Zm72.41,53-14-22.46L56.17,62.91l-12.08,0L64.2,30.7,45,0,57.11,0,70.26,21,83.4,0,95.47,0,76.31,30.7,96.46,62.88Zm137.25,0H209.39L206,53H182.6l-3.34,9.91H167L191.75,0h5ZM194.27,18.46l-8.5,25.09h17ZM163.82,62.89H153l-6.81-33.5L134.49,62.9h-5.61L117.15,29.33l-6.78,33.56H99.6L112.26,0h6.5l13,42L144.63,0,151,0Zm76.34,0,3.51,0L218.92,0h-3.53l24.76,62.87"/><path class="cls-1" d="M733.89,25,717.67,8.74H750.1Zm0,14.34L717.67,55.52h32.44ZM710.5,15.91V48.36l16.22-16.23Zm46.78,32.44V15.9L741.06,32.13Z"/></g></g></g></svg>